<?xml version="1.0" standalone="no"?> <!DOCTYPE svg PUBLIC "-//W3C//DTD SVG 1.0//EN" "http://www.w3.org/TR/2001/REC-SVG-20010904/DTD/svg10.dtd" > <svg xmlns="http://www.w3.org/2000/svg" width="100%" height="100%">
<defs >
<font horiz-adv-x="558" ><font-face
    font-family=""
    units-per-em="1000"
    panose-1="2 11 10 3 5 5 3 6 8 3"
    ascent="790"
    descent="-210"
    alphabetic="0" />
<missing-glyph horiz-adv-x="499" />
<glyph unicode=" " glyph-name="space" horiz-adv-x="157" />
<glyph unicode="!" glyph-name="exclam" horiz-adv-x="298" d="M31 693H267L236 237H61L31 693ZM51 172H247V0H51V172Z" />
<glyph unicode="&quot;" glyph-name="quotedbl" horiz-adv-x="468" d="M254 693H442L426 462H270L254 693ZM27 693H214L198 462H43L27 693Z" />
<glyph unicode="#" glyph-name="numbersign" horiz-adv-x="573" d="M59 543H146L168 693H298L276 543H353L374 693H504L483 543H546V394H461L448 303H513V153H427L405 0H275L297 153H221L199 0H69L91 153H27V303H112L125 394H59V543ZM242 303H318L331 394H255L242 303Z" />
<glyph unicode="$" glyph-name="dollar" horiz-adv-x="571" d="M157 -5Q115 0 81 8T23 30V183Q63 170 104 161T190 146L217 267Q170 275 134 289T71 329T32 392T18 484Q18 532 34 572T83 642T167 688T290 705H314L328 765H418L403 699Q441 694 466 686T510 669V516Q482
526 447 534T369 547L345 435Q398 426 437 412T502 374T540 314T553 226Q553 108 478 48T263 -12H246L223 -118H132L157 -5ZM360 199Q360 220 350 232T304 252L281 144Q326 148 343 162T360 199ZM205 501Q205 481 215 470T258 451L280 551Q237 549 221 537T205
501Z" />
<glyph unicode="%" glyph-name="percent" horiz-adv-x="959" d="M215 297Q173 297 137 309T74 345T33 407T18 495V503Q18 554 33 592T75 655T138 692T216 705Q257 705 293 693T356 656T399 594T415 506V498Q415 447 400 409T357 347T294 310T215 297ZM741 -10Q699
-10 663 2T600 38T559 100T544 187V195Q544 247 559 285T601 348T664 385T742 398Q783 398 819 386T882 349T925 287T941 199V190Q941 139 926 102T883 40T820 3T741 -10ZM632 713H772L316 -40H176L632 713ZM742 94Q767 94 776 112T786 184V200Q786 253 777 273T742
294Q717 294 708 274T698 202V186Q698 133 707 114T742 94ZM216 401Q241 401 250 419T260 491V507Q260 561 251 581T216 601Q191 601 182 582T172 509V493Q172 440 181 421T216 401Z" />
<glyph unicode="&amp;" glyph-name="ampersand" horiz-adv-x="749" d="M300 -12Q160 -12 89 42T17 197Q17 272 60 322T172 401Q151 432 142 460T132 519Q132 559 148 593T196 652T272 691T375 705Q431 705 473 693T543 659T585 608T599 542Q599 480 559 439T445
365L530 263Q549 303 561 357H720Q712 291 689 237T631 141L749 0H500L478 26Q391 -12 300 -12ZM336 128Q363 128 389 134L256 295Q242 282 235 265T227 222Q227 177 254 153T336 128ZM333 531Q333 511 342 493T373 451Q398 468 410 489T422 531Q422 554 411 569T379
584Q359 584 346 572T333 531Z" />
<glyph unicode="&apos;" glyph-name="quotesingle" horiz-adv-x="241" d="M27 693H214L198 462H43L27 693Z" />
<glyph unicode="(" glyph-name="parenleft" horiz-adv-x="401" d="M230 -120Q194 -92 159 -51T95 43T48 160T30 298V322Q30 396 48 460T94 576T158 670T230 739H397Q365 702 336 657T285 561T250 451T237 330V296Q237 230 250 171T285 60T336 -37T397 -120H230Z" />
<glyph unicode=")" glyph-name="parenright" horiz-adv-x="401" d="M4 -120Q36 -83 65 -38T116 58T151 168T164 289V323Q164 389 151 448T116 559T65 656T4 739H171Q207 711 242 670T306 576T353 459T371 321V297Q371 223 353 159T307 43T243 -51T171 -120H4Z" />
<glyph unicode="*" glyph-name="asterisk" horiz-adv-x="424" d="M157 413L74 350L13 465L112 501L13 537L74 653L157 589L149 693H274L267 589L349 653L411 537L312 501L411 465L349 350L267 413L274 310H149L157 413Z" />
<glyph unicode="+" glyph-name="plus" horiz-adv-x="526" d="M175 265H24V422H175V580H351V422H502V265H351V108H175V265Z" />
<glyph unicode="," glyph-name="comma" horiz-adv-x="262" d="M38 176H236L184 -67H27L38 176Z" />
<glyph unicode="-" glyph-name="hyphen" horiz-adv-x="336" d="M32 371H304V210H32V371Z" />
<glyph unicode="." glyph-name="period" horiz-adv-x="262" d="M33 176H228V0H33V176Z" />
<glyph unicode="/" glyph-name="slash" horiz-adv-x="416" d="M234 739H413L164 -120H-15L234 739Z" />
<glyph unicode="0" glyph-name="zero" horiz-adv-x="696" d="M346 -12Q279 -12 220 6T117 64T48 168T22 325V361Q22 458 50 524T124 630T230 687T351 705Q418 705 476 687T579 629T648 524T674 368V332Q674 236 646 171T573 65T468 6T346 -12ZM348 149Q370 149
386 156T412 182T427 234T432 319V364Q432 419 427 454T412 509T386 536T349 544Q328 544 312 537T286 511T270 459T264 372V328Q264 276 268 242T283 187T309 158T348 149Z" />
<glyph unicode="1" glyph-name="one" horiz-adv-x="409" d="M125 483L20 475V608L215 694H357V0H125V483Z" />
<glyph unicode="2" glyph-name="two" horiz-adv-x="546" d="M16 150L147 265Q177 291 200 314T240 359T266 403T275 450Q275 495 246 514T162 533Q122 533 87 524T25 504V662Q59 677 115 691T249 705Q383 705 450 649T517 490Q517 447 506 411T472 343T419 281T349
220L280 164V161H523V0H16V150Z" />
<glyph unicode="3" glyph-name="three" horiz-adv-x="557" d="M247 -12Q166 -12 109 0T17 30V179Q49 170 91 163T178 156Q242 156 268 172T295 221Q295 255 270 267T201 279H121V425H195Q243 425 267 438T291 480Q291 512 265 524T189 537Q146 537 106 531T37
519V668Q77 682 135 693T265 705Q321 705 367 694T447 661T498 605T516 528Q516 464 481 424T391 368V364Q460 352 497 314T535 197Q535 100 462 44T247 -12Z" />
<glyph unicode="4" glyph-name="four" horiz-adv-x="667" d="M328 156H16V299L338 694H555V309H652V156H555V0H328V156ZM332 309V476H328L201 312V309H332Z" />
<glyph unicode="5" glyph-name="five" horiz-adv-x="552" d="M235 -12Q154 -12 102 0T14 30V182Q46 173 82 167T164 160Q227 160 257 175T288 228Q288 267 259 282T164 298Q126 298 99 295T41 286L62 693H497V532H224L218 436Q234 439 250 441T295 443Q414 443
472 391T530 225Q530 113 453 51T235 -12Z" />
<glyph unicode="6" glyph-name="six" horiz-adv-x="647" d="M341 -12Q186 -12 104 70T22 308V345Q22 439 48 507T122 619T236 684T384 705Q456 705 503 698T580 678V520Q557 526 517 530T439 534Q394 534 362 529T308 509T275 472T260 413Q284 425 319 434T407
444Q511 444 570 394T629 238Q629 184 612 139T560 60T471 7T341 -12ZM336 134Q368 134 385 154T402 222Q402 252 397 269T381 295T357 306T325 309Q305 309 289 305T261 295V267Q261 194 279 164T336 134Z" />
<glyph unicode="7" glyph-name="seven" horiz-adv-x="564" d="M312 520V525H17V693H548V544L309 0H52L312 520Z" />
<glyph unicode="8" glyph-name="eight" horiz-adv-x="631" d="M311 -12Q233 -12 178 2T87 41T35 99T18 172Q18 225 50 267T142 332Q86 361 61 399T36 500Q36 548 56 586T112 650T201 691T320 705Q456 705 523 655T590 518Q590 470 564 432T479 369Q548 341 581
304T614 199Q614 99 535 44T311 -12ZM304 128Q351 128 373 146T395 195Q395 211 390 224T370 249T331 269T267 287Q212 252 212 199Q212 167 234 148T304 128ZM345 428Q368 439 383 456T398 503Q398 529 380 546T322 563Q284 563 266 547T248 506Q248 478 269 461T345
428Z" />
<glyph unicode="9" glyph-name="nine" horiz-adv-x="647" d="M268 -12Q194 -12 142 -4T60 18V176Q71 173 88 170T126 164T167 160T208 158Q258 158 291 164T345 184T375 221T386 280Q363 268 329 259T245 249Q138 249 78 300T18 463Q18 514 34 558T86 634T176
686T305 705Q459 705 541 624T624 385V348Q624 253 600 185T531 73T419 9T268 -12ZM322 384Q341 384 358 388T386 398V426Q386 500 367 529T311 559Q278 559 261 539T244 471Q244 441 249 424T265 398T290 387T322 384Z" />
<glyph unicode=":" glyph-name="colon" horiz-adv-x="269" d="M37 462H232V287H37V462ZM37 176H232V0H37V176Z" />
<glyph unicode=";" glyph-name="semicolon" horiz-adv-x="269" d="M36 176H235L183 -67H25L36 176ZM37 462H232V287H37V462Z" />
<glyph unicode="&lt;" glyph-name="less" horiz-adv-x="469" d="M29 245V401L435 575V411L214 323L435 235V70L29 245Z" />
<glyph unicode="=" glyph-name="equal" horiz-adv-x="517" d="M32 493H484V339H32V493ZM32 265H484V110H32V265Z" />
<glyph unicode="&gt;" glyph-name="greater" horiz-adv-x="469" d="M34 234L254 322L34 411V575L439 401V245L34 70V234Z" />
<glyph unicode="?" glyph-name="question" horiz-adv-x="462" d="M88 274Q88 300 92 319T107 353T134 383T173 414Q202 434 215 449T229 490Q229 520 207 532T133 545Q94 545 66 541T15 530V675Q50 688 96 696T205 705Q259 705 303 695T378 663T427 605T444 519Q444
484 438 459T420 414T391 378T349 346Q323 329 307 318T281 297T268 277T264 253V237H88V274ZM80 172H275V0H80V172Z" />
<glyph unicode="@" glyph-name="at" horiz-adv-x="917" d="M443 -163Q350 -163 273 -140T140 -70T53 50T22 222Q22 320 55 404T151 549T303 645T502 680Q588 680 660 656T785 587T867 477T897 330Q897 254 877 198T822 106T739 51T637 33Q580 33 546 50T503 94H498Q478
71 447 55T373 38Q346 38 320 46T273 72T241 120T228 195Q228 255 241 306T280 394T341 452T425 473Q460 473 487 466T532 444H537L542 464H699L647 197Q645 185 644 175T644 157T652 145T671 140Q716 140 745 187T775 323Q775 381 759 428T709 508T621 559T492
577Q414 577 351 552T242 481T171 370T146 226Q146 147 167 92T227 3T321 -46T443 -62Q523 -62 589 -50T704 -21V-110Q657 -133 593 -148T443 -163ZM434 148Q447 148 455 153T471 165L506 363Q495 374 470 374Q453 374 440 360T418 321T403 265T398 199Q398 148
434 148Z" />
<glyph unicode="A" glyph-name="A" horiz-adv-x="721" d="M237 693H487L723 0H487L451 115H239L205 0H-3L237 693ZM280 259H408L346 463H341L280 259Z" />
<glyph unicode="B" glyph-name="B" horiz-adv-x="663" d="M43 693H375Q491 693 554 651T617 517Q617 393 500 363V360Q566 349 607 312T649 197Q649 155 635 119T588 57T506 15T386 0H43V693ZM332 142Q367 142 388 160T410 221Q410 259 389 275T328 292H271V142H332ZM326
411Q358 411 378 427T399 484Q399 521 381 537T327 554H271V411H326Z" />
<glyph unicode="C" glyph-name="C" horiz-adv-x="580" d="M365 -12Q283 -12 219 8T110 71T42 178T18 331V356Q18 451 45 517T121 625T233 686T372 705Q440 705 483 698T556 678V513Q529 522 500 527T426 533Q345 533 306 495T266 369V340Q266 251 300 206T422
160Q471 160 504 168T560 184V22Q527 8 482 -2T365 -12Z" />
<glyph unicode="D" glyph-name="D" horiz-adv-x="703" d="M43 693H330Q412 693 478 676T589 619T659 517T684 362V338Q684 247 659 183T588 79T476 19T331 0H43V693ZM325 159Q353 159 375 167T411 194T432 247T440 330V366Q440 416 433 448T410 500T373 526T323
534H276V159H325Z" />
<glyph unicode="E" glyph-name="E" horiz-adv-x="582" d="M43 693H546V532H273V431H488V273H273V161H559V0H43V693Z" />
<glyph unicode="F" glyph-name="F" horiz-adv-x="568" d="M43 693H548V532H276V403H490V245H276V0H43V693Z" />
<glyph unicode="G" glyph-name="G" horiz-adv-x="676" d="M387 -11Q301 -11 233 7T117 66T44 173T18 337V360Q18 459 48 525T130 631T249 688T391 705Q468 705 524 694T611 668V502Q582 511 539 520T431 529Q378 529 345 519T292 487T265 435T258 363V332Q258
287 262 253T280 196T317 162T379 150Q396 150 410 153T434 159V243H352V388H648V36Q628 28 600 20T537 4T464 -7T387 -11Z" />
<glyph unicode="H" glyph-name="H" horiz-adv-x="727" d="M43 693H276V436H451V693H684V0H451V273H276V0H43V693Z" />
<glyph unicode="I" glyph-name="I" horiz-adv-x="326" d="M47 693H279V0H47V693Z" />
<glyph unicode="J" glyph-name="J" horiz-adv-x="456" d="M177 -8Q114 -8 77 2T15 25V178Q29 175 48 172T88 169Q108 169 126 172T157 185T178 208T186 245V693H419V212Q419 163 404 123T358 53T283 8T177 -8Z" />
<glyph unicode="K" glyph-name="K" horiz-adv-x="706" d="M43 693H276V400L464 693H697L482 366L712 0H455L276 286V0H43V693Z" />
<glyph unicode="L" glyph-name="L" horiz-adv-x="541" d="M43 693H276V161H523V0H43V693Z" />
<glyph unicode="M" glyph-name="M" horiz-adv-x="905" d="M43 693H350L453 334H457L560 693H862V0H634V430H631L510 0H356L236 430H232V0H43V693Z" />
<glyph unicode="N" glyph-name="N" horiz-adv-x="722" d="M43 693H291L479 360H483V693H679V0H461L243 382H239V0H43V693Z" />
<glyph unicode="O" glyph-name="O" horiz-adv-x="730" d="M362 -12Q293 -12 231 6T121 66T46 172T18 332V356Q18 453 48 519T128 627T240 686T368 705Q437 705 499 687T609 627T684 521T712 362V338Q712 241 682 174T603 66T490 7T362 -12ZM366 154Q391 154 410
163T442 192T461 246T468 326V362Q468 414 462 448T443 502T411 530T365 539Q315 539 289 501T262 367V332Q262 277 269 243T290 189T323 162T366 154Z" />
<glyph unicode="P" glyph-name="P" horiz-adv-x="657" d="M43 693H356Q503 693 574 634T646 461Q646 214 360 214H276V0H43V693ZM327 356Q372 356 390 379T408 449Q408 502 388 520T332 539H276V356H327Z" />
<glyph unicode="Q" glyph-name="Q" horiz-adv-x="730" d="M712 352Q712 292 700 248T665 171T613 118T549 85L722 56L685 -112L302 -15Q243 0 191 22T101 82T40 181T18 332V356Q18 453 48 519T128 627T240 686T368 705Q437 705 499 687T609 629T684 524T712 367V352ZM366
150Q415 150 441 189T468 323V362Q468 414 462 448T443 502T411 530T365 539Q315 539 289 501T262 367V328Q262 274 269 239T290 185T323 158T366 150Z" />
<glyph unicode="R" glyph-name="R" horiz-adv-x="676" d="M43 693H367Q505 693 573 641T641 471Q641 400 613 361T532 297V294L678 0H440L327 237H276V0H43V693ZM332 371Q375 371 394 393T413 459Q413 501 394 521T330 541H272V371H332Z" />
<glyph unicode="S" glyph-name="S" horiz-adv-x="565" d="M260 -12Q184 -12 122 -2T21 27V192Q69 176 118 166T230 155Q283 155 303 166T323 202Q323 213 320 220T309 233T286 243T248 251L203 260Q160 268 126 282T67 322T29 385T16 479Q16 528 32 569T81 641T166
688T288 705Q333 705 366 702T426 695T471 684T505 670V508Q467 521 420 530T313 540Q233 540 233 496Q233 475 249 466T307 448L351 440Q400 431 437 417T499 378T537 317T550 226Q550 108 475 48T260 -12Z" />
<glyph unicode="T" glyph-name="T" horiz-adv-x="602" d="M184 532H11V693H591V532H417V0H184V532Z" />
<glyph unicode="U" glyph-name="U" horiz-adv-x="695" d="M356 -12Q195 -12 117 54T39 251V693H271V258Q271 207 292 182T362 156Q410 156 430 181T451 259V693H657V251Q657 123 585 56T356 -12Z" />
<glyph unicode="V" glyph-name="V" horiz-adv-x="710" d="M1 693H237L366 263H371L497 693H709L476 0H234L1 693Z" />
<glyph unicode="W" glyph-name="W" horiz-adv-x="984" d="M4 693H236L313 297H317L411 693H597L691 297H695L780 693H980L817 0H582L496 386H493L401 0H165L4 693Z" />
<glyph unicode="X" glyph-name="X" horiz-adv-x="718" d="M201 359L19 693H274L374 493H378L474 693H700L519 365L716 0H461L347 217H343L229 0H2L201 359Z" />
<glyph unicode="Y" glyph-name="Y" horiz-adv-x="666" d="M217 272L-1 693H246L349 473H352L455 693H666L450 272V0H217V272Z" />
<glyph unicode="Z" glyph-name="Z" horiz-adv-x="596" d="M27 156L300 528V532H42V693H564V537L291 165V161H568V0H27V156Z" />
<glyph unicode="[" glyph-name="bracketleft" horiz-adv-x="390" d="M47 739H370V589H254V30H370V-120H47V739Z" />
<glyph unicode="\" glyph-name="backslash" horiz-adv-x="416" d="M3 739H181L430 -120H252L3 739Z" />
<glyph unicode="]" glyph-name="bracketright" horiz-adv-x="390" d="M21 30H136V589H21V739H343V-120H21V30Z" />
<glyph unicode="^" glyph-name="asciicircum" horiz-adv-x="495" d="M164 693H331L484 433H320L247 535L174 433H11L164 693Z" />
<glyph unicode="_" glyph-name="underscore" horiz-adv-x="402" d="M-4 -46H406V-172H-4V-46Z" />
<glyph unicode="`" glyph-name="grave" horiz-adv-x="499" d="M78 738H284L344 579H180L78 738Z" />
<glyph unicode="a" glyph-name="a" horiz-adv-x="540" d="M181 -10Q106 -10 59 27T12 143Q12 188 27 218T69 267T135 296T219 313L302 324V340Q302 376 281 387T206 398Q165 398 126 394T58 381V516Q102 533 159 541T285 549Q336 549 377 541T448 513T492 461T508
381V0H335L322 40H316Q300 15 265 3T181 -10ZM255 116Q270 116 282 121T302 132V223L259 220Q231 218 220 206T208 167Q208 136 222 126T255 116Z" />
<glyph unicode="b" glyph-name="b" horiz-adv-x="609" d="M282 -11Q203 -11 144 0T34 31V739H241V498H246Q273 521 309 535T395 549Q433 549 468 537T531 495T575 417T592 295V284Q592 202 572 146T513 55T416 5T282 -11ZM293 128Q311 128 326 133T354 153T372
193T379 258V273Q379 310 374 333T359 370T334 388T300 393Q283 393 268 389T241 379V139Q260 128 293 128Z" />
<glyph unicode="c" glyph-name="c" horiz-adv-x="477" d="M293 -10Q153 -10 84 59T15 261V272Q15 409 90 479T302 549Q359 549 394 543T454 524V377Q431 386 409 391T348 396Q296 396 264 371T231 284V271Q231 203 257 173T346 143Q381 143 409 149T457 162V24Q435
12 395 1T293 -10Z" />
<glyph unicode="d" glyph-name="d" horiz-adv-x="609" d="M226 -10Q182 -10 144 5T78 53T34 135T17 256V267Q17 344 35 397T86 485T164 534T264 549Q304 549 330 542T368 530V739H574V0H395L382 41H377Q348 15 312 3T226 -10ZM308 139Q327 139 342 143T368 156V398Q359
403 345 407T312 412Q293 412 278 406T252 385T236 345T230 280V264Q230 226 235 202T251 163T275 144T308 139Z" />
<glyph unicode="e" glyph-name="e" horiz-adv-x="564" d="M310 -10Q160 -10 88 59T15 265V277Q15 337 33 387T87 473T174 529T291 549Q363 549 412 530T492 473T536 383T550 262V220H226Q230 194 240 177T268 150T310 137T366 133Q413 133 454 142T525 162V37Q493
19 441 5T310 -10ZM293 416Q267 416 248 398T224 326H353Q353 377 339 396T293 416Z" />
<glyph unicode="f" glyph-name="f" horiz-adv-x="389" d="M72 397H8V539H72V583Q72 626 86 657T127 708T191 739T272 749Q317 749 351 744T400 732V607Q390 609 375 611T346 613Q311 613 296 600T280 559V539H381V397H280V0H72V397Z" />
<glyph unicode="g" glyph-name="g" horiz-adv-x="560" d="M259 -200Q188 -200 137 -191T54 -166T6 -126T-9 -75Q-9 -33 19 -9T89 30V35Q63 46 47 67T30 120Q30 155 49 183T98 233Q63 254 44 286T25 366V372Q25 460 89 504T266 549Q325 549 370 540H551V427H489Q502
407 502 375V369Q502 284 440 242T265 199Q225 199 192 205Q185 193 185 184Q185 170 193 165T224 159H378Q468 159 514 122T561 3Q561 -90 487 -145T259 -200ZM259 -81Q319 -81 340 -68T361 -34Q361 -14 349 -8T300 -2H199Q187 -7 179 -15T171 -39Q171 -57 188
-69T259 -81ZM266 300Q289 300 302 314T316 369V376Q316 421 303 433T265 446Q241 446 229 432T216 377V370Q216 328 228 314T266 300Z" />
<glyph unicode="h" glyph-name="h" horiz-adv-x="599" d="M34 739H241V496H246Q277 522 316 535T407 549Q481 549 524 516T567 401V0H360V343Q360 369 347 379T305 390Q288 390 271 387T241 378V0H34V739Z" />
<glyph unicode="i" glyph-name="i" horiz-adv-x="281" d="M37 539H244V0H37V539ZM36 733H245V584H36V733Z" />
<glyph unicode="j" glyph-name="j" horiz-adv-x="281" d="M38 -197Q3 -197 -25 -192T-68 -180V-50Q-61 -51 -52 -52T-32 -53Q2 -53 19 -39T37 7V539H244V-15Q244 -56 233 -89T198 -147T135 -184T38 -197ZM36 733H245V584H36V733Z" />
<glyph unicode="k" glyph-name="k" horiz-adv-x="588" d="M241 234V0H34V739H241V327L375 539H579L421 295L586 0H368L241 234Z" />
<glyph unicode="l" glyph-name="l" horiz-adv-x="281" d="M37 739H244V0H37V739Z" />
<glyph unicode="m" glyph-name="m" horiz-adv-x="898" d="M34 539H235V490H240Q273 519 313 534T408 549Q454 549 486 535T536 488H541Q579 517 623 533T719 549Q788 549 826 517T865 403V0H659V344Q659 369 648 379T611 390Q594 390 581 387T553 378V0H346V344Q346
369 335 379T298 390Q283 390 269 387T241 378V0H34V539Z" />
<glyph unicode="n" glyph-name="n" horiz-adv-x="599" d="M34 539H235V491H240Q275 521 315 535T407 549Q481 549 524 516T567 401V0H360V343Q360 369 347 379T305 390Q288 390 271 387T241 378V0H34V539Z" />
<glyph unicode="o" glyph-name="o" horiz-adv-x="601" d="M300 -10Q159 -10 87 60T15 261V272Q15 344 37 396T97 482T188 532T300 549Q442 549 514 481T586 279V268Q586 196 564 144T503 58T412 7T300 -10ZM301 128Q318 128 331 133T354 153T368 193T373 259V275Q373
320 368 347T353 388T330 407T299 411Q282 411 269 406T247 386T233 347T228 281V264Q228 220 233 194T248 153T271 133T301 128Z" />
<glyph unicode="p" glyph-name="p" horiz-adv-x="609" d="M34 539H235V492H240Q267 520 303 534T395 549Q433 549 468 537T531 494T575 415T592 291V281Q592 199 574 143T522 53T442 5T340 -10Q302 -10 278 -5T241 6V-195H34V539ZM297 128Q316 128 331 133T357
152T373 191T379 256V271Q379 309 374 332T360 369T336 386T303 391Q282 391 267 387T241 376V142Q250 136 265 132T297 128Z" />
<glyph unicode="q" glyph-name="q" horiz-adv-x="608" d="M368 29H363Q337 8 307 -1T230 -10Q188 -10 149 4T81 50T35 131T17 252V263Q17 344 38 399T99 487T196 535T328 549Q413 549 472 539T574 512V-195H368V29ZM307 143Q328 143 342 148T368 159V402Q359 405
344 408T312 411Q292 411 277 406T252 386T236 346T230 281V266Q230 227 235 203T251 166T275 148T307 143Z" />
<glyph unicode="r" glyph-name="r" horiz-adv-x="413" d="M34 539H235V472H240Q260 505 293 524T369 544Q391 544 400 540V357Q392 359 379 361T352 363Q284 363 241 346V0H34V539Z" />
<glyph unicode="s" glyph-name="s" horiz-adv-x="476" d="M211 -10Q183 -10 156 -8T103 -1T57 10T19 24V159Q51 148 88 139T180 130Q225 130 243 138T261 163Q261 179 250 184T211 194L161 201Q89 212 52 252T15 371Q15 456 71 502T246 549Q306 549 349 542T426
522V388Q398 396 362 403T276 411Q241 411 225 405T209 381Q209 365 222 360T264 349L313 342Q396 329 428 288T461 177Q461 84 402 37T211 -10Z" />
<glyph unicode="t" glyph-name="t" horiz-adv-x="399" d="M253 -9Q209 -9 175 -2T118 25T83 75T71 154V399H8V539H71V666H279V539H380V399H279V183Q279 158 292 150T333 141Q345 141 358 143T380 147V14Q364 6 331 -1T253 -9Z" />
<glyph unicode="u" glyph-name="u" horiz-adv-x="594" d="M197 -10Q120 -10 76 26T32 146V539H239V192Q239 165 252 155T292 144Q310 144 325 148T353 157V539H560V0H377L364 48H359Q323 19 286 5T197 -10Z" />
<glyph unicode="v" glyph-name="v" horiz-adv-x="591" d="M0 539H214L304 232H308L398 539H591L405 0H185L0 539Z" />
<glyph unicode="w" glyph-name="w" horiz-adv-x="817" d="M5 539H216L277 263H281L351 539H502L572 263H576L636 539H812L674 0H482L411 270H408L335 0H144L5 539Z" />
<glyph unicode="x" glyph-name="x" horiz-adv-x="596" d="M166 281L13 539H243L316 396L385 539H581L433 286L595 0H366L282 158L197 0H0L166 281Z" />
<glyph unicode="y" glyph-name="y" horiz-adv-x="586" d="M162 -198Q147 -198 130 -197T97 -194T68 -188T46 -182V-45Q62 -48 77 -50T105 -52Q142 -52 161 -42T188 -9L195 13L-1 539H214L302 247H306L394 539H587L384 -48Q370 -88 351 -116T306 -163T244 -189T162 -198Z" />
<glyph unicode="z" glyph-name="z" horiz-adv-x="501" d="M18 144L232 395V398H24V539H483V407L260 145V142H478V0H18V144Z" />
<glyph unicode="{" glyph-name="braceleft" horiz-adv-x="405" d="M385 -122Q301 -121 244 -109T153 -74T105 -17T90 62V160Q90 199 71 214T13 234V383Q51 386 70 399T90 452V549Q90 594 104 629T153 689T244 727T385 741V589Q343 586 320 572T297 518V440Q297
414 292 393T273 356T236 327T178 309V306Q213 300 236 288T272 259T291 221T297 174V96Q297 57 320 45T385 30V-122Z" />
<glyph unicode="|" glyph-name="bar" horiz-adv-x="286" d="M64 739H222V-120H64V739Z" />
<glyph unicode="}" glyph-name="braceright" horiz-adv-x="405" d="M21 30Q63 33 86 47T109 101V179Q109 230 133 263T227 310V313Q158 326 134 360T109 445V523Q109 562 86 574T21 589V741Q105 740 161 728T252 693T301 636T316 557V459Q316 420 335 405T392
385V236Q354 233 335 220T316 167V70Q316 25 302 -10T253 -70T162 -108T21 -122V30Z" />
<glyph unicode="~" glyph-name="asciitilde" horiz-adv-x="464" d="M21 216Q24 270 37 306T70 364T112 395T160 404Q181 404 199 399T233 387T261 375T283 369Q297 369 305 378T316 402H443Q440 348 427 312T394 254T352 223T304 214Q283 214 265 219T231 231T203
242T181 248Q167 248 160 239T148 216H21Z" />
<glyph unicode="&#xa0;" glyph-name="uni00A0" horiz-adv-x="157" />
<glyph unicode="&#xa1;" glyph-name="exclamdown" horiz-adv-x="298" d="M62 336H236L267 -120H31L62 336ZM51 573H246V401H51V573Z" />
<glyph unicode="&#xa2;" glyph-name="cent" horiz-adv-x="491" d="M235 -5Q125 10 70 78T15 261V272Q15 409 92 479T312 549H332L343 610H434L421 540Q435 537 446 533T469 524V381Q451 388 435 392T396 398L351 139H362Q397 139 424 145T472 158V25Q452 13 416
3T325 -9L306 -118H216L235 -5ZM222 269Q222 229 231 203T264 161L305 395Q264 387 243 362T222 286V269Z" />
<glyph unicode="&#xa3;" glyph-name="sterling" horiz-adv-x="569" d="M29 410H88V462Q88 525 108 571T164 646T251 690T363 705Q439 705 478 696T535 677V520Q510 526 488 529T431 533Q383 533 352 513T321 438V410H465V271H320Q315 229 295 205T247 163V161H547V0H25V151Q51
162 69 185T88 248V271H29V410Z" />
<glyph unicode="&#xa5;" glyph-name="yen" horiz-adv-x="667" d="M219 91H64V221H219V261H64V391H170L2 693H246L350 465H353L457 693H666L499 391H606V261H451V221H606V91H451V0H219V91Z" />
<glyph unicode="&#xa6;" glyph-name="brokenbar" horiz-adv-x="311" d="M64 284H247V-120H64V284ZM64 738H247V367H64V738Z" />
<glyph unicode="&#xa7;" glyph-name="section" horiz-adv-x="583" d="M265 -132Q203 -132 149 -121T60 -92V47Q96 34 136 23T234 12Q282 12 300 21T319 50Q319 67 307 75T263 89L203 101Q163 109 129 121T69 152T30 201T16 272Q16 324 38 354T104 399Q82 420 69
449T56 522Q56 609 116 657T303 705Q372 705 416 696T494 671V533Q462 544 424 553T332 563Q294 563 277 556T260 529Q260 512 272 505T317 490L377 478Q422 469 457 457T517 425T555 379T568 312Q568 257 547 226T484 178Q530 139 530 63Q530 -37 466 -84T265
-132ZM265 339L263 340Q234 336 222 326T210 298Q210 278 224 268T283 246L306 239Q307 239 307 239T309 238Q341 242 354 252T368 280Q368 289 366 296T355 309T331 320T292 332L265 339Z" />
<glyph unicode="&#xa8;" glyph-name="dieresis" horiz-adv-x="499" d="M275 733H442V584H275V733ZM57 733H224V584H57V733Z" />
<glyph unicode="&#xa9;" glyph-name="copyright" horiz-adv-x="769" d="M383 -14Q306 -14 240 14T126 91T51 205T24 344Q24 418 51 483T126 596T240 672T383 700Q460 700 526 672T641 596T717 483T745 344Q745 270 718 205T642 91T527 14T383 -14ZM383 43Q447
43 501 65T594 128T655 223T677 344Q677 410 655 464T594 559T501 621T383 643Q319 643 266 621T174 559T114 465T92 344Q92 278 113 223T173 128T265 66T383 43ZM401 139Q305 139 251 187T196 336V344Q196 398 212 436T257 499T322 535T403 547Q446 547 471 542T515
528V418Q503 423 488 425T449 428Q407 428 387 412T366 354V339Q366 295 383 276T447 256Q470 256 487 260T516 268V160Q496 153 471 146T401 139Z" />
<glyph unicode="&#xaa;" glyph-name="ordfeminine" horiz-adv-x="489" d="M162 211Q95 211 54 244T13 346Q13 386 27 412T66 455T125 481T200 496L272 505V520Q272 552 254 561T188 570Q152 570 116 566T53 555V675Q92 690 144 697T258 704Q303 704 340 697T404
672T444 627T459 556V220H302L291 254H285Q271 233 238 222T162 211ZM231 324Q260 324 272 338V418L236 416Q211 414 201 403T191 368Q191 341 202 333T231 324Z" />
<glyph unicode="&#xab;" glyph-name="guillemotleft" horiz-adv-x="547" d="M262 229V276L351 454H519L431 253L519 51H351L262 229ZM26 229V276L115 454H283L195 253L283 51H115L26 229Z" />
<glyph unicode="&#xae;" glyph-name="registered" horiz-adv-x="456" d="M227 299Q183 299 146 315T81 359T37 424T21 503Q21 545 37 582T80 646T145 689T227 705Q270 705 308 689T374 646T419 582T435 503Q435 461 419 424T375 360T308 316T227 299ZM227 338Q264
338 294 350T345 385T377 437T389 503Q389 537 378 567T345 619T294 655T227 668Q191 668 162 655T111 620T79 567T68 503Q68 468 79 438T111 385T161 351T227 338ZM140 603H243Q281 603 303 587T325 539Q325 522 317 508T297 489V486L335 407H259L230 471H214V407H140V603ZM231
515Q251 515 251 533Q251 553 231 553H214V515H231Z" />
<glyph unicode="&#xaf;" glyph-name="macron" horiz-adv-x="499" d="M99 714H400V585H99V714Z" />
<glyph unicode="&#xb0;" glyph-name="degree" horiz-adv-x="412" d="M207 373Q167 373 135 386T80 422T45 475T33 538Q33 571 45 601T79 653T134 689T207 702Q247 702 279 689T334 654T369 601T381 538Q381 505 369 475T335 423T280 387T207 373ZM207 472Q238
472 252 492T266 538Q266 565 252 584T207 604Q176 604 162 585T148 538Q148 512 162 492T207 472Z" />
<glyph unicode="&#xb4;" glyph-name="acute" horiz-adv-x="499" d="M215 738H421L319 579H155L215 738Z" />
<glyph unicode="&#xb6;" glyph-name="paragraph" horiz-adv-x="601" d="M267 320H249Q148 320 91 368T33 506Q33 591 89 642T255 693H559V-120H447V587H379V-120H267V320Z" />
<glyph unicode="&#xb7;" glyph-name="periodcentered" horiz-adv-x="263" d="M33 400H230V225H33V400Z" />
<glyph unicode="&#xb8;" glyph-name="cedilla" horiz-adv-x="499" d="M190 -154Q239 -151 259 -145T280 -122Q280 -108 266 -103T214 -96V0H303V-38Q364 -40 390 -62T416 -122Q416 -172 363 -198T190 -228V-154Z" />
<glyph unicode="&#xba;" glyph-name="ordmasculine" horiz-adv-x="538" d="M269 211Q144 211 80 273T15 450V460Q15 523 35 569T89 645T170 689T269 704Q394 704 458 644T523 466V456Q523 393 503 347T449 271T368 226T269 211ZM270 334Q285 334 296 339T315 356T327
391T331 448V462Q331 501 327 524T314 560T295 576T268 580Q253 580 242 576T223 559T211 524T207 468V453Q207 415 211 392T224 356T243 339T270 334Z" />
<glyph unicode="&#xbb;" glyph-name="guillemotright" horiz-adv-x="547" d="M352 252L264 454H432L521 276V229L432 51H264L352 252ZM116 252L28 454H196L285 276V229L196 51H28L116 252Z" />
<glyph unicode="&#xbc;" glyph-name="onequarter" horiz-adv-x="895" d="M89 545L17 538V634L147 694H252V267H89V545ZM608 713H748L238 -40H98L608 713ZM663 91H473V189L668 426H823V194H878V91H823V0H663V91ZM668 191V280H666L598 193V191H668Z" />
<glyph unicode="&#xbd;" glyph-name="onehalf" horiz-adv-x="920" d="M600 713H740L230 -40H90L600 713ZM89 545L17 538V634L147 694H252V267H89V545ZM569 106L647 169Q682 198 701 220T721 269Q721 293 705 303T660 313Q634 313 613 308T575 297V406Q595 414
632 424T726 434Q810 434 852 399T895 298Q895 245 866 210T791 141L755 116V114H897V0H569V106Z" />
<glyph unicode="&#xbe;" glyph-name="threequarters" horiz-adv-x="926" d="M167 260Q113 260 78 267T20 285V384Q40 379 62 376T113 373Q152 373 167 381T182 405Q182 436 133 436H78V529H130Q159 529 171 537T183 560Q183 589 121 589Q96 589 73 586T32 580V677Q58
686 94 693T178 701Q252 701 297 674T342 591Q342 552 319 527T260 492V490Q306 482 329 460T353 389Q353 329 306 295T167 260ZM649 710H789L279 -43H139L649 710ZM694 91H504V189L699 426H854V194H909V91H854V0H694V91ZM699 191V280H697L629 193V191H699Z" />
<glyph unicode="&#xbf;" glyph-name="questiondown" horiz-adv-x="462" d="M256 -132Q203 -132 159 -122T84 -90T35 -32T17 54Q17 89 23 114T41 159T71 195T113 227Q138 244 154 255T181 276T194 296T198 320V336H374V299Q374 273 370 254T355 219T328 189T288
159Q259 139 246 124T233 83Q233 53 254 41T329 28Q368 28 396 32T447 43V-102Q412 -115 365 -123T256 -132ZM186 573H381V401H186V573Z" />
<glyph unicode="&#xc0;" glyph-name="Agrave" horiz-adv-x="721" d="M237 693H487L723 0H487L451 115H239L205 0H-3L237 693ZM280 259H408L346 463H341L280 259ZM191 874H398L451 725H287L191 874Z" />
<glyph unicode="&#xc1;" glyph-name="Aacute" horiz-adv-x="721" d="M237 693H487L723 0H487L451 115H239L205 0H-3L237 693ZM280 259H408L346 463H341L280 259ZM323 872H530L434 725H270L323 872Z" />
<glyph unicode="&#xc2;" glyph-name="Acircumflex" horiz-adv-x="721" d="M237 693H487L723 0H487L451 115H239L205 0H-3L237 693ZM280 259H408L346 463H341L280 259ZM277 864H444L548 725H403L360 763L318 725H173L277 864Z" />
<glyph unicode="&#xc3;" glyph-name="Atilde" horiz-adv-x="721" d="M237 693H487L723 0H487L451 115H239L205 0H-3L237 693ZM280 259H408L346 463H341L280 259ZM163 726Q167 768 180 796T210 842T249 866T294 874Q313 874 330 870T361 861T386 851T407 847Q420
847 426 853T437 871H556Q552 829 540 801T510 756T470 732T426 724Q406 724 390 728T359 737T334 747T313 751Q290 751 283 726H163Z" />
<glyph unicode="&#xc4;" glyph-name="Adieresis" horiz-adv-x="721" d="M237 693H487L723 0H487L451 115H239L205 0H-3L237 693ZM280 259H408L346 463H341L280 259ZM389 869H556V726H389V869ZM165 869H332V726H165V869Z" />
<glyph unicode="&#xc5;" glyph-name="Aring" horiz-adv-x="721" d="M237 693H487L723 0H487L451 115H239L205 0H-3L237 693ZM280 259H408L346 463H341L280 259ZM362 712Q333 712 310 721T269 746T243 783T234 829Q234 854 243 875T269 913T309 938T362 947Q421
947 456 913T491 829Q491 805 482 784T456 747T415 722T362 712ZM362 786Q382 786 392 797T403 829Q403 849 393 861T362 873Q343 873 333 861T322 829Q322 809 332 798T362 786Z" />
<glyph unicode="&#xc6;" glyph-name="AE" horiz-adv-x="972" d="M337 693H936V532H671V431H877V273H671V161H948V0H445V125H264L207 0H-7L337 693ZM327 268H445V520H441L327 268Z" />
<glyph unicode="&#xc7;" glyph-name="Ccedilla" horiz-adv-x="580" d="M365 -12Q362 -12 357 -12T341 -11V-38Q402 -40 428 -62T454 -122Q454 -172 401 -198T228 -228V-154Q277 -151 298 -145T319 -122Q319 -108 305 -103T252 -96V0Q139 25 79 106T18 331V356Q18
451 45 517T121 625T233 686T372 705Q440 705 483 698T556 678V513Q529 522 500 527T426 533Q345 533 306 495T266 369V340Q266 251 300 206T422 160Q471 160 504 168T560 184V22Q527 8 482 -2T365 -12Z" />
<glyph unicode="&#xc8;" glyph-name="Egrave" horiz-adv-x="582" d="M133 874H340L393 725H229L133 874ZM43 693H546V532H273V431H488V273H273V161H559V0H43V693Z" />
<glyph unicode="&#xc9;" glyph-name="Eacute" horiz-adv-x="582" d="M266 872H473L377 725H213L266 872ZM43 693H546V532H273V431H488V273H273V161H559V0H43V693Z" />
<glyph unicode="&#xca;" glyph-name="Ecircumflex" horiz-adv-x="582" d="M219 864H386L490 725H345L302 763L260 725H115L219 864ZM43 693H546V532H273V431H488V273H273V161H559V0H43V693Z" />
<glyph unicode="&#xcb;" glyph-name="Edieresis" horiz-adv-x="582" d="M43 693H546V532H273V431H488V273H273V161H559V0H43V693ZM327 869H494V726H327V869ZM103 869H270V726H103V869Z" />
<glyph unicode="&#xcc;" glyph-name="Igrave" horiz-adv-x="326" d="M47 693H279V0H47V693ZM250 874H457L510 725H346L250 874Z" />
<glyph unicode="&#xcd;" glyph-name="Iacute" horiz-adv-x="326" d="M47 693H279V0H47V693ZM383 872H590L494 725H330L383 872Z" />
<glyph unicode="&#xce;" glyph-name="Icircumflex" horiz-adv-x="326" d="M47 693H279V0H47V693ZM79 864H246L350 725H205L162 763L120 725H-25L79 864Z" />
<glyph unicode="&#xcf;" glyph-name="Idieresis" horiz-adv-x="326" d="M185 869H336V726H185V869ZM-10 869H140V726H-10V869ZM47 693H279V0H47V693Z" />
<glyph unicode="&#xd0;" glyph-name="Eth" horiz-adv-x="707" d="M4 423H47V693H335Q417 693 482 676T593 619T663 517T688 362V338Q688 247 663 183T592 79T480 19T335 0H47V271H4V423ZM334 159Q362 159 383 167T419 194T441 247T449 330V366Q449 416 441 448T418
500T381 526T331 534H276V423H376V271H276V159H334Z" />
<glyph unicode="&#xd1;" glyph-name="Ntilde" horiz-adv-x="722" d="M184 726Q188 768 201 796T231 842T270 866T315 874Q334 874 351 870T382 861T407 851T428 847Q441 847 447 853T458 871H577Q573 829 561 801T531 756T491 732T447 724Q427 724 411 728T380
737T355 747T334 751Q311 751 304 726H184ZM43 693H291L479 360H483V693H679V0H461L243 382H239V0H43V693Z" />
<glyph unicode="&#xd2;" glyph-name="Ograve" horiz-adv-x="730" d="M196 874H403L456 725H292L196 874ZM362 -12Q293 -12 231 6T121 66T46 172T18 332V356Q18 453 48 519T128 627T240 686T368 705Q437 705 499 687T609 627T684 521T712 362V338Q712 241 682 174T603
66T490 7T362 -12ZM366 154Q391 154 410 163T442 192T461 246T468 326V362Q468 414 462 448T443 502T411 530T365 539Q315 539 289 501T262 367V332Q262 277 269 243T290 189T323 162T366 154Z" />
<glyph unicode="&#xd3;" glyph-name="Oacute" horiz-adv-x="730" d="M328 872H535L439 725H275L328 872ZM362 -12Q293 -12 231 6T121 66T46 172T18 332V356Q18 453 48 519T128 627T240 686T368 705Q437 705 499 687T609 627T684 521T712 362V338Q712 241 682 174T603
66T490 7T362 -12ZM366 154Q391 154 410 163T442 192T461 246T468 326V362Q468 414 462 448T443 502T411 530T365 539Q315 539 289 501T262 367V332Q262 277 269 243T290 189T323 162T366 154Z" />
<glyph unicode="&#xd4;" glyph-name="Ocircumflex" horiz-adv-x="730" d="M282 864H449L553 725H408L365 763L323 725H178L282 864ZM362 -12Q293 -12 231 6T121 66T46 172T18 332V356Q18 453 48 519T128 627T240 686T368 705Q437 705 499 687T609 627T684 521T712
362V338Q712 241 682 174T603 66T490 7T362 -12ZM366 154Q391 154 410 163T442 192T461 246T468 326V362Q468 414 462 448T443 502T411 530T365 539Q315 539 289 501T262 367V332Q262 277 269 243T290 189T323 162T366 154Z" />
<glyph unicode="&#xd5;" glyph-name="Otilde" horiz-adv-x="730" d="M168 726Q172 768 185 796T215 842T254 866T299 874Q318 874 335 870T366 861T391 851T412 847Q425 847 431 853T442 871H561Q557 829 545 801T515 756T475 732T431 724Q411 724 395 728T364
737T339 747T318 751Q295 751 288 726H168ZM362 -12Q293 -12 231 6T121 66T46 172T18 332V356Q18 453 48 519T128 627T240 686T368 705Q437 705 499 687T609 627T684 521T712 362V338Q712 241 682 174T603 66T490 7T362 -12ZM366 154Q391 154 410 163T442 192T461
246T468 326V362Q468 414 462 448T443 502T411 530T365 539Q315 539 289 501T262 367V332Q262 277 269 243T290 189T323 162T366 154Z" />
<glyph unicode="&#xd6;" glyph-name="Odieresis" horiz-adv-x="730" d="M394 869H561V726H394V869ZM170 869H337V726H170V869ZM362 -12Q293 -12 231 6T121 66T46 172T18 332V356Q18 453 48 519T128 627T240 686T368 705Q437 705 499 687T609 627T684 521T712 362V338Q712
241 682 174T603 66T490 7T362 -12ZM366 154Q391 154 410 163T442 192T461 246T468 326V362Q468 414 462 448T443 502T411 530T365 539Q315 539 289 501T262 367V332Q262 277 269 243T290 189T323 162T366 154Z" />
<glyph unicode="&#xd7;" glyph-name="multiply" horiz-adv-x="554" d="M39 207L163 330L39 453L151 564L276 441L402 564L514 453L389 330L514 207L402 95L276 218L151 95L39 207Z" />
<glyph unicode="&#xd8;" glyph-name="Oslash" horiz-adv-x="730" d="M362 -12Q307 -12 257 -1T163 36L132 0H0L87 101Q55 142 37 199T18 332V356Q18 453 48 519T128 627T240 686T368 705Q422 705 471 694T563 658L593 693H725L640 594Q674 553 693 496T712 362V338Q712
241 682 174T603 66T490 7T362 -12ZM366 149Q393 149 414 158T449 188T471 242T479 325V371Q479 380 479 388T478 404L285 179Q300 162 320 156T366 149ZM442 517Q415 544 365 544Q338 544 317 535T282 505T260 451T252 368V295L442 517Z" />
<glyph unicode="&#xd9;" glyph-name="Ugrave" horiz-adv-x="695" d="M192 874H399L452 725H288L192 874ZM356 -12Q195 -12 117 54T39 251V693H271V258Q271 207 292 182T362 156Q410 156 430 181T451 259V693H657V251Q657 123 585 56T356 -12Z" />
<glyph unicode="&#xda;" glyph-name="Uacute" horiz-adv-x="695" d="M324 872H531L435 725H271L324 872ZM356 -12Q195 -12 117 54T39 251V693H271V258Q271 207 292 182T362 156Q410 156 430 181T451 259V693H657V251Q657 123 585 56T356 -12Z" />
<glyph unicode="&#xdb;" glyph-name="Ucircumflex" horiz-adv-x="695" d="M278 864H445L549 725H404L361 763L319 725H174L278 864ZM356 -12Q195 -12 117 54T39 251V693H271V258Q271 207 292 182T362 156Q410 156 430 181T451 259V693H657V251Q657 123 585 56T356 -12Z" />
<glyph unicode="&#xdc;" glyph-name="Udieresis" horiz-adv-x="695" d="M356 -12Q195 -12 117 54T39 251V693H271V258Q271 207 292 182T362 156Q410 156 430 181T451 259V693H657V251Q657 123 585 56T356 -12ZM390 869H557V726H390V869ZM166 869H333V726H166V869Z" />
<glyph unicode="&#xdd;" glyph-name="Yacute" horiz-adv-x="666" d="M217 272L-1 693H246L349 473H352L455 693H666L450 272V0H217V272ZM313 872H520L424 725H260L313 872Z" />
<glyph unicode="&#xde;" glyph-name="Thorn" horiz-adv-x="654" d="M43 693H276V589H357Q508 589 575 532T642 366Q642 249 574 190T361 131H276V0H43V693ZM332 271Q377 271 395 290T413 355Q413 404 393 419T337 435H276V271H332Z" />
<glyph unicode="&#xdf;" glyph-name="germandbls" horiz-adv-x="673" d="M450 -8Q392 -8 356 -2T288 15V147Q314 141 341 135T405 128Q434 128 447 136T460 158Q460 172 451 179T419 195L392 206Q333 230 310 263T286 350Q286 388 302 418T337 472T373 519T389
562Q389 610 329 610Q287 610 264 586T241 506V0H34V521Q34 582 56 625T117 696T213 736T338 749Q469 749 534 709T599 584Q599 546 580 517T537 464T495 424T475 392Q475 378 484 371T514 353L542 342Q573 328 595 313T632 277T654 231T661 169Q661 86 608 39T450
-8Z" />
<glyph unicode="&#xe0;" glyph-name="agrave" horiz-adv-x="540" d="M181 -10Q106 -10 59 27T12 143Q12 188 27 218T69 267T135 296T219 313L302 324V340Q302 376 281 387T206 398Q165 398 126 394T58 381V516Q102 533 159 541T285 549Q336 549 377 541T448 513T492
461T508 381V0H335L322 40H316Q300 15 265 3T181 -10ZM255 116Q270 116 282 121T302 132V223L259 220Q231 218 220 206T208 167Q208 136 222 126T255 116ZM102 738H308L368 579H204L102 738Z" />
<glyph unicode="&#xe1;" glyph-name="aacute" horiz-adv-x="540" d="M181 -10Q106 -10 59 27T12 143Q12 188 27 218T69 267T135 296T219 313L302 324V340Q302 376 281 387T206 398Q165 398 126 394T58 381V516Q102 533 159 541T285 549Q336 549 377 541T448 513T492
461T508 381V0H335L322 40H316Q300 15 265 3T181 -10ZM255 116Q270 116 282 121T302 132V223L259 220Q231 218 220 206T208 167Q208 136 222 126T255 116ZM248 738H454L352 579H188L248 738Z" />
<glyph unicode="&#xe2;" glyph-name="acircumflex" horiz-adv-x="540" d="M181 -10Q106 -10 59 27T12 143Q12 188 27 218T69 267T135 296T219 313L302 324V340Q302 376 281 387T206 398Q165 398 126 394T58 381V516Q102 533 159 541T285 549Q336 549 377 541T448
513T492 461T508 381V0H335L322 40H316Q300 15 265 3T181 -10ZM255 116Q270 116 282 121T302 132V223L259 220Q231 218 220 206T208 167Q208 136 222 126T255 116ZM196 738H363L468 579H322L279 628L237 579H91L196 738Z" />
<glyph unicode="&#xe3;" glyph-name="atilde" horiz-adv-x="540" d="M181 -10Q106 -10 59 27T12 143Q12 188 27 218T69 267T135 296T219 313L302 324V340Q302 376 281 387T206 398Q165 398 126 394T58 381V516Q102 533 159 541T285 549Q336 549 377 541T448 513T492
461T508 381V0H335L322 40H316Q300 15 265 3T181 -10ZM255 116Q270 116 282 121T302 132V223L259 220Q231 218 220 206T208 167Q208 136 222 126T255 116ZM83 586Q87 628 100 657T130 705T169 732T214 741Q233 741 250 737T281 726T306 716T327 711Q340 711 346
718T357 739H476Q472 697 460 668T430 620T390 593T346 584Q326 584 310 588T279 599T254 609T233 614Q210 614 203 586H83Z" />
<glyph unicode="&#xe4;" glyph-name="adieresis" horiz-adv-x="540" d="M181 -10Q106 -10 59 27T12 143Q12 188 27 218T69 267T135 296T219 313L302 324V340Q302 376 281 387T206 398Q165 398 126 394T58 381V516Q102 533 159 541T285 549Q336 549 377 541T448
513T492 461T508 381V0H335L322 40H316Q300 15 265 3T181 -10ZM255 116Q270 116 282 121T302 132V223L259 220Q231 218 220 206T208 167Q208 136 222 126T255 116ZM302 733H469V584H302V733ZM84 733H251V584H84V733Z" />
<glyph unicode="&#xe5;" glyph-name="aring" horiz-adv-x="540" d="M181 -10Q106 -10 59 27T12 143Q12 188 27 218T69 267T135 296T219 313L302 324V340Q302 376 281 387T206 398Q165 398 126 394T58 381V516Q102 533 159 541T285 549Q336 549 377 541T448 513T492
461T508 381V0H335L322 40H316Q300 15 265 3T181 -10ZM255 116Q270 116 282 121T302 132V223L259 220Q231 218 220 206T208 167Q208 136 222 126T255 116ZM278 575Q249 575 226 584T185 610T159 647T150 693Q150 717 159 738T185 776T225 801T278 811Q337 811 372
777T407 693Q407 669 398 648T372 610T331 585T278 575ZM278 649Q298 649 308 661T319 693Q319 713 309 725T278 737Q259 737 249 725T238 693Q238 673 248 661T278 649Z" />
<glyph unicode="&#xe6;" glyph-name="ae" horiz-adv-x="842" d="M185 -10Q107 -10 60 27T12 143Q12 188 27 217T69 265T135 294T219 310L302 321V340Q302 376 281 387T206 398Q165 398 126 394T58 381V516Q102 533 158 541T277 549Q330 549 365 538T421 497Q446
522 484 535T579 549Q648 549 695 530T771 473T814 383T827 262V221H504Q513 168 546 151T644 133Q690 133 731 142T802 162V37Q770 19 718 5T588 -10Q440 -10 367 60Q333 22 288 6T185 -10ZM571 416Q545 416 527 398T503 327H631Q631 377 617 396T571 416ZM315
144Q304 178 299 224L259 222Q231 221 220 208T208 168Q208 137 222 127T255 116Q274 116 287 123T315 144Z" />
<glyph unicode="&#xe7;" glyph-name="ccedilla" horiz-adv-x="477" d="M276 -10V-38Q336 -40 362 -62T388 -122Q388 -172 335 -198T162 -228V-154Q211 -151 232 -145T253 -122Q253 -108 239 -103T187 -96V3Q100 26 58 91T15 261V272Q15 409 90 479T302 549Q359
549 394 543T454 524V377Q431 386 409 391T348 396Q296 396 264 371T231 284V271Q231 203 257 173T346 143Q381 143 409 149T457 162V24Q435 12 395 1T293 -10H276Z" />
<glyph unicode="&#xe8;" glyph-name="egrave" horiz-adv-x="564" d="M310 -10Q160 -10 88 59T15 265V277Q15 337 33 387T87 473T174 529T291 549Q363 549 412 530T492 473T536 383T550 262V220H226Q230 194 240 177T268 150T310 137T366 133Q413 133 454 142T525
162V37Q493 19 441 5T310 -10ZM293 416Q267 416 248 398T224 326H353Q353 377 339 396T293 416ZM118 738H324L384 579H220L118 738Z" />
<glyph unicode="&#xe9;" glyph-name="eacute" horiz-adv-x="564" d="M264 738H470L368 579H204L264 738ZM310 -10Q160 -10 88 59T15 265V277Q15 337 33 387T87 473T174 529T291 549Q363 549 412 530T492 473T536 383T550 262V220H226Q230 194 240 177T268 150T310
137T366 133Q413 133 454 142T525 162V37Q493 19 441 5T310 -10ZM293 416Q267 416 248 398T224 326H353Q353 377 339 396T293 416Z" />
<glyph unicode="&#xea;" glyph-name="ecircumflex" horiz-adv-x="564" d="M211 738H378L483 579H337L294 628L252 579H106L211 738ZM310 -10Q160 -10 88 59T15 265V277Q15 337 33 387T87 473T174 529T291 549Q363 549 412 530T492 473T536 383T550 262V220H226Q230
194 240 177T268 150T310 137T366 133Q413 133 454 142T525 162V37Q493 19 441 5T310 -10ZM293 416Q267 416 248 398T224 326H353Q353 377 339 396T293 416Z" />
<glyph unicode="&#xeb;" glyph-name="edieresis" horiz-adv-x="564" d="M320 733H487V584H320V733ZM102 733H269V584H102V733ZM310 -10Q160 -10 88 59T15 265V277Q15 337 33 387T87 473T174 529T291 549Q363 549 412 530T492 473T536 383T550 262V220H226Q230
194 240 177T268 150T310 137T366 133Q413 133 454 142T525 162V37Q493 19 441 5T310 -10ZM293 416Q267 416 248 398T224 326H353Q353 377 339 396T293 416Z" />
<glyph unicode="&#xec;" glyph-name="igrave" horiz-adv-x="281" d="M37 539H244V0H37V539ZM220 738H426L486 579H322L220 738Z" />
<glyph unicode="&#xed;" glyph-name="iacute" horiz-adv-x="281" d="M367 738H573L471 579H307L367 738ZM37 539H244V0H37V539Z" />
<glyph unicode="&#xee;" glyph-name="icircumflex" horiz-adv-x="281" d="M37 539H244V0H37V539ZM56 738H224L318 579H174L140 628L106 579H-37L56 738Z" />
<glyph unicode="&#xef;" glyph-name="idieresis" horiz-adv-x="281" d="M162 733H312V584H162V733ZM-33 733H118V584H-33V733ZM37 539H244V0H37V539Z" />
<glyph unicode="&#xf0;" glyph-name="eth" horiz-adv-x="601" d="M195 652Q168 677 141 698T87 739H323Q353 720 378 702L486 731L504 658L448 643Q508 584 547 504T586 315V289Q586 212 566 156T509 63T419 8T300 -10Q159 -10 87 58T15 262V273Q15 342 33 391T82
472T152 517T236 532Q260 532 277 528T306 516H311Q299 536 285 555T256 591L113 552L94 625L195 652ZM373 290Q373 319 370 345T360 395Q350 400 337 404T305 408Q285 408 271 403T247 385T233 346T228 281V264Q228 220 233 194T247 153T270 133T301 128Q318 128
331 133T354 154T368 195T373 263V290Z" />
<glyph unicode="&#xf1;" glyph-name="ntilde" horiz-adv-x="599" d="M34 539H235V491H240Q275 521 315 535T407 549Q481 549 524 516T567 401V0H360V343Q360 369 347 379T305 390Q288 390 271 387T241 378V0H34V539ZM110 586Q114 628 127 657T157 705T196 732T241
741Q260 741 277 737T308 726T333 716T354 711Q367 711 373 718T384 739H503Q499 697 487 668T457 620T417 593T373 584Q353 584 337 588T306 599T281 609T260 614Q237 614 230 586H110Z" />
<glyph unicode="&#xf2;" glyph-name="ograve" horiz-adv-x="601" d="M300 -10Q159 -10 87 60T15 261V272Q15 344 37 396T97 482T188 532T300 549Q442 549 514 481T586 279V268Q586 196 564 144T503 58T412 7T300 -10ZM301 128Q318 128 331 133T354 153T368 193T373
259V275Q373 320 368 347T353 388T330 407T299 411Q282 411 269 406T247 386T233 347T228 281V264Q228 220 233 194T248 153T271 133T301 128ZM123 738H329L389 579H225L123 738Z" />
<glyph unicode="&#xf3;" glyph-name="oacute" horiz-adv-x="601" d="M270 738H476L374 579H210L270 738ZM300 -10Q159 -10 87 60T15 261V272Q15 344 37 396T97 482T188 532T300 549Q442 549 514 481T586 279V268Q586 196 564 144T503 58T412 7T300 -10ZM301 128Q318
128 331 133T354 153T368 193T373 259V275Q373 320 368 347T353 388T330 407T299 411Q282 411 269 406T247 386T233 347T228 281V264Q228 220 233 194T248 153T271 133T301 128Z" />
<glyph unicode="&#xf4;" glyph-name="ocircumflex" horiz-adv-x="601" d="M217 738H384L489 579H343L300 628L258 579H112L217 738ZM300 -10Q159 -10 87 60T15 261V272Q15 344 37 396T97 482T188 532T300 549Q442 549 514 481T586 279V268Q586 196 564 144T503
58T412 7T300 -10ZM301 128Q318 128 331 133T354 153T368 193T373 259V275Q373 320 368 347T353 388T330 407T299 411Q282 411 269 406T247 386T233 347T228 281V264Q228 220 233 194T248 153T271 133T301 128Z" />
<glyph unicode="&#xf5;" glyph-name="otilde" horiz-adv-x="601" d="M300 -10Q159 -10 87 60T15 261V272Q15 344 37 396T97 482T188 532T300 549Q442 549 514 481T586 279V268Q586 196 564 144T503 58T412 7T300 -10ZM301 128Q318 128 331 133T354 153T368 193T373
259V275Q373 320 368 347T353 388T330 407T299 411Q282 411 269 406T247 386T233 347T228 281V264Q228 220 233 194T248 153T271 133T301 128ZM103 586Q107 628 120 657T150 705T189 732T234 741Q253 741 270 737T301 726T326 716T347 711Q360 711 366 718T377
739H496Q492 697 480 668T450 620T410 593T366 584Q346 584 330 588T299 599T274 609T253 614Q230 614 223 586H103Z" />
<glyph unicode="&#xf6;" glyph-name="odieresis" horiz-adv-x="601" d="M326 733H493V584H326V733ZM108 733H275V584H108V733ZM300 -10Q159 -10 87 60T15 261V272Q15 344 37 396T97 482T188 532T300 549Q442 549 514 481T586 279V268Q586 196 564 144T503 58T412
7T300 -10ZM301 128Q318 128 331 133T354 153T368 193T373 259V275Q373 320 368 347T353 388T330 407T299 411Q282 411 269 406T247 386T233 347T228 281V264Q228 220 233 194T248 153T271 133T301 128Z" />
<glyph unicode="&#xf7;" glyph-name="divide" horiz-adv-x="526" d="M24 422H501V265H24V422ZM168 227H358V56H168V227ZM168 631H358V460H168V631Z" />
<glyph unicode="&#xf8;" glyph-name="oslash" horiz-adv-x="601" d="M300 -10Q201 -10 137 24L115 0H0L70 79Q15 146 15 261V272Q15 344 37 396T97 482T188 532T300 549Q394 549 460 517L480 539H595L529 464Q586 398 586 279V268Q586 196 564 144T503 58T412
7T300 -10ZM301 121Q320 121 335 127T361 148T378 190T384 259V301L242 143Q253 130 268 126T301 121ZM356 400Q345 411 331 414T299 418Q280 418 265 412T240 391T223 350T217 281V243L356 400Z" />
<glyph unicode="&#xf9;" glyph-name="ugrave" horiz-adv-x="594" d="M197 -10Q120 -10 76 26T32 146V539H239V192Q239 165 252 155T292 144Q310 144 325 148T353 157V539H560V0H377L364 48H359Q323 19 286 5T197 -10ZM122 738H328L388 579H224L122 738Z" />
<glyph unicode="&#xfa;" glyph-name="uacute" horiz-adv-x="594" d="M274 738H480L378 579H214L274 738ZM197 -10Q120 -10 76 26T32 146V539H239V192Q239 165 252 155T292 144Q310 144 325 148T353 157V539H560V0H377L364 48H359Q323 19 286 5T197 -10Z" />
<glyph unicode="&#xfb;" glyph-name="ucircumflex" horiz-adv-x="594" d="M216 738H383L488 579H342L299 628L257 579H111L216 738ZM197 -10Q120 -10 76 26T32 146V539H239V192Q239 165 252 155T292 144Q310 144 325 148T353 157V539H560V0H377L364 48H359Q323
19 286 5T197 -10Z" />
<glyph unicode="&#xfc;" glyph-name="udieresis" horiz-adv-x="594" d="M325 733H492V584H325V733ZM107 733H274V584H107V733ZM197 -10Q120 -10 76 26T32 146V539H239V192Q239 165 252 155T292 144Q310 144 325 148T353 157V539H560V0H377L364 48H359Q323 19 286
5T197 -10Z" />
<glyph unicode="&#xfd;" glyph-name="yacute" horiz-adv-x="586" d="M162 -198Q147 -198 130 -197T97 -194T68 -188T46 -182V-45Q62 -48 77 -50T105 -52Q142 -52 161 -42T188 -9L195 13L-1 539H214L302 247H306L394 539H587L384 -48Q370 -88 351 -116T306 -163T244
-189T162 -198ZM273 738H479L377 579H213L273 738Z" />
<glyph unicode="&#xfe;" glyph-name="thorn" horiz-adv-x="609" d="M34 739H241V496H246Q274 522 309 535T393 549Q432 549 468 537T531 494T575 415T592 291V281Q592 199 574 143T522 53T442 5T340 -10Q302 -10 278 -5T241 6V-195H34V739ZM297 128Q316 128 331
133T357 153T373 192T379 258V273Q379 310 374 333T358 370T334 388T301 393Q283 393 267 389T241 378V142Q250 136 265 132T297 128Z" />
<glyph unicode="&#xff;" glyph-name="ydieresis" horiz-adv-x="586" d="M162 -198Q147 -198 130 -197T97 -194T68 -188T46 -182V-45Q62 -48 77 -50T105 -52Q142 -52 161 -42T188 -9L195 13L-1 539H214L302 247H306L394 539H587L384 -48Q370 -88 351 -116T306 -163T244
-189T162 -198ZM329 733H496V584H329V733ZM111 733H278V584H111V733Z" />
<glyph unicode="&#x100;" glyph-name="Amacron" horiz-adv-x="721" d="M237 693H487L723 0H487L451 115H239L205 0H-3L237 693ZM280 259H408L346 463H341L280 259ZM202 856H519V727H202V856Z" />
<glyph unicode="&#x101;" glyph-name="amacron" horiz-adv-x="540" d="M181 -10Q106 -10 59 27T12 143Q12 188 27 218T69 267T135 296T219 313L302 324V340Q302 376 281 387T206 398Q165 398 126 394T58 381V516Q102 533 159 541T285 549Q336 549 377 541T448
513T492 461T508 381V0H335L322 40H316Q300 15 265 3T181 -10ZM255 116Q270 116 282 121T302 132V223L259 220Q231 218 220 206T208 167Q208 136 222 126T255 116ZM129 714H430V585H129V714Z" />
<glyph unicode="&#x102;" glyph-name="Abreve" horiz-adv-x="721" d="M237 693H487L723 0H487L451 115H239L205 0H-3L237 693ZM280 259H408L346 463H341L280 259ZM360 722Q282 722 238 762T191 866H320Q325 829 360 829Q396 829 401 866H530Q528 802 484 762T360 722Z" />
<glyph unicode="&#x103;" glyph-name="abreve" horiz-adv-x="540" d="M181 -10Q106 -10 59 27T12 143Q12 188 27 218T69 267T135 296T219 313L302 324V340Q302 376 281 387T206 398Q165 398 126 394T58 381V516Q102 533 159 541T285 549Q336 549 377 541T448 513T492
461T508 381V0H335L322 40H316Q300 15 265 3T181 -10ZM255 116Q270 116 282 121T302 132V223L259 220Q231 218 220 206T208 167Q208 136 222 126T255 116ZM279 583Q201 583 157 625T110 735H239Q241 718 251 709T279 699Q298 699 308 708T320 735H449Q447 668 403
626T279 583Z" />
<glyph unicode="&#x104;" glyph-name="Aogonek" horiz-adv-x="721" d="M619 -199Q559 -199 527 -175T495 -111Q495 -71 522 -45T587 0H488L451 116H239L205 0H-3L237 693H487L722 6Q686 -14 670 -30T653 -62Q653 -76 661 -82T683 -88Q691 -88 697 -87T708 -85V-184Q694
-190 671 -194T619 -199ZM280 259H408L346 463H341L280 259Z" />
<glyph unicode="&#x105;" glyph-name="aogonek" horiz-adv-x="540" d="M421 -199Q361 -199 329 -175T297 -111Q297 -71 323 -44T384 0H335L322 40H316Q300 15 265 3T181 -10Q106 -10 59 27T12 143Q12 188 27 218T69 267T135 296T219 313L302 324V340Q302 376 281
387T206 398Q165 398 126 394T58 381V516Q102 533 159 541T285 549Q336 549 377 541T448 513T492 461T508 381V4Q455 -31 455 -62Q455 -76 463 -82T485 -88Q493 -88 499 -87T510 -85V-184Q496 -190 473 -194T421 -199ZM255 116Q270 116 282 121T302 132V223L259
220Q231 218 220 206T208 167Q208 136 222 126T255 116Z" />
<glyph unicode="&#x106;" glyph-name="Cacute" horiz-adv-x="580" d="M365 -12Q283 -12 219 8T110 71T42 178T18 331V356Q18 451 45 517T121 625T233 686T372 705Q440 705 483 698T556 678V513Q529 522 500 527T426 533Q345 533 306 495T266 369V340Q266 251 300
206T422 160Q471 160 504 168T560 184V22Q527 8 482 -2T365 -12ZM315 872H522L426 725H262L315 872Z" />
<glyph unicode="&#x107;" glyph-name="cacute" horiz-adv-x="477" d="M243 738H449L347 579H183L243 738ZM293 -10Q153 -10 84 59T15 261V272Q15 409 90 479T302 549Q359 549 394 543T454 524V377Q431 386 409 391T348 396Q296 396 264 371T231 284V271Q231 203
257 173T346 143Q381 143 409 149T457 162V24Q435 12 395 1T293 -10Z" />
<glyph unicode="&#x108;" glyph-name="Ccircumflex" horiz-adv-x="580" d="M269 864H436L540 725H395L352 763L310 725H165L269 864ZM365 -12Q283 -12 219 8T110 71T42 178T18 331V356Q18 451 45 517T121 625T233 686T372 705Q440 705 483 698T556 678V513Q529
522 500 527T426 533Q345 533 306 495T266 369V340Q266 251 300 206T422 160Q471 160 504 168T560 184V22Q527 8 482 -2T365 -12Z" />
<glyph unicode="&#x109;" glyph-name="ccircumflex" horiz-adv-x="477" d="M190 738H357L462 579H316L273 628L231 579H85L190 738ZM293 -10Q153 -10 84 59T15 261V272Q15 409 90 479T302 549Q359 549 394 543T454 524V377Q431 386 409 391T348 396Q296 396 264
371T231 284V271Q231 203 257 173T346 143Q381 143 409 149T457 162V24Q435 12 395 1T293 -10Z" />
<glyph unicode="&#x10a;" glyph-name="Cdotaccent" horiz-adv-x="580" d="M365 -12Q283 -12 219 8T110 71T42 178T18 331V356Q18 451 45 517T121 625T233 686T372 705Q440 705 483 698T556 678V513Q529 522 500 527T426 533Q345 533 306 495T266 369V340Q266 251
300 206T422 160Q471 160 504 168T560 184V22Q527 8 482 -2T365 -12ZM253 869H452V726H253V869Z" />
<glyph unicode="&#x10b;" glyph-name="cdotaccent" horiz-adv-x="477" d="M293 -10Q153 -10 84 59T15 261V272Q15 409 90 479T302 549Q359 549 394 543T454 524V377Q431 386 409 391T348 396Q296 396 264 371T231 284V271Q231 203 257 173T346 143Q381 143 409
149T457 162V24Q435 12 395 1T293 -10ZM170 733H379V584H170V733Z" />
<glyph unicode="&#x10c;" glyph-name="Ccaron" horiz-adv-x="580" d="M431 725H264L160 864H305L348 826L390 864H535L431 725ZM365 -12Q283 -12 219 8T110 71T42 178T18 331V356Q18 451 45 517T121 625T233 686T372 705Q440 705 483 698T556 678V513Q529 522
500 527T426 533Q345 533 306 495T266 369V340Q266 251 300 206T422 160Q471 160 504 168T560 184V22Q527 8 482 -2T365 -12Z" />
<glyph unicode="&#x10d;" glyph-name="ccaron" horiz-adv-x="477" d="M357 579H190L85 738H231L274 688L316 738H462L357 579ZM293 -10Q153 -10 84 59T15 261V272Q15 409 90 479T302 549Q359 549 394 543T454 524V377Q431 386 409 391T348 396Q296 396 264 371T231
284V271Q231 203 257 173T346 143Q381 143 409 149T457 162V24Q435 12 395 1T293 -10Z" />
<glyph unicode="&#x10e;" glyph-name="Dcaron" horiz-adv-x="703" d="M419 725H252L148 864H293L336 826L378 864H523L419 725ZM43 693H330Q412 693 478 676T589 619T659 517T684 362V338Q684 247 659 183T588 79T476 19T331 0H43V693ZM325 159Q353 159 375 167T411
194T432 247T440 330V366Q440 416 433 448T410 500T373 526T323 534H276V159H325Z" />
<glyph unicode="&#x10f;" glyph-name="dcaron" horiz-adv-x="609" d="M609 574L615 739H748L717 574H609ZM226 -10Q182 -10 144 5T78 53T34 135T17 256V267Q17 344 35 397T86 485T164 534T264 549Q304 549 330 542T368 530V739H574V0H395L382 41H377Q348 15 312
3T226 -10ZM308 139Q327 139 342 143T368 156V398Q359 403 345 407T312 412Q293 412 278 406T252 385T236 345T230 280V264Q230 226 235 202T251 163T275 144T308 139Z" />
<glyph unicode="&#x110;" glyph-name="Dcroat" horiz-adv-x="707" d="M4 423H47V693H335Q417 693 482 676T593 619T663 517T688 362V338Q688 247 663 183T592 79T480 19T335 0H47V271H4V423ZM334 159Q362 159 383 167T419 194T441 247T449 330V366Q449 416 441
448T418 500T381 526T331 534H276V423H376V271H276V159H334Z" />
<glyph unicode="&#x111;" glyph-name="dcroat" horiz-adv-x="609" d="M237 678H368V739H574V678H624V590H574V0H395L382 41H377Q348 15 312 3T226 -10Q182 -10 144 5T78 53T34 135T17 256V267Q17 344 35 397T86 485T164 534T264 549Q304 549 330 542T368 530V590H237V678ZM308
139Q327 139 342 143T368 156V398Q359 403 345 407T312 412Q293 412 278 406T252 385T236 345T230 280V264Q230 226 235 202T251 163T275 144T308 139Z" />
<glyph unicode="&#x112;" glyph-name="Emacron" horiz-adv-x="582" d="M43 693H546V532H273V431H488V273H273V161H559V0H43V693ZM140 856H457V727H140V856Z" />
<glyph unicode="&#x113;" glyph-name="emacron" horiz-adv-x="564" d="M310 -10Q160 -10 88 59T15 265V277Q15 337 33 387T87 473T174 529T291 549Q363 549 412 530T492 473T536 383T550 262V220H226Q230 194 240 177T268 150T310 137T366 133Q413 133 454 142T525
162V37Q493 19 441 5T310 -10ZM293 416Q267 416 248 398T224 326H353Q353 377 339 396T293 416ZM144 714H445V585H144V714Z" />
<glyph unicode="&#x114;" glyph-name="Ebreve" horiz-adv-x="582" d="M43 693H546V532H273V431H488V273H273V161H559V0H43V693ZM299 722Q221 722 177 762T130 866H259Q264 829 299 829Q335 829 340 866H469Q467 802 423 762T299 722Z" />
<glyph unicode="&#x115;" glyph-name="ebreve" horiz-adv-x="564" d="M310 -10Q160 -10 88 59T15 265V277Q15 337 33 387T87 473T174 529T291 549Q363 549 412 530T492 473T536 383T550 262V220H226Q230 194 240 177T268 150T310 137T366 133Q413 133 454 142T525
162V37Q493 19 441 5T310 -10ZM293 416Q267 416 248 398T224 326H353Q353 377 339 396T293 416ZM291 583Q213 583 169 625T122 735H251Q253 718 263 709T291 699Q310 699 320 708T332 735H461Q459 668 415 626T291 583Z" />
<glyph unicode="&#x116;" glyph-name="Edotaccent" horiz-adv-x="582" d="M205 869H404V726H205V869ZM43 693H546V532H273V431H488V273H273V161H559V0H43V693Z" />
<glyph unicode="&#x117;" glyph-name="edotaccent" horiz-adv-x="564" d="M310 -10Q160 -10 88 59T15 265V277Q15 337 33 387T87 473T174 529T291 549Q363 549 412 530T492 473T536 383T550 262V220H226Q230 194 240 177T268 150T310 137T366 133Q413 133 454
142T525 162V37Q493 19 441 5T310 -10ZM293 416Q267 416 248 398T224 326H353Q353 377 339 396T293 416ZM191 733H400V584H191V733Z" />
<glyph unicode="&#x118;" glyph-name="Eogonek" horiz-adv-x="582" d="M43 693H546V532H273V431H488V273H273V161H559V0H513Q495 -17 483 -32T470 -62Q470 -76 478 -82T500 -88Q508 -88 514 -87T525 -85V-184Q511 -191 488 -195T436 -199Q376 -199 344 -175T312
-111Q312 -73 335 -45T390 0H43V693Z" />
<glyph unicode="&#x119;" glyph-name="eogonek" horiz-adv-x="564" d="M373 -199Q313 -199 281 -175T249 -111Q249 -74 271 -51T322 -10H310Q160 -10 88 59T15 265V277Q15 337 33 387T87 473T174 529T291 549Q363 549 412 530T492 473T536 383T550 262V220H226Q230
194 240 177T268 150T310 137T366 133Q413 133 454 142T525 162V37Q511 29 495 21T460 1Q440 -11 424 -26T408 -62Q408 -76 416 -82T437 -88Q445 -88 451 -87T462 -85V-184Q448 -190 425 -194T373 -199ZM293 416Q267 416 248 398T224 326H353Q353 377 339 396T293
416Z" />
<glyph unicode="&#x11a;" glyph-name="Ecaron" horiz-adv-x="582" d="M383 725H216L112 864H257L300 826L342 864H487L383 725ZM43 693H546V532H273V431H488V273H273V161H559V0H43V693Z" />
<glyph unicode="&#x11b;" glyph-name="ecaron" horiz-adv-x="564" d="M376 579H209L104 738H250L293 688L335 738H481L376 579ZM310 -10Q160 -10 88 59T15 265V277Q15 337 33 387T87 473T174 529T291 549Q363 549 412 530T492 473T536 383T550 262V220H226Q230
194 240 177T268 150T310 137T366 133Q413 133 454 142T525 162V37Q493 19 441 5T310 -10ZM293 416Q267 416 248 398T224 326H353Q353 377 339 396T293 416Z" />
<glyph unicode="&#x11c;" glyph-name="Gcircumflex" horiz-adv-x="676" d="M287 864H454L558 725H413L370 763L328 725H183L287 864ZM387 -11Q301 -11 233 7T117 66T44 173T18 337V360Q18 459 48 525T130 631T249 688T391 705Q468 705 524 694T611 668V502Q582
511 539 520T431 529Q378 529 345 519T292 487T265 435T258 363V332Q258 287 262 253T280 196T317 162T379 150Q396 150 410 153T434 159V243H352V388H648V36Q628 28 600 20T537 4T464 -7T387 -11Z" />
<glyph unicode="&#x11d;" glyph-name="gcircumflex" horiz-adv-x="560" d="M193 738H360L465 579H319L276 628L234 579H88L193 738ZM259 -200Q188 -200 137 -191T54 -166T6 -126T-9 -75Q-9 -33 19 -9T89 30V35Q63 46 47 67T30 120Q30 155 49 183T98 233Q63 254
44 286T25 366V372Q25 460 89 504T266 549Q325 549 370 540H551V427H489Q502 407 502 375V369Q502 284 440 242T265 199Q225 199 192 205Q185 193 185 184Q185 170 193 165T224 159H378Q468 159 514 122T561 3Q561 -90 487 -145T259 -200ZM259 -81Q319 -81 340
-68T361 -34Q361 -14 349 -8T300 -2H199Q187 -7 179 -15T171 -39Q171 -57 188 -69T259 -81ZM266 300Q289 300 302 314T316 369V376Q316 421 303 433T265 446Q241 446 229 432T216 377V370Q216 328 228 314T266 300Z" />
<glyph unicode="&#x11e;" glyph-name="Gbreve" horiz-adv-x="676" d="M370 722Q292 722 248 762T201 866H330Q335 829 370 829Q406 829 411 866H540Q538 802 494 762T370 722ZM387 -11Q301 -11 233 7T117 66T44 173T18 337V360Q18 459 48 525T130 631T249 688T391
705Q468 705 524 694T611 668V502Q582 511 539 520T431 529Q378 529 345 519T292 487T265 435T258 363V332Q258 287 262 253T280 196T317 162T379 150Q396 150 410 153T434 159V243H352V388H648V36Q628 28 600 20T537 4T464 -7T387 -11Z" />
<glyph unicode="&#x11f;" glyph-name="gbreve" horiz-adv-x="560" d="M259 -200Q188 -200 137 -191T54 -166T6 -126T-9 -75Q-9 -33 19 -9T89 30V35Q63 46 47 67T30 120Q30 155 49 183T98 233Q63 254 44 286T25 366V372Q25 460 89 504T266 549Q325 549 370 540H551V427H489Q502
407 502 375V369Q502 284 440 242T265 199Q225 199 192 205Q185 193 185 184Q185 170 193 165T224 159H378Q468 159 514 122T561 3Q561 -90 487 -145T259 -200ZM259 -81Q319 -81 340 -68T361 -34Q361 -14 349 -8T300 -2H199Q187 -7 179 -15T171 -39Q171 -57 188
-69T259 -81ZM266 300Q289 300 302 314T316 369V376Q316 421 303 433T265 446Q241 446 229 432T216 377V370Q216 328 228 314T266 300ZM281 583Q203 583 159 625T112 735H241Q243 718 253 709T281 699Q300 699 310 708T322 735H451Q449 668 405 626T281 583Z" />
<glyph unicode="&#x120;" glyph-name="Gdotaccent" horiz-adv-x="676" d="M271 869H470V726H271V869ZM387 -11Q301 -11 233 7T117 66T44 173T18 337V360Q18 459 48 525T130 631T249 688T391 705Q468 705 524 694T611 668V502Q582 511 539 520T431 529Q378 529
345 519T292 487T265 435T258 363V332Q258 287 262 253T280 196T317 162T379 150Q396 150 410 153T434 159V243H352V388H648V36Q628 28 600 20T537 4T464 -7T387 -11Z" />
<glyph unicode="&#x121;" glyph-name="gdotaccent" horiz-adv-x="560" d="M259 -200Q188 -200 137 -191T54 -166T6 -126T-9 -75Q-9 -33 19 -9T89 30V35Q63 46 47 67T30 120Q30 155 49 183T98 233Q63 254 44 286T25 366V372Q25 460 89 504T266 549Q325 549 370
540H551V427H489Q502 407 502 375V369Q502 284 440 242T265 199Q225 199 192 205Q185 193 185 184Q185 170 193 165T224 159H378Q468 159 514 122T561 3Q561 -90 487 -145T259 -200ZM259 -81Q319 -81 340 -68T361 -34Q361 -14 349 -8T300 -2H199Q187 -7 179 -15T171
-39Q171 -57 188 -69T259 -81ZM266 300Q289 300 302 314T316 369V376Q316 421 303 433T265 446Q241 446 229 432T216 377V370Q216 328 228 314T266 300ZM173 733H382V584H173V733Z" />
<glyph unicode="&#x122;" glyph-name="Gcommaaccent" horiz-adv-x="676" d="M286 -33H464L416 -182H276L286 -33ZM387 -11Q301 -11 233 7T117 66T44 173T18 337V360Q18 459 48 525T130 631T249 688T391 705Q468 705 524 694T611 668V502Q582 511 539 520T431 529Q378
529 345 519T292 487T265 435T258 363V332Q258 287 262 253T280 196T317 162T379 150Q396 150 410 153T434 159V243H352V388H648V36Q628 28 600 20T537 4T464 -7T387 -11Z" />
<glyph unicode="&#x123;" glyph-name="gcommaaccent" horiz-adv-x="560" d="M358 582H181L229 731H369L358 582ZM259 -200Q188 -200 137 -191T54 -166T6 -126T-9 -75Q-9 -33 19 -9T89 30V35Q63 46 47 67T30 120Q30 155 49 183T98 233Q63 254 44 286T25 366V372Q25
460 89 504T266 549Q325 549 370 540H551V427H489Q502 407 502 375V369Q502 284 440 242T265 199Q225 199 192 205Q185 193 185 184Q185 170 193 165T224 159H378Q468 159 514 122T561 3Q561 -90 487 -145T259 -200ZM259 -81Q319 -81 340 -68T361 -34Q361 -14 349
-8T300 -2H199Q187 -7 179 -15T171 -39Q171 -57 188 -69T259 -81ZM266 300Q289 300 302 314T316 369V376Q316 421 303 433T265 446Q241 446 229 432T216 377V370Q216 328 228 314T266 300Z" />
<glyph unicode="&#x124;" glyph-name="Hcircumflex" horiz-adv-x="727" d="M43 693H276V436H451V693H684V0H451V273H276V0H43V693ZM279 864H446L550 725H405L362 763L320 725H175L279 864Z" />
<glyph unicode="&#x125;" glyph-name="hcircumflex" horiz-adv-x="599" d="M34 739H241V496H246Q277 522 316 535T407 549Q481 549 524 516T567 401V0H360V343Q360 369 347 379T305 390Q288 390 271 387T241 378V0H34V739ZM223 910H390L494 771H349L306 809L264
771H119L223 910Z" />
<glyph unicode="&#x126;" glyph-name="Hbar" horiz-adv-x="727" d="M-1 600H43V693H276V600H451V693H684V600H728V502H684V0H451V273H276V0H43V502H-1V600ZM451 430V502H276V430H451Z" />
<glyph unicode="&#x127;" glyph-name="hbar" horiz-adv-x="599" d="M34 590H-15V678H34V739H241V678H372V590H241V496H246Q277 522 316 535T407 549Q481 549 524 516T567 401V0H360V343Q360 369 347 379T305 390Q288 390 271 387T241 378V0H34V590Z" />
<glyph unicode="&#x128;" glyph-name="Itilde" horiz-adv-x="326" d="M47 693H279V0H47V693ZM223 726Q227 768 240 796T270 842T309 866T354 874Q373 874 390 870T421 861T446 851T467 847Q480 847 486 853T497 871H616Q612 829 600 801T570 756T530 732T486 724Q466
724 450 728T419 737T394 747T373 751Q350 751 343 726H223Z" />
<glyph unicode="&#x129;" glyph-name="itilde" horiz-adv-x="281" d="M37 539H244V0H37V539ZM-43 586Q-39 628 -28 657T1 705T38 732T80 741Q98 741 113 737T140 727T163 717T182 712Q195 712 200 719T209 739H324Q320 697 309 668T280 620T243 593T201 584Q183
584 168 588T139 598T116 607T97 612Q85 612 80 605T71 586H-43Z" />
<glyph unicode="&#x12a;" glyph-name="Imacron" horiz-adv-x="326" d="M47 693H279V0H47V693ZM9 856H317V727H9V856Z" />
<glyph unicode="&#x12b;" glyph-name="imacron" horiz-adv-x="281" d="M4 714H278V585H4V714ZM37 539H244V0H37V539Z" />
<glyph unicode="&#x12c;" glyph-name="Ibreve" horiz-adv-x="326" d="M47 693H279V0H47V693ZM419 722Q341 722 297 762T250 866H379Q384 829 419 829Q455 829 460 866H589Q587 802 543 762T419 722Z" />
<glyph unicode="&#x12d;" glyph-name="ibreve" horiz-adv-x="281" d="M37 539H244V0H37V539ZM140 583Q62 583 21 625T-23 735H101Q103 718 113 709T140 699Q158 699 167 708T179 735H304Q302 668 261 626T140 583Z" />
<glyph unicode="&#x12e;" glyph-name="Iogonek" horiz-adv-x="326" d="M62 -111Q62 -73 86 -45T141 0H47V693H280V3Q249 -12 235 -29T221 -62Q221 -88 250 -88Q258 -88 264 -87T275 -85V-184Q261 -190 238 -194T186 -199Q126 -199 94 -175T62 -111Z" />
<glyph unicode="&#x12f;" glyph-name="iogonek" horiz-adv-x="281" d="M33 -111Q33 -73 56 -45T111 0H37V539H244V3Q218 -11 205 -29T191 -62Q191 -76 199 -82T220 -88Q228 -88 234 -87T245 -85V-184Q231 -191 208 -195T156 -199Q96 -199 65 -175T33 -111ZM36
733H245V584H36V733Z" />
<glyph unicode="&#x130;" glyph-name="Idotaccent" horiz-adv-x="326" d="M47 693H279V0H47V693ZM321 869H520V726H321V869Z" />
<glyph unicode="&#x131;" glyph-name="dotlessi" horiz-adv-x="281" d="M37 539H244V0H37V539Z" />
<glyph unicode="&#x132;" glyph-name="IJ" horiz-adv-x="756" d="M47 693H279V0H47V693ZM327 177Q341 174 358 172T393 169Q432 169 459 185T486 245V693H719V212Q719 163 704 123T660 53T586 8T482 -8Q422 -8 386 1T327 22V177Z" />
<glyph unicode="&#x133;" glyph-name="ij" horiz-adv-x="563" d="M37 539H244V0H37V539ZM36 733H245V584H36V733ZM319 -197Q284 -197 256 -192T213 -180V-50Q220 -51 229 -52T249 -53Q283 -53 300 -39T318 7V539H525V-15Q525 -56 514 -89T479 -147T416 -184T319
-197ZM317 733H526V584H317V733Z" />
<glyph unicode="&#x134;" glyph-name="Jcircumflex" horiz-adv-x="456" d="M221 864H388L492 725H347L304 763L262 725H117L221 864ZM177 -8Q114 -8 77 2T15 25V178Q29 175 48 172T88 169Q108 169 126 172T157 185T178 208T186 245V693H419V212Q419 163 404 123T358
53T283 8T177 -8Z" />
<glyph unicode="&#x135;" glyph-name="jcircumflex" horiz-adv-x="281" d="M57 738H224L318 579H175L140 628L106 579H-37L57 738ZM38 -197Q3 -197 -25 -192T-68 -180V-50Q-61 -51 -52 -52T-32 -53Q2 -53 19 -39T37 7V539H244V-15Q244 -56 233 -89T198 -147T135
-184T38 -197Z" />
<glyph unicode="&#x136;" glyph-name="Kcommaaccent" horiz-adv-x="706" d="M267 -33H445L397 -182H257L267 -33ZM43 693H276V400L464 693H697L482 366L712 0H455L276 286V0H43V693Z" />
<glyph unicode="&#x137;" glyph-name="kcommaaccent" horiz-adv-x="588" d="M213 -33H391L343 -182H203L213 -33ZM241 234V0H34V739H241V327L375 539H579L421 295L586 0H368L241 234Z" />
<glyph unicode="&#x139;" glyph-name="Lacute" horiz-adv-x="541" d="M378 872H585L489 725H325L378 872ZM43 693H276V161H523V0H43V693Z" />
<glyph unicode="&#x13a;" glyph-name="lacute" horiz-adv-x="281" d="M361 918H568L472 771H308L361 918ZM37 739H244V0H37V739Z" />
<glyph unicode="&#x13b;" glyph-name="Lcommaaccent" horiz-adv-x="541" d="M201 -33H379L331 -182H191L201 -33ZM43 693H276V161H523V0H43V693Z" />
<glyph unicode="&#x13c;" glyph-name="lcommaaccent" horiz-adv-x="281" d="M313 -33H491L443 -182H303L313 -33ZM37 739H244V0H37V739Z" />
<glyph unicode="&#x13d;" glyph-name="Lcaron" horiz-adv-x="541" d="M43 693H276V161H523V0H43V693ZM330 503L338 693H496L462 503H330Z" />
<glyph unicode="&#x13e;" glyph-name="lcaron" horiz-adv-x="281" d="M278 574L284 739H417L386 574H278ZM37 739H244V0H37V739Z" />
<glyph unicode="&#x13f;" glyph-name="Ldot" horiz-adv-x="541" d="M43 693H276V161H523V0H43V693ZM348 446H518V295H348V446Z" />
<glyph unicode="&#x140;" glyph-name="ldot" horiz-adv-x="424" d="M37 739H244V0H37V739ZM277 427H429V289H277V427Z" />
<glyph unicode="&#x141;" glyph-name="Lslash" horiz-adv-x="554" d="M4 346L55 364V693H288V447L448 505V352L288 293V161H536V0H55V211L4 193V346Z" />
<glyph unicode="&#x142;" glyph-name="lslash" horiz-adv-x="312" d="M3 381L52 405V739H259V507L314 535V382L259 353V0H52V251L3 227V381Z" />
<glyph unicode="&#x143;" glyph-name="Nacute" horiz-adv-x="722" d="M344 872H551L455 725H291L344 872ZM43 693H291L479 360H483V693H679V0H461L243 382H239V0H43V693Z" />
<glyph unicode="&#x144;" glyph-name="nacute" horiz-adv-x="599" d="M276 738H482L380 579H216L276 738ZM34 539H235V491H240Q275 521 315 535T407 549Q481 549 524 516T567 401V0H360V343Q360 369 347 379T305 390Q288 390 271 387T241 378V0H34V539Z" />
<glyph unicode="&#x145;" glyph-name="Ncommaaccent" horiz-adv-x="722" d="M278 -31H456L408 -180H268L278 -31ZM43 693H291L479 360H483V693H679V0H461L243 382H239V0H43V693Z" />
<glyph unicode="&#x146;" glyph-name="ncommaaccent" horiz-adv-x="599" d="M218 -33H396L348 -182H208L218 -33ZM34 539H235V491H240Q275 521 315 535T407 549Q481 549 524 516T567 401V0H360V343Q360 369 347 379T305 390Q288 390 271 387T241 378V0H34V539Z" />
<glyph unicode="&#x147;" glyph-name="Ncaron" horiz-adv-x="722" d="M464 725H297L193 864H338L381 826L423 864H568L464 725ZM43 693H291L479 360H483V693H679V0H461L243 382H239V0H43V693Z" />
<glyph unicode="&#x148;" glyph-name="ncaron" horiz-adv-x="599" d="M390 579H223L118 738H264L307 688L349 738H495L390 579ZM34 539H235V491H240Q275 521 315 535T407 549Q481 549 524 516T567 401V0H360V343Q360 369 347 379T305 390Q288 390 271 387T241
378V0H34V539Z" />
<glyph unicode="&#x149;" glyph-name="napostrophe" horiz-adv-x="708" d="M208 693H395L353 462H197L208 693ZM143 539H344V491H349Q384 521 424 535T516 549Q590 549 633 516T676 401V0H469V343Q469 369 456 379T414 390Q397 390 380 387T350 378V0H143V539Z" />
<glyph unicode="&#x14a;" glyph-name="Eng" horiz-adv-x="722" d="M448 -177Q405 -177 375 -170T324 -154V-27Q335 -29 352 -32T393 -35Q456 -35 473 -7L243 382H239V0H43V693H291L479 361H483V693H679V25Q679 -23 667 -60T628 -124T557 -163T448 -177Z" />
<glyph unicode="&#x14b;" glyph-name="eng" horiz-adv-x="599" d="M260 -54Q266 -55 273 -55T294 -56Q326 -56 343 -42T360 3V343Q360 369 347 379T305 390Q288 390 271 387T241 378V0H34V539H235V491H240Q275 521 315 535T407 549Q481 549 524 516T567 401V-15Q567
-56 556 -89T521 -147T459 -184T365 -197Q327 -197 301 -193T259 -180L260 -54Z" />
<glyph unicode="&#x14c;" glyph-name="Omacron" horiz-adv-x="730" d="M207 856H524V727H207V856ZM362 -12Q293 -12 231 6T121 66T46 172T18 332V356Q18 453 48 519T128 627T240 686T368 705Q437 705 499 687T609 627T684 521T712 362V338Q712 241 682 174T603
66T490 7T362 -12ZM366 154Q391 154 410 163T442 192T461 246T468 326V362Q468 414 462 448T443 502T411 530T365 539Q315 539 289 501T262 367V332Q262 277 269 243T290 189T323 162T366 154Z" />
<glyph unicode="&#x14d;" glyph-name="omacron" horiz-adv-x="601" d="M150 714H451V585H150V714ZM300 -10Q159 -10 87 60T15 261V272Q15 344 37 396T97 482T188 532T300 549Q442 549 514 481T586 279V268Q586 196 564 144T503 58T412 7T300 -10ZM301 128Q318
128 331 133T354 153T368 193T373 259V275Q373 320 368 347T353 388T330 407T299 411Q282 411 269 406T247 386T233 347T228 281V264Q228 220 233 194T248 153T271 133T301 128Z" />
<glyph unicode="&#x14e;" glyph-name="Obreve" horiz-adv-x="730" d="M365 722Q287 722 243 762T196 866H325Q330 829 365 829Q401 829 406 866H535Q533 802 489 762T365 722ZM362 -12Q293 -12 231 6T121 66T46 172T18 332V356Q18 453 48 519T128 627T240 686T368
705Q437 705 499 687T609 627T684 521T712 362V338Q712 241 682 174T603 66T490 7T362 -12ZM366 154Q391 154 410 163T442 192T461 246T468 326V362Q468 414 462 448T443 502T411 530T365 539Q315 539 289 501T262 367V332Q262 277 269 243T290 189T323 162T366
154Z" />
<glyph unicode="&#x14f;" glyph-name="obreve" horiz-adv-x="601" d="M300 -10Q159 -10 87 60T15 261V272Q15 344 37 396T97 482T188 532T300 549Q442 549 514 481T586 279V268Q586 196 564 144T503 58T412 7T300 -10ZM301 128Q318 128 331 133T354 153T368 193T373
259V275Q373 320 368 347T353 388T330 407T299 411Q282 411 269 406T247 386T233 347T228 281V264Q228 220 233 194T248 153T271 133T301 128ZM300 583Q222 583 178 625T131 735H260Q262 718 272 709T300 699Q319 699 329 708T341 735H470Q468 668 424 626T300
583Z" />
<glyph unicode="&#x150;" glyph-name="Ohungarumlaut" horiz-adv-x="730" d="M434 874H615L550 725H395L434 874ZM217 874H398L333 725H178L217 874ZM362 -12Q293 -12 231 6T121 66T46 172T18 332V356Q18 453 48 519T128 627T240 686T368 705Q437 705 499 687T609
627T684 521T712 362V338Q712 241 682 174T603 66T490 7T362 -12ZM366 154Q391 154 410 163T442 192T461 246T468 326V362Q468 414 462 448T443 502T411 530T365 539Q315 539 289 501T262 367V332Q262 277 269 243T290 189T323 162T366 154Z" />
<glyph unicode="&#x151;" glyph-name="ohungarumlaut" horiz-adv-x="601" d="M373 738H554L485 579H330L373 738ZM156 738H337L268 579H113L156 738ZM300 -10Q159 -10 87 60T15 261V272Q15 344 37 396T97 482T188 532T300 549Q442 549 514 481T586 279V268Q586
196 564 144T503 58T412 7T300 -10ZM301 128Q318 128 331 133T354 153T368 193T373 259V275Q373 320 368 347T353 388T330 407T299 411Q282 411 269 406T247 386T233 347T228 281V264Q228 220 233 194T248 153T271 133T301 128Z" />
<glyph unicode="&#x152;" glyph-name="OE" horiz-adv-x="955" d="M371 0Q289 0 224 17T113 74T43 176T18 331V355Q18 446 43 510T114 614T226 674T371 693H919V532H654V431H861V273H654V161H932V0H371ZM424 159V534H376Q348 534 327 526T292 499T270 446T262 363V327Q262
277 270 245T293 193T329 167T378 159H424Z" />
<glyph unicode="&#x153;" glyph-name="oe" horiz-adv-x="922" d="M295 -10Q157 -10 86 60T15 261V272Q15 343 37 395T97 482T186 532T296 549Q364 549 410 533T486 484Q514 515 555 532T657 549Q727 549 775 530T852 473T895 383T908 262V220H585Q589 194 599
177T627 150T668 137T724 133Q771 133 812 142T883 162V37Q851 19 802 5T683 -10Q609 -10 560 8T480 61Q416 -10 295 -10ZM301 129Q318 129 331 134T354 154T368 193T373 259V275Q373 320 368 347T353 388T330 407T299 411Q282 411 269 406T246 386T233 347T228
281V264Q228 220 233 194T248 153T271 134T301 129ZM651 416Q625 416 607 398T583 326H711Q711 377 697 396T651 416Z" />
<glyph unicode="&#x154;" glyph-name="Racute" horiz-adv-x="676" d="M289 872H496L400 725H236L289 872ZM43 693H367Q505 693 573 641T641 471Q641 400 613 361T532 297V294L678 0H440L327 237H276V0H43V693ZM332 371Q375 371 394 393T413 459Q413 501 394 521T330
541H272V371H332Z" />
<glyph unicode="&#x155;" glyph-name="racute" horiz-adv-x="413" d="M468 738H674L572 579H408L468 738ZM34 539H235V472H240Q260 505 293 524T369 544Q391 544 400 540V357Q392 359 379 361T352 363Q284 363 241 346V0H34V539Z" />
<glyph unicode="&#x156;" glyph-name="Rcommaaccent" horiz-adv-x="676" d="M266 -33H444L396 -182H256L266 -33ZM43 693H367Q505 693 573 641T641 471Q641 400 613 361T532 297V294L678 0H440L327 237H276V0H43V693ZM332 371Q375 371 394 393T413 459Q413 501
394 521T330 541H272V371H332Z" />
<glyph unicode="&#x157;" glyph-name="rcommaaccent" horiz-adv-x="413" d="M305 -33H483L435 -182H295L305 -33ZM34 539H235V472H240Q260 505 293 524T369 544Q391 544 400 540V357Q392 359 379 361T352 363Q284 363 241 346V0H34V539Z" />
<glyph unicode="&#x158;" glyph-name="Rcaron" horiz-adv-x="676" d="M409 725H242L138 864H283L326 826L368 864H513L409 725ZM43 693H367Q505 693 573 641T641 471Q641 400 613 361T532 297V294L678 0H440L327 237H276V0H43V693ZM332 371Q375 371 394 393T413
459Q413 501 394 521T330 541H272V371H332Z" />
<glyph unicode="&#x159;" glyph-name="rcaron" horiz-adv-x="413" d="M582 579H415L310 738H456L499 688L541 738H687L582 579ZM34 539H235V472H240Q260 505 293 524T369 544Q391 544 400 540V357Q392 359 379 361T352 363Q284 363 241 346V0H34V539Z" />
<glyph unicode="&#x15a;" glyph-name="Sacute" horiz-adv-x="565" d="M260 -12Q184 -12 122 -2T21 27V192Q69 176 118 166T230 155Q283 155 303 166T323 202Q323 213 320 220T309 233T286 243T248 251L203 260Q160 268 126 282T67 322T29 385T16 479Q16 528 32
569T81 641T166 688T288 705Q333 705 366 702T426 695T471 684T505 670V508Q467 521 420 530T313 540Q233 540 233 496Q233 475 249 466T307 448L351 440Q400 431 437 417T499 378T537 317T550 226Q550 108 475 48T260 -12ZM249 872H456L360 725H196L249 872Z"
/>
<glyph unicode="&#x15b;" glyph-name="sacute" horiz-adv-x="476" d="M469 738H675L573 579H409L469 738ZM211 -10Q183 -10 156 -8T103 -1T57 10T19 24V159Q51 148 88 139T180 130Q225 130 243 138T261 163Q261 179 250 184T211 194L161 201Q89 212 52 252T15
371Q15 456 71 502T246 549Q306 549 349 542T426 522V388Q398 396 362 403T276 411Q241 411 225 405T209 381Q209 365 222 360T264 349L313 342Q396 329 428 288T461 177Q461 84 402 37T211 -10Z" />
<glyph unicode="&#x15c;" glyph-name="Scircumflex" horiz-adv-x="565" d="M203 864H370L474 725H329L286 763L244 725H99L203 864ZM260 -12Q184 -12 122 -2T21 27V192Q69 176 118 166T230 155Q283 155 303 166T323 202Q323 213 320 220T309 233T286 243T248 251L203
260Q160 268 126 282T67 322T29 385T16 479Q16 528 32 569T81 641T166 688T288 705Q333 705 366 702T426 695T471 684T505 670V508Q467 521 420 530T313 540Q233 540 233 496Q233 475 249 466T307 448L351 440Q400 431 437 417T499 378T537 317T550 226Q550 108
475 48T260 -12Z" />
<glyph unicode="&#x15d;" glyph-name="scircumflex" horiz-adv-x="476" d="M416 738H583L688 579H542L499 628L457 579H311L416 738ZM211 -10Q183 -10 156 -8T103 -1T57 10T19 24V159Q51 148 88 139T180 130Q225 130 243 138T261 163Q261 179 250 184T211 194L161
201Q89 212 52 252T15 371Q15 456 71 502T246 549Q306 549 349 542T426 522V388Q398 396 362 403T276 411Q241 411 225 405T209 381Q209 365 222 360T264 349L313 342Q396 329 428 288T461 177Q461 84 402 37T211 -10Z" />
<glyph unicode="&#x15e;" glyph-name="Scedilla" horiz-adv-x="565" d="M169 -154Q218 -151 238 -145T259 -122Q259 -108 245 -103T193 -96V-10Q139 -6 95 3T21 27V192Q69 176 118 166T230 155Q283 155 303 166T323 202Q323 213 320 220T309 233T286 243T248 251L203
260Q160 268 126 282T67 322T29 385T16 479Q16 528 32 569T81 641T166 688T288 705Q333 705 366 702T426 695T471 684T505 670V508Q467 521 420 530T313 540Q233 540 233 496Q233 475 249 466T307 448L351 440Q400 431 437 417T499 378T537 317T550 226Q550 112
481 53T282 -11V-38Q343 -40 369 -62T395 -122Q395 -172 342 -198T169 -228V-154Z" />
<glyph unicode="&#x15f;" glyph-name="scedilla" horiz-adv-x="475" d="M133 -154Q182 -151 202 -145T223 -122Q223 -108 209 -103T157 -96V-7Q115 -3 79 5T19 24V159Q51 148 88 139T180 130Q225 130 243 138T261 163Q261 179 250 184T211 194L161 201Q89 212
52 252T15 371Q15 456 71 502T246 549Q306 549 349 542T426 522V388Q398 396 362 403T276 411Q241 411 225 405T209 381Q209 365 222 360T264 349L313 342Q396 329 428 288T461 177Q461 90 410 44T246 -9V-38Q307 -40 333 -62T359 -122Q359 -172 306 -198T133 -228V-154Z"
/>
<glyph unicode="&#x160;" glyph-name="Scaron" horiz-adv-x="565" d="M364 725H197L93 864H238L281 826L323 864H468L364 725ZM260 -12Q184 -12 122 -2T21 27V192Q69 176 118 166T230 155Q283 155 303 166T323 202Q323 213 320 220T309 233T286 243T248 251L203
260Q160 268 126 282T67 322T29 385T16 479Q16 528 32 569T81 641T166 688T288 705Q333 705 366 702T426 695T471 684T505 670V508Q467 521 420 530T313 540Q233 540 233 496Q233 475 249 466T307 448L351 440Q400 431 437 417T499 378T537 317T550 226Q550 108
475 48T260 -12Z" />
<glyph unicode="&#x161;" glyph-name="scaron" horiz-adv-x="475" d="M583 579H416L311 738H457L500 688L542 738H688L583 579ZM211 -10Q183 -10 156 -8T103 -1T57 10T19 24V159Q51 148 88 139T180 130Q225 130 243 138T261 163Q261 179 250 184T211 194L161 201Q89
212 52 252T15 371Q15 456 71 502T246 549Q306 549 349 542T426 522V388Q398 396 362 403T276 411Q241 411 225 405T209 381Q209 365 222 360T264 349L313 342Q396 329 428 288T461 177Q461 84 402 37T211 -10Z" />
<glyph unicode="&#x162;" glyph-name="Tcommaaccent" horiz-adv-x="602" d="M215 -33H393L345 -182H205L215 -33ZM184 532H11V693H591V532H417V0H184V532Z" />
<glyph unicode="&#x163;" glyph-name="tcommaaccent" horiz-adv-x="399" d="M393 -33H571L523 -182H383L393 -33ZM253 -9Q209 -9 175 -2T118 25T83 75T71 154V399H8V539H71V666H279V539H380V399H279V183Q279 158 292 150T333 141Q345 141 358 143T380 147V14Q364
6 331 -1T253 -9Z" />
<glyph unicode="&#x164;" glyph-name="Tcaron" horiz-adv-x="602" d="M384 725H217L113 864H258L301 826L343 864H488L384 725ZM184 532H11V693H591V532H417V0H184V532Z" />
<glyph unicode="&#x165;" glyph-name="tcaron" horiz-adv-x="399" d="M314 574L320 739H453L422 574H314ZM253 -9Q209 -9 175 -2T118 25T83 75T71 154V399H8V539H71V666H279V539H380V399H279V183Q279 158 292 150T333 141Q345 141 358 143T380 147V14Q364 6 331
-1T253 -9Z" />
<glyph unicode="&#x166;" glyph-name="Tbar" horiz-adv-x="602" d="M65 411H184V532H11V693H591V532H417V411H537V296H417V0H184V296H65V411Z" />
<glyph unicode="&#x167;" glyph-name="tbar" horiz-adv-x="399" d="M8 348H71V399H8V539H71V666H279V539H380V399H279V348H380V251H279V183Q279 158 292 150T333 141Q345 141 358 143T380 147V14Q364 6 331 -1T253 -9Q209 -9 175 -2T118 25T83 75T71 154V251H8V348Z" />
<glyph unicode="&#x168;" glyph-name="Utilde" horiz-adv-x="695" d="M356 -12Q195 -12 117 54T39 251V693H271V258Q271 207 292 182T362 156Q410 156 430 181T451 259V693H657V251Q657 123 585 56T356 -12ZM164 726Q168 768 181 796T211 842T250 866T295 874Q314
874 331 870T362 861T387 851T408 847Q421 847 427 853T438 871H557Q553 829 541 801T511 756T471 732T427 724Q407 724 391 728T360 737T335 747T314 751Q291 751 284 726H164Z" />
<glyph unicode="&#x169;" glyph-name="utilde" horiz-adv-x="594" d="M197 -10Q120 -10 76 26T32 146V539H239V192Q239 165 252 155T292 144Q310 144 325 148T353 157V539H560V0H377L364 48H359Q323 19 286 5T197 -10ZM102 586Q106 628 119 657T149 705T188 732T233
741Q252 741 269 737T300 726T325 716T346 711Q359 711 365 718T376 739H495Q491 697 479 668T449 620T409 593T365 584Q345 584 329 588T298 599T273 609T252 614Q229 614 222 586H102Z" />
<glyph unicode="&#x16a;" glyph-name="Umacron" horiz-adv-x="695" d="M356 -12Q195 -12 117 54T39 251V693H271V258Q271 207 292 182T362 156Q410 156 430 181T451 259V693H657V251Q657 123 585 56T356 -12ZM203 856H520V727H203V856Z" />
<glyph unicode="&#x16b;" glyph-name="umacron" horiz-adv-x="594" d="M197 -10Q120 -10 76 26T32 146V539H239V192Q239 165 252 155T292 144Q310 144 325 148T353 157V539H560V0H377L364 48H359Q323 19 286 5T197 -10ZM149 714H450V585H149V714Z" />
<glyph unicode="&#x16c;" glyph-name="Ubreve" horiz-adv-x="695" d="M356 -12Q195 -12 117 54T39 251V693H271V258Q271 207 292 182T362 156Q410 156 430 181T451 259V693H657V251Q657 123 585 56T356 -12ZM361 722Q283 722 239 762T192 866H321Q326 829 361
829Q397 829 402 866H531Q529 802 485 762T361 722Z" />
<glyph unicode="&#x16d;" glyph-name="ubreve" horiz-adv-x="594" d="M197 -10Q120 -10 76 26T32 146V539H239V192Q239 165 252 155T292 144Q310 144 325 148T353 157V539H560V0H377L364 48H359Q323 19 286 5T197 -10ZM299 583Q221 583 177 625T130 735H259Q261
718 271 709T299 699Q318 699 328 708T340 735H469Q467 668 423 626T299 583Z" />
<glyph unicode="&#x16e;" glyph-name="Uring" horiz-adv-x="695" d="M356 -12Q195 -12 117 54T39 251V693H271V258Q271 207 292 182T362 156Q410 156 430 181T451 259V693H657V251Q657 123 585 56T356 -12ZM361 956Q332 956 309 965T268 990T242 1027T233 1073Q233
1098 242 1119T268 1157T308 1182T361 1191Q420 1191 455 1157T490 1073Q490 1049 481 1028T455 991T414 966T361 956ZM361 1030Q381 1030 391 1041T402 1073Q402 1093 392 1105T361 1117Q342 1117 332 1105T321 1073Q321 1053 331 1042T361 1030Z" />
<glyph unicode="&#x16f;" glyph-name="uring" horiz-adv-x="594" d="M299 575Q270 575 247 584T206 610T180 647T171 693Q171 717 180 738T206 776T246 801T299 811Q358 811 393 777T428 693Q428 669 419 648T393 610T352 585T299 575ZM299 649Q319 649 329 661T340
693Q340 713 330 725T299 737Q280 737 270 725T259 693Q259 673 269 661T299 649ZM197 -10Q120 -10 76 26T32 146V539H239V192Q239 165 252 155T292 144Q310 144 325 148T353 157V539H560V0H377L364 48H359Q323 19 286 5T197 -10Z" />
<glyph unicode="&#x170;" glyph-name="Uhungarumlaut" horiz-adv-x="695" d="M430 874H611L546 725H391L430 874ZM213 874H394L329 725H174L213 874ZM356 -12Q195 -12 117 54T39 251V693H271V258Q271 207 292 182T362 156Q410 156 430 181T451 259V693H657V251Q657
123 585 56T356 -12Z" />
<glyph unicode="&#x171;" glyph-name="uhungarumlaut" horiz-adv-x="594" d="M197 -10Q120 -10 76 26T32 146V539H239V192Q239 165 252 155T292 144Q310 144 325 148T353 157V539H560V0H377L364 48H359Q323 19 286 5T197 -10ZM372 738H553L484 579H329L372 738ZM155
738H336L267 579H112L155 738Z" />
<glyph unicode="&#x172;" glyph-name="Uogonek" horiz-adv-x="695" d="M380 -199Q320 -199 288 -175T256 -111Q256 -77 275 -53T320 -11Q177 -4 108 61T39 251V693H271V258Q271 207 292 182T362 156Q410 156 430 181T451 259V693H657V251Q657 134 595 67Q573 45
547 30T489 4Q458 -7 436 -22T414 -62Q414 -76 422 -82T444 -88Q452 -88 458 -87T469 -85V-184Q455 -191 432 -195T380 -199Z" />
<glyph unicode="&#x173;" glyph-name="uogonek" horiz-adv-x="594" d="M473 -199Q413 -199 381 -175T349 -111Q349 -71 375 -44T435 0H377L364 48H359Q323 19 286 5T197 -10Q120 -10 76 26T32 146V539H239V192Q239 165 252 155T292 144Q309 144 324 148T353 157V539H560V3Q507
-31 507 -62Q507 -76 515 -82T537 -88Q545 -88 551 -87T562 -85V-184Q548 -190 525 -194T473 -199Z" />
<glyph unicode="&#x174;" glyph-name="Wcircumflex" horiz-adv-x="984" d="M419 864H586L690 725H545L502 763L460 725H315L419 864ZM4 693H236L313 297H317L411 693H597L691 297H695L780 693H980L817 0H582L496 386H493L401 0H165L4 693Z" />
<glyph unicode="&#x175;" glyph-name="wcircumflex" horiz-adv-x="817" d="M343 738H510L615 579H469L426 628L384 579H238L343 738ZM5 539H216L277 263H281L351 539H502L572 263H576L636 539H812L674 0H482L411 270H408L335 0H144L5 539Z" />
<glyph unicode="&#x176;" glyph-name="Ycircumflex" horiz-adv-x="666" d="M217 272L-1 693H246L349 473H352L455 693H666L450 272V0H217V272ZM267 864H434L538 725H393L350 763L308 725H163L267 864Z" />
<glyph unicode="&#x177;" glyph-name="ycircumflex" horiz-adv-x="586" d="M162 -198Q147 -198 130 -197T97 -194T68 -188T46 -182V-45Q62 -48 77 -50T105 -52Q142 -52 161 -42T188 -9L195 13L-1 539H214L302 247H306L394 539H587L384 -48Q370 -88 351 -116T306
-163T244 -189T162 -198ZM220 738H387L492 579H346L303 628L261 579H115L220 738Z" />
<glyph unicode="&#x178;" glyph-name="Ydieresis" horiz-adv-x="666" d="M217 272L-1 693H246L349 473H352L455 693H666L450 272V0H217V272ZM379 869H546V726H379V869ZM155 869H322V726H155V869Z" />
<glyph unicode="&#x179;" glyph-name="Zacute" horiz-adv-x="596" d="M272 872H479L383 725H219L272 872ZM27 156L300 528V532H42V693H564V537L291 165V161H568V0H27V156Z" />
<glyph unicode="&#x17a;" glyph-name="zacute" horiz-adv-x="501" d="M228 738H434L332 579H168L228 738ZM18 144L232 395V398H24V539H483V407L260 145V142H478V0H18V144Z" />
<glyph unicode="&#x17b;" glyph-name="Zdotaccent" horiz-adv-x="596" d="M27 156L300 528V532H42V693H564V537L291 165V161H568V0H27V156ZM210 869H409V726H210V869Z" />
<glyph unicode="&#x17c;" glyph-name="zdotaccent" horiz-adv-x="501" d="M18 144L232 395V398H24V539H483V407L260 145V142H478V0H18V144ZM155 733H364V584H155V733Z" />
<glyph unicode="&#x17d;" glyph-name="Zcaron" horiz-adv-x="596" d="M394 725H227L123 864H268L311 826L353 864H498L394 725ZM27 156L300 528V532H42V693H564V537L291 165V161H568V0H27V156Z" />
<glyph unicode="&#x17e;" glyph-name="zcaron" horiz-adv-x="501" d="M342 579H175L70 738H216L259 688L301 738H447L342 579ZM18 144L232 395V398H24V539H483V407L260 145V142H478V0H18V144Z" />
<glyph unicode="&#x192;" glyph-name="florin" horiz-adv-x="483" d="M34 421H112L127 515Q143 616 202 662T359 708Q403 708 431 702T477 687V552Q464 555 454 556T430 558Q395 558 376 544T352 492L341 421H435V280H320L280 16Q265 -88 210 -135T47 -183Q8 -183
-21 -175T-61 -162V-29Q-53 -31 -44 -33T-21 -35Q5 -35 24 -22T49 25L90 280H34V421Z" />
<glyph unicode="&#x1fa;" glyph-name="Aringacute" horiz-adv-x="721" d="M237 693H487L723 0H487L451 115H239L205 0H-3L237 693ZM280 259H408L346 463H341L280 259ZM331 1110H538L442 963H278L331 1110ZM362 712Q333 712 310 721T269 746T243 783T234 829Q234
854 243 875T269 913T309 938T362 947Q421 947 456 913T491 829Q491 805 482 784T456 747T415 722T362 712ZM362 786Q382 786 392 797T403 829Q403 849 393 861T362 873Q343 873 333 861T322 829Q322 809 332 798T362 786Z" />
<glyph unicode="&#x1fb;" glyph-name="aringacute" horiz-adv-x="540" d="M181 -10Q106 -10 59 27T12 143Q12 188 27 218T69 267T135 296T219 313L302 324V340Q302 376 281 387T206 398Q165 398 126 394T58 381V516Q102 533 159 541T285 549Q336 549 377 541T448
513T492 461T508 381V0H335L322 40H316Q300 15 265 3T181 -10ZM255 116Q270 116 282 121T302 132V223L259 220Q231 218 220 206T208 167Q208 136 222 126T255 116ZM278 575Q249 575 226 584T185 610T159 647T150 693Q150 717 159 738T185 776T225 801T278 811Q337
811 372 777T407 693Q407 669 398 648T372 610T331 585T278 575ZM278 649Q298 649 308 661T319 693Q319 713 309 725T278 737Q259 737 249 725T238 693Q238 673 248 661T278 649ZM241 981H448L352 834H188L241 981Z" />
<glyph unicode="&#x1fc;" glyph-name="AEacute" horiz-adv-x="972" d="M581 872H788L692 725H528L581 872ZM337 693H936V532H671V431H877V273H671V161H948V0H445V125H264L207 0H-7L337 693ZM327 268H445V520H441L327 268Z" />
<glyph unicode="&#x1fd;" glyph-name="aeacute" horiz-adv-x="842" d="M414 738H620L518 579H354L414 738ZM185 -10Q107 -10 60 27T12 143Q12 188 27 217T69 265T135 294T219 310L302 321V340Q302 376 281 387T206 398Q165 398 126 394T58 381V516Q102 533 158
541T277 549Q330 549 365 538T421 497Q446 522 484 535T579 549Q648 549 695 530T771 473T814 383T827 262V221H504Q513 168 546 151T644 133Q690 133 731 142T802 162V37Q770 19 718 5T588 -10Q440 -10 367 60Q333 22 288 6T185 -10ZM571 416Q545 416 527 398T503
327H631Q631 377 617 396T571 416ZM315 144Q304 178 299 224L259 222Q231 221 220 208T208 168Q208 137 222 127T255 116Q274 116 287 123T315 144Z" />
<glyph unicode="&#x1fe;" glyph-name="Oslashacute" horiz-adv-x="730" d="M362 -12Q307 -12 257 -1T163 36L132 0H0L87 101Q55 142 37 199T18 332V356Q18 453 48 519T128 627T240 686T368 705Q422 705 471 694T563 658L593 693H725L640 594Q674 553 693 496T712
362V338Q712 241 682 174T603 66T490 7T362 -12ZM366 149Q393 149 414 158T449 188T471 242T479 325V371Q479 380 479 388T478 404L285 179Q300 162 320 156T366 149ZM442 517Q415 544 365 544Q338 544 317 535T282 505T260 451T252 368V295L442 517ZM327 872H534L438
725H274L327 872Z" />
<glyph unicode="&#x1ff;" glyph-name="oslashacute" horiz-adv-x="601" d="M300 -10Q201 -10 137 24L115 0H0L70 79Q15 146 15 261V272Q15 344 37 396T97 482T188 532T300 549Q394 549 460 517L480 539H595L529 464Q586 398 586 279V268Q586 196 564 144T503 58T412
7T300 -10ZM301 121Q320 121 335 127T361 148T378 190T384 259V301L242 143Q253 130 268 126T301 121ZM356 400Q345 411 331 414T299 418Q280 418 265 412T240 391T223 350T217 281V243L356 400ZM270 738H476L374 579H210L270 738Z" />
<glyph unicode="&#x218;" glyph-name="Scommaaccent" horiz-adv-x="565" d="M185 -33H363L315 -182H175L185 -33ZM260 -12Q184 -12 122 -2T21 27V192Q69 176 118 166T230 155Q283 155 303 166T323 202Q323 213 320 220T309 233T286 243T248 251L203 260Q160 268
126 282T67 322T29 385T16 479Q16 528 32 569T81 641T166 688T288 705Q333 705 366 702T426 695T471 684T505 670V508Q467 521 420 530T313 540Q233 540 233 496Q233 475 249 466T307 448L351 440Q400 431 437 417T499 378T537 317T550 226Q550 108 475 48T260
-12Z" />
<glyph unicode="&#x219;" glyph-name="scommaaccent" horiz-adv-x="475" d="M401 -33H579L531 -182H391L401 -33ZM211 -10Q183 -10 156 -8T103 -1T57 10T19 24V159Q51 148 88 139T180 130Q225 130 243 138T261 163Q261 179 250 184T211 194L161 201Q89 212 52
252T15 371Q15 456 71 502T246 549Q306 549 349 542T426 522V388Q398 396 362 403T276 411Q241 411 225 405T209 381Q209 365 222 360T264 349L313 342Q396 329 428 288T461 177Q461 84 402 37T211 -10Z" />
<glyph unicode="&#x21a;" glyph-name="uni021A" horiz-adv-x="602" d="M215 -33H393L345 -182H205L215 -33ZM184 532H11V693H591V532H417V0H184V532Z" />
<glyph unicode="&#x21b;" glyph-name="uni021B" horiz-adv-x="399" d="M393 -33H571L523 -182H383L393 -33ZM253 -9Q209 -9 175 -2T118 25T83 75T71 154V399H8V539H71V666H279V539H380V399H279V183Q279 158 292 150T333 141Q345 141 358 143T380 147V14Q364 6
331 -1T253 -9Z" />
<glyph unicode="&#x237;" glyph-name="uni0237" horiz-adv-x="281" d="M38 -197Q3 -197 -25 -192T-68 -180V-50Q-61 -51 -52 -52T-32 -53Q2 -53 19 -39T37 7V539H244V-15Q244 -56 233 -89T198 -147T135 -184T38 -197Z" />
<glyph unicode="&#x2c6;" glyph-name="circumflex" horiz-adv-x="499" d="M166 738H333L438 579H292L249 628L207 579H61L166 738Z" />
<glyph unicode="&#x2c7;" glyph-name="caron" horiz-adv-x="499" d="M333 579H166L61 738H207L250 688L292 738H438L333 579Z" />
<glyph unicode="&#x2d8;" glyph-name="breve" horiz-adv-x="499" d="M249 583Q171 583 127 625T80 735H209Q211 718 221 709T249 699Q268 699 278 708T290 735H419Q417 668 373 626T249 583Z" />
<glyph unicode="&#x2d9;" glyph-name="dotaccent" horiz-adv-x="499" d="M144 733H353V584H144V733Z" />
<glyph unicode="&#x2da;" glyph-name="ring" horiz-adv-x="499" d="M249 575Q220 575 197 584T156 610T130 647T121 693Q121 717 130 738T156 776T196 801T249 811Q308 811 343 777T378 693Q378 669 369 648T343 610T302 585T249 575ZM249 649Q269 649 279 661T290
693Q290 713 280 725T249 737Q230 737 220 725T209 693Q209 673 219 661T249 649Z" />
<glyph unicode="&#x2db;" glyph-name="ogonek" horiz-adv-x="499" d="M252 -199Q192 -199 160 -175T128 -111Q128 -70 154 -44T215 0H329Q310 -17 298 -32T286 -62Q286 -76 294 -82T316 -88Q323 -88 329 -87T341 -85V-184Q327 -191 304 -195T252 -199Z" />
<glyph unicode="&#x2dc;" glyph-name="tilde" horiz-adv-x="499" d="M52 586Q56 628 69 657T99 705T138 732T183 741Q202 741 219 737T250 726T275 716T296 711Q309 711 315 718T326 739H445Q441 697 429 668T399 620T359 593T315 584Q295 584 279 588T248 599T223
609T202 614Q179 614 172 586H52Z" />
<glyph unicode="&#x2dd;" glyph-name="hungarumlaut" horiz-adv-x="499" d="M322 738H503L434 579H279L322 738ZM105 738H286L217 579H62L105 738Z" />
</font>
</defs>
</svg>
