<?xml version="1.0" standalone="no"?> <!DOCTYPE svg PUBLIC "-//W3C//DTD SVG 1.0//EN" "http://www.w3.org/TR/2001/REC-SVG-20010904/DTD/svg10.dtd" > <svg xmlns="http://www.w3.org/2000/svg" width="100%" height="100%">
<defs >
<font horiz-adv-x="454" ><font-face
    font-family=""
    units-per-em="1000"
    panose-1="2 11 3 3 5 5 3 13 8 3"
    ascent="790"
    descent="-210"
    alphabetic="0" />
<missing-glyph horiz-adv-x="500" />
<glyph unicode=" " glyph-name="space" horiz-adv-x="186" />
<glyph unicode="!" glyph-name="exclam" horiz-adv-x="198" d="M159 693H193L96 161H68L159 693ZM47 54H81L71 0H37L47 54Z" />
<glyph unicode="&quot;" glyph-name="quotedbl" horiz-adv-x="225" d="M215 693H249L218 546H190L215 693ZM124 693H158L127 546H99L124 693Z" />
<glyph unicode="#" glyph-name="numbersign" horiz-adv-x="472" d="M91 469H183L239 693H267L211 469H356L412 693H439L383 469H469L464 440H376L333 268H420L415 239H326L266 0H239L298 239H154L94 0H66L125 239H37L42 268H133L176 440H86L91 469ZM161 268H306L349
440H204L161 268Z" />
<glyph unicode="$" glyph-name="dollar" horiz-adv-x="472" d="M95 -117L129 -3Q81 4 50 18T-4 47L1 75Q27 58 59 44T137 24L234 352Q195 369 169 386T127 424T104 467T97 521Q97 602 151 651T303 701Q314 701 319 701T338 700L358 766H387L366 696Q401 690 423
679T463 657L458 629Q441 640 418 651T358 669L269 370L284 364Q344 340 379 303T415 198Q415 157 403 120T364 54T296 9T195 -8Q184 -8 175 -8T157 -6L124 -117H95ZM196 20Q244 20 279 33T337 69T371 125T382 197Q382 252 353 283T270 336L260 340L165 21Q173
20 180 20T196 20ZM301 673Q219 673 174 634T129 522Q129 498 134 479T151 444T186 412T243 382L330 672Q323 673 316 673T301 673Z" />
<glyph unicode="%" glyph-name="percent" horiz-adv-x="741" d="M195 338Q137 338 104 373T71 466Q71 508 81 550T112 625T165 679T243 700Q301 700 334 666T367 572Q367 530 357 488T326 413T273 359T195 338ZM520 -7Q462 -7 429 28T396 121Q396 163 406 204T437
279T490 333T568 354Q626 354 659 320T692 227Q692 185 682 143T651 68T598 14T520 -7ZM196 362Q253 362 286 402T331 502Q335 522 336 540T338 575Q338 620 315 648T243 676Q214 676 192 666T153 636T125 592T107 537Q103 518 102 500T100 464Q100 417 124 390T196
362ZM520 16Q577 16 610 56T656 157Q660 177 661 194T663 229Q663 275 639 302T567 330Q510 330 477 291T432 191Q425 156 425 119Q425 72 448 44T520 16ZM655 714H685L99 -39H69L655 714Z" />
<glyph unicode="&amp;" glyph-name="ampersand" horiz-adv-x="571" d="M211 -8Q166 -8 131 4T71 39T33 93T20 160Q20 207 36 241T79 301T144 348T222 388Q202 417 184 456T166 537Q166 577 179 608T214 659T265 690T326 701Q353 701 375 692T414 667T440 629T449
580Q449 539 434 509T393 455T334 413T265 379L430 135Q482 208 509 310H539Q524 253 501 203T446 112L522 0H485L425 88Q383 41 330 17T211 -8ZM212 19Q274 19 323 42T410 111L237 367Q200 350 167 332T108 291T69 236T54 161Q54 131 64 105T94 60T143 30T212
19ZM252 399Q285 414 314 430T366 468T402 515T416 578Q416 622 390 648T324 675Q271 675 235 641T199 539Q199 499 216 464T252 399Z" />
<glyph unicode="&apos;" glyph-name="quotesingle" horiz-adv-x="134" d="M124 693H158L127 546H99L124 693Z" />
<glyph unicode="(" glyph-name="parenleft" horiz-adv-x="254" d="M141 -120Q103 -63 77 21T51 202Q51 292 71 370T124 515T198 638T283 739H313Q270 692 229 636T156 513T104 369T84 203Q84 109 107 25T169 -120H141Z" />
<glyph unicode=")" glyph-name="parenright" horiz-adv-x="254" d="M-39 -120Q3 -73 44 -17T117 107T169 251T189 417Q189 510 166 594T104 739H132Q151 711 167 676T196 599T215 511T222 417Q222 328 202 250T149 104T75 -19T-10 -120H-39Z" />
<glyph unicode="*" glyph-name="asterisk" horiz-adv-x="342" d="M207 530L90 477L80 500L200 550L102 619L119 640L214 567L235 693H261L238 566L356 619L366 596L246 546L344 477L328 456L231 530L210 404H184L207 530Z" />
<glyph unicode="+" glyph-name="plus" horiz-adv-x="490" d="M242 323H63L69 351H247L280 538H310L277 351H456L451 323H273L239 135H209L242 323Z" />
<glyph unicode="," glyph-name="comma" horiz-adv-x="146" d="M25 54H61L10 -93H-18L25 54Z" />
<glyph unicode="-" glyph-name="hyphen" horiz-adv-x="290" d="M52 278H246L241 250H47L52 278Z" />
<glyph unicode="." glyph-name="period" horiz-adv-x="146" d="M20 54H55L45 0H10L20 54Z" />
<glyph unicode="/" glyph-name="slash" horiz-adv-x="298" d="M337 738H368L-37 -121H-67L337 738Z" />
<glyph unicode="0" glyph-name="zero" horiz-adv-x="586" d="M252 -9Q199 -9 160 8T94 56T55 132T42 229Q42 264 47 304T62 389Q74 449 97 505T158 604T247 674T367 701Q421 701 460 684T525 636T563 561T576 464Q576 429 571 389T557 305Q545 245 522 189T461
88T373 18T252 -9ZM255 20Q315 20 360 44T437 108T491 199T523 307Q532 352 537 392T542 463Q542 511 532 549T501 615T447 658T365 673Q304 673 259 649T181 585T128 493T96 386Q76 294 76 230Q76 182 86 144T117 78T173 35T255 20Z" />
<glyph unicode="1" glyph-name="one" horiz-adv-x="275" d="M215 663L74 630L77 651L240 700H254L131 0H98L215 663Z" />
<glyph unicode="2" glyph-name="two" horiz-adv-x="471" d="M-15 26L187 199Q238 242 281 281T357 360T407 440T425 530Q425 673 276 673Q223 673 184 662T105 632L110 659Q130 669 149 677T188 690T231 698T283 701Q369 701 414 657T459 532Q459 480 440 436T386
350T307 267T209 182L28 30V28H397L392 0H-20L-15 26Z" />
<glyph unicode="3" glyph-name="three" horiz-adv-x="462" d="M159 -8Q99 -8 57 4T-13 34L-8 60Q9 51 25 44T61 32T104 24T158 21Q211 21 252 35T320 74T362 135T377 214Q377 281 335 318T210 356H146L151 384H212Q250 384 285 395T346 427T388 478T404 549Q404
606 371 639T265 673Q184 673 111 641L116 668Q151 686 192 693T270 701Q355 701 396 659T438 553Q438 515 425 484T388 430T336 393T273 372V370Q301 367 326 356T370 326T400 280T411 217Q411 167 394 126T345 55T266 9T159 -8Z" />
<glyph unicode="4" glyph-name="four" horiz-adv-x="511" d="M331 207H9L14 234L421 693H449L368 235H493L488 207H363L326 0H294L331 207ZM336 235L407 638H405L50 236V235H336Z" />
<glyph unicode="5" glyph-name="five" horiz-adv-x="455" d="M150 -8Q102 -8 59 4T-12 36L-7 61Q33 38 70 30T150 21Q211 21 254 38T325 85T365 155T378 240Q378 315 331 352T200 390Q158 390 127 385T73 373L130 693H452L447 665H153L106 403Q124 408 152 413T213
418Q303 418 357 373T412 241Q412 190 397 145T349 65T268 12T150 -8Z" />
<glyph unicode="6" glyph-name="six" horiz-adv-x="507" d="M237 -9Q184 -9 146 8T82 55T44 127T31 219Q31 263 38 311T59 406T90 492T127 561Q173 628 237 664T390 701Q438 701 468 693T518 674L513 649Q493 658 463 665T388 672Q333 672 285 655T197 599T126
494T76 333Q114 365 165 387T285 410Q373 410 422 363T471 236Q471 178 455 133T408 56T334 8T237 -9ZM237 20Q330 20 383 75T437 234Q437 305 397 343T279 382Q210 382 162 361T72 306Q69 289 67 266T65 218Q65 176 74 140T103 77T157 35T237 20Z" />
<glyph unicode="7" glyph-name="seven" horiz-adv-x="449" d="M469 662V665H88L93 693H508L503 664L86 0H50L469 662Z" />
<glyph unicode="8" glyph-name="eight" horiz-adv-x="518" d="M237 -9Q185 -9 144 4T75 38T32 89T17 152Q17 201 38 236T93 295T164 335T238 362Q209 375 184 391T139 427T109 472T98 528Q98 568 113 600T157 654T225 689T313 701Q358 701 392 690T451 658T487
610T499 550Q499 510 482 480T438 428T376 389T309 361Q342 346 371 329T422 290T457 243T470 186Q470 142 455 107T409 45T336 5T237 -9ZM237 20Q334 20 385 64T436 184Q436 238 390 277T265 350Q229 337 191 322T122 285T70 231T50 153Q50 125 62 101T98 58T157
30T237 20ZM282 373Q316 386 349 401T407 437T449 484T465 547Q465 603 426 638T311 673Q272 673 239 664T182 636T145 591T132 530Q132 477 170 441T282 373Z" />
<glyph unicode="9" glyph-name="nine" horiz-adv-x="507" d="M152 -6Q103 -6 73 2T22 22L27 47Q47 38 77 30T153 22Q208 22 257 38T347 94T418 199T464 361Q425 328 374 306T255 283Q167 283 118 329T68 457Q68 515 85 560T134 637T208 685T302 702Q355 702 394
685T458 637T496 564T508 473Q508 427 501 379T482 284T453 198T416 127Q373 64 309 29T152 -6ZM262 311Q329 311 377 332T468 388Q470 404 472 427T474 475Q474 517 465 553T436 617T382 659T302 674Q257 674 221 660T158 618T117 550T102 458Q102 386 143 349T262
311Z" />
<glyph unicode=":" glyph-name="colon" horiz-adv-x="154" d="M24 54H59L49 0H14L24 54ZM79 364H114L104 310H70L79 364Z" />
<glyph unicode=";" glyph-name="semicolon" horiz-adv-x="152" d="M24 54H60L9 -93H-18L24 54ZM79 364H113L104 310H69L79 364Z" />
<glyph unicode="&lt;" glyph-name="less" horiz-adv-x="457" d="M52 300L57 328L448 500L443 467L87 313L387 159L382 128L52 300Z" />
<glyph unicode="=" glyph-name="equal" horiz-adv-x="495" d="M49 243H442L437 215H44L49 243ZM80 415H472L468 387H75L80 415Z" />
<glyph unicode="&gt;" glyph-name="greater" horiz-adv-x="457" d="M35 160L391 315L90 469L96 500L425 328L421 300L29 128L35 160Z" />
<glyph unicode="?" glyph-name="question" horiz-adv-x="385" d="M123 232Q128 261 137 282T163 321T202 356T257 395Q289 417 311 436T347 474T367 515T373 563Q373 617 340 645T241 673Q201 673 168 665T93 639L97 666Q137 684 170 692T249 701Q322 701 364
666T407 565Q407 532 400 507T376 461T334 418T273 372Q246 353 226 338T191 308T167 274T154 231L142 161H111L123 232ZM91 54H126L116 0H81L91 54Z" />
<glyph unicode="@" glyph-name="at" horiz-adv-x="855" d="M378 -155Q287 -155 220 -130T110 -60T45 47T23 183Q23 280 60 370T164 529T322 639T522 680Q600 680 659 657T759 591T819 490T840 361Q840 290 820 229T766 124T686 55T591 30Q565 30 549 36T524 54T513
81T511 114H509Q497 98 480 83T443 56T399 37T349 30Q292 30 260 66T228 168Q228 238 253 297T319 399T409 467T508 492Q543 492 573 485T620 466L546 147Q541 127 540 110T542 81T559 62T593 55Q635 55 674 77T744 140T793 236T812 359Q812 424 794 478T740 572T648
633T520 655Q420 655 335 618T186 516T87 366T51 184Q51 114 71 56T131 -43T234 -107T380 -130Q414 -130 449 -126T518 -114T579 -98T628 -80L624 -103Q603 -112 575 -121T515 -138T447 -150T378 -155ZM357 56Q409 56 447 82T513 143L584 447Q570 455 551 460T505
466Q463 466 420 444T341 382T283 288T261 171Q261 117 285 87T357 56Z" />
<glyph unicode="A" glyph-name="A" horiz-adv-x="555" d="M363 693H397L502 0H469L434 236H133L-2 0H-35L363 693ZM149 265H429L372 651H371L149 265Z" />
<glyph unicode="B" glyph-name="B" horiz-adv-x="555" d="M149 693H341Q390 693 424 681T481 647T513 598T523 540Q523 502 511 472T477 419T428 382T367 361V359Q394 356 419 347T465 321T498 281T510 226Q510 173 492 131T441 60T362 16T261 0H27L149 693ZM263
28Q309 28 348 41T416 79T461 141T477 227Q477 284 432 314T303 345H121L65 28H263ZM297 373Q342 373 378 385T438 419T476 471T489 537Q489 563 481 586T454 626T406 654T336 665H177L125 373H297Z" />
<glyph unicode="C" glyph-name="C" horiz-adv-x="560" d="M291 -8Q227 -8 181 12T104 69T59 153T44 255Q44 335 62 405T113 530Q161 615 235 658T401 701Q466 701 503 689T567 659L562 631Q535 648 497 660T399 673Q319 673 252 633T140 515Q111 463 95 399T78
255Q78 204 90 161T129 87T196 38T293 20Q358 20 403 34T482 65L478 36Q449 20 402 6T291 -8Z" />
<glyph unicode="D" glyph-name="D" horiz-adv-x="604" d="M149 693H317Q381 693 432 678T520 632T575 554T595 443Q595 362 576 283T511 141T388 39T196 0H27L149 693ZM199 28Q285 28 346 52T449 116T515 210T551 323Q556 355 558 384T561 442Q561 559 495 612T311
665H177L65 28H199Z" />
<glyph unicode="E" glyph-name="E" horiz-adv-x="500" d="M149 693H531L526 665H177L125 370H397L392 341H120L65 28H423L418 0H27L149 693Z" />
<glyph unicode="F" glyph-name="F" horiz-adv-x="482" d="M149 693H528L523 665H176L124 369H391L386 340H119L59 0H27L149 693Z" />
<glyph unicode="G" glyph-name="G" horiz-adv-x="592" d="M304 -8Q234 -8 185 14T104 72T59 155T44 254Q44 336 62 406T112 531Q161 616 235 658T404 701Q471 701 511 688T574 658L569 630Q545 647 504 660T402 673Q317 673 251 634T141 519Q110 466 94 400T78
254Q78 210 89 168T126 93T197 40T307 20Q355 20 390 26T462 43L504 282H341L345 310H542L492 23Q447 9 404 1T304 -8Z" />
<glyph unicode="H" glyph-name="H" horiz-adv-x="609" d="M150 693H182L126 375H525L581 693H614L492 0H459L520 346H121L60 0H27L150 693Z" />
<glyph unicode="I" glyph-name="I" horiz-adv-x="185" d="M154 693H187L64 0H31L154 693Z" />
<glyph unicode="J" glyph-name="J" horiz-adv-x="328" d="M74 -5Q39 -5 15 1T-27 16L-23 42Q-5 34 17 29T72 24Q136 24 170 58T216 159L309 693H342L247 154Q234 80 194 38T74 -5Z" />
<glyph unicode="K" glyph-name="K" horiz-adv-x="508" d="M172 350L509 693H549L209 349L441 0H404L172 350ZM150 693H183L60 0H27L150 693Z" />
<glyph unicode="L" glyph-name="L" horiz-adv-x="468" d="M149 693H182L65 28H406L401 0H27L149 693Z" />
<glyph unicode="M" glyph-name="M" horiz-adv-x="734" d="M149 693H199L328 45H329L686 693H739L617 0H584L699 654H698L335 0H304L175 654H173L58 0H27L149 693Z" />
<glyph unicode="N" glyph-name="N" horiz-adv-x="613" d="M149 693H188L473 53H474L587 693H617L495 0H462L174 650H172L58 0H27L149 693Z" />
<glyph unicode="O" glyph-name="O" horiz-adv-x="650" d="M282 -8Q224 -8 180 12T105 68T59 149T43 249Q43 351 72 434T150 577T263 669T400 701Q458 701 503 681T578 625T624 543T640 444Q640 341 611 258T533 115T419 24T282 -8ZM284 20Q334 20 382 39T472 95T545
188T591 314Q606 378 606 446Q606 490 594 531T557 603T492 654T399 673Q349 673 301 654T211 598T138 506T91 379Q84 347 81 315T77 247Q77 202 89 161T127 89T192 39T284 20Z" />
<glyph unicode="P" glyph-name="P" horiz-adv-x="499" d="M150 693H324Q378 693 415 680T475 643T508 589T518 521Q518 415 454 360T271 304H114L60 0H27L150 693ZM271 332Q378 332 431 379T484 519Q484 548 477 574T450 621T399 653T318 665H177L119 332H271Z" />
<glyph unicode="Q" glyph-name="Q" horiz-adv-x="650" d="M235 -7Q143 15 93 81T43 249Q43 351 72 434T150 577T263 669T400 701Q458 701 503 681T578 625T624 543T640 444Q640 345 613 265T539 128T433 37T306 -1L597 -67L588 -95L235 -7ZM284 20Q334 20 382
39T472 95T545 188T591 314Q606 378 606 446Q606 490 594 531T557 603T492 654T399 673Q349 673 301 654T211 598T138 506T91 379Q84 347 81 315T77 247Q77 202 89 161T127 89T192 39T284 20Z" />
<glyph unicode="R" glyph-name="R" horiz-adv-x="524" d="M150 693H326Q374 693 408 680T465 646T498 595T509 532Q509 444 459 390T314 323V321L458 0H424L281 318H116L59 0H27L150 693ZM271 346Q322 346 360 359T424 397T462 456T475 530Q475 558 467 582T441
625T393 654T321 665H176L120 346H271Z" />
<glyph unicode="S" glyph-name="S" horiz-adv-x="469" d="M188 -8Q149 -8 119 -3T65 10T23 28T-10 47L-5 76Q28 55 73 38T190 21Q287 21 332 68T378 193Q378 220 370 241T346 279T310 309T263 336L221 356Q150 390 119 428T88 525Q88 606 143 653T297 701Q331
701 355 697T398 687T431 673T457 657L452 628Q440 635 426 643T393 658T350 669T294 673Q213 673 167 636T120 525Q120 501 125 482T144 447T179 416T235 384L277 364Q307 349 331 334T373 298T401 253T411 194Q411 153 398 116T358 52T289 8T188 -8Z" />
<glyph unicode="T" glyph-name="T" horiz-adv-x="515" d="M313 665H85L90 693H578L573 665H345L228 0H195L313 665Z" />
<glyph unicode="U" glyph-name="U" horiz-adv-x="605" d="M273 -8Q223 -8 183 2T115 33T72 89T57 170Q57 199 63 235L143 693H176L95 234Q89 199 89 172Q89 89 138 54T274 19Q371 19 426 68T502 234L584 693H615L533 230Q512 111 449 52T273 -8Z" />
<glyph unicode="V" glyph-name="V" horiz-adv-x="539" d="M87 693H120L222 46H224L574 693H607L231 0H198L87 693Z" />
<glyph unicode="W" glyph-name="W" horiz-adv-x="800" d="M92 693H125L164 49H165L461 693H493L561 49H562L830 693H863L571 0H534L468 641H466L172 0H137L92 693Z" />
<glyph unicode="X" glyph-name="X" horiz-adv-x="532" d="M269 361L119 693H153L292 381H294L547 693H583L306 355L467 0H432L283 335H282L11 0H-24L269 361Z" />
<glyph unicode="Y" glyph-name="Y" horiz-adv-x="476" d="M228 295L84 693H117L250 325H251L512 693H546L261 294L209 0H176L228 295Z" />
<glyph unicode="Z" glyph-name="Z" horiz-adv-x="515" d="M-10 26L504 663V665H120L125 693H549L544 668L31 30V28H443L438 0H-14L-10 26Z" />
<glyph unicode="[" glyph-name="bracketleft" horiz-adv-x="277" d="M158 739H338L333 712H185L43 -93H191L187 -120H7L158 739Z" />
<glyph unicode="\" glyph-name="backslash" horiz-adv-x="277" d="M89 739H117L222 -120H194L89 739Z" />
<glyph unicode="]" glyph-name="bracketright" horiz-adv-x="277" d="M-37 -93H111L253 712H104L109 739H289L138 -120H-41L-37 -93Z" />
<glyph unicode="^" glyph-name="asciicircum" horiz-adv-x="418" d="M273 693H301L408 458H379L283 664L113 458H82L273 693Z" />
<glyph unicode="_" glyph-name="underscore" horiz-adv-x="323" d="M-61 -80H269L264 -104H-65L-61 -80Z" />
<glyph unicode="`" glyph-name="grave" horiz-adv-x="498" d="M227 728H260L320 584H292L227 728Z" />
<glyph unicode="a" glyph-name="a" horiz-adv-x="459" d="M160 -8Q92 -8 55 33T18 148Q18 232 44 299T112 413T208 486T317 511Q362 511 389 504T437 488L352 0H325L335 72H333Q321 60 304 46T265 20T216 0T160 -8ZM165 19Q192 19 218 26T266 46T307 72T338 101L403
468Q388 475 370 480T315 485Q274 485 236 470T166 428T108 361T67 272Q59 245 55 216T50 148Q50 85 79 52T165 19Z" />
<glyph unicode="b" glyph-name="b" horiz-adv-x="473" d="M185 -7Q165 -7 143 -5T98 0T56 10T21 24L147 739H179L126 438H128Q161 467 205 489T305 511Q372 511 411 471T451 353Q451 284 436 219T388 104T305 23T185 -7ZM187 20Q238 20 277 39T343 93T388 174T414
275Q416 293 417 312T419 350Q418 420 385 451T295 483Q242 483 199 461T121 409L57 43Q81 31 118 26T187 20Z" />
<glyph unicode="c" glyph-name="c" horiz-adv-x="400" d="M198 -8Q113 -8 68 43T22 186Q22 250 39 307T88 406Q124 457 174 484T284 511Q329 511 355 504T401 485L396 458Q377 468 351 476T283 484Q233 484 190 461T114 393Q87 355 71 302T54 186Q54 106 92 63T202
19Q253 19 288 32T346 60L341 32Q316 17 283 5T198 -8Z" />
<glyph unicode="d" glyph-name="d" horiz-adv-x="466" d="M170 -7Q97 -7 58 36T18 160Q18 233 39 297T97 409T183 483T290 511Q335 511 363 501T412 476L457 739H489L359 0H332L342 73H340Q328 58 311 44T272 19T225 0T170 -7ZM177 20Q233 20 274 44T345 101L407
449Q387 464 358 473T291 483Q206 483 145 421T59 251Q54 230 53 208T51 163Q51 93 81 57T177 20Z" />
<glyph unicode="e" glyph-name="e" horiz-adv-x="439" d="M208 -8Q120 -8 71 41T22 185Q22 255 39 313T88 415Q120 460 166 485T273 511Q357 511 396 453T415 280L411 259H59Q57 242 56 224T54 187Q54 101 94 61T212 20Q262 20 303 33T371 61L366 34Q343 21 303
7T208 -8ZM115 403Q79 353 64 286H383Q400 384 370 434T270 484Q218 484 180 463T115 403Z" />
<glyph unicode="f" glyph-name="f" horiz-adv-x="283" d="M141 476H59L63 503H146L157 570Q165 616 182 648T222 700T275 729T337 738Q366 738 384 734T417 721L413 696Q400 703 383 707T336 711Q281 711 242 679T189 569L178 503H305L301 476H173L55 -195H23L141 476Z" />
<glyph unicode="g" glyph-name="g" horiz-adv-x="467" d="M127 -197Q80 -197 38 -187T-30 -161L-26 -137Q0 -150 40 -160T127 -171Q172 -171 206 -163T264 -135T303 -84T326 -7L342 84H340Q329 70 312 56T274 31T227 13T172 6Q100 6 61 49T21 174Q21 248 43 310T102
416T189 486T295 511Q345 511 380 503T443 479L357 -11Q340 -111 284 -154T127 -197ZM179 32Q235 32 277 57T348 114L409 460Q392 469 363 476T294 484Q210 484 148 426T62 263Q57 243 55 220T53 175Q53 106 83 69T179 32Z" />
<glyph unicode="h" glyph-name="h" horiz-adv-x="484" d="M148 739H180L127 437H129Q176 469 229 490T334 511Q396 511 421 484T446 412Q446 402 445 393T442 372L377 0H345L410 369Q412 379 413 388T414 407Q414 442 395 462T324 483Q274 483 223 463T122 412L49
0H17L148 739Z" />
<glyph unicode="i" glyph-name="i" horiz-adv-x="159" d="M106 503H138L50 0H18L106 503ZM134 660H166L158 617H126L134 660Z" />
<glyph unicode="j" glyph-name="j" horiz-adv-x="159" d="M-91 -194Q-111 -194 -127 -190T-155 -179L-151 -156Q-139 -161 -127 -164T-95 -167Q-53 -167 -28 -145T5 -74L106 503H138L37 -74Q26 -131 -5 -162T-91 -194ZM134 660H166L158 617H126L134 660Z" />
<glyph unicode="k" glyph-name="k" horiz-adv-x="410" d="M147 739H179L49 0H17L147 739ZM135 267L383 503H423L171 266L344 0H307L135 267Z" />
<glyph unicode="l" glyph-name="l" horiz-adv-x="157" d="M148 739H180L50 0H18L148 739Z" />
<glyph unicode="m" glyph-name="m" horiz-adv-x="770" d="M106 503H137L125 436H127Q175 469 223 490T321 511Q373 511 396 491T425 435H426Q476 468 527 489T629 511Q688 511 711 485T734 415Q734 405 733 394T730 372L665 0H633L697 369Q701 389 701 411Q701
444 684 463T619 483Q572 483 525 463T426 412Q426 403 425 393T422 372L357 0H325L389 369Q393 389 393 411Q393 444 376 463T311 483Q263 483 217 464T122 412L49 0H17L106 503Z" />
<glyph unicode="n" glyph-name="n" horiz-adv-x="483" d="M106 503H137L125 436H127Q175 469 229 490T334 511Q396 511 421 484T446 412Q446 402 445 393T442 372L377 0H345L410 369Q412 379 413 388T414 407Q414 442 395 462T324 483Q274 483 223 463T122 412L49
0H17L106 503Z" />
<glyph unicode="o" glyph-name="o" horiz-adv-x="474" d="M194 -8Q109 -8 65 41T20 178Q20 249 39 310T92 415T174 485T279 511Q363 511 408 463T453 326Q453 255 434 194T381 88T299 18T194 -8ZM196 19Q236 19 271 34T334 78T381 145T411 233Q416 256 418 279T421
326Q421 404 384 444T277 484Q237 484 202 469T140 426T92 359T62 271Q57 251 55 227T52 179Q52 100 89 60T196 19Z" />
<glyph unicode="p" glyph-name="p" horiz-adv-x="471" d="M106 503H137L125 436H127Q159 465 205 488T306 511Q373 511 412 471T452 352Q452 283 437 218T389 103T307 23T189 -7Q143 -7 111 3T56 28L16 -195H-16L106 503ZM188 20Q239 20 278 39T344 93T389 173T415
273Q417 292 418 311T420 349Q419 419 386 451T296 483Q243 483 200 460T121 408L60 54Q83 38 116 29T188 20Z" />
<glyph unicode="q" glyph-name="q" horiz-adv-x="467" d="M340 71H338Q326 57 310 44T272 19T225 0T170 -7Q97 -7 58 37T18 160Q18 237 40 301T99 412T187 485T293 511Q345 511 381 502T444 478L326 -195H294L340 71ZM177 20Q233 20 274 44T345 101L409 460Q392
469 362 476T292 484Q250 484 213 468T145 421T93 348T59 251Q54 230 53 208T51 163Q51 93 81 57T177 20Z" />
<glyph unicode="r" glyph-name="r" horiz-adv-x="288" d="M105 503H137L124 429H126Q155 459 196 484T289 509Q308 509 318 505L313 477Q307 479 299 479T283 480Q233 480 193 457T120 403L49 0H17L105 503Z" />
<glyph unicode="s" glyph-name="s" horiz-adv-x="369" d="M136 -8Q78 -8 44 5T-14 33L-9 59Q16 45 48 33T137 20Q180 20 208 30T252 58T274 97T280 141Q280 179 261 200T197 238L146 258Q103 276 79 302T55 372Q55 435 95 473T217 511Q268 511 297 501T346 477L340
450Q318 464 289 473T215 483Q148 483 117 455T86 376Q86 343 103 322T161 285L211 264Q261 244 286 219T312 144Q312 117 304 90T276 41T222 6T136 -8Z" />
<glyph unicode="t" glyph-name="t" horiz-adv-x="308" d="M168 -5Q106 -5 83 29T71 121L134 476H60L64 503H139L161 622H193L172 503H316L311 476H167L104 121Q96 74 109 48T173 22Q193 22 212 26T249 37L244 13Q231 6 211 1T168 -5Z" />
<glyph unicode="u" glyph-name="u" horiz-adv-x="479" d="M151 -8Q89 -8 62 20T35 96Q35 113 38 131L103 503H136L71 134Q69 123 68 114T67 96Q67 59 87 40T157 20Q207 20 256 40T355 91L428 503H460L371 0H343L352 67H350Q302 34 252 13T151 -8Z" />
<glyph unicode="v" glyph-name="v" horiz-adv-x="421" d="M58 503H91L157 41H159L417 503H450L167 0H133L58 503Z" />
<glyph unicode="w" glyph-name="w" horiz-adv-x="676" d="M60 503H92L135 43H137L366 503H397L439 43H441L670 503H702L448 0H414L372 454H370L145 0H110L60 503Z" />
<glyph unicode="x" glyph-name="x" horiz-adv-x="413" d="M187 258L63 503H97L210 278L397 503H432L223 253L351 0H317L200 231L7 0H-28L187 258Z" />
<glyph unicode="y" glyph-name="y" horiz-adv-x="435" d="M-9 -198Q-26 -198 -40 -193T-64 -183L-60 -159Q-36 -170 -10 -170Q31 -170 57 -147T107 -81L159 14L58 503H92L182 55H184L432 503H464L135 -90Q121 -115 107 -135T76 -169T39 -190T-9 -198Z" />
<glyph unicode="z" glyph-name="z" horiz-adv-x="390" d="M-19 25L368 475V476H66L70 503H414L409 478L21 29V27H330L325 0H-24L-19 25Z" />
<glyph unicode="{" glyph-name="braceleft" horiz-adv-x="305" d="M214 -123Q142 -117 111 -87T80 -7Q80 9 83 29L112 194Q121 245 100 268T24 296L30 326Q57 328 77 333T113 349T138 378T153 424L184 597Q190 631 201 656T234 699T287 727T367 741L363 714Q327
711 302 704T259 682T232 647T215 596L184 423Q174 369 145 343T64 311V309Q112 301 132 274T144 195L115 30Q112 10 112 -4Q112 -48 138 -69T219 -96L214 -123Z" />
<glyph unicode="|" glyph-name="bar" horiz-adv-x="229" d="M108 739H138V-120H108V739Z" />
<glyph unicode="}" glyph-name="braceright" horiz-adv-x="305" d="M-37 -96Q-1 -93 24 -85T67 -64T94 -29T110 22L141 195Q151 249 180 275T262 307V309Q214 317 193 344T181 423L211 588Q214 606 214 622Q214 667 188 687T106 714L111 741Q184 735 215 705T246
625Q246 608 243 589L213 424Q204 373 225 350T301 322L295 292Q269 290 249 285T213 269T188 240T173 194L142 21Q136 -13 125 -38T92 -81T39 -109T-42 -123L-37 -96Z" />
<glyph unicode="~" glyph-name="asciitilde" horiz-adv-x="447" d="M58 248Q69 292 95 312T156 332Q177 332 196 324T233 305T268 287T305 278Q359 278 376 333H401Q390 290 364 270T301 250Q280 250 262 258T225 277T190 295T154 304Q100 304 84 248H58Z" />
<glyph unicode="&#xa0;" glyph-name="uni00A0" horiz-adv-x="186" />
<glyph unicode="&#xa1;" glyph-name="exclamdown" horiz-adv-x="198" d="M113 412H141L50 -120H16L113 412ZM138 573H172L162 519H128L138 573Z" />
<glyph unicode="&#xa2;" glyph-name="cent" horiz-adv-x="404" d="M138 0Q81 17 52 64T22 186Q22 250 39 307T88 406Q124 457 174 484T284 511H300L325 589H354L328 508Q353 505 370 499T402 485L397 458Q383 466 365 472T320 482L173 21Q178 20 184 20T202 19Q253
19 288 32T347 59L342 32Q317 17 283 5T198 -8Q181 -8 165 -5L129 -119H100L138 0ZM54 186Q54 58 146 27L291 484H283Q229 484 183 457T105 372Q82 336 68 289T54 186Z" />
<glyph unicode="&#xa3;" glyph-name="sterling" horiz-adv-x="479" d="M50 326L55 353H148L172 486Q182 546 204 587T256 653T322 690T398 701Q439 701 464 694T504 677L499 652Q481 661 457 667T398 673Q362 673 331 664T275 633T232 575T204 485L181 353H374L370
326H176L155 208Q143 138 114 97T40 30V28H413L408 0H-8L-4 26Q49 53 80 95T123 207L144 326H50Z" />
<glyph unicode="&#xa5;" glyph-name="yen" horiz-adv-x="485" d="M209 161H42L46 188H214L232 292H64L69 319H230L87 693H121L256 335H258L515 693H550L278 319H438L433 292H264L246 188H415L410 161H241L212 0H181L209 161Z" />
<glyph unicode="&#xa6;" glyph-name="brokenbar" horiz-adv-x="229" d="M106 287H136V-120H106V287ZM106 737H136V346H106V737Z" />
<glyph unicode="&#xa7;" glyph-name="section" horiz-adv-x="470" d="M162 -131Q103 -131 68 -118T8 -88L13 -60Q37 -75 72 -88T162 -102Q239 -102 278 -66T317 23Q317 65 296 89T226 134L156 163Q106 184 76 217T45 303Q45 360 81 395T183 445Q158 465 147 491T136
549Q136 583 149 611T186 659T243 690T317 701Q370 701 401 690T454 667L449 640Q427 653 396 663T317 673Q248 673 208 642T168 550Q168 515 184 488T243 444L313 414Q339 403 362 391T402 362T430 324T440 276Q440 219 403 182T294 131Q321 111 334 87T348 26Q348
-7 336 -36T301 -86T242 -119T162 -131ZM204 428Q144 416 110 387T76 305Q76 265 100 237T167 192L270 148Q339 160 374 190T409 272Q409 294 401 311T378 342T345 366T303 386L204 428Z" />
<glyph unicode="&#xa8;" glyph-name="dieresis" horiz-adv-x="499" d="M243 660H275L267 617H235L243 660ZM367 660H399L391 617H359L367 660Z" />
<glyph unicode="&#xa9;" glyph-name="copyright" horiz-adv-x="786" d="M408 -9Q332 -9 268 19T158 95T85 207T58 345Q58 418 84 482T157 595T268 672T408 700Q484 700 548 672T659 596T732 483T759 345Q759 272 733 208T660 95T549 19T408 -9ZM408 13Q480 13
539 39T642 110T710 215T734 345Q734 414 710 475T643 581T540 652T408 678Q337 678 277 652T174 581T107 475T83 345Q83 276 107 216T174 110T277 39T408 13ZM416 145Q330 145 284 196T237 342V352Q237 449 286 499T418 549Q456 549 479 543T520 528V503Q501 511
477 517T417 524Q347 524 308 480T268 355V341Q268 260 305 215T418 170Q461 170 484 179T525 198V173Q508 163 485 154T416 145Z" />
<glyph unicode="&#xaa;" glyph-name="ordfeminine" horiz-adv-x="415" d="M184 233Q124 233 90 271T55 382Q55 456 79 515T140 615T225 679T318 701Q364 701 391 695T439 680L361 241H334L342 303H341Q330 292 314 280T278 258T235 240T184 233ZM189 259Q214 259
237 265T280 282T316 304T345 329L404 661Q391 666 373 670T316 675Q283 675 250 663T189 626T138 568T101 489Q86 442 86 383Q86 259 189 259Z" />
<glyph unicode="&#xab;" glyph-name="guillemotleft" horiz-adv-x="384" d="M47 245L49 260L195 442H226L78 251L157 63H127L47 245ZM187 245L189 260L334 442H365L218 251L297 63H267L187 245Z" />
<glyph unicode="&#xae;" glyph-name="registered" horiz-adv-x="413" d="M253 335Q214 335 181 349T123 389T84 447T70 518Q70 557 84 590T123 648T181 687T253 702Q292 702 325 688T383 649T422 591T436 518Q436 480 422 447T383 389T325 350T253 335ZM253 352Q288
352 318 365T369 400T403 453T416 518Q416 553 404 583T370 636T318 672T253 685Q217 685 188 672T136 637T102 584T90 518Q90 483 102 453T136 401T187 365T253 352ZM192 612H251Q286 612 304 600T323 558Q323 517 282 508V507L331 427H308L263 502H214V427H192V612ZM258
520Q280 520 290 530T301 558Q301 578 290 586T251 594H214V520H258Z" />
<glyph unicode="&#xaf;" glyph-name="macron" horiz-adv-x="498" d="M210 666H433L428 639H205L210 666Z" />
<glyph unicode="&#xb0;" glyph-name="degree" horiz-adv-x="312" d="M203 463Q179 463 159 471T125 494T102 528T94 569Q94 599 104 623T133 665T174 692T222 701Q246 701 266 693T301 670T324 636T332 594Q332 564 322 540T293 499T252 472T203 463ZM205 485Q247
485 276 514T305 594Q305 629 282 653T220 678Q179 678 150 649T120 569Q120 534 143 510T205 485Z" />
<glyph unicode="&#xb4;" glyph-name="acute" horiz-adv-x="498" d="M387 728H425L318 584H287L387 728Z" />
<glyph unicode="&#xb6;" glyph-name="paragraph" horiz-adv-x="525" d="M296 342H245Q210 342 180 352T127 382T91 431T78 498Q78 538 90 573T130 635T200 677T306 693H529L386 -119H359L498 670H380L241 -119H214L296 342Z" />
<glyph unicode="&#xb7;" glyph-name="periodcentered" horiz-adv-x="146" d="M68 327H102L93 273H58L68 327Z" />
<glyph unicode="&#xb8;" glyph-name="cedilla" horiz-adv-x="497" d="M123 -186Q197 -181 225 -166T254 -121Q254 -99 234 -88T169 -77L182 0H209L199 -55Q237 -57 261 -72T285 -118Q285 -159 246 -182T119 -210L123 -186Z" />
<glyph unicode="&#xba;" glyph-name="ordmasculine" horiz-adv-x="428" d="M213 233Q137 233 96 278T55 402Q55 465 72 520T121 615T195 678T289 701Q367 701 408 657T449 534Q449 470 432 415T383 320T308 256T213 233ZM215 259Q251 259 282 273T339 312T381
371T407 448Q412 469 414 491T417 534Q417 605 384 639T288 674Q252 674 221 661T165 623T123 563T96 485Q92 466 90 444T87 402Q87 331 119 295T215 259Z" />
<glyph unicode="&#xbb;" glyph-name="guillemotright" horiz-adv-x="384" d="M166 254L87 442H117L197 260L195 245L49 63H18L166 254ZM306 254L227 442H256L336 260L334 245L189 63H158L306 254Z" />
<glyph unicode="&#xbc;" glyph-name="onequarter" horiz-adv-x="694" d="M181 667L88 642L91 662L199 699H215L145 300H117L181 667ZM603 714H631L51 -39H22L603 714ZM514 119H327L330 139L566 393H590L546 142H616L612 119H542L520 0H492L514 119ZM518 142L554
348H553L363 143V142H518Z" />
<glyph unicode="&#xbd;" glyph-name="onehalf" horiz-adv-x="730" d="M591 714H619L39 -39H10L591 714ZM181 667L88 642L91 662L199 699H215L145 300H117L181 667ZM397 21L523 123Q554 148 578 169T618 210T643 252T652 300Q652 334 633 355T566 376Q542 376 516
369T470 351L474 374Q497 386 521 393T573 400Q629 400 655 373T682 302Q682 273 672 249T644 202T600 157T540 108L433 25V23H645L641 0H393L397 21Z" />
<glyph unicode="&#xbe;" glyph-name="threequarters" horiz-adv-x="742" d="M141 293Q104 293 76 302T32 320L36 342Q56 331 81 324T139 317Q196 317 228 345T261 423Q261 456 235 476T166 497H132L136 520H167Q189 520 209 526T244 544T268 573T277 613Q277 676
194 676Q168 676 148 673T105 660L109 682Q133 693 153 696T204 700Q251 700 278 677T305 616Q305 574 279 547T214 511V509Q243 503 266 482T290 426Q290 363 248 328T141 293ZM668 711H696L116 -42H87L668 711ZM562 119H375L378 139L614 393H638L594 142H664L660
119H590L568 0H540L562 119ZM566 142L602 348H601L411 143V142H566Z" />
<glyph unicode="&#xbf;" glyph-name="questiondown" horiz-adv-x="385" d="M149 -128Q76 -128 34 -93T-9 8Q-9 41 -2 66T22 112T64 155T125 201Q152 220 172 235T207 265T231 299T244 342L256 412H286L275 341Q270 312 261 291T235 252T196 217T141 178Q108 155
86 137T51 99T31 58T25 10Q25 -44 58 -72T157 -100Q196 -100 229 -92T305 -66L301 -93Q281 -102 263 -108T227 -119T190 -126T149 -128ZM282 573H317L307 519H272L282 573Z" />
<glyph unicode="&#xc0;" glyph-name="Agrave" horiz-adv-x="555" d="M363 693H397L502 0H469L434 236H133L-2 0H-35L363 693ZM149 265H429L372 651H371L149 265ZM313 853H346L398 729H370L313 853Z" />
<glyph unicode="&#xc1;" glyph-name="Aacute" horiz-adv-x="555" d="M363 693H397L502 0H469L434 236H133L-2 0H-35L363 693ZM149 265H429L372 651H371L149 265ZM455 853H493L400 729H369L455 853Z" />
<glyph unicode="&#xc2;" glyph-name="Acircumflex" horiz-adv-x="555" d="M363 693H397L502 0H469L434 236H133L-2 0H-35L363 693ZM149 265H429L372 651H371L149 265ZM388 833H415L488 729H460L399 805L305 729H276L388 833Z" />
<glyph unicode="&#xc3;" glyph-name="Atilde" horiz-adv-x="555" d="M363 693H397L502 0H469L434 236H133L-2 0H-35L363 693ZM149 265H429L372 651H371L149 265ZM263 741Q270 774 290 790T337 807Q353 807 367 801T395 788T422 774T449 768Q486 768 497 807H521Q514
774 494 758T448 741Q432 741 418 747T389 760T362 774T336 780Q299 780 287 741H263Z" />
<glyph unicode="&#xc4;" glyph-name="Adieresis" horiz-adv-x="555" d="M363 693H397L502 0H469L434 236H133L-2 0H-35L363 693ZM149 265H429L372 651H371L149 265ZM312 780H345L337 737H304L312 780ZM437 780H470L462 737H429L437 780Z" />
<glyph unicode="&#xc5;" glyph-name="Aring" horiz-adv-x="555" d="M363 693H397L502 0H469L434 236H133L-2 0H-35L363 693ZM149 265H429L372 651H371L149 265ZM383 717Q348 717 328 739T308 790Q308 825 331 850T391 875Q427 875 447 853T467 803Q467 765 443
741T383 717ZM384 740Q409 740 425 757T441 803Q441 821 428 836T390 852Q365 852 350 834T334 790Q334 770 346 755T384 740Z" />
<glyph unicode="&#xc6;" glyph-name="AE" horiz-adv-x="854" d="M489 693H885L880 665H538L486 370H752L747 341H481L426 28H777L772 0H389L427 214H157L-7 0H-43L489 693ZM432 243L506 665H503L178 243H432Z" />
<glyph unicode="&#xc7;" glyph-name="Ccedilla" horiz-adv-x="560" d="M291 -8Q262 -8 242 -4L233 -55Q271 -57 295 -72T319 -118Q319 -159 280 -182T153 -210L157 -186Q231 -181 259 -166T288 -121Q288 -99 268 -88T203 -77L216 0Q171 11 139 35T85 93T54 168T44
255Q44 335 62 405T113 530Q161 615 235 658T401 701Q466 701 503 689T567 659L562 631Q535 648 497 660T399 673Q319 673 252 633T140 515Q111 463 95 399T78 255Q78 204 90 161T129 87T196 38T293 20Q358 20 403 34T482 65L478 36Q449 20 402 6T291 -8Z" />
<glyph unicode="&#xc8;" glyph-name="Egrave" horiz-adv-x="500" d="M280 853H313L365 729H337L280 853ZM149 693H531L526 665H177L125 370H397L392 341H120L65 28H423L418 0H27L149 693Z" />
<glyph unicode="&#xc9;" glyph-name="Eacute" horiz-adv-x="500" d="M413 853H451L358 729H327L413 853ZM149 693H531L526 665H177L125 370H397L392 341H120L65 28H423L418 0H27L149 693Z" />
<glyph unicode="&#xca;" glyph-name="Ecircumflex" horiz-adv-x="500" d="M355 833H382L455 729H427L366 805L272 729H243L355 833ZM149 693H531L526 665H177L125 370H397L392 341H120L65 28H423L418 0H27L149 693Z" />
<glyph unicode="&#xcb;" glyph-name="Edieresis" horiz-adv-x="500" d="M149 693H531L526 665H177L125 370H397L392 341H120L65 28H423L418 0H27L149 693ZM279 780H312L304 737H271L279 780ZM404 780H437L429 737H396L404 780Z" />
<glyph unicode="&#xcc;" glyph-name="Igrave" horiz-adv-x="185" d="M154 693H187L64 0H31L154 693ZM106 853H139L191 729H163L106 853Z" />
<glyph unicode="&#xcd;" glyph-name="Iacute" horiz-adv-x="185" d="M154 693H187L64 0H31L154 693ZM248 853H286L193 729H162L248 853Z" />
<glyph unicode="&#xce;" glyph-name="Icircumflex" horiz-adv-x="185" d="M154 693H187L64 0H31L154 693ZM180 833H207L280 729H252L191 805L97 729H68L180 833Z" />
<glyph unicode="&#xcf;" glyph-name="Idieresis" horiz-adv-x="185" d="M154 693H187L64 0H31L154 693ZM107 780H140L132 737H99L107 780ZM232 780H265L257 737H224L232 780Z" />
<glyph unicode="&#xd0;" glyph-name="Eth" horiz-adv-x="604" d="M28 366H91L149 693H316Q380 693 431 678T519 632T574 554T594 443Q594 362 575 283T510 141T387 39T195 0H26L86 337H23L28 366ZM198 28Q284 28 345 52T448 116T514 210T550 323Q555 355 557 384T560
442Q560 559 494 612T310 665H176L123 366H329L324 337H118L64 28H198Z" />
<glyph unicode="&#xd1;" glyph-name="Ntilde" horiz-adv-x="613" d="M269 741Q276 774 296 790T343 807Q359 807 373 801T401 788T428 774T455 768Q492 768 503 807H527Q520 774 500 758T454 741Q438 741 424 747T395 760T368 774T342 780Q305 780 293 741H269ZM149
693H188L473 53H474L587 693H617L495 0H462L174 650H172L58 0H27L149 693Z" />
<glyph unicode="&#xd2;" glyph-name="Ograve" horiz-adv-x="650" d="M336 853H369L421 729H393L336 853ZM282 -8Q224 -8 180 12T105 68T59 149T43 249Q43 351 72 434T150 577T263 669T400 701Q458 701 503 681T578 625T624 543T640 444Q640 341 611 258T533 115T419
24T282 -8ZM284 20Q334 20 382 39T472 95T545 188T591 314Q606 378 606 446Q606 490 594 531T557 603T492 654T399 673Q349 673 301 654T211 598T138 506T91 379Q84 347 81 315T77 247Q77 202 89 161T127 89T192 39T284 20Z" />
<glyph unicode="&#xd3;" glyph-name="Oacute" horiz-adv-x="650" d="M474 853H512L419 729H388L474 853ZM282 -8Q224 -8 180 12T105 68T59 149T43 249Q43 351 72 434T150 577T263 669T400 701Q458 701 503 681T578 625T624 543T640 444Q640 341 611 258T533 115T419
24T282 -8ZM284 20Q334 20 382 39T472 95T545 188T591 314Q606 378 606 446Q606 490 594 531T557 603T492 654T399 673Q349 673 301 654T211 598T138 506T91 379Q84 347 81 315T77 247Q77 202 89 161T127 89T192 39T284 20Z" />
<glyph unicode="&#xd4;" glyph-name="Ocircumflex" horiz-adv-x="650" d="M411 833H438L511 729H483L422 805L328 729H299L411 833ZM282 -8Q224 -8 180 12T105 68T59 149T43 249Q43 351 72 434T150 577T263 669T400 701Q458 701 503 681T578 625T624 543T640 444Q640
341 611 258T533 115T419 24T282 -8ZM284 20Q334 20 382 39T472 95T545 188T591 314Q606 378 606 446Q606 490 594 531T557 603T492 654T399 673Q349 673 301 654T211 598T138 506T91 379Q84 347 81 315T77 247Q77 202 89 161T127 89T192 39T284 20Z" />
<glyph unicode="&#xd5;" glyph-name="Otilde" horiz-adv-x="650" d="M286 741Q293 774 313 790T360 807Q376 807 390 801T418 788T445 774T472 768Q509 768 520 807H544Q537 774 517 758T471 741Q455 741 441 747T412 760T385 774T359 780Q322 780 310 741H286ZM282
-8Q224 -8 180 12T105 68T59 149T43 249Q43 351 72 434T150 577T263 669T400 701Q458 701 503 681T578 625T624 543T640 444Q640 341 611 258T533 115T419 24T282 -8ZM284 20Q334 20 382 39T472 95T545 188T591 314Q606 378 606 446Q606 490 594 531T557 603T492
654T399 673Q349 673 301 654T211 598T138 506T91 379Q84 347 81 315T77 247Q77 202 89 161T127 89T192 39T284 20Z" />
<glyph unicode="&#xd6;" glyph-name="Odieresis" horiz-adv-x="650" d="M338 780H371L363 737H330L338 780ZM463 780H496L488 737H455L463 780ZM282 -8Q224 -8 180 12T105 68T59 149T43 249Q43 351 72 434T150 577T263 669T400 701Q458 701 503 681T578 625T624
543T640 444Q640 341 611 258T533 115T419 24T282 -8ZM284 20Q334 20 382 39T472 95T545 188T591 314Q606 378 606 446Q606 490 594 531T557 603T492 654T399 673Q349 673 301 654T211 598T138 506T91 379Q84 347 81 315T77 247Q77 202 89 161T127 89T192 39T284
20Z" />
<glyph unicode="&#xd7;" glyph-name="multiply" horiz-adv-x="468" d="M47 173L226 324L100 476L122 496L248 343L426 496L443 475L265 323L390 172L368 152L243 304L64 152L47 173Z" />
<glyph unicode="&#xd8;" glyph-name="Oslash" horiz-adv-x="650" d="M282 -8Q222 -8 177 13T102 70L39 0H2L85 93Q64 126 54 165T43 249Q43 351 72 434T150 577T263 669T400 701Q454 701 496 683T569 634L622 693H658L587 613Q613 579 626 536T640 444Q640 341
611 258T533 115T419 24T282 -8ZM284 20Q334 20 382 39T472 95T545 188T591 314Q606 378 606 446Q606 485 596 522T566 590L123 94Q149 60 188 40T284 20ZM77 247Q77 212 84 179T108 118L549 611Q523 640 486 656T399 673Q349 673 301 654T211 598T138 506T91 379Q84
347 81 315T77 247Z" />
<glyph unicode="&#xd9;" glyph-name="Ugrave" horiz-adv-x="605" d="M317 853H350L402 729H374L317 853ZM273 -8Q223 -8 183 2T115 33T72 89T57 170Q57 199 63 235L143 693H176L95 234Q89 199 89 172Q89 89 138 54T274 19Q371 19 426 68T502 234L584 693H615L533
230Q512 111 449 52T273 -8Z" />
<glyph unicode="&#xda;" glyph-name="Uacute" horiz-adv-x="605" d="M449 853H487L394 729H363L449 853ZM273 -8Q223 -8 183 2T115 33T72 89T57 170Q57 199 63 235L143 693H176L95 234Q89 199 89 172Q89 89 138 54T274 19Q371 19 426 68T502 234L584 693H615L533
230Q512 111 449 52T273 -8Z" />
<glyph unicode="&#xdb;" glyph-name="Ucircumflex" horiz-adv-x="605" d="M391 833H418L491 729H463L402 805L308 729H279L391 833ZM273 -8Q223 -8 183 2T115 33T72 89T57 170Q57 199 63 235L143 693H176L95 234Q89 199 89 172Q89 89 138 54T274 19Q371 19 426
68T502 234L584 693H615L533 230Q512 111 449 52T273 -8Z" />
<glyph unicode="&#xdc;" glyph-name="Udieresis" horiz-adv-x="605" d="M273 -8Q223 -8 183 2T115 33T72 89T57 170Q57 199 63 235L143 693H176L95 234Q89 199 89 172Q89 89 138 54T274 19Q371 19 426 68T502 234L584 693H615L533 230Q512 111 449 52T273 -8ZM318
780H351L343 737H310L318 780ZM443 780H476L468 737H435L443 780Z" />
<glyph unicode="&#xdd;" glyph-name="Yacute" horiz-adv-x="476" d="M228 295L84 693H117L250 325H251L512 693H546L261 294L209 0H176L228 295ZM638 853H676L583 729H552L638 853Z" />
<glyph unicode="&#xde;" glyph-name="Thorn" horiz-adv-x="498" d="M149 693H182L159 562H300Q354 562 391 549T451 512T485 458T495 391Q495 284 431 230T248 176H91L60 0H27L149 693ZM248 204Q460 204 460 389Q460 418 453 444T427 491T376 522T295 534H154L96
204H248Z" />
<glyph unicode="&#xdf;" glyph-name="germandbls" horiz-adv-x="489" d="M115 550Q132 647 188 692T325 738Q394 738 429 709T465 631Q465 599 451 573T416 523T369 480T323 441T287 401T273 358Q273 332 289 316T336 279L371 255Q404 232 424 205T445 137Q445
108 435 82T405 35T354 4T283 -8Q230 -8 200 4T153 27L158 54Q180 41 208 31T283 20Q318 20 343 29T383 55T406 92T413 136Q413 168 396 190T351 233L317 256Q285 278 264 299T243 354Q243 380 257 402T292 446T338 487T384 529T419 575T433 628Q433 666 406 688T322
711Q252 711 207 672T146 548L16 -195H-16L115 550Z" />
<glyph unicode="&#xe0;" glyph-name="agrave" horiz-adv-x="459" d="M160 -8Q92 -8 55 33T18 148Q18 232 44 299T112 413T208 486T317 511Q362 511 389 504T437 488L352 0H325L335 72H333Q321 60 304 46T265 20T216 0T160 -8ZM165 19Q192 19 218 26T266 46T307
72T338 101L403 468Q388 475 370 480T315 485Q274 485 236 470T166 428T108 361T67 272Q59 245 55 216T50 148Q50 85 79 52T165 19ZM230 728H263L323 584H295L230 728Z" />
<glyph unicode="&#xe1;" glyph-name="aacute" horiz-adv-x="459" d="M160 -8Q92 -8 55 33T18 148Q18 232 44 299T112 413T208 486T317 511Q362 511 389 504T437 488L352 0H325L335 72H333Q321 60 304 46T265 20T216 0T160 -8ZM165 19Q192 19 218 26T266 46T307
72T338 101L403 468Q388 475 370 480T315 485Q274 485 236 470T166 428T108 361T67 272Q59 245 55 216T50 148Q50 85 79 52T165 19ZM391 728H429L322 584H291L391 728Z" />
<glyph unicode="&#xe2;" glyph-name="acircumflex" horiz-adv-x="459" d="M160 -8Q92 -8 55 33T18 148Q18 232 44 299T112 413T208 486T317 511Q362 511 389 504T437 488L352 0H325L335 72H333Q321 60 304 46T265 20T216 0T160 -8ZM165 19Q192 19 218 26T266 46T307
72T338 101L403 468Q388 475 370 480T315 485Q274 485 236 470T166 428T108 361T67 272Q59 245 55 216T50 148Q50 85 79 52T165 19ZM570 706H599L670 584H643L582 681L487 584H458L570 706Z" />
<glyph unicode="&#xe3;" glyph-name="atilde" horiz-adv-x="459" d="M160 -8Q92 -8 55 33T18 148Q18 232 44 299T112 413T208 486T317 511Q362 511 389 504T437 488L352 0H325L335 72H333Q321 60 304 46T265 20T216 0T160 -8ZM165 19Q192 19 218 26T266 46T307
72T338 101L403 468Q388 475 370 480T315 485Q274 485 236 470T166 428T108 361T67 272Q59 245 55 216T50 148Q50 85 79 52T165 19ZM189 611Q196 646 217 663T264 680Q280 680 294 674T321 659T347 645T374 638Q391 638 404 649T423 680H447Q440 645 420 628T373
611Q357 611 343 617T315 632T289 646T263 653Q225 653 213 611H189Z" />
<glyph unicode="&#xe4;" glyph-name="adieresis" horiz-adv-x="459" d="M160 -8Q92 -8 55 33T18 148Q18 232 44 299T112 413T208 486T317 511Q362 511 389 504T437 488L352 0H325L335 72H333Q321 60 304 46T265 20T216 0T160 -8ZM165 19Q192 19 218 26T266 46T307
72T338 101L403 468Q388 475 370 480T315 485Q274 485 236 470T166 428T108 361T67 272Q59 245 55 216T50 148Q50 85 79 52T165 19ZM495 660H527L519 617H487L495 660ZM619 660H651L643 617H611L619 660Z" />
<glyph unicode="&#xe5;" glyph-name="aring" horiz-adv-x="459" d="M160 -8Q92 -8 55 33T18 148Q18 232 44 299T112 413T208 486T317 511Q362 511 389 504T437 488L352 0H325L335 72H333Q321 60 304 46T265 20T216 0T160 -8ZM165 19Q192 19 218 26T266 46T307
72T338 101L403 468Q388 475 370 480T315 485Q274 485 236 470T166 428T108 361T67 272Q59 245 55 216T50 148Q50 85 79 52T165 19ZM318 585Q283 585 263 607T243 658Q243 693 266 718T326 743Q362 743 382 721T402 671Q402 633 378 609T318 585ZM319 608Q344 608
360 625T376 671Q376 689 363 704T325 720Q300 720 285 702T269 658Q269 638 281 623T319 608Z" />
<glyph unicode="&#xe6;" glyph-name="ae" horiz-adv-x="724" d="M136 -8Q69 -8 38 27T6 116Q6 188 50 222T179 268L318 285L331 358Q342 418 319 450T225 483Q187 483 157 477T96 460L101 485Q132 498 164 504T235 511Q303 511 334 481T363 394Q366 399 369 404T377
415Q408 459 452 485T558 511Q641 511 680 453T700 280L696 259H344Q342 242 341 224T339 186Q339 101 379 61T496 20Q547 20 588 33T656 60L651 34Q628 21 588 7T493 -8Q371 -8 327 84Q289 44 243 18T136 -8ZM307 184Q307 204 308 223T312 259L183 243Q109 234
74 207T39 118Q39 75 62 47T143 18Q197 18 239 42T319 105Q307 139 307 184ZM399 402Q364 353 349 286H668Q685 384 655 434T555 484Q502 484 464 462T399 402Z" />
<glyph unicode="&#xe7;" glyph-name="ccedilla" horiz-adv-x="400" d="M198 -8Q178 -8 162 -5L153 -55Q191 -57 215 -72T239 -118Q239 -159 200 -182T73 -210L77 -186Q151 -181 179 -166T208 -121Q208 -99 188 -88T123 -77L136 0Q80 17 51 65T22 186Q22 250 39
307T88 406Q124 457 174 484T284 511Q329 511 355 504T401 485L396 458Q377 468 351 476T283 484Q233 484 190 461T114 393Q87 355 71 302T54 186Q54 106 92 63T202 19Q253 19 288 32T346 60L341 32Q316 17 283 5T198 -8Z" />
<glyph unicode="&#xe8;" glyph-name="egrave" horiz-adv-x="439" d="M208 -8Q120 -8 71 41T22 185Q22 255 39 313T88 415Q120 460 166 485T273 511Q357 511 396 453T415 280L411 259H59Q57 242 56 224T54 187Q54 101 94 61T212 20Q262 20 303 33T371 61L366 34Q343
21 303 7T208 -8ZM115 403Q79 353 64 286H383Q400 384 370 434T270 484Q218 484 180 463T115 403ZM458 728H491L551 584H523L458 728Z" />
<glyph unicode="&#xe9;" glyph-name="eacute" horiz-adv-x="439" d="M613 728H651L544 584H513L613 728ZM208 -8Q120 -8 71 41T22 185Q22 255 39 313T88 415Q120 460 166 485T273 511Q357 511 396 453T415 280L411 259H59Q57 242 56 224T54 187Q54 101 94 61T212
20Q262 20 303 33T371 61L366 34Q343 21 303 7T208 -8ZM115 403Q79 353 64 286H383Q400 384 370 434T270 484Q218 484 180 463T115 403Z" />
<glyph unicode="&#xea;" glyph-name="ecircumflex" horiz-adv-x="439" d="M539 706H568L639 584H612L551 681L456 584H427L539 706ZM208 -8Q120 -8 71 41T22 185Q22 255 39 313T88 415Q120 460 166 485T273 511Q357 511 396 453T415 280L411 259H59Q57 242 56
224T54 187Q54 101 94 61T212 20Q262 20 303 33T371 61L366 34Q343 21 303 7T208 -8ZM115 403Q79 353 64 286H383Q400 384 370 434T270 484Q218 484 180 463T115 403Z" />
<glyph unicode="&#xeb;" glyph-name="edieresis" horiz-adv-x="439" d="M471 660H503L495 617H463L471 660ZM595 660H627L619 617H587L595 660ZM208 -8Q120 -8 71 41T22 185Q22 255 39 313T88 415Q120 460 166 485T273 511Q357 511 396 453T415 280L411 259H59Q57
242 56 224T54 187Q54 101 94 61T212 20Q262 20 303 33T371 61L366 34Q343 21 303 7T208 -8ZM115 403Q79 353 64 286H383Q400 384 370 434T270 484Q218 484 180 463T115 403Z" />
<glyph unicode="&#xec;" glyph-name="igrave" horiz-adv-x="159" d="M106 503H138L50 0H18L106 503ZM60 728H93L153 584H125L60 728Z" />
<glyph unicode="&#xed;" glyph-name="iacute" horiz-adv-x="159" d="M221 728H259L152 584H121L221 728ZM106 503H138L50 0H18L106 503Z" />
<glyph unicode="&#xee;" glyph-name="icircumflex" horiz-adv-x="159" d="M142 706H169L230 584H204L152 681L67 584H38L142 706ZM106 503H138L50 0H18L106 503Z" />
<glyph unicode="&#xef;" glyph-name="idieresis" horiz-adv-x="159" d="M73 660H105L97 617H65L73 660ZM197 660H229L221 617H189L197 660ZM106 503H138L50 0H18L106 503Z" />
<glyph unicode="&#xf0;" glyph-name="eth" horiz-adv-x="474" d="M296 657Q254 698 199 739H239Q262 722 283 705T325 668L426 709L433 686L343 650Q396 593 426 523T456 364Q456 276 437 207T382 90T299 17T194 -8Q109 -8 65 41T20 178Q20 249 39 310T93 415T176
485T281 511Q328 511 355 500T406 474H409Q384 563 314 639L181 587L174 609L296 657ZM423 363Q423 383 421 402T416 439Q385 462 353 473T279 484Q238 484 203 469T140 426T92 359T62 271Q57 251 55 227T52 179Q52 100 89 60T196 19Q238 19 273 34T335 78T381
146T410 233Q412 245 414 257T419 284T422 318T423 363Z" />
<glyph unicode="&#xf1;" glyph-name="ntilde" horiz-adv-x="483" d="M106 503H137L125 436H127Q175 469 229 490T334 511Q396 511 421 484T446 412Q446 402 445 393T442 372L377 0H345L410 369Q412 379 413 388T414 407Q414 442 395 462T324 483Q274 483 223 463T122
412L49 0H17L106 503ZM422 611Q429 646 450 663T497 680Q513 680 527 674T554 659T580 645T607 638Q624 638 637 649T656 680H680Q673 645 653 628T606 611Q590 611 576 617T548 632T522 646T496 653Q458 653 446 611H422Z" />
<glyph unicode="&#xf2;" glyph-name="ograve" horiz-adv-x="474" d="M194 -8Q109 -8 65 41T20 178Q20 249 39 310T92 415T174 485T279 511Q363 511 408 463T453 326Q453 255 434 194T381 88T299 18T194 -8ZM196 19Q236 19 271 34T334 78T381 145T411 233Q416 256
418 279T421 326Q421 404 384 444T277 484Q237 484 202 469T140 426T92 359T62 271Q57 251 55 227T52 179Q52 100 89 60T196 19ZM469 728H502L562 584H534L469 728Z" />
<glyph unicode="&#xf3;" glyph-name="oacute" horiz-adv-x="474" d="M628 728H666L559 584H528L628 728ZM194 -8Q109 -8 65 41T20 178Q20 249 39 310T92 415T174 485T279 511Q363 511 408 463T453 326Q453 255 434 194T381 88T299 18T194 -8ZM196 19Q236 19 271
34T334 78T381 145T411 233Q416 256 418 279T421 326Q421 404 384 444T277 484Q237 484 202 469T140 426T92 359T62 271Q57 251 55 227T52 179Q52 100 89 60T196 19Z" />
<glyph unicode="&#xf4;" glyph-name="ocircumflex" horiz-adv-x="474" d="M558 706H587L658 584H631L570 681L475 584H446L558 706ZM194 -8Q109 -8 65 41T20 178Q20 249 39 310T92 415T174 485T279 511Q363 511 408 463T453 326Q453 255 434 194T381 88T299 18T194
-8ZM196 19Q236 19 271 34T334 78T381 145T411 233Q416 256 418 279T421 326Q421 404 384 444T277 484Q237 484 202 469T140 426T92 359T62 271Q57 251 55 227T52 179Q52 100 89 60T196 19Z" />
<glyph unicode="&#xf5;" glyph-name="otilde" horiz-adv-x="474" d="M194 -8Q109 -8 65 41T20 178Q20 249 39 310T92 415T174 485T279 511Q363 511 408 463T453 326Q453 255 434 194T381 88T299 18T194 -8ZM196 19Q236 19 271 34T334 78T381 145T411 233Q416 256
418 279T421 326Q421 404 384 444T277 484Q237 484 202 469T140 426T92 359T62 271Q57 251 55 227T52 179Q52 100 89 60T196 19ZM426 611Q433 646 454 663T501 680Q517 680 531 674T558 659T584 645T611 638Q628 638 641 649T660 680H684Q677 645 657 628T610 611Q594
611 580 617T552 632T526 646T500 653Q462 653 450 611H426Z" />
<glyph unicode="&#xf6;" glyph-name="odieresis" horiz-adv-x="474" d="M482 660H514L506 617H474L482 660ZM606 660H638L630 617H598L606 660ZM194 -8Q109 -8 65 41T20 178Q20 249 39 310T92 415T174 485T279 511Q363 511 408 463T453 326Q453 255 434 194T381
88T299 18T194 -8ZM196 19Q236 19 271 34T334 78T381 145T411 233Q416 256 418 279T421 326Q421 404 384 444T277 484Q237 484 202 469T140 426T92 359T62 271Q57 251 55 227T52 179Q52 100 89 60T196 19Z" />
<glyph unicode="&#xf7;" glyph-name="divide" horiz-adv-x="489" d="M69 351H456L451 323H63L69 351ZM219 206H254L245 152H210L219 206ZM274 521H309L300 467H265L274 521Z" />
<glyph unicode="&#xf8;" glyph-name="oslash" horiz-adv-x="474" d="M194 -8Q106 -8 59 48L14 0H-21L45 69Q20 113 20 178Q20 249 39 310T92 415T174 485T279 511Q323 511 356 497T412 456L454 500H489L427 434Q453 390 453 326Q453 255 434 194T381 88T299 18T194
-8ZM196 19Q236 19 271 34T334 78T381 145T411 233Q416 256 418 279T421 326Q421 375 404 411L81 70Q117 19 196 19ZM52 179Q52 127 67 93L391 434Q353 484 277 484Q237 484 202 469T140 426T92 359T62 271Q57 251 55 227T52 179Z" />
<glyph unicode="&#xf9;" glyph-name="ugrave" horiz-adv-x="479" d="M151 -8Q89 -8 62 20T35 96Q35 113 38 131L103 503H136L71 134Q69 123 68 114T67 96Q67 59 87 40T157 20Q207 20 256 40T355 91L428 503H460L371 0H343L352 67H350Q302 34 252 13T151 -8ZM473
728H506L566 584H538L473 728Z" />
<glyph unicode="&#xfa;" glyph-name="uacute" horiz-adv-x="479" d="M627 728H665L558 584H527L627 728ZM151 -8Q89 -8 62 20T35 96Q35 113 38 131L103 503H136L71 134Q69 123 68 114T67 96Q67 59 87 40T157 20Q207 20 256 40T355 91L428 503H460L371 0H343L352
67H350Q302 34 252 13T151 -8Z" />
<glyph unicode="&#xfb;" glyph-name="ucircumflex" horiz-adv-x="479" d="M556 706H585L656 584H629L568 681L473 584H444L556 706ZM151 -8Q89 -8 62 20T35 96Q35 113 38 131L103 503H136L71 134Q69 123 68 114T67 96Q67 59 87 40T157 20Q207 20 256 40T355 91L428
503H460L371 0H343L352 67H350Q302 34 252 13T151 -8Z" />
<glyph unicode="&#xfc;" glyph-name="udieresis" horiz-adv-x="479" d="M487 660H519L511 617H479L487 660ZM611 660H643L635 617H603L611 660ZM151 -8Q89 -8 62 20T35 96Q35 113 38 131L103 503H136L71 134Q69 123 68 114T67 96Q67 59 87 40T157 20Q207 20 256
40T355 91L428 503H460L371 0H343L352 67H350Q302 34 252 13T151 -8Z" />
<glyph unicode="&#xfd;" glyph-name="yacute" horiz-adv-x="435" d="M-9 -198Q-26 -198 -40 -193T-64 -183L-60 -159Q-36 -170 -10 -170Q31 -170 57 -147T107 -81L159 14L58 503H92L182 55H184L432 503H464L135 -90Q121 -115 107 -135T76 -169T39 -190T-9 -198ZM608
728H646L539 584H508L608 728Z" />
<glyph unicode="&#xfe;" glyph-name="thorn" horiz-adv-x="471" d="M148 739H180L127 434H129Q162 465 206 488T306 511Q373 511 412 471T452 352Q452 283 437 218T389 103T307 23T189 -7Q143 -7 111 3T56 27L16 -195H-16L148 739ZM188 20Q239 20 278 39T344 93T389
173T415 273Q417 292 418 311T420 349Q419 419 386 451T296 483Q243 483 200 461T122 408L60 54Q83 38 116 29T188 20Z" />
<glyph unicode="&#xff;" glyph-name="ydieresis" horiz-adv-x="435" d="M-9 -198Q-26 -198 -40 -193T-64 -183L-60 -159Q-36 -170 -10 -170Q31 -170 57 -147T107 -81L159 14L58 503H92L182 55H184L432 503H464L135 -90Q121 -115 107 -135T76 -169T39 -190T-9 -198ZM467
660H499L491 617H459L467 660ZM591 660H623L615 617H583L591 660Z" />
<glyph unicode="&#x100;" glyph-name="Amacron" horiz-adv-x="555" d="M363 693H397L502 0H469L434 236H133L-2 0H-35L363 693ZM149 265H429L372 651H371L149 265ZM281 772H504L499 745H276L281 772Z" />
<glyph unicode="&#x101;" glyph-name="amacron" horiz-adv-x="459" d="M160 -8Q92 -8 55 33T18 148Q18 232 44 299T112 413T208 486T317 511Q362 511 389 504T437 488L352 0H325L335 72H333Q321 60 304 46T265 20T216 0T160 -8ZM165 19Q192 19 218 26T266 46T307
72T338 101L403 468Q388 475 370 480T315 485Q274 485 236 470T166 428T108 361T67 272Q59 245 55 216T50 148Q50 85 79 52T165 19ZM464 666H687L682 639H459L464 666Z" />
<glyph unicode="&#x102;" glyph-name="Abreve" horiz-adv-x="555" d="M363 693H397L502 0H469L434 236H133L-2 0H-35L363 693ZM149 265H429L372 651H371L149 265ZM387 729Q341 729 314 753T285 822H311Q312 789 332 772T389 754Q461 754 490 822H515Q501 777 468
753T387 729Z" />
<glyph unicode="&#x103;" glyph-name="abreve" horiz-adv-x="459" d="M160 -8Q92 -8 55 33T18 148Q18 232 44 299T112 413T208 486T317 511Q362 511 389 504T437 488L352 0H325L335 72H333Q321 60 304 46T265 20T216 0T160 -8ZM165 19Q192 19 218 26T266 46T307
72T338 101L403 468Q388 475 370 480T315 485Q274 485 236 470T166 428T108 361T67 272Q59 245 55 216T50 148Q50 85 79 52T165 19ZM311 579Q262 579 234 609T210 689H236Q234 651 254 628T313 604Q354 604 381 626T419 689H444Q430 637 396 608T311 579Z" />
<glyph unicode="&#x104;" glyph-name="Aogonek" horiz-adv-x="555" d="M445 -198Q404 -198 386 -179T368 -131Q368 -110 377 -91T401 -55T434 -24T469 1L434 236H133L-2 0H-35L363 693H397L502 0Q482 -14 464 -29T432 -60T409 -94T400 -130Q400 -150 411 -161T447
-173Q461 -173 470 -172T488 -168L484 -190Q478 -193 467 -195T445 -198ZM149 265H429L372 651H371L149 265Z" />
<glyph unicode="&#x105;" glyph-name="aogonek" horiz-adv-x="459" d="M297 -198Q256 -198 239 -179T221 -131Q221 -110 230 -91T255 -53T289 -20T326 7L335 72H333Q321 60 304 46T265 20T216 0T160 -8Q92 -8 55 33T18 148Q18 232 44 299T112 413T208 486T317
511Q362 511 389 504T437 488L352 0Q334 -14 316 -29T284 -60T262 -94T253 -130Q253 -150 263 -161T299 -173Q313 -173 322 -172T340 -168L336 -190Q330 -193 319 -195T297 -198ZM165 19Q192 19 218 26T266 46T307 72T338 101L403 468Q388 475 370 480T315 485Q274
485 236 470T166 428T108 361T67 272Q59 245 55 216T50 148Q50 85 79 52T165 19Z" />
<glyph unicode="&#x106;" glyph-name="Cacute" horiz-adv-x="560" d="M291 -8Q227 -8 181 12T104 69T59 153T44 255Q44 335 62 405T113 530Q161 615 235 658T401 701Q466 701 503 689T567 659L562 631Q535 648 497 660T399 673Q319 673 252 633T140 515Q111 463
95 399T78 255Q78 204 90 161T129 87T196 38T293 20Q358 20 403 34T482 65L478 36Q449 20 402 6T291 -8ZM460 853H498L405 729H374L460 853Z" />
<glyph unicode="&#x107;" glyph-name="cacute" horiz-adv-x="400" d="M627 728H665L558 584H527L627 728ZM198 -8Q113 -8 68 43T22 186Q22 250 39 307T88 406Q124 457 174 484T284 511Q329 511 355 504T401 485L396 458Q377 468 351 476T283 484Q233 484 190 461T114
393Q87 355 71 302T54 186Q54 106 92 63T202 19Q253 19 288 32T346 60L341 32Q316 17 283 5T198 -8Z" />
<glyph unicode="&#x108;" glyph-name="Ccircumflex" horiz-adv-x="560" d="M393 833H420L493 729H465L404 805L310 729H281L393 833ZM291 -8Q227 -8 181 12T104 69T59 153T44 255Q44 335 62 405T113 530Q161 615 235 658T401 701Q466 701 503 689T567 659L562
631Q535 648 497 660T399 673Q319 673 252 633T140 515Q111 463 95 399T78 255Q78 204 90 161T129 87T196 38T293 20Q358 20 403 34T482 65L478 36Q449 20 402 6T291 -8Z" />
<glyph unicode="&#x109;" glyph-name="ccircumflex" horiz-adv-x="400" d="M542 706H571L642 584H615L554 681L459 584H430L542 706ZM198 -8Q113 -8 68 43T22 186Q22 250 39 307T88 406Q124 457 174 484T284 511Q329 511 355 504T401 485L396 458Q377 468 351
476T283 484Q233 484 190 461T114 393Q87 355 71 302T54 186Q54 106 92 63T202 19Q253 19 288 32T346 60L341 32Q316 17 283 5T198 -8Z" />
<glyph unicode="&#x10a;" glyph-name="Cdotaccent" horiz-adv-x="560" d="M291 -8Q227 -8 181 12T104 69T59 153T44 255Q44 335 62 405T113 530Q161 615 235 658T401 701Q466 701 503 689T567 659L562 631Q535 648 497 660T399 673Q319 673 252 633T140 515Q111
463 95 399T78 255Q78 204 90 161T129 87T196 38T293 20Q358 20 403 34T482 65L478 36Q449 20 402 6T291 -8ZM383 780H416L408 737H375L383 780Z" />
<glyph unicode="&#x10b;" glyph-name="cdotaccent" horiz-adv-x="400" d="M198 -8Q113 -8 68 43T22 186Q22 250 39 307T88 406Q124 457 174 484T284 511Q329 511 355 504T401 485L396 458Q377 468 351 476T283 484Q233 484 190 461T114 393Q87 355 71 302T54 186Q54
106 92 63T202 19Q253 19 288 32T346 60L341 32Q316 17 283 5T198 -8ZM533 660H565L557 617H525L533 660Z" />
<glyph unicode="&#x10c;" glyph-name="Ccaron" horiz-adv-x="560" d="M405 729H378L305 833H333L394 757L488 833H517L405 729ZM291 -8Q227 -8 181 12T104 69T59 153T44 255Q44 335 62 405T113 530Q161 615 235 658T401 701Q466 701 503 689T567 659L562 631Q535
648 497 660T399 673Q319 673 252 633T140 515Q111 463 95 399T78 255Q78 204 90 161T129 87T196 38T293 20Q358 20 403 34T482 65L478 36Q449 20 402 6T291 -8Z" />
<glyph unicode="&#x10d;" glyph-name="ccaron" horiz-adv-x="400" d="M553 584H524L453 706H480L541 609L636 706H665L553 584ZM198 -8Q113 -8 68 43T22 186Q22 250 39 307T88 406Q124 457 174 484T284 511Q329 511 355 504T401 485L396 458Q377 468 351 476T283
484Q233 484 190 461T114 393Q87 355 71 302T54 186Q54 106 92 63T202 19Q253 19 288 32T346 60L341 32Q316 17 283 5T198 -8Z" />
<glyph unicode="&#x10e;" glyph-name="Dcaron" horiz-adv-x="604" d="M370 729H343L270 833H298L359 757L453 833H482L370 729ZM149 693H317Q381 693 432 678T520 632T575 554T595 443Q595 362 576 283T511 141T388 39T196 0H27L149 693ZM199 28Q285 28 346 52T449
116T515 210T551 323Q556 355 558 384T561 442Q561 559 495 612T311 665H177L65 28H199Z" />
<glyph unicode="&#x10f;" glyph-name="dcaron" horiz-adv-x="466" d="M506 596L537 739H571L530 596H506ZM170 -7Q97 -7 58 36T18 160Q18 233 39 297T97 409T183 483T290 511Q335 511 363 501T412 476L457 739H489L359 0H332L342 73H340Q328 58 311 44T272 19T225
0T170 -7ZM177 20Q233 20 274 44T345 101L407 449Q387 464 358 473T291 483Q206 483 145 421T59 251Q54 230 53 208T51 163Q51 93 81 57T177 20Z" />
<glyph unicode="&#x110;" glyph-name="Dcroat" horiz-adv-x="604" d="M28 366H91L149 693H316Q380 693 431 678T519 632T574 554T594 443Q594 362 575 283T510 141T387 39T195 0H26L86 337H23L28 366ZM198 28Q284 28 345 52T448 116T514 210T550 323Q555 355 557
384T560 442Q560 559 494 612T310 665H176L123 366H329L324 337H118L64 28H198Z" />
<glyph unicode="&#x111;" glyph-name="dcroat" horiz-adv-x="467" d="M280 626H437L457 739H489L469 626H540L536 602H465L359 0H332L342 73H340Q328 58 311 44T272 19T225 0T170 -7Q97 -7 58 36T18 160Q18 233 39 297T97 409T183 483T290 511Q335 511 363 501T412
476L433 602H276L280 626ZM177 20Q233 20 274 44T345 101L407 449Q387 464 358 473T291 483Q206 483 145 421T59 251Q54 230 53 208T51 163Q51 93 81 57T177 20Z" />
<glyph unicode="&#x112;" glyph-name="Emacron" horiz-adv-x="500" d="M149 693H531L526 665H177L125 370H397L392 341H120L65 28H423L418 0H27L149 693ZM245 772H468L463 745H240L245 772Z" />
<glyph unicode="&#x113;" glyph-name="emacron" horiz-adv-x="439" d="M208 -8Q120 -8 71 41T22 185Q22 255 39 313T88 415Q120 460 166 485T273 511Q357 511 396 453T415 280L411 259H59Q57 242 56 224T54 187Q54 101 94 61T212 20Q262 20 303 33T371 61L366
34Q343 21 303 7T208 -8ZM115 403Q79 353 64 286H383Q400 384 370 434T270 484Q218 484 180 463T115 403ZM438 666H661L656 639H433L438 666Z" />
<glyph unicode="&#x114;" glyph-name="Ebreve" horiz-adv-x="500" d="M149 693H531L526 665H177L125 370H397L392 341H120L65 28H423L418 0H27L149 693ZM351 729Q305 729 278 753T249 822H275Q276 789 296 772T353 754Q425 754 454 822H479Q465 777 432 753T351 729Z" />
<glyph unicode="&#x115;" glyph-name="ebreve" horiz-adv-x="439" d="M208 -8Q120 -8 71 41T22 185Q22 255 39 313T88 415Q120 460 166 485T273 511Q357 511 396 453T415 280L411 259H59Q57 242 56 224T54 187Q54 101 94 61T212 20Q262 20 303 33T371 61L366 34Q343
21 303 7T208 -8ZM115 403Q79 353 64 286H383Q400 384 370 434T270 484Q218 484 180 463T115 403ZM537 579Q488 579 460 609T436 689H462Q460 651 480 628T539 604Q580 604 607 626T645 689H670Q656 637 622 608T537 579Z" />
<glyph unicode="&#x116;" glyph-name="Edotaccent" horiz-adv-x="500" d="M339 780H372L364 737H331L339 780ZM149 693H531L526 665H177L125 370H397L392 341H120L65 28H423L418 0H27L149 693Z" />
<glyph unicode="&#x117;" glyph-name="edotaccent" horiz-adv-x="439" d="M208 -8Q120 -8 71 41T22 185Q22 255 39 313T88 415Q120 460 166 485T273 511Q357 511 396 453T415 280L411 259H59Q57 242 56 224T54 187Q54 101 94 61T212 20Q262 20 303 33T371 61L366
34Q343 21 303 7T208 -8ZM115 403Q79 353 64 286H383Q400 384 370 434T270 484Q218 484 180 463T115 403ZM531 660H563L555 617H523L531 660Z" />
<glyph unicode="&#x118;" glyph-name="Eogonek" horiz-adv-x="500" d="M149 693H531L526 665H177L125 370H397L392 341H120L65 28H423L418 0H370Q350 -14 332 -29T299 -60T276 -94T267 -130Q267 -150 278 -161T314 -173Q328 -173 337 -172T355 -168L351 -190Q345
-193 334 -195T312 -198Q271 -198 253 -179T235 -131Q235 -110 244 -91T267 -56T299 -25T333 0H27L149 693Z" />
<glyph unicode="&#x119;" glyph-name="eogonek" horiz-adv-x="439" d="M366 34Q351 26 329 17T284 -7Q266 -18 249 -32T218 -62T196 -95T188 -130Q188 -150 199 -161T235 -173Q249 -173 258 -172T276 -168L272 -190Q266 -193 255 -195T233 -198Q192 -198 174 -179T156
-131Q156 -111 164 -93T185 -58T214 -29T247 -5Q229 -8 208 -8Q120 -8 71 41T22 185Q22 255 39 313T88 415Q120 460 166 485T273 511Q357 511 396 453T415 280L411 259H59Q57 242 56 224T54 187Q54 101 94 61T212 20Q262 20 303 33T371 61L366 34ZM115 403Q79 353
64 286H383Q400 384 370 434T270 484Q218 484 180 463T115 403Z" />
<glyph unicode="&#x11a;" glyph-name="Ecaron" horiz-adv-x="500" d="M360 729H333L260 833H288L349 757L443 833H472L360 729ZM149 693H531L526 665H177L125 370H397L392 341H120L65 28H423L418 0H27L149 693Z" />
<glyph unicode="&#x11b;" glyph-name="ecaron" horiz-adv-x="439" d="M551 584H522L451 706H478L539 609L634 706H663L551 584ZM208 -8Q120 -8 71 41T22 185Q22 255 39 313T88 415Q120 460 166 485T273 511Q357 511 396 453T415 280L411 259H59Q57 242 56 224T54
187Q54 101 94 61T212 20Q262 20 303 33T371 61L366 34Q343 21 303 7T208 -8ZM115 403Q79 353 64 286H383Q400 384 370 434T270 484Q218 484 180 463T115 403Z" />
<glyph unicode="&#x11c;" glyph-name="Gcircumflex" horiz-adv-x="592" d="M408 833H435L508 729H480L419 805L325 729H296L408 833ZM304 -8Q234 -8 185 14T104 72T59 155T44 254Q44 336 62 406T112 531Q161 616 235 658T404 701Q471 701 511 688T574 658L569
630Q545 647 504 660T402 673Q317 673 251 634T141 519Q110 466 94 400T78 254Q78 210 89 168T126 93T197 40T307 20Q355 20 390 26T462 43L504 282H341L345 310H542L492 23Q447 9 404 1T304 -8Z" />
<glyph unicode="&#x11d;" glyph-name="gcircumflex" horiz-adv-x="467" d="M563 706H592L663 584H636L575 681L480 584H451L563 706ZM127 -197Q80 -197 38 -187T-30 -161L-26 -137Q0 -150 40 -160T127 -171Q172 -171 206 -163T264 -135T303 -84T326 -7L342 84H340Q329
70 312 56T274 31T227 13T172 6Q100 6 61 49T21 174Q21 248 43 310T102 416T189 486T295 511Q345 511 380 503T443 479L357 -11Q340 -111 284 -154T127 -197ZM179 32Q235 32 277 57T348 114L409 460Q392 469 363 476T294 484Q210 484 148 426T62 263Q57 243 55
220T53 175Q53 106 83 69T179 32Z" />
<glyph unicode="&#x11e;" glyph-name="Gbreve" horiz-adv-x="592" d="M404 729Q358 729 331 753T302 822H328Q329 789 349 772T406 754Q478 754 507 822H532Q518 777 485 753T404 729ZM304 -8Q234 -8 185 14T104 72T59 155T44 254Q44 336 62 406T112 531Q161 616
235 658T404 701Q471 701 511 688T574 658L569 630Q545 647 504 660T402 673Q317 673 251 634T141 519Q110 466 94 400T78 254Q78 210 89 168T126 93T197 40T307 20Q355 20 390 26T462 43L504 282H341L345 310H542L492 23Q447 9 404 1T304 -8Z" />
<glyph unicode="&#x11f;" glyph-name="gbreve" horiz-adv-x="467" d="M127 -197Q80 -197 38 -187T-30 -161L-26 -137Q0 -150 40 -160T127 -171Q172 -171 206 -163T264 -135T303 -84T326 -7L342 84H340Q329 70 312 56T274 31T227 13T172 6Q100 6 61 49T21 174Q21
248 43 310T102 416T189 486T295 511Q345 511 380 503T443 479L357 -11Q340 -111 284 -154T127 -197ZM179 32Q235 32 277 57T348 114L409 460Q392 469 363 476T294 484Q210 484 148 426T62 263Q57 243 55 220T53 175Q53 106 83 69T179 32ZM560 579Q511 579 483
609T459 689H485Q483 651 503 628T562 604Q603 604 630 626T668 689H693Q679 637 645 608T560 579Z" />
<glyph unicode="&#x120;" glyph-name="Gdotaccent" horiz-adv-x="592" d="M398 780H431L423 737H390L398 780ZM304 -8Q234 -8 185 14T104 72T59 155T44 254Q44 336 62 406T112 531Q161 616 235 658T404 701Q471 701 511 688T574 658L569 630Q545 647 504 660T402
673Q317 673 251 634T141 519Q110 466 94 400T78 254Q78 210 89 168T126 93T197 40T307 20Q355 20 390 26T462 43L504 282H341L345 310H542L492 23Q447 9 404 1T304 -8Z" />
<glyph unicode="&#x121;" glyph-name="gdotaccent" horiz-adv-x="467" d="M127 -197Q80 -197 38 -187T-30 -161L-26 -137Q0 -150 40 -160T127 -171Q172 -171 206 -163T264 -135T303 -84T326 -7L342 84H340Q329 70 312 56T274 31T227 13T172 6Q100 6 61 49T21 174Q21
248 43 310T102 416T189 486T295 511Q345 511 380 503T443 479L357 -11Q340 -111 284 -154T127 -197ZM179 32Q235 32 277 57T348 114L409 460Q392 469 363 476T294 484Q210 484 148 426T62 263Q57 243 55 220T53 175Q53 106 83 69T179 32ZM549 660H581L573 617H541L549
660Z" />
<glyph unicode="&#x122;" glyph-name="Gcommaaccent" horiz-adv-x="592" d="M255 -42H288L249 -170H222L255 -42ZM304 -8Q234 -8 185 14T104 72T59 155T44 254Q44 336 62 406T112 531Q161 616 235 658T404 701Q471 701 511 688T574 658L569 630Q545 647 504 660T402
673Q317 673 251 634T141 519Q110 466 94 400T78 254Q78 210 89 168T126 93T197 40T307 20Q355 20 390 26T462 43L504 282H341L345 310H542L492 23Q447 9 404 1T304 -8Z" />
<glyph unicode="&#x123;" glyph-name="gcommaaccent" horiz-adv-x="467" d="M316 584H283L322 712H349L316 584ZM127 -197Q80 -197 38 -187T-30 -161L-26 -137Q0 -150 40 -160T127 -171Q172 -171 206 -163T264 -135T303 -84T326 -7L342 84H340Q329 70 312 56T274
31T227 13T172 6Q100 6 61 49T21 174Q21 248 43 310T102 416T189 486T295 511Q345 511 380 503T443 479L357 -11Q340 -111 284 -154T127 -197ZM179 32Q235 32 277 57T348 114L409 460Q392 469 363 476T294 484Q210 484 148 426T62 263Q57 243 55 220T53 175Q53
106 83 69T179 32Z" />
<glyph unicode="&#x124;" glyph-name="Hcircumflex" horiz-adv-x="609" d="M150 693H182L126 375H525L581 693H614L492 0H459L520 346H121L60 0H27L150 693ZM391 833H418L491 729H463L402 805L308 729H279L391 833Z" />
<glyph unicode="&#x125;" glyph-name="hcircumflex" horiz-adv-x="484" d="M148 739H180L127 437H129Q176 469 229 490T334 511Q396 511 421 484T446 412Q446 402 445 393T442 372L377 0H345L410 369Q412 379 413 388T414 407Q414 442 395 462T324 483Q274 483
223 463T122 412L49 0H17L148 739ZM586 878H613L686 774H658L597 850L503 774H474L586 878Z" />
<glyph unicode="&#x126;" glyph-name="Hbar" horiz-adv-x="609" d="M57 527H120L150 693H182L152 527H551L581 693H614L584 527H646L642 501H580L492 0H459L520 346H121L60 0H27L116 501H53L57 527ZM525 375L547 501H148L126 375H525Z" />
<glyph unicode="&#x127;" glyph-name="hbar" horiz-adv-x="484" d="M59 626H128L148 739H180L160 626H317L313 602H156L127 437H129Q176 469 229 490T334 511Q396 511 421 484T446 412Q446 402 445 393T442 372L377 0H345L410 369Q412 379 413 388T414 407Q414
442 395 462T324 483Q274 483 223 463T122 412L49 0H17L123 602H55L59 626Z" />
<glyph unicode="&#x128;" glyph-name="Itilde" horiz-adv-x="185" d="M154 693H187L64 0H31L154 693ZM56 741Q63 774 83 790T130 807Q146 807 160 801T188 788T215 774T242 768Q279 768 290 807H314Q307 774 287 758T241 741Q225 741 211 747T182 760T155 774T129
780Q92 780 80 741H56Z" />
<glyph unicode="&#x129;" glyph-name="itilde" horiz-adv-x="159" d="M29 611Q37 646 55 663T98 680Q113 680 125 674T150 659T173 645T197 638Q228 638 239 680H263Q246 611 195 611Q180 611 167 617T142 632T119 646T96 653Q65 653 54 611H29ZM106 503H138L50
0H18L106 503Z" />
<glyph unicode="&#x12a;" glyph-name="Imacron" horiz-adv-x="185" d="M100 772H264L259 745H95L100 772ZM154 693H187L64 0H31L154 693Z" />
<glyph unicode="&#x12b;" glyph-name="imacron" horiz-adv-x="159" d="M77 666H224L219 639H72L77 666ZM106 503H138L50 0H18L106 503Z" />
<glyph unicode="&#x12c;" glyph-name="Ibreve" horiz-adv-x="185" d="M154 693H187L64 0H31L154 693ZM180 729Q134 729 107 753T78 822H104Q105 789 125 772T182 754Q254 754 283 822H308Q294 777 261 753T180 729Z" />
<glyph unicode="&#x12d;" glyph-name="ibreve" horiz-adv-x="159" d="M135 579Q90 579 65 608T43 689H69Q67 650 84 627T136 604Q171 604 195 627T227 689H253Q245 638 213 609T135 579ZM106 503H138L50 0H18L106 503Z" />
<glyph unicode="&#x12e;" glyph-name="Iogonek" horiz-adv-x="185" d="M10 -198Q-28 -198 -46 -179T-64 -132Q-64 -111 -55 -92T-32 -55T-1 -24T31 2L154 693H187L64 0Q47 -14 30 -29T-1 -61T-23 -95T-32 -131Q-32 -151 -22 -162T12 -173Q26 -173 34 -172T51 -168L47
-190Q41 -193 31 -195T10 -198Z" />
<glyph unicode="&#x12f;" glyph-name="iogonek" horiz-adv-x="159" d="M-77 -133Q-77 -112 -69 -93T-48 -56T-17 -24T18 3L106 503H138L50 0Q11 -31 -17 -62T-45 -132Q-45 -149 -35 -161T-1 -173Q12 -173 21 -172T38 -168L34 -190Q28 -193 18 -195T-3 -198Q-42
-198 -59 -179T-77 -133ZM134 660H166L158 617H126L134 660Z" />
<glyph unicode="&#x130;" glyph-name="Idotaccent" horiz-adv-x="185" d="M154 693H187L64 0H31L154 693ZM171 780H204L196 737H163L171 780Z" />
<glyph unicode="&#x131;" glyph-name="dotlessi" horiz-adv-x="159" d="M106 503H138L50 0H18L106 503Z" />
<glyph unicode="&#x132;" glyph-name="IJ" horiz-adv-x="495" d="M154 693H187L64 0H31L154 693ZM241 -5Q206 -5 182 1T140 16L144 42Q162 34 184 29T239 24Q303 24 337 58T383 159L476 693H509L414 154Q401 80 361 38T241 -5Z" />
<glyph unicode="&#x133;" glyph-name="ij" horiz-adv-x="318" d="M106 503H138L50 0H18L106 503ZM134 660H166L158 617H126L134 660ZM69 -194Q49 -194 33 -190T5 -179L9 -156Q21 -161 33 -164T65 -167Q107 -167 132 -145T165 -74L266 503H298L197 -74Q186 -131
155 -162T69 -194ZM294 660H326L318 617H286L294 660Z" />
<glyph unicode="&#x134;" glyph-name="Jcircumflex" horiz-adv-x="328" d="M592 833H619L692 729H664L603 805L509 729H480L592 833ZM74 -5Q39 -5 15 1T-27 16L-23 42Q-5 34 17 29T72 24Q136 24 170 58T216 159L309 693H342L247 154Q234 80 194 38T74 -5Z" />
<glyph unicode="&#x135;" glyph-name="jcircumflex" horiz-adv-x="159" d="M144 706H171L232 584H206L154 681L69 584H40L144 706ZM-90 -194Q-110 -194 -126 -190T-154 -179L-150 -156Q-138 -161 -126 -164T-94 -167Q-52 -167 -27 -145T6 -74L108 503H140L38 -76Q27
-133 -4 -163T-90 -194Z" />
<glyph unicode="&#x136;" glyph-name="Kcommaaccent" horiz-adv-x="508" d="M206 -42H239L200 -170H173L206 -42ZM172 350L509 693H549L209 349L441 0H404L172 350ZM150 693H183L60 0H27L150 693Z" />
<glyph unicode="&#x137;" glyph-name="kcommaaccent" horiz-adv-x="410" d="M412 -42H445L406 -170H379L412 -42ZM147 739H179L49 0H17L147 739ZM135 267L383 503H423L171 266L344 0H307L135 267Z" />
<glyph unicode="&#x139;" glyph-name="Lacute" horiz-adv-x="468" d="M244 853H282L189 729H158L244 853ZM149 693H182L65 28H406L401 0H27L149 693Z" />
<glyph unicode="&#x13a;" glyph-name="lacute" horiz-adv-x="157" d="M242 898H280L187 774H156L242 898ZM148 739H180L50 0H18L148 739Z" />
<glyph unicode="&#x13b;" glyph-name="Lcommaaccent" horiz-adv-x="468" d="M192 -42H225L186 -170H159L192 -42ZM149 693H182L65 28H406L401 0H27L149 693Z" />
<glyph unicode="&#x13c;" glyph-name="lcommaaccent" horiz-adv-x="157" d="M11 -42H44L5 -170H-22L11 -42ZM148 739H180L50 0H18L148 739Z" />
<glyph unicode="&#x13d;" glyph-name="Lcaron" horiz-adv-x="486" d="M149 693H182L64 28H417L413 0H27L149 693ZM332 530L371 693H405L356 530H332Z" />
<glyph unicode="&#x13e;" glyph-name="lcaron" horiz-adv-x="158" d="M456 596L487 739H521L480 596H456ZM148 739H180L50 0H18L148 739Z" />
<glyph unicode="&#x13f;" glyph-name="Ldot" horiz-adv-x="468" d="M149 693H182L65 28H406L401 0H27L149 693ZM377 395H411L402 341H367L377 395Z" />
<glyph unicode="&#x140;" glyph-name="ldot" horiz-adv-x="189" d="M148 739H180L50 0H18L148 739ZM182 399H216L207 345H172L182 399Z" />
<glyph unicode="&#x141;" glyph-name="Lslash" horiz-adv-x="470" d="M76 266L0 233L5 262L81 295L151 693H184L116 309L374 422L369 393L111 280L67 28H408L403 0H29L76 266Z" />
<glyph unicode="&#x142;" glyph-name="lslash" horiz-adv-x="166" d="M91 400L22 361L28 392L97 431L151 739H183L132 451L211 496L206 464L127 420L53 0H21L91 400Z" />
<glyph unicode="&#x143;" glyph-name="Nacute" horiz-adv-x="613" d="M470 853H508L415 729H384L470 853ZM149 693H188L473 53H474L587 693H617L495 0H462L174 650H172L58 0H27L149 693Z" />
<glyph unicode="&#x144;" glyph-name="nacute" horiz-adv-x="483" d="M632 728H670L563 584H532L632 728ZM106 503H137L125 436H127Q175 469 229 490T334 511Q396 511 421 484T446 412Q446 402 445 393T442 372L377 0H345L410 369Q412 379 413 388T414 407Q414
442 395 462T324 483Q274 483 223 463T122 412L49 0H17L106 503Z" />
<glyph unicode="&#x145;" glyph-name="Ncommaaccent" horiz-adv-x="613" d="M241 -42H274L235 -170H208L241 -42ZM149 693H188L473 53H474L587 693H617L495 0H462L174 650H172L58 0H27L149 693Z" />
<glyph unicode="&#x146;" glyph-name="ncommaaccent" horiz-adv-x="483" d="M174 -42H207L168 -170H141L174 -42ZM106 503H137L125 436H127Q175 469 229 490T334 511Q396 511 421 484T446 412Q446 402 445 393T442 372L377 0H345L410 369Q412 379 413 388T414
407Q414 442 395 462T324 483Q274 483 223 463T122 412L49 0H17L106 503Z" />
<glyph unicode="&#x147;" glyph-name="Ncaron" horiz-adv-x="613" d="M415 729H388L315 833H343L404 757L498 833H527L415 729ZM149 693H188L473 53H474L587 693H617L495 0H462L174 650H172L58 0H27L149 693Z" />
<glyph unicode="&#x148;" glyph-name="ncaron" horiz-adv-x="483" d="M562 584H533L462 706H489L550 609L645 706H674L562 584ZM106 503H137L125 436H127Q175 469 229 490T334 511Q396 511 421 484T446 412Q446 402 445 393T442 372L377 0H345L410 369Q412 379
413 388T414 407Q414 442 395 462T324 483Q274 483 223 463T122 412L49 0H17L106 503Z" />
<glyph unicode="&#x149;" glyph-name="napostrophe" horiz-adv-x="496" d="M326 693H361L313 546H284L326 693ZM106 503H137L125 436H127Q175 469 229 490T334 511Q396 511 421 484T446 412Q446 402 445 393T442 372L377 0H345L410 369Q412 379 413 388T414 407Q414
442 395 462T324 483Q274 483 223 463T122 412L49 0H17L106 503Z" />
<glyph unicode="&#x14a;" glyph-name="Eng" horiz-adv-x="613" d="M149 693H188L475 64H476L587 693H617L488 -41Q477 -104 439 -140T328 -177Q305 -177 285 -173T251 -163L255 -137Q270 -142 289 -145T328 -149Q387 -149 417 -122T458 -37L466 8L174 650H172L58
0H27L149 693Z" />
<glyph unicode="&#x14b;" glyph-name="eng" horiz-adv-x="483" d="M410 369Q412 379 413 388T414 407Q414 442 395 462T324 483Q274 483 223 463T122 412L49 0H17L106 503H137L125 436H127Q175 469 229 490T334 511Q396 511 421 484T447 412Q447 402 446 393T443
372L364 -76Q353 -133 322 -163T236 -194Q216 -194 200 -190T172 -179L176 -156Q188 -161 200 -164T232 -167Q274 -167 299 -145T332 -74L410 369Z" />
<glyph unicode="&#x14c;" glyph-name="Omacron" horiz-adv-x="650" d="M302 772H525L520 745H297L302 772ZM282 -8Q224 -8 180 12T105 68T59 149T43 249Q43 351 72 434T150 577T263 669T400 701Q458 701 503 681T578 625T624 543T640 444Q640 341 611 258T533
115T419 24T282 -8ZM284 20Q334 20 382 39T472 95T545 188T591 314Q606 378 606 446Q606 490 594 531T557 603T492 654T399 673Q349 673 301 654T211 598T138 506T91 379Q84 347 81 315T77 247Q77 202 89 161T127 89T192 39T284 20Z" />
<glyph unicode="&#x14d;" glyph-name="omacron" horiz-adv-x="474" d="M452 666H675L670 639H447L452 666ZM194 -8Q109 -8 65 41T20 178Q20 249 39 310T92 415T174 485T279 511Q363 511 408 463T453 326Q453 255 434 194T381 88T299 18T194 -8ZM196 19Q236 19
271 34T334 78T381 145T411 233Q416 256 418 279T421 326Q421 404 384 444T277 484Q237 484 202 469T140 426T92 359T62 271Q57 251 55 227T52 179Q52 100 89 60T196 19Z" />
<glyph unicode="&#x14e;" glyph-name="Obreve" horiz-adv-x="650" d="M410 729Q364 729 337 753T308 822H334Q335 789 355 772T412 754Q484 754 513 822H538Q524 777 491 753T410 729ZM282 -8Q224 -8 180 12T105 68T59 149T43 249Q43 351 72 434T150 577T263 669T400
701Q458 701 503 681T578 625T624 543T640 444Q640 341 611 258T533 115T419 24T282 -8ZM284 20Q334 20 382 39T472 95T545 188T591 314Q606 378 606 446Q606 490 594 531T557 603T492 654T399 673Q349 673 301 654T211 598T138 506T91 379Q84 347 81 315T77 247Q77
202 89 161T127 89T192 39T284 20Z" />
<glyph unicode="&#x14f;" glyph-name="obreve" horiz-adv-x="474" d="M194 -8Q109 -8 65 41T20 178Q20 249 39 310T92 415T174 485T279 511Q363 511 408 463T453 326Q453 255 434 194T381 88T299 18T194 -8ZM196 19Q236 19 271 34T334 78T381 145T411 233Q416
256 418 279T421 326Q421 404 384 444T277 484Q237 484 202 469T140 426T92 359T62 271Q57 251 55 227T52 179Q52 100 89 60T196 19ZM556 579Q507 579 479 609T455 689H481Q479 651 499 628T558 604Q599 604 626 626T664 689H689Q675 637 641 608T556 579Z" />
<glyph unicode="&#x150;" glyph-name="Ohungarumlaut" horiz-adv-x="650" d="M515 853H551L475 729H445L515 853ZM400 853H436L360 729H330L400 853ZM282 -8Q224 -8 180 12T105 68T59 149T43 249Q43 351 72 434T150 577T263 669T400 701Q458 701 503 681T578 625T624
543T640 444Q640 341 611 258T533 115T419 24T282 -8ZM284 20Q334 20 382 39T472 95T545 188T591 314Q606 378 606 446Q606 490 594 531T557 603T492 654T399 673Q349 673 301 654T211 598T138 506T91 379Q84 347 81 315T77 247Q77 202 89 161T127 89T192 39T284
20Z" />
<glyph unicode="&#x151;" glyph-name="ohungarumlaut" horiz-adv-x="474" d="M670 728H705L618 584H589L670 728ZM555 728H590L503 584H474L555 728ZM194 -8Q109 -8 65 41T20 178Q20 249 39 310T92 415T174 485T279 511Q363 511 408 463T453 326Q453 255 434 194T381
88T299 18T194 -8ZM196 19Q236 19 271 34T334 78T381 145T411 233Q416 256 418 279T421 326Q421 404 384 444T277 484Q237 484 202 469T140 426T92 359T62 271Q57 251 55 227T52 179Q52 100 89 60T196 19Z" />
<glyph unicode="&#x152;" glyph-name="OE" horiz-adv-x="914" d="M321 0Q257 0 206 15T118 61T63 139T43 250Q43 331 62 410T127 552T250 654T442 693H945L940 665H599L547 370H812L806 341H542L487 28H837L832 0H321ZM454 28L566 665H439Q353 665 292 641T189
577T123 483T88 370Q82 338 80 309T77 251Q77 134 143 81T327 28H454Z" />
<glyph unicode="&#x153;" glyph-name="oe" horiz-adv-x="829" d="M194 -8Q109 -8 65 41T20 178Q20 249 39 310T92 415T174 485T279 511Q354 511 396 471T447 357Q460 388 480 416Q511 458 556 484T662 511Q746 511 785 453T804 280L800 259H448Q446 242 445 224T443
187Q443 101 483 61T601 20Q651 20 692 33T760 61L755 34Q732 21 692 7T597 -8Q516 -8 470 33T416 155Q384 80 327 36T194 -8ZM196 19Q236 19 271 34T334 78T381 145T411 233Q416 256 418 279T421 326Q421 404 384 444T277 484Q237 484 202 469T140 426T92 359T62
271Q57 251 55 227T52 179Q52 100 89 60T196 19ZM504 403Q468 353 453 286H772Q789 384 759 434T659 484Q607 484 569 463T504 403Z" />
<glyph unicode="&#x154;" glyph-name="Racute" horiz-adv-x="524" d="M640 853H678L585 729H554L640 853ZM150 693H326Q374 693 408 680T465 646T498 595T509 532Q509 444 459 390T314 323V321L458 0H424L281 318H116L59 0H27L150 693ZM271 346Q322 346 360 359T424
397T462 456T475 530Q475 558 467 582T441 625T393 654T321 665H176L120 346H271Z" />
<glyph unicode="&#x155;" glyph-name="racute" horiz-adv-x="288" d="M558 728H596L489 584H458L558 728ZM105 503H137L124 429H126Q155 459 196 484T289 509Q308 509 318 505L313 477Q307 479 299 479T283 480Q233 480 193 457T120 403L49 0H17L105 503Z" />
<glyph unicode="&#x156;" glyph-name="Rcommaaccent" horiz-adv-x="524" d="M209 -42H242L203 -170H176L209 -42ZM150 693H326Q374 693 408 680T465 646T498 595T509 532Q509 444 459 390T314 323V321L458 0H424L281 318H116L59 0H27L150 693ZM271 346Q322 346
360 359T424 397T462 456T475 530Q475 558 467 582T441 625T393 654T321 665H176L120 346H271Z" />
<glyph unicode="&#x157;" glyph-name="rcommaaccent" horiz-adv-x="288" d="M10 -42H43L4 -170H-23L10 -42ZM105 503H137L124 429H126Q155 459 196 484T289 509Q308 509 318 505L313 477Q307 479 299 479T283 480Q233 480 193 457T120 403L49 0H17L105 503Z" />
<glyph unicode="&#x158;" glyph-name="Rcaron" horiz-adv-x="524" d="M589 729H562L489 833H517L578 757L672 833H701L589 729ZM150 693H326Q374 693 408 680T465 646T498 595T509 532Q509 444 459 390T314 323V321L458 0H424L281 318H116L59 0H27L150 693ZM271
346Q322 346 360 359T424 397T462 456T475 530Q475 558 467 582T441 625T393 654T321 665H176L120 346H271Z" />
<glyph unicode="&#x159;" glyph-name="rcaron" horiz-adv-x="288" d="M485 584H456L385 706H412L473 609L568 706H597L485 584ZM105 503H137L124 429H126Q155 459 196 484T289 509Q308 509 318 505L313 477Q307 479 299 479T283 480Q233 480 193 457T120 403L49
0H17L105 503Z" />
<glyph unicode="&#x15a;" glyph-name="Sacute" horiz-adv-x="469" d="M188 -8Q149 -8 119 -3T65 10T23 28T-10 47L-5 76Q28 55 73 38T190 21Q287 21 332 68T378 193Q378 220 370 241T346 279T310 309T263 336L221 356Q150 390 119 428T88 525Q88 606 143 653T297
701Q331 701 355 697T398 687T431 673T457 657L452 628Q440 635 426 643T393 658T350 669T294 673Q213 673 167 636T120 525Q120 501 125 482T144 447T179 416T235 384L277 364Q307 349 331 334T373 298T401 253T411 194Q411 153 398 116T358 52T289 8T188 -8ZM630
853H668L575 729H544L630 853Z" />
<glyph unicode="&#x15b;" glyph-name="sacute" horiz-adv-x="369" d="M570 728H608L501 584H470L570 728ZM136 -8Q78 -8 44 5T-14 33L-9 59Q16 45 48 33T137 20Q180 20 208 30T252 58T274 97T280 141Q280 179 261 200T197 238L146 258Q103 276 79 302T55 372Q55
435 95 473T217 511Q268 511 297 501T346 477L340 450Q318 464 289 473T215 483Q148 483 117 455T86 376Q86 343 103 322T161 285L211 264Q261 244 286 219T312 144Q312 117 304 90T276 41T222 6T136 -8Z" />
<glyph unicode="&#x15c;" glyph-name="Scircumflex" horiz-adv-x="469" d="M563 833H590L663 729H635L574 805L480 729H451L563 833ZM188 -8Q149 -8 119 -3T65 10T23 28T-10 47L-5 76Q28 55 73 38T190 21Q287 21 332 68T378 193Q378 220 370 241T346 279T310 309T263
336L221 356Q150 390 119 428T88 525Q88 606 143 653T297 701Q331 701 355 697T398 687T431 673T457 657L452 628Q440 635 426 643T393 658T350 669T294 673Q213 673 167 636T120 525Q120 501 125 482T144 447T179 416T235 384L277 364Q307 349 331 334T373 298T401
253T411 194Q411 153 398 116T358 52T289 8T188 -8Z" />
<glyph unicode="&#x15d;" glyph-name="scircumflex" horiz-adv-x="369" d="M492 706H521L592 584H565L504 681L409 584H380L492 706ZM136 -8Q78 -8 44 5T-14 33L-9 59Q16 45 48 33T137 20Q180 20 208 30T252 58T274 97T280 141Q280 179 261 200T197 238L146 258Q103
276 79 302T55 372Q55 435 95 473T217 511Q268 511 297 501T346 477L340 450Q318 464 289 473T215 483Q148 483 117 455T86 376Q86 343 103 322T161 285L211 264Q261 244 286 219T312 144Q312 117 304 90T276 41T222 6T136 -8Z" />
<glyph unicode="&#x15e;" glyph-name="Scedilla" horiz-adv-x="469" d="M74 -186Q148 -181 176 -166T205 -121Q205 -99 185 -88T120 -77L132 -5Q80 1 47 16T-10 47L-5 76Q28 55 73 38T190 21Q287 21 332 68T378 193Q378 220 370 241T346 279T310 309T263 336L221
356Q150 390 119 428T88 525Q88 606 143 653T297 701Q331 701 355 697T398 687T431 673T457 657L452 628Q440 635 426 643T393 658T350 669T294 673Q213 673 167 636T120 525Q120 501 125 482T144 447T179 416T235 384L277 364Q307 349 331 334T373 298T401 253T411
194Q411 153 398 116T358 52T289 8T188 -8Q180 -8 175 -8T158 -7L150 -55Q188 -57 212 -72T236 -118Q236 -159 197 -182T70 -210L74 -186Z" />
<glyph unicode="&#x15f;" glyph-name="scedilla" horiz-adv-x="369" d="M31 -186Q105 -181 133 -166T162 -121Q162 -99 142 -88T77 -77L89 -5Q52 0 28 11T-14 33L-9 59Q16 45 48 33T137 20Q180 20 208 30T252 58T274 97T280 141Q280 179 261 200T197 238L146 258Q103
276 79 302T55 372Q55 435 95 473T217 511Q268 511 297 501T346 477L340 450Q318 464 289 473T215 483Q148 483 117 455T86 376Q86 343 103 322T161 285L211 264Q261 244 286 219T312 144Q312 117 304 90T276 41T222 6T136 -8Q131 -8 127 -8T115 -7L107 -55Q145
-57 169 -72T193 -118Q193 -159 154 -182T27 -210L31 -186Z" />
<glyph unicode="&#x160;" glyph-name="Scaron" horiz-adv-x="469" d="M569 729H542L469 833H497L558 757L652 833H681L569 729ZM188 -8Q149 -8 119 -3T65 10T23 28T-10 47L-5 76Q28 55 73 38T190 21Q287 21 332 68T378 193Q378 220 370 241T346 279T310 309T263
336L221 356Q150 390 119 428T88 525Q88 606 143 653T297 701Q331 701 355 697T398 687T431 673T457 657L452 628Q440 635 426 643T393 658T350 669T294 673Q213 673 167 636T120 525Q120 501 125 482T144 447T179 416T235 384L277 364Q307 349 331 334T373 298T401
253T411 194Q411 153 398 116T358 52T289 8T188 -8Z" />
<glyph unicode="&#x161;" glyph-name="scaron" horiz-adv-x="369" d="M502 584H473L402 706H429L490 609L585 706H614L502 584ZM136 -8Q78 -8 44 5T-14 33L-9 59Q16 45 48 33T137 20Q180 20 208 30T252 58T274 97T280 141Q280 179 261 200T197 238L146 258Q103
276 79 302T55 372Q55 435 95 473T217 511Q268 511 297 501T346 477L340 450Q318 464 289 473T215 483Q148 483 117 455T86 376Q86 343 103 322T161 285L211 264Q261 244 286 219T312 144Q312 117 304 90T276 41T222 6T136 -8Z" />
<glyph unicode="&#x162;" glyph-name="Tcommaaccent" horiz-adv-x="515" d="M190 -42H223L184 -170H157L190 -42ZM313 665H85L90 693H578L573 665H345L228 0H195L313 665Z" />
<glyph unicode="&#x163;" glyph-name="tcommaaccent" horiz-adv-x="308" d="M372 -42H405L366 -170H339L372 -42ZM168 -5Q106 -5 83 29T71 121L134 476H60L64 503H139L161 622H193L172 503H316L311 476H167L104 121Q96 74 109 48T173 22Q193 22 212 26T249 37L244
13Q231 6 211 1T168 -5Z" />
<glyph unicode="&#x164;" glyph-name="Tcaron" horiz-adv-x="515" d="M355 729H328L255 833H283L344 757L438 833H467L355 729ZM313 665H85L90 693H578L573 665H345L228 0H195L313 665Z" />
<glyph unicode="&#x165;" glyph-name="tcaron" horiz-adv-x="308" d="M269 596L300 739H334L293 596H269ZM168 -5Q106 -5 83 29T71 121L134 476H60L64 503H139L161 622H193L172 503H316L311 476H167L104 121Q96 74 109 48T173 22Q193 22 212 26T249 37L244 13Q231
6 211 1T168 -5Z" />
<glyph unicode="&#x166;" glyph-name="Tbar" horiz-adv-x="538" d="M122 445H274L313 665H85L90 693H578L573 665H345L306 445H467L462 419H302L228 0H195L269 419H117L122 445Z" />
<glyph unicode="&#x167;" glyph-name="tbar" horiz-adv-x="305" d="M38 356H112L134 476H60L64 503H139L161 622H193L172 503H316L311 476H167L145 356H289L285 332H141L104 121Q96 74 109 48T173 22Q193 22 212 26T249 37L244 13Q231 6 211 1T168 -5Q106 -5 83
29T71 121L108 332H34L38 356Z" />
<glyph unicode="&#x168;" glyph-name="Utilde" horiz-adv-x="605" d="M273 -8Q223 -8 183 2T115 33T72 89T57 170Q57 199 63 235L143 693H176L95 234Q89 199 89 172Q89 89 138 54T274 19Q371 19 426 68T502 234L584 693H615L533 230Q512 111 449 52T273 -8ZM267
741Q274 774 294 790T341 807Q357 807 371 801T399 788T426 774T453 768Q490 768 501 807H525Q518 774 498 758T452 741Q436 741 422 747T393 760T366 774T340 780Q303 780 291 741H267Z" />
<glyph unicode="&#x169;" glyph-name="utilde" horiz-adv-x="479" d="M151 -8Q89 -8 62 20T35 96Q35 113 38 131L103 503H136L71 134Q69 123 68 114T67 96Q67 59 87 40T157 20Q207 20 256 40T355 91L428 503H460L371 0H343L352 67H350Q302 34 252 13T151 -8ZM432
611Q439 646 460 663T507 680Q523 680 537 674T564 659T590 645T617 638Q634 638 647 649T666 680H690Q683 645 663 628T616 611Q600 611 586 617T558 632T532 646T506 653Q468 653 456 611H432Z" />
<glyph unicode="&#x16a;" glyph-name="Umacron" horiz-adv-x="605" d="M273 -8Q223 -8 183 2T115 33T72 89T57 170Q57 199 63 235L143 693H176L95 234Q89 199 89 172Q89 89 138 54T274 19Q371 19 426 68T502 234L584 693H615L533 230Q512 111 449 52T273 -8ZM278
772H501L496 745H273L278 772Z" />
<glyph unicode="&#x16b;" glyph-name="umacron" horiz-adv-x="479" d="M151 -8Q89 -8 62 20T35 96Q35 113 38 131L103 503H136L71 134Q69 123 68 114T67 96Q67 59 87 40T157 20Q207 20 256 40T355 91L428 503H460L371 0H343L352 67H350Q302 34 252 13T151 -8ZM453
666H676L671 639H448L453 666Z" />
<glyph unicode="&#x16c;" glyph-name="Ubreve" horiz-adv-x="605" d="M273 -8Q223 -8 183 2T115 33T72 89T57 170Q57 199 63 235L143 693H176L95 234Q89 199 89 172Q89 89 138 54T274 19Q371 19 426 68T502 234L584 693H615L533 230Q512 111 449 52T273 -8ZM390
729Q344 729 317 753T288 822H314Q315 789 335 772T392 754Q464 754 493 822H518Q504 777 471 753T390 729Z" />
<glyph unicode="&#x16d;" glyph-name="ubreve" horiz-adv-x="479" d="M151 -8Q89 -8 62 20T35 96Q35 113 38 131L103 503H136L71 134Q69 123 68 114T67 96Q67 59 87 40T157 20Q207 20 256 40T355 91L428 503H460L371 0H343L352 67H350Q302 34 252 13T151 -8ZM548
579Q499 579 471 609T447 689H473Q471 651 491 628T550 604Q591 604 618 626T656 689H681Q667 637 633 608T548 579Z" />
<glyph unicode="&#x16e;" glyph-name="Uring" horiz-adv-x="605" d="M273 -8Q223 -8 183 2T115 33T72 89T57 170Q57 199 63 235L143 693H176L95 234Q89 199 89 172Q89 89 138 54T274 19Q371 19 426 68T502 234L584 693H615L533 230Q512 111 449 52T273 -8ZM386
950Q351 950 331 972T311 1023Q311 1058 334 1083T394 1108Q430 1108 450 1086T470 1036Q470 998 446 974T386 950ZM387 973Q412 973 428 990T444 1036Q444 1054 431 1069T393 1085Q368 1085 353 1067T337 1023Q337 1003 349 988T387 973Z" />
<glyph unicode="&#x16f;" glyph-name="uring" horiz-adv-x="479" d="M561 585Q526 585 506 607T486 658Q486 693 509 718T569 743Q605 743 625 721T645 671Q645 633 621 609T561 585ZM562 608Q587 608 603 625T619 671Q619 689 606 704T568 720Q543 720 528 702T512
658Q512 638 524 623T562 608ZM151 -8Q89 -8 62 20T35 96Q35 113 38 131L103 503H136L71 134Q69 123 68 114T67 96Q67 59 87 40T157 20Q207 20 256 40T355 91L428 503H460L371 0H343L352 67H350Q302 34 252 13T151 -8Z" />
<glyph unicode="&#x170;" glyph-name="Uhungarumlaut" horiz-adv-x="605" d="M490 853H526L450 729H420L490 853ZM375 853H411L335 729H305L375 853ZM273 -8Q223 -8 183 2T115 33T72 89T57 170Q57 199 63 235L143 693H176L95 234Q89 199 89 172Q89 89 138 54T274
19Q371 19 426 68T502 234L584 693H615L533 230Q512 111 449 52T273 -8Z" />
<glyph unicode="&#x171;" glyph-name="uhungarumlaut" horiz-adv-x="479" d="M151 -8Q89 -8 62 20T35 96Q35 113 38 131L103 503H136L71 134Q69 123 68 114T67 96Q67 59 87 40T157 20Q207 20 256 40T355 91L428 503H460L371 0H343L352 67H350Q302 34 252 13T151
-8ZM668 728H703L616 584H587L668 728ZM553 728H588L501 584H472L553 728Z" />
<glyph unicode="&#x172;" glyph-name="Uogonek" horiz-adv-x="605" d="M260 -198Q219 -198 201 -179T183 -131Q183 -112 191 -94T212 -61T242 -32T277 -8Q172 -8 115 33T57 170Q57 199 63 235L143 693H176L95 234Q89 199 89 172Q89 89 138 54T274 19Q371 19 426
68T502 234L584 693H615L533 230Q521 161 498 119T448 52T393 15T339 -5Q279 -25 247 -60T215 -130Q215 -150 226 -161T262 -173Q276 -173 285 -172T303 -168L299 -190Q293 -193 282 -195T260 -198Z" />
<glyph unicode="&#x173;" glyph-name="uogonek" horiz-adv-x="479" d="M151 -8Q89 -8 62 20T35 96Q35 113 38 131L103 503H136L71 134Q69 123 68 114T67 96Q67 59 87 40T157 20Q207 20 256 40T355 91L428 503H460L371 0Q353 -14 335 -29T303 -60T281 -94T272 -130Q272
-150 282 -161T318 -173Q332 -173 341 -172T359 -168L355 -190Q349 -193 338 -195T316 -198Q275 -198 258 -179T240 -131Q240 -110 249 -91T274 -53T307 -20T344 7L352 67H350Q302 34 252 13T151 -8Z" />
<glyph unicode="&#x174;" glyph-name="Wcircumflex" horiz-adv-x="800" d="M484 833H511L584 729H556L495 805L401 729H372L484 833ZM92 693H125L164 49H165L461 693H493L561 49H562L830 693H863L571 0H534L468 641H466L172 0H137L92 693Z" />
<glyph unicode="&#x175;" glyph-name="wcircumflex" horiz-adv-x="676" d="M395 706H424L495 584H468L407 681L312 584H283L395 706ZM60 503H92L135 43H137L366 503H397L439 43H441L670 503H702L448 0H414L372 454H370L145 0H110L60 503Z" />
<glyph unicode="&#x176;" glyph-name="Ycircumflex" horiz-adv-x="476" d="M228 295L84 693H117L250 325H251L512 693H546L261 294L209 0H176L228 295ZM582 833H609L682 729H654L593 805L499 729H470L582 833Z" />
<glyph unicode="&#x177;" glyph-name="ycircumflex" horiz-adv-x="435" d="M-9 -198Q-26 -198 -40 -193T-64 -183L-60 -159Q-36 -170 -10 -170Q31 -170 57 -147T107 -81L159 14L58 503H92L182 55H184L432 503H464L135 -90Q121 -115 107 -135T76 -169T39 -190T-9
-198ZM536 706H565L636 584H609L548 681L453 584H424L536 706Z" />
<glyph unicode="&#x178;" glyph-name="Ydieresis" horiz-adv-x="476" d="M228 295L84 693H117L250 325H251L512 693H546L261 294L209 0H176L228 295ZM509 780H542L534 737H501L509 780ZM634 780H667L659 737H626L634 780Z" />
<glyph unicode="&#x179;" glyph-name="Zacute" horiz-adv-x="515" d="M415 853H453L360 729H329L415 853ZM-10 26L504 663V665H120L125 693H549L544 668L31 30V28H443L438 0H-14L-10 26Z" />
<glyph unicode="&#x17a;" glyph-name="zacute" horiz-adv-x="390" d="M598 728H636L529 584H498L598 728ZM-19 25L368 475V476H66L70 503H414L409 478L21 29V27H330L325 0H-24L-19 25Z" />
<glyph unicode="&#x17b;" glyph-name="Zdotaccent" horiz-adv-x="515" d="M-10 26L504 663V665H120L125 693H549L544 668L31 30V28H443L438 0H-14L-10 26ZM338 780H371L363 737H330L338 780Z" />
<glyph unicode="&#x17c;" glyph-name="zdotaccent" horiz-adv-x="390" d="M-19 25L368 475V476H66L70 503H414L409 478L21 29V27H330L325 0H-24L-19 25ZM512 660H544L536 617H504L512 660Z" />
<glyph unicode="&#x17d;" glyph-name="Zcaron" horiz-adv-x="515" d="M356 729H329L256 833H284L345 757L439 833H468L356 729ZM-10 26L504 663V665H120L125 693H549L544 668L31 30V28H443L438 0H-14L-10 26Z" />
<glyph unicode="&#x17e;" glyph-name="zcaron" horiz-adv-x="390" d="M530 584H501L430 706H457L518 609L613 706H642L530 584ZM-19 25L368 475V476H66L70 503H414L409 478L21 29V27H330L325 0H-24L-19 25Z" />
<glyph unicode="&#x192;" glyph-name="florin" horiz-adv-x="321" d="M67 455H160L184 589Q199 674 238 711T343 748Q369 748 387 744T415 735L410 710Q399 715 384 718T347 721Q290 721 259 689T216 587L192 455H320L315 427H187L106 -36Q92 -117 57 -150T-32
-183Q-55 -183 -71 -179T-97 -168L-93 -144Q-69 -156 -36 -156Q6 -156 34 -129T74 -34L155 427H62L67 455Z" />
<glyph unicode="&#x1fa;" glyph-name="Aringacute" horiz-adv-x="555" d="M363 693H397L502 0H469L434 236H133L-2 0H-35L363 693ZM149 265H429L372 651H371L149 265ZM473 1020H511L418 896H387L473 1020ZM383 717Q348 717 328 739T308 790Q308 825 331 850T391
875Q427 875 447 853T467 803Q467 765 443 741T383 717ZM384 740Q409 740 425 757T441 803Q441 821 428 836T390 852Q365 852 350 834T334 790Q334 770 346 755T384 740Z" />
<glyph unicode="&#x1fb;" glyph-name="aringacute" horiz-adv-x="459" d="M160 -8Q92 -8 55 33T18 148Q18 232 44 299T112 413T208 486T317 511Q362 511 389 504T437 488L352 0H325L335 72H333Q321 60 304 46T265 20T216 0T160 -8ZM165 19Q192 19 218 26T266 46T307
72T338 101L403 468Q388 475 370 480T315 485Q274 485 236 470T166 428T108 361T67 272Q59 245 55 216T50 148Q50 85 79 52T165 19ZM320 585Q285 585 265 607T245 658Q245 693 268 718T328 743Q364 743 384 721T404 671Q404 633 380 609T320 585ZM321 608Q346 608
362 625T378 671Q378 689 365 704T327 720Q302 720 287 702T271 658Q271 638 283 623T321 608ZM404 903H442L349 779H318L404 903Z" />
<glyph unicode="&#x1fc;" glyph-name="AEacute" horiz-adv-x="854" d="M739 853H777L684 729H653L739 853ZM489 693H885L880 665H538L486 370H752L747 341H481L426 28H777L772 0H389L427 214H157L-7 0H-43L489 693ZM432 243L506 665H503L178 243H432Z" />
<glyph unicode="&#x1fd;" glyph-name="aeacute" horiz-adv-x="724" d="M510 728H548L441 584H410L510 728ZM136 -8Q69 -8 38 27T6 116Q6 188 50 222T179 268L318 285L331 358Q342 418 319 450T225 483Q187 483 157 477T96 460L101 485Q132 498 164 504T235 511Q303
511 334 481T363 394Q366 399 369 404T377 415Q408 459 452 485T558 511Q641 511 680 453T700 280L696 259H344Q342 242 341 224T339 186Q339 101 379 61T496 20Q547 20 588 33T656 60L651 34Q628 21 588 7T493 -8Q371 -8 327 84Q289 44 243 18T136 -8ZM307 184Q307
204 308 223T312 259L183 243Q109 234 74 207T39 118Q39 75 62 47T143 18Q197 18 239 42T319 105Q307 139 307 184ZM399 402Q364 353 349 286H668Q685 384 655 434T555 484Q502 484 464 462T399 402Z" />
<glyph unicode="&#x1fe;" glyph-name="Oslashacute" horiz-adv-x="650" d="M282 -8Q222 -8 177 13T102 70L39 0H2L85 93Q64 126 54 165T43 249Q43 351 72 434T150 577T263 669T400 701Q454 701 496 683T569 634L622 693H658L587 613Q613 579 626 536T640 444Q640
341 611 258T533 115T419 24T282 -8ZM284 20Q334 20 382 39T472 95T545 188T591 314Q606 378 606 446Q606 485 596 522T566 590L123 94Q149 60 188 40T284 20ZM77 247Q77 212 84 179T108 118L549 611Q523 640 486 656T399 673Q349 673 301 654T211 598T138 506T91
379Q84 347 81 315T77 247ZM474 853H512L419 729H388L474 853Z" />
<glyph unicode="&#x1ff;" glyph-name="oslashacute" horiz-adv-x="474" d="M194 -8Q106 -8 59 48L14 0H-21L45 69Q20 113 20 178Q20 249 39 310T92 415T174 485T279 511Q323 511 356 497T412 456L454 500H489L427 434Q453 390 453 326Q453 255 434 194T381 88T299
18T194 -8ZM196 19Q236 19 271 34T334 78T381 145T411 233Q416 256 418 279T421 326Q421 375 404 411L81 70Q117 19 196 19ZM52 179Q52 127 67 93L391 434Q353 484 277 484Q237 484 202 469T140 426T92 359T62 271Q57 251 55 227T52 179ZM628 728H666L559 584H528L628
728Z" />
<glyph unicode="&#x218;" glyph-name="Scommaaccent" horiz-adv-x="469" d="M410 -42H443L404 -170H377L410 -42ZM188 -8Q149 -8 119 -3T65 10T23 28T-10 47L-5 76Q28 55 73 38T190 21Q287 21 332 68T378 193Q378 220 370 241T346 279T310 309T263 336L221 356Q150
390 119 428T88 525Q88 606 143 653T297 701Q331 701 355 697T398 687T431 673T457 657L452 628Q440 635 426 643T393 658T350 669T294 673Q213 673 167 636T120 525Q120 501 125 482T144 447T179 416T235 384L277 364Q307 349 331 334T373 298T401 253T411 194Q411
153 398 116T358 52T289 8T188 -8Z" />
<glyph unicode="&#x219;" glyph-name="scommaaccent" horiz-adv-x="369" d="M363 -42H396L357 -170H330L363 -42ZM136 -8Q78 -8 44 5T-14 33L-9 59Q16 45 48 33T137 20Q180 20 208 30T252 58T274 97T280 141Q280 179 261 200T197 238L146 258Q103 276 79 302T55
372Q55 435 95 473T217 511Q268 511 297 501T346 477L340 450Q318 464 289 473T215 483Q148 483 117 455T86 376Q86 343 103 322T161 285L211 264Q261 244 286 219T312 144Q312 117 304 90T276 41T222 6T136 -8Z" />
<glyph unicode="&#x21a;" glyph-name="uni021A" horiz-adv-x="515" d="M190 -42H223L184 -170H157L190 -42ZM313 665H85L90 693H578L573 665H345L228 0H195L313 665Z" />
<glyph unicode="&#x21b;" glyph-name="uni021B" horiz-adv-x="308" d="M372 -42H405L366 -170H339L372 -42ZM168 -5Q106 -5 83 29T71 121L134 476H60L64 503H139L161 622H193L172 503H316L311 476H167L104 121Q96 74 109 48T173 22Q193 22 212 26T249 37L244 13Q231
6 211 1T168 -5Z" />
<glyph unicode="&#x237;" glyph-name="uni0237" horiz-adv-x="159" d="M-90 -194Q-110 -194 -126 -190T-154 -179L-150 -156Q-138 -161 -126 -164T-94 -167Q-52 -167 -27 -145T6 -74L108 503H140L38 -76Q27 -133 -4 -163T-90 -194Z" />
<glyph unicode="&#x2c6;" glyph-name="circumflex" horiz-adv-x="498" d="M315 706H344L415 584H388L327 681L232 584H203L315 706Z" />
<glyph unicode="&#x2c7;" glyph-name="caron" horiz-adv-x="498" d="M319 584H290L219 706H246L307 609L402 706H431L319 584Z" />
<glyph unicode="&#x2d8;" glyph-name="breve" horiz-adv-x="498" d="M309 579Q260 579 232 609T208 689H234Q232 651 252 628T311 604Q352 604 379 626T417 689H442Q428 637 394 608T309 579Z" />
<glyph unicode="&#x2d9;" glyph-name="dotaccent" horiz-adv-x="499" d="M305 660H337L329 617H297L305 660Z" />
<glyph unicode="&#x2da;" glyph-name="ring" horiz-adv-x="498" d="M314 585Q279 585 259 607T239 658Q239 693 262 718T322 743Q358 743 378 721T398 671Q398 633 374 609T314 585ZM315 608Q340 608 356 625T372 671Q372 689 359 704T321 720Q296 720 281 702T265
658Q265 638 277 623T315 608Z" />
<glyph unicode="&#x2db;" glyph-name="ogonek" horiz-adv-x="498" d="M190 -198Q149 -198 131 -179T113 -131Q113 -110 122 -91T146 -56T178 -25T213 0H248Q228 -14 210 -29T177 -60T154 -94T145 -130Q145 -150 156 -161T192 -173Q206 -173 215 -172T233 -168L229
-190Q223 -193 212 -195T190 -198Z" />
<glyph unicode="&#x2dc;" glyph-name="tilde" horiz-adv-x="497" d="M183 611Q190 646 211 663T258 680Q274 680 288 674T315 659T341 645T368 638Q385 638 398 649T417 680H441Q434 645 414 628T367 611Q351 611 337 617T309 632T283 646T257 653Q219 653 207 611H183Z" />
<glyph unicode="&#x2dd;" glyph-name="hungarumlaut" horiz-adv-x="498" d="M430 728H465L378 584H349L430 728ZM315 728H350L263 584H234L315 728Z" />
</font>
</defs>
</svg>
