<?xml version="1.0" standalone="no"?> <!DOCTYPE svg PUBLIC "-//W3C//DTD SVG 1.0//EN" "http://www.w3.org/TR/2001/REC-SVG-20010904/DTD/svg10.dtd" > <svg xmlns="http://www.w3.org/2000/svg" width="100%" height="100%">
<defs >
<font horiz-adv-x="572" ><font-face
    font-family=""
    units-per-em="1000"
    panose-1="2 11 11 3 5 5 3 13 8 3"
    ascent="790"
    descent="-210"
    alphabetic="0" />
<missing-glyph horiz-adv-x="500" />
<glyph unicode=" " glyph-name="space" horiz-adv-x="149" />
<glyph unicode="!" glyph-name="exclam" horiz-adv-x="318" d="M103 693H369L254 243H58L103 693ZM39 187H254L221 0H6L39 187Z" />
<glyph unicode="&quot;" glyph-name="quotedbl" horiz-adv-x="492" d="M339 693H546L485 452H312L339 693ZM96 693H303L242 452H69L96 693Z" />
<glyph unicode="#" glyph-name="numbersign" horiz-adv-x="562" d="M91 555H173L209 693H352L316 555H385L421 693H564L528 555H590L561 389H485L464 306H532L503 140H421L385 0H242L278 140H209L173 0H30L66 140H5L34 306H109L130 389H62L91 555ZM252 306H321L342
389H273L252 306Z" />
<glyph unicode="$" glyph-name="dollar" horiz-adv-x="566" d="M105 2Q68 10 38 20T-10 43L26 201Q57 187 92 179T171 165L209 259Q124 279 88 329T51 454Q51 575 126 640T357 705Q365 705 372 705T388 704L413 765H509L481 695Q523 687 548 676T591 656L556 499Q530
508 495 516T414 529L377 437Q432 425 465 406T517 362T542 307T548 244Q548 117 473 54T232 -10Q223 -10 217 -10T197 -9L153 -118H57L105 2ZM338 206Q338 220 330 228T298 241L265 161Q308 163 323 176T338 206ZM256 493Q256 479 261 470T288 455L320 534H312Q256
534 256 493Z" />
<glyph unicode="%" glyph-name="percent" horiz-adv-x="964" d="M230 292Q151 292 102 331T52 456Q52 513 69 559T117 637T190 687T283 705Q322 705 354 696T410 668T447 619T461 546Q461 489 443 443T394 363T320 311T230 292ZM714 -10Q635 -10 586 29T536 154Q536
211 554 257T603 335T677 385T767 403Q806 403 838 394T894 366T931 317T945 244Q945 187 928 141T880 61T807 9T714 -10ZM695 713H849L286 -40H132L695 713ZM727 104Q741 104 751 121T769 190Q771 204 773 223T776 254Q776 289 755 289Q740 289 730 272T712 203Q710
189 708 172T706 144Q706 121 711 113T727 104ZM243 406Q257 406 267 423T285 492Q287 506 289 525T292 556Q292 591 271 591Q256 591 246 574T228 505Q226 491 224 474T222 446Q222 423 227 415T243 406Z" />
<glyph unicode="&amp;" glyph-name="ampersand" horiz-adv-x="747" d="M253 -11Q127 -11 63 33T-1 175Q-1 219 12 255T48 319T104 369T174 404Q164 424 158 445T152 485Q152 533 168 573T217 643T299 688T416 705Q474 705 516 692T586 658T626 608T639 548Q639
511 628 484T596 435T543 396T471 363L526 278Q537 297 545 316T561 362H736Q718 291 689 239T616 143L710 0H436L419 26Q396 16 376 9T337 -2T297 -9T253 -11ZM308 143Q316 143 322 143T337 145L247 284Q241 266 238 256T234 225Q234 209 237 195T249 169T272
150T308 143ZM405 457Q426 477 433 492T441 530Q441 573 413 573Q396 573 388 559T379 523Q379 506 388 488T405 457Z" />
<glyph unicode="&apos;" glyph-name="quotesingle" horiz-adv-x="249" d="M96 693H303L242 452H69L96 693Z" />
<glyph unicode="(" glyph-name="parenleft" horiz-adv-x="425" d="M170 -120Q145 -95 120 -61T75 17T43 111T30 221Q30 318 56 400T122 548T212 662T308 739H509Q460 692 416 636T337 513T283 370T263 207Q263 155 271 109T292 21T323 -55T359 -120H170Z" />
<glyph unicode=")" glyph-name="parenright" horiz-adv-x="425" d="M-65 -120Q-16 -73 28 -17T107 106T161 249T181 412Q181 464 173 510T152 598T121 674T85 739H274Q299 714 324 680T369 602T401 508T414 398Q414 300 388 218T322 71T232 -43T136 -120H-65Z" />
<glyph unicode="*" glyph-name="asterisk" horiz-adv-x="435" d="M182 400L89 340L46 470L151 498L57 537L146 661L217 592L226 693H364L337 586L430 646L473 516L369 488L462 449L373 325L302 393L293 293H155L182 400Z" />
<glyph unicode="+" glyph-name="plus" horiz-adv-x="528" d="M166 259H19L50 433H197L224 587H420L393 433H540L509 259H362L335 105H139L166 259Z" />
<glyph unicode="," glyph-name="comma" horiz-adv-x="263" d="M17 192H237L145 -61H-29L17 192Z" />
<glyph unicode="-" glyph-name="hyphen" horiz-adv-x="339" d="M48 383H337L305 204H16L48 383Z" />
<glyph unicode="." glyph-name="period" horiz-adv-x="264" d="M13 192H229L195 0H-21L13 192Z" />
<glyph unicode="/" glyph-name="slash" horiz-adv-x="431" d="M316 739H522L127 -120H-79L316 739Z" />
<glyph unicode="0" glyph-name="zero" horiz-adv-x="693" d="M313 -11Q253 -11 201 4T110 50T49 131T27 249Q27 274 28 295T32 335T37 373T46 414Q62 492 99 547T185 637T293 688T412 704Q472 704 524 689T615 643T676 562T698 444Q698 400 692 357T679 279Q664
199 629 144T546 55T438 5T313 -11ZM335 169Q363 169 378 196T407 296Q416 347 423 394T430 467Q430 498 421 511T391 524Q364 524 347 497T318 401Q314 381 310 356T303 307T297 263T295 230Q295 194 305 182T335 169Z" />
<glyph unicode="1" glyph-name="one" horiz-adv-x="417" d="M141 459L50 452L76 602L280 693H446L323 0H60L141 459Z" />
<glyph unicode="2" glyph-name="two" horiz-adv-x="538" d="M3 168L144 272Q212 323 244 364T276 452Q276 488 253 500T188 512Q161 512 129 507T67 493L97 662Q140 682 191 693T308 705Q369 705 415 691T493 651T540 590T556 514Q556 427 509 359T368 227L302
183V180H506L474 0H-27L3 168Z" />
<glyph unicode="3" glyph-name="three" horiz-adv-x="529" d="M201 -12Q116 -12 64 0T-21 29L8 195Q37 187 68 181T135 174Q166 174 186 178T217 189T232 206T237 229Q237 254 218 262T164 270H100L128 431H188Q233 431 257 440T281 478Q281 495 264 506T203 517Q161
517 130 513T67 501L97 667Q121 675 142 682T186 694T238 702T305 705Q358 705 401 694T475 661T522 611T539 544Q539 508 528 479T496 427T449 390T390 367V363Q447 352 477 317T507 226Q507 182 490 139T435 63T340 9T201 -12Z" />
<glyph unicode="4" glyph-name="four" horiz-adv-x="668" d="M287 149H-2L26 309L392 694H640L574 319H664L634 149H544L518 0H261L287 149ZM322 319L345 450H341L221 322V319H322Z" />
<glyph unicode="5" glyph-name="five" horiz-adv-x="550" d="M182 -12Q151 -12 121 -9T62 0T11 13T-29 29L1 199Q30 191 59 186T134 180Q197 180 227 193T257 242Q257 266 234 276T153 286Q134 286 120 286T94 284T68 280T38 275L118 693H556L524 513H274L259
439Q267 440 272 441T284 444T299 445T323 446Q375 446 415 433T481 396T520 341T534 272Q534 132 441 60T182 -12Z" />
<glyph unicode="6" glyph-name="six" horiz-adv-x="649" d="M313 -12Q173 -12 100 55T27 250Q27 356 57 443T143 588Q200 650 277 677T450 705Q522 705 569 695T642 670L611 494Q588 502 555 508T476 514Q402 514 365 490T313 414Q337 428 368 437T444 446Q535
446 583 399T632 264Q632 206 612 156T553 68T453 10T313 -12ZM326 149Q341 149 351 157T367 180T375 214T378 255Q378 278 370 288T336 299Q324 299 315 296T294 287Q289 260 286 237T283 203Q283 171 294 160T326 149Z" />
<glyph unicode="7" glyph-name="seven" horiz-adv-x="581" d="M341 500L342 505H59L92 693H643L614 527L310 0H20L341 500Z" />
<glyph unicode="8" glyph-name="eight" horiz-adv-x="648" d="M289 -12Q215 -12 163 1T76 36T25 90T9 159Q9 222 43 262T153 329Q108 353 90 387T71 466Q71 524 94 569T160 644T262 689T395 705Q459 705 506 692T585 657T632 604T648 537Q648 477 616 439T517
368Q560 348 588 312T617 229Q617 117 532 53T289 -12ZM298 142Q335 142 351 164T368 214Q368 235 347 250T280 281Q259 266 246 246T232 199Q232 177 247 160T298 142ZM385 433Q406 445 420 460T435 503Q435 521 422 534T378 548Q343 548 328 535T312 497Q312
479 327 463T385 433Z" />
<glyph unicode="9" glyph-name="nine" horiz-adv-x="650" d="M232 -12Q160 -12 110 -2T33 26L64 202Q87 191 123 185T206 179Q280 179 321 203T370 279Q346 265 315 256T239 247Q150 247 100 294T50 429Q50 487 69 537T129 625T229 683T369 705Q509 705 582 638T655
443Q655 337 627 247T544 98Q487 36 408 12T232 -12ZM346 394Q358 394 367 397T388 406Q393 433 396 456T399 490Q399 522 388 533T356 544Q341 544 331 536T315 513T307 479T304 438Q304 415 312 405T346 394Z" />
<glyph unicode=":" glyph-name="colon" horiz-adv-x="270" d="M66 476H282L248 284H32L66 476ZM16 192H232L198 0H-18L16 192Z" />
<glyph unicode=";" glyph-name="semicolon" horiz-adv-x="270" d="M16 192H236L144 -61H-30L16 192ZM66 476H282L248 284H32L66 476Z" />
<glyph unicode="&lt;" glyph-name="less" horiz-adv-x="466" d="M21 241L52 416L494 584L461 398L237 324L433 239L402 63L21 241Z" />
<glyph unicode="=" glyph-name="equal" horiz-adv-x="513" d="M70 507H530L500 335H40L70 507ZM29 267H489L459 95H-1L29 267Z" />
<glyph unicode="&gt;" glyph-name="greater" horiz-adv-x="466" d="M29 249L253 323L57 408L88 584L469 406L438 231L-4 63L29 249Z" />
<glyph unicode="?" glyph-name="question" horiz-adv-x="456" d="M79 243L85 278Q89 302 95 318T111 349T137 376T177 404Q209 425 223 441T237 483Q237 503 224 515T164 527Q126 527 103 523T58 514L86 675Q105 681 124 686T164 696T212 702T270 705Q381 705
434 659T488 528Q488 469 462 424T376 339Q352 323 334 312T304 292T286 274T277 253L275 243H79ZM61 187H277L244 0H28L61 187Z" />
<glyph unicode="@" glyph-name="at" horiz-adv-x="970" d="M404 -165Q322 -165 253 -142T134 -74T56 33T28 174Q28 290 65 383T170 543T336 644T556 680Q654 680 728 655T852 588T927 489T953 370Q953 284 926 221T855 116T752 54T632 33Q572 33 542 50T505 94H500Q492
79 479 68T450 49T415 37T381 33Q352 33 328 43T287 73T260 121T250 183Q250 247 271 301T330 395T418 457T528 479Q563 479 590 476T638 469T677 458T710 445L661 175Q659 163 664 156T683 148Q711 148 736 164T779 209T808 275T819 355Q819 398 805 437T758 505T673
551T544 569Q459 569 389 542T269 465T192 342T164 178Q164 117 183 73T237 1T319 -41T423 -55Q504 -55 571 -45T700 -14L683 -110Q642 -137 569 -151T404 -165ZM462 168Q471 168 475 171T485 179L518 359Q513 362 505 362Q489 362 476 348T454 311T439 261T434
209Q434 183 442 176T462 168Z" />
<glyph unicode="A" glyph-name="A" horiz-adv-x="725" d="M304 693H590L685 0H423L415 97H228L186 0H-50L304 693ZM297 255H401L385 446H380L297 255Z" />
<glyph unicode="B" glyph-name="B" horiz-adv-x="659" d="M112 693H438Q542 693 600 650T658 534Q658 461 622 420T519 361V358Q580 348 611 320T643 234Q643 187 627 145T575 71T486 19T356 0H-10L112 693ZM307 157Q337 157 356 175T376 232Q376 255 367 270T329
286H298L275 157H307ZM352 414Q381 414 397 434T414 493Q414 515 404 527T370 540H343L320 414H352Z" />
<glyph unicode="C" glyph-name="C" horiz-adv-x="568" d="M337 -10Q188 -10 107 59T26 270Q26 368 52 448T126 583Q183 649 263 677T441 705Q508 705 549 697T616 675L584 496Q562 504 536 508T469 512Q400 512 365 482T315 392Q308 363 305 338T301 281Q301 225
331 203T409 181Q451 181 485 188T542 202L510 20Q484 8 444 -1T337 -10Z" />
<glyph unicode="D" glyph-name="D" horiz-adv-x="706" d="M112 693H381Q550 693 630 627T710 426Q710 337 688 260T619 125T496 34T314 0H-10L112 693ZM319 177Q363 177 388 215T429 339Q434 367 436 393T439 437Q439 484 421 500T368 516H344L284 177H319Z" />
<glyph unicode="E" glyph-name="E" horiz-adv-x="569" d="M112 693H615L583 513H341L328 439H515L484 263H297L282 180H539L507 0H-10L112 693Z" />
<glyph unicode="F" glyph-name="F" horiz-adv-x="561" d="M112 693H620L588 513H344L325 407H514L483 231H294L253 0H-10L112 693Z" />
<glyph unicode="G" glyph-name="G" horiz-adv-x="692" d="M365 -10Q195 -10 113 58T31 271Q31 370 59 448T127 578Q183 648 267 676T454 705Q503 705 539 701T602 691T648 676T681 660L649 474Q619 486 576 497T470 509Q398 509 362 475T311 372Q306 344 301 312T296
248Q296 207 318 188T370 169Q384 169 391 170T407 175L418 238H371L399 399H688L623 29Q577 13 510 2T365 -10Z" />
<glyph unicode="H" glyph-name="H" horiz-adv-x="739" d="M112 693H376L332 445H473L517 693H781L658 0H394L441 263H300L253 0H-10L112 693Z" />
<glyph unicode="I" glyph-name="I" horiz-adv-x="338" d="M114 693H378L255 0H-8L114 693Z" />
<glyph unicode="J" glyph-name="J" horiz-adv-x="444" d="M142 -8Q85 -8 41 2T-28 27L2 197Q13 195 30 193T62 190Q84 190 99 194T124 207T140 231T150 268L226 693H490L417 273Q404 199 384 146T332 59T254 8T142 -8Z" />
<glyph unicode="K" glyph-name="K" horiz-adv-x="711" d="M328 424L528 693H791L537 348L673 0H398L302 274L254 0H-10L112 693H376L328 424Z" />
<glyph unicode="L" glyph-name="L" horiz-adv-x="543" d="M112 693H376L285 180H520L488 0H-10L112 693Z" />
<glyph unicode="M" glyph-name="M" horiz-adv-x="907" d="M112 693H446L464 381H468L599 693H948L826 0H568L638 398H634L469 0H300L277 399H273L202 0H-10L112 693Z" />
<glyph unicode="N" glyph-name="N" horiz-adv-x="714" d="M112 693H388L477 386H481L535 693H755L633 0H381L274 341H270L210 0H-10L112 693Z" />
<glyph unicode="O" glyph-name="O" horiz-adv-x="730" d="M331 -12Q263 -12 207 5T111 58T50 145T28 269Q28 370 57 451T140 588T267 675T430 705Q499 705 555 688T651 635T712 547T734 424Q734 323 705 242T624 105T497 18T331 -12ZM354 174Q392 174 414 217T452
354Q456 375 458 402T461 451Q461 494 446 506T408 519Q393 519 379 511T353 481T330 426T310 339Q305 310 303 285T301 242Q301 221 305 208T316 187T333 177T354 174Z" />
<glyph unicode="P" glyph-name="P" horiz-adv-x="657" d="M112 693H407Q551 693 615 637T679 481Q679 407 656 355T590 268T483 217T337 201H284L248 0H-10L112 693ZM343 358Q378 358 396 387T415 468Q415 497 402 509T363 522H340L311 358H343Z" />
<glyph unicode="Q" glyph-name="Q" horiz-adv-x="730" d="M271 -18Q213 -3 168 19T91 76T44 157T28 269Q28 370 57 451T140 588T267 675T430 705Q499 705 555 688T651 635T712 547T734 424Q734 349 718 295T673 202T609 139T533 99L705 72L641 -110L271 -18ZM354
174Q392 174 414 217T452 354Q456 375 458 402T461 451Q461 494 446 506T408 519Q393 519 379 511T353 481T330 426T310 339Q305 310 303 285T301 242Q301 221 305 208T316 187T333 177T354 174Z" />
<glyph unicode="R" glyph-name="R" horiz-adv-x="690" d="M112 693H441Q564 693 623 642T683 501Q683 423 651 370T550 293V290L647 0H386L324 225H283L253 0H-10L112 693ZM352 372Q392 372 406 403T420 478Q420 524 374 524H342L315 372H352Z" />
<glyph unicode="S" glyph-name="S" horiz-adv-x="558" d="M213 -10Q178 -10 144 -6T78 5T22 22T-19 43L17 214Q61 195 99 185T186 174Q235 174 253 185T271 214Q271 229 262 237T220 255L187 265Q146 277 120 295T78 337T56 390T49 454Q49 574 123 639T351 705Q402
705 439 700T504 688T550 672T582 656L547 487Q511 500 465 511T358 522Q331 522 316 514T300 489Q300 475 308 467T343 450L384 438Q429 425 458 405T504 360T528 305T535 241Q535 114 453 52T213 -10Z" />
<glyph unicode="T" glyph-name="T" horiz-adv-x="607" d="M217 513H54L86 693H675L643 513H481L390 0H126L217 513Z" />
<glyph unicode="U" glyph-name="U" horiz-adv-x="695" d="M322 -12Q168 -12 98 46T27 210Q27 227 28 245T34 283L106 693H370L295 265Q292 250 292 234Q292 209 306 193T353 177Q393 177 410 199T435 261L511 693H743L666 253Q654 184 630 134T566 51T465 4T322 -12Z" />
<glyph unicode="V" glyph-name="V" horiz-adv-x="720" d="M76 693H334L366 291H371L552 693H798L443 0H167L76 693Z" />
<glyph unicode="W" glyph-name="W" horiz-adv-x="983" d="M79 693H334L341 321H345L476 693H686L704 321H708L827 693H1058L794 0H527L518 356H515L393 0H125L79 693Z" />
<glyph unicode="X" glyph-name="X" horiz-adv-x="723" d="M196 366L93 693H367L411 490H415L527 693H793L561 358L676 0H402L346 219H342L218 0H-47L196 366Z" />
<glyph unicode="Y" glyph-name="Y" horiz-adv-x="668" d="M206 273L75 693H336L383 479H386L503 693H747L469 268L422 0H158L206 273Z" />
<glyph unicode="Z" glyph-name="Z" horiz-adv-x="603" d="M13 175L302 509V513H84L116 693H647L616 518L326 184V180H563L531 0H-18L13 175Z" />
<glyph unicode="[" glyph-name="bracketleft" horiz-adv-x="402" d="M118 739H462L433 571H322L229 48H340L311 -120H-32L118 739Z" />
<glyph unicode="\" glyph-name="backslash" horiz-adv-x="431" d="M82 739H275L382 -120H189L82 739Z" />
<glyph unicode="]" glyph-name="bracketright" horiz-adv-x="402" d="M-11 48H99L192 571H81L110 739H454L303 -120H-40L-11 48Z" />
<glyph unicode="^" glyph-name="asciicircum" horiz-adv-x="504" d="M235 693H423L530 429H350L300 522L218 429H35L235 693Z" />
<glyph unicode="_" glyph-name="underscore" horiz-adv-x="420" d="M-57 -43H371L346 -183H-81L-57 -43Z" />
<glyph unicode="`" glyph-name="grave" horiz-adv-x="500" d="M159 739H372L403 577H237L159 739Z" />
<glyph unicode="a" glyph-name="a" horiz-adv-x="587" d="M161 -10Q86 -10 47 37T8 169Q8 268 37 340T115 460T230 531T370 555Q410 555 446 552T513 543T567 532T606 521L514 0H324L317 63H312Q285 32 247 11T161 -10ZM277 149Q290 149 298 154T311 165L351 390Q348
392 345 393T334 395Q302 395 283 366T252 263Q250 249 247 230T244 191Q244 171 250 160T277 149Z" />
<glyph unicode="b" glyph-name="b" horiz-adv-x="601" d="M264 -10Q177 -10 110 -1T-12 27L113 739H346L304 501H309Q324 513 339 523T370 540T406 551T451 555Q482 555 509 543T556 509T588 454T600 379Q600 188 512 89T264 -10ZM276 143Q308 143 324 170T352
265Q354 279 356 297T358 330Q358 361 348 371T320 381Q307 381 299 377T281 366L242 149Q255 143 276 143Z" />
<glyph unicode="c" glyph-name="c" horiz-adv-x="469" d="M260 -10Q133 -10 72 49T11 215Q11 277 26 330T69 426Q108 486 177 520T348 555Q401 555 438 546T496 525L468 369Q448 377 430 381T376 385Q322 385 291 366T250 293Q248 281 246 269T244 242Q244 203
265 182T334 160Q365 160 392 165T440 176L413 23Q405 18 393 12T363 1T320 -7T260 -10Z" />
<glyph unicode="d" glyph-name="d" horiz-adv-x="600" d="M165 -10Q87 -10 48 37T8 169Q8 268 33 340T99 460T193 531T302 555Q342 555 361 549T389 539L424 739H657L527 0H337L330 63H325Q298 32 254 11T165 -10ZM279 149Q294 149 305 154T324 165L364 395Q358
399 352 401T330 404Q298 404 281 372T251 263Q249 249 247 231T244 198Q244 175 251 162T279 149Z" />
<glyph unicode="e" glyph-name="e" horiz-adv-x="554" d="M276 -10Q139 -10 75 50T11 214Q11 277 26 332T71 431Q110 488 173 521T324 555Q400 555 448 533T521 471T550 377T545 257L539 220H245Q246 201 251 188T269 165T301 152T353 148Q398 148 439 156T503
174L479 35Q460 26 441 18T399 4T346 -6T276 -10ZM312 408Q292 408 277 392T253 331H340Q348 369 343 388T312 408Z" />
<glyph unicode="f" glyph-name="f" horiz-adv-x="387" d="M82 388H29L57 545H109L113 566Q131 660 192 704T359 749Q404 749 432 744T475 733L451 594Q442 596 428 597T402 599Q375 599 363 590T346 560L343 545H431L403 388H316L216 -195H-18L82 388Z" />
<glyph unicode="g" glyph-name="g" horiz-adv-x="602" d="M205 -203Q170 -203 136 -200T71 -190T15 -175T-27 -157L1 -2Q81 -33 170 -33Q211 -33 236 -27T276 -8T297 20T307 57L310 75H305Q279 49 249 35T172 21Q92 21 53 70T13 198Q13 277 34 343T100 456T212
529T374 555Q414 555 451 551T521 542T578 529T620 516L538 47Q526 -24 500 -72T433 -149T335 -190T205 -203ZM282 166Q295 166 309 171T329 182L367 395Q362 397 353 399T336 401Q310 401 290 377T258 290Q255 273 253 257T251 219Q251 198 258 182T282 166Z"
/>
<glyph unicode="h" glyph-name="h" horiz-adv-x="600" d="M113 739H346L303 492H308Q340 521 381 538T470 555Q539 555 569 524T600 429Q600 400 594 366L529 0H296L353 322Q354 327 355 333T356 347Q356 377 326 377Q313 377 302 373T279 360L216 0H-17L113 739Z" />
<glyph unicode="i" glyph-name="i" horiz-adv-x="295" d="M82 545H315L219 0H-14L82 545ZM115 739H350L322 577H87L115 739Z" />
<glyph unicode="j" glyph-name="j" horiz-adv-x="295" d="M-26 -197Q-64 -197 -95 -189T-141 -174L-114 -33Q-109 -34 -100 -35T-77 -37Q-47 -37 -32 -28T-12 10L82 545H315L218 -6Q210 -50 194 -85T150 -145T78 -183T-26 -197ZM115 739H350L322 577H87L115 739Z" />
<glyph unicode="k" glyph-name="k" horiz-adv-x="606" d="M275 338L419 545H652L461 279L563 0H326L255 228L215 0H-17L113 739H346L275 338Z" />
<glyph unicode="l" glyph-name="l" horiz-adv-x="293" d="M115 739H348L218 0H-15L115 739Z" />
<glyph unicode="m" glyph-name="m" horiz-adv-x="893" d="M79 545H305L294 482H299Q334 516 374 535T468 555Q562 555 583 479H587Q627 514 670 534T767 555Q833 555 863 524T893 430Q893 400 887 366L822 0H589L646 322Q647 327 648 333T649 347Q649 377 624
377Q606 377 583 362L519 0H286L343 322Q344 326 345 333T346 347Q346 377 321 377Q309 377 300 374T280 362L216 0H-17L79 545Z" />
<glyph unicode="n" glyph-name="n" horiz-adv-x="600" d="M79 545H305L294 481H299Q334 515 378 535T471 555Q537 555 568 524T600 429Q600 400 594 366L529 0H296L353 322Q354 327 355 333T356 347Q356 377 326 377Q313 377 302 373T279 360L216 0H-17L79 545Z" />
<glyph unicode="o" glyph-name="o" horiz-adv-x="594" d="M256 -10Q190 -10 143 8T67 57T24 127T10 208Q10 278 31 341T94 451T197 527T338 555Q404 555 452 537T531 488T576 418T591 338Q591 258 569 194T504 84T399 15T256 -10ZM280 143Q290 143 299 148T316
166T331 202T344 262Q349 291 352 312T355 351Q355 381 346 392T322 403Q302 403 286 378T257 284Q246 229 246 195Q246 165 256 154T280 143Z" />
<glyph unicode="p" glyph-name="p" horiz-adv-x="601" d="M79 545H306L297 495H302Q335 524 368 539T451 555Q482 555 509 543T556 509T588 454T600 379Q600 278 578 205T516 84T424 13T311 -10Q286 -10 259 -7T216 5L181 -195H-51L79 545ZM276 143Q308 143 324
170T351 263Q353 277 355 295T357 328Q357 359 347 369T319 379Q306 379 298 375T280 364L242 149Q255 143 276 143Z" />
<glyph unicode="q" glyph-name="q" horiz-adv-x="600" d="M302 44H297Q277 24 242 7T164 -10Q86 -10 47 37T8 169Q8 268 32 340T102 460T213 531T361 555Q398 555 434 552T505 544T568 532T618 518L493 -195H260L302 44ZM281 159Q296 159 307 164T326 175L364
393Q357 397 351 399T330 402Q298 402 281 373T253 273Q251 259 249 243T246 208Q246 185 253 172T281 159Z" />
<glyph unicode="r" glyph-name="r" horiz-adv-x="409" d="M79 545H305L292 472H297Q317 504 346 527T418 550Q440 550 448 545L412 340Q404 342 391 344T363 346Q346 346 334 345T312 342T293 338T274 331L216 0H-16L79 545Z" />
<glyph unicode="s" glyph-name="s" horiz-adv-x="480" d="M190 -10Q161 -10 131 -7T73 2T22 15T-16 31L10 180Q24 174 42 168T82 156T124 147T165 144Q203 144 216 150T229 168Q229 179 219 183T186 192L148 201Q94 214 62 248T30 351Q30 453 97 504T289 555Q351
555 395 546T473 520L445 372Q419 384 382 393T309 403Q275 403 264 398T252 379Q252 369 264 365T290 357L327 348Q368 338 393 324T433 292T453 252T458 204Q458 157 445 118T400 50T318 6T190 -10Z" />
<glyph unicode="t" glyph-name="t" horiz-adv-x="408" d="M212 -10Q112 -10 72 33T49 171L88 390H30L57 545H115L138 673H371L348 545H443L416 390H321L286 194Q282 174 291 166T325 158Q336 158 350 159T374 163L347 14Q330 5 295 -2T212 -10Z" />
<glyph unicode="u" glyph-name="u" horiz-adv-x="599" d="M140 -10Q73 -10 41 24T9 122Q9 135 10 148T14 179L78 545H311L253 216Q250 199 250 189Q250 173 257 167T280 161Q293 161 303 165T324 178L389 545H622L526 0H328L319 65H314Q279 30 236 10T140 -10Z" />
<glyph unicode="v" glyph-name="v" horiz-adv-x="593" d="M48 545H276L285 230H289L419 545H647L351 0H102L48 545Z" />
<glyph unicode="w" glyph-name="w" horiz-adv-x="803" d="M53 545H279L278 290H282L378 545H545L547 290H551L645 545H852L615 0H401L397 254H394L293 0H79L53 545Z" />
<glyph unicode="x" glyph-name="x" horiz-adv-x="593" d="M151 286L61 545H299L330 402L402 545H632L457 292L551 0H313L273 159L181 0H-48L151 286Z" />
<glyph unicode="y" glyph-name="y" horiz-adv-x="595" d="M81 -198Q36 -198 4 -191T-45 -175L-18 -26Q-2 -30 16 -33T53 -36Q85 -36 101 -27T126 0L132 14L48 545H281L299 271H303L424 545H649L355 -15Q331 -61 306 -95T250 -152T177 -186T81 -198Z" />
<glyph unicode="z" glyph-name="z" horiz-adv-x="499" d="M0 161L215 385V388H42L69 545H528L503 398L272 160V157H467L439 0H-30L0 161Z" />
<glyph unicode="{" glyph-name="braceleft" horiz-adv-x="404" d="M312 -122Q237 -121 186 -112T105 -86T61 -42T48 19Q48 39 53 67L68 155Q73 191 61 206T13 225L41 391Q57 392 70 395T94 406T111 424T121 455L137 543Q146 591 165 627T221 689T317 727T464 741L435
571Q398 568 384 555T363 506L352 442Q343 388 311 355T207 308V305Q253 296 280 276T308 208Q308 200 307 191T304 171L293 107Q288 75 297 63T342 48L312 -122Z" />
<glyph unicode="|" glyph-name="bar" horiz-adv-x="285" d="M64 739H239V-120H64V739Z" />
<glyph unicode="}" glyph-name="braceright" horiz-adv-x="404" d="M111 741Q186 740 237 731T318 705T362 661T375 600Q375 580 370 552L355 464Q350 428 362 413T410 394L382 228Q350 225 330 213T302 164L286 76Q277 28 258 -8T202 -70T106 -108T-41 -122L-12
48Q25 51 39 64T60 113L71 177Q80 231 112 264T216 311V314Q170 323 143 343T115 411Q115 419 116 428T119 448L130 512Q135 544 126 556T81 571L111 741Z" />
<glyph unicode="~" glyph-name="asciitilde" horiz-adv-x="469" d="M12 211Q15 269 30 308T68 371T118 405T171 415Q193 415 213 410T250 398T281 387T304 381Q318 381 325 389T336 412H477Q475 361 460 323T423 259T373 221T320 208Q298 208 278 213T241 225T210
236T187 242Q173 242 166 234T153 211H12Z" />
<glyph unicode="&#xa0;" glyph-name="uni00A0" horiz-adv-x="149" />
<glyph unicode="&#xa1;" glyph-name="exclamdown" horiz-adv-x="318" d="M75 330H271L226 -120H-40L75 330ZM108 573H323L290 386H75L108 573Z" />
<glyph unicode="&#xa2;" glyph-name="cent" horiz-adv-x="496" d="M205 -4Q112 11 64 67T16 215Q16 342 74 427Q116 487 187 521T358 555Q368 555 375 555T397 553L418 615H514L487 538Q499 535 508 532T523 525L496 373Q484 378 469 381T435 386L356 156Q385
157 416 161T466 172L440 23Q425 13 392 3T299 -9L262 -118H166L205 -4ZM243 242Q243 193 267 175L339 385Q301 378 279 357T249 293Q247 281 245 269T243 242Z" />
<glyph unicode="&#xa3;" glyph-name="sterling" horiz-adv-x="558" d="M53 417H108L115 458Q138 587 223 646T446 705Q501 705 539 696T593 675L562 503Q544 508 527 510T491 512Q440 512 411 494T374 430L371 417H507L479 262H337Q320 229 296 210T249 182V180H526L494
0H-23L7 170Q33 177 52 194T78 248L80 262H25L53 417Z" />
<glyph unicode="&#xa5;" glyph-name="yen" horiz-adv-x="666" d="M170 79H27L52 222H195L201 256H58L84 399H172L73 693H336L379 479H382L501 693H747L545 399H634L608 256H465L459 222H602L577 79H434L420 0H156L170 79Z" />
<glyph unicode="&#xa6;" glyph-name="brokenbar" horiz-adv-x="315" d="M58 286H263V-120H58V286ZM58 739H263V370H58V739Z" />
<glyph unicode="&#xa7;" glyph-name="section" horiz-adv-x="589" d="M218 -131Q140 -131 86 -115T-1 -81L25 70Q42 63 59 56T97 42T142 31T198 27Q237 27 251 34T266 59Q266 68 260 75T228 89L175 102Q139 111 109 123T58 152T25 194T13 253Q13 313 43 346T133
394Q95 435 95 499Q95 596 164 650T360 704Q403 704 435 701T493 691T537 677T572 661L545 511Q521 522 478 535T372 549Q350 549 336 544T322 522Q322 510 333 504T372 490L423 477Q504 457 546 424T588 331Q588 266 557 232T469 182Q508 144 508 88Q508 -21 435
-76T218 -131ZM356 283Q356 289 354 294T346 304T327 315T292 326L284 328Q238 324 238 295Q238 289 239 284T247 273T264 263T295 252L302 250Q334 252 345 260T356 283Z" />
<glyph unicode="&#xa8;" glyph-name="dieresis" horiz-adv-x="500" d="M357 739H542L514 577H329L357 739ZM128 739H313L285 577H100L128 739Z" />
<glyph unicode="&#xa9;" glyph-name="copyright" horiz-adv-x="762" d="M396 -14Q318 -14 252 14T138 91T63 205T35 344Q35 418 62 483T138 596T252 672T396 700Q473 700 539 672T654 596T731 483T759 344Q759 270 731 205T655 91T540 14T396 -14ZM396 45Q460
45 513 67T606 129T667 224T689 344Q689 409 667 463T606 557T514 619T396 641Q332 641 279 619T187 558T127 464T105 344Q105 279 126 224T186 129T278 67T396 45ZM416 138Q316 138 260 186T204 335V343Q204 397 220 436T266 500T333 536T416 548Q461 548 486
543T532 530V410Q522 413 508 415T474 418Q432 418 413 404T393 353V339Q393 300 409 283T469 266Q489 266 505 269T533 275V157Q513 151 488 145T416 138Z" />
<glyph unicode="&#xaa;" glyph-name="ordfeminine" horiz-adv-x="540" d="M185 208Q119 208 81 250T42 365Q42 452 67 516T135 622T239 684T369 705Q444 705 501 695T584 675L503 217H328L322 272H318Q294 245 261 227T185 208ZM287 349Q298 349 305 353T317 363L353
567Q350 569 347 570T338 571Q310 571 293 543T265 448Q263 435 261 419T258 385Q258 368 264 359T287 349Z" />
<glyph unicode="&#xab;" glyph-name="guillemotleft" horiz-adv-x="573" d="M268 227L277 278L394 455H585L458 246L508 50H323L268 227ZM20 227L29 278L146 455H337L210 246L260 50H75L20 227Z" />
<glyph unicode="&#xae;" glyph-name="registered" horiz-adv-x="461" d="M273 296Q229 296 191 312T124 356T80 421T64 501Q64 543 80 580T124 645T190 689T273 705Q317 705 355 689T421 646T466 581T483 501Q483 459 467 422T422 357T355 313T273 296ZM273 336Q310
336 340 348T391 383T424 435T436 501Q436 535 425 565T392 618T340 653T273 666Q236 666 207 653T156 618T124 566T112 501Q112 466 123 436T156 383T206 349T273 336ZM181 602H291Q330 602 352 585T375 536Q375 519 367 505T348 486V483L385 404H303L275 466H260V404H181V602ZM277
513Q295 513 295 530Q295 549 277 549H260V513H277Z" />
<glyph unicode="&#xaf;" glyph-name="macron" horiz-adv-x="500" d="M174 719H488L463 577H149L174 719Z" />
<glyph unicode="&#xb0;" glyph-name="degree" horiz-adv-x="389" d="M232 361Q190 361 159 373T105 408T72 458T61 519Q61 556 75 589T114 647T175 687T254 702Q296 702 327 690T381 656T414 607T425 547Q425 510 411 477T372 418T311 377T232 361ZM238 467Q272
467 285 490T299 542Q299 563 287 579T248 596Q215 596 201 574T186 523Q186 501 198 484T238 467Z" />
<glyph unicode="&#xb4;" glyph-name="acute" horiz-adv-x="500" d="M306 739H529L398 577H222L306 739Z" />
<glyph unicode="&#xb6;" glyph-name="paragraph" horiz-adv-x="600" d="M264 316H253Q159 316 111 359T62 475Q62 579 131 636T319 693H639L496 -120H374L497 576H432L309 -120H187L264 316Z" />
<glyph unicode="&#xb7;" glyph-name="periodcentered" horiz-adv-x="266" d="M51 406H269L235 214H17L51 406Z" />
<glyph unicode="&#xb8;" glyph-name="cedilla" horiz-adv-x="500" d="M117 -152Q165 -149 188 -143T211 -120Q211 -110 200 -105T152 -97L169 0H265L259 -36Q313 -38 336 -58T359 -110Q359 -169 299 -198T103 -230L117 -152Z" />
<glyph unicode="&#xba;" glyph-name="ordmasculine" horiz-adv-x="549" d="M276 208Q216 208 173 224T101 268T60 331T46 402Q46 463 64 518T120 615T211 680T338 705Q398 705 442 689T516 645T560 583T574 512Q574 441 555 385T497 290T404 229T276 208ZM292
344Q301 344 309 348T323 363T336 394T348 447Q353 473 355 491T358 525Q358 552 350 560T329 569Q311 569 297 548T272 467Q267 443 265 424T262 388Q262 362 270 353T292 344Z" />
<glyph unicode="&#xbb;" glyph-name="guillemotright" horiz-adv-x="573" d="M362 259L312 455H497L552 278L543 227L426 50H235L362 259ZM114 259L64 455H249L304 278L295 227L178 50H-13L114 259Z" />
<glyph unicode="&#xbc;" glyph-name="onequarter" horiz-adv-x="940" d="M133 529L63 523L82 630L226 693H345L270 265H87L133 529ZM685 713H839L213 -40H59L685 713ZM662 87H483L502 195L728 428H903L863 201H913L892 87H842L827 0H647L662 87ZM688 197L701 273H699L639
199V197H688Z" />
<glyph unicode="&#xbd;" glyph-name="onehalf" horiz-adv-x="953" d="M683 713H837L211 -40H57L683 713ZM133 529L63 523L82 630L226 693H345L270 265H87L133 529ZM567 118L651 175Q690 201 709 223T729 272Q729 289 715 295T677 302Q628 302 602 291L623 408Q634
414 651 419T688 427T731 433T773 436Q850 436 891 406T932 316Q932 265 900 222T810 147L776 128V126H908L886 0H546L567 118Z" />
<glyph unicode="&#xbe;" glyph-name="threequarters" horiz-adv-x="966" d="M167 258Q149 258 130 260T91 265T56 273T28 282L47 392Q64 388 82 386T119 383Q142 383 163 389T184 411Q184 421 176 425T148 430H110L128 531H164Q191 531 202 536T214 556Q214 566
202 572T161 578Q134 578 119 577T90 570L108 677Q133 686 163 693T243 701Q276 701 304 696T354 678T387 647T399 601Q399 556 369 529T296 491V489Q336 483 355 464T375 400Q375 370 363 345T326 300T261 269T167 258ZM725 710H879L253 -43H99L725 710ZM688 87H509L528
195L754 428H929L889 201H939L918 87H868L853 0H673L688 87ZM714 197L727 273H725L665 199V197H714Z" />
<glyph unicode="&#xbf;" glyph-name="questiondown" horiz-adv-x="456" d="M197 -132Q86 -132 33 -86T-21 45Q-21 104 5 149T91 234Q115 250 133 261T163 281T181 299T190 320L192 330H388L382 295Q378 271 372 255T356 224T330 197T290 169Q258 148 244 132T230
90Q230 70 243 58T303 46Q341 46 364 50T409 59L381 -102Q362 -108 343 -113T303 -123T255 -129T197 -132ZM223 573H439L406 386H190L223 573Z" />
<glyph unicode="&#xc0;" glyph-name="Agrave" horiz-adv-x="725" d="M304 693H590L685 0H423L415 97H228L186 0H-50L304 693ZM297 255H401L385 446H380L297 255ZM305 876H518L545 722H379L305 876Z" />
<glyph unicode="&#xc1;" glyph-name="Aacute" horiz-adv-x="725" d="M304 693H590L685 0H423L415 97H228L186 0H-50L304 693ZM297 255H401L385 446H380L297 255ZM414 874H637L513 722H337L414 874Z" />
<glyph unicode="&#xc2;" glyph-name="Acircumflex" horiz-adv-x="725" d="M304 693H590L685 0H423L415 97H228L186 0H-50L304 693ZM297 255H401L385 446H380L297 255ZM377 864H561L641 722H484L453 756L410 722H243L377 864Z" />
<glyph unicode="&#xc3;" glyph-name="Atilde" horiz-adv-x="725" d="M304 693H590L685 0H423L415 97H228L186 0H-50L304 693ZM297 255H401L385 446H380L297 255ZM247 722Q255 765 269 795T303 843T346 870T393 879Q413 879 430 875T462 865T488 855T509 850Q521
850 528 857T539 876H672Q664 833 650 803T616 755T573 728T526 719Q506 719 489 723T457 733T431 743T410 748Q398 748 391 741T380 722H247Z" />
<glyph unicode="&#xc4;" glyph-name="Adieresis" horiz-adv-x="725" d="M304 693H590L685 0H423L415 97H228L186 0H-50L304 693ZM297 255H401L385 446H380L297 255ZM497 876H682L656 722H471L497 876ZM262 876H447L421 722H236L262 876Z" />
<glyph unicode="&#xc5;" glyph-name="Aring" horiz-adv-x="725" d="M304 693H590L685 0H423L415 97H228L186 0H-50L304 693ZM297 255H401L385 446H380L297 255ZM453 708Q422 708 398 718T357 744T332 781T323 824Q323 853 333 877T363 918T408 945T465 955Q496
955 520 946T561 920T586 883T595 839Q595 810 585 786T555 745T510 718T453 708ZM457 789Q476 789 487 801T498 834Q498 851 489 862T461 874Q442 874 431 862T420 829Q420 812 429 801T457 789Z" />
<glyph unicode="&#xc6;" glyph-name="AE" horiz-adv-x="969" d="M406 693H1015L983 513H754L741 439H915L884 263H710L695 180H939L907 0H408L427 108H256L191 0H-54L406 693ZM455 266L496 497H492L352 266H455Z" />
<glyph unicode="&#xc7;" glyph-name="Ccedilla" horiz-adv-x="568" d="M337 -10Q326 -10 317 -10T298 -9L294 -36Q348 -38 371 -58T394 -110Q394 -169 334 -198T138 -230L152 -152Q200 -149 223 -143T246 -120Q246 -110 235 -105T187 -97L205 7Q118 33 72 98T26
270Q26 368 52 448T126 583Q183 649 263 677T441 705Q508 705 549 697T616 675L584 496Q562 504 536 508T469 512Q400 512 365 482T315 392Q308 363 305 338T301 281Q301 225 331 203T409 181Q451 181 485 188T542 202L510 20Q484 8 444 -1T337 -10Z" />
<glyph unicode="&#xc8;" glyph-name="Egrave" horiz-adv-x="569" d="M237 876H450L477 722H311L237 876ZM112 693H615L583 513H341L328 439H515L484 263H297L282 180H539L507 0H-10L112 693Z" />
<glyph unicode="&#xc9;" glyph-name="Eacute" horiz-adv-x="569" d="M603 874H826L702 722H526L603 874ZM112 693H615L583 513H341L328 439H515L484 263H297L282 180H539L507 0H-10L112 693Z" />
<glyph unicode="&#xca;" glyph-name="Ecircumflex" horiz-adv-x="569" d="M309 864H493L573 722H416L385 756L342 722H175L309 864ZM112 693H615L583 513H341L328 439H515L484 263H297L282 180H539L507 0H-10L112 693Z" />
<glyph unicode="&#xcb;" glyph-name="Edieresis" horiz-adv-x="569" d="M112 693H615L583 513H341L328 439H515L484 263H297L282 180H539L507 0H-10L112 693ZM429 876H614L588 722H403L429 876ZM194 876H379L353 722H168L194 876Z" />
<glyph unicode="&#xcc;" glyph-name="Igrave" horiz-adv-x="338" d="M114 693H378L255 0H-8L114 693ZM368 876H581L608 722H442L368 876Z" />
<glyph unicode="&#xcd;" glyph-name="Iacute" horiz-adv-x="338" d="M114 693H378L255 0H-8L114 693ZM217 874H440L316 722H140L217 874Z" />
<glyph unicode="&#xce;" glyph-name="Icircumflex" horiz-adv-x="338" d="M114 693H378L255 0H-8L114 693ZM183 864H367L447 722H290L259 756L216 722H49L183 864Z" />
<glyph unicode="&#xcf;" glyph-name="Idieresis" horiz-adv-x="338" d="M114 693H378L255 0H-8L114 693ZM303 876H488L462 722H277L303 876ZM68 876H253L227 722H42L68 876Z" />
<glyph unicode="&#xd0;" glyph-name="Eth" horiz-adv-x="711" d="M34 431H71L117 693H386Q555 693 635 627T715 426Q715 337 693 260T624 125T501 34T319 0H-5L41 263H4L34 431ZM324 177Q368 177 393 215T434 339Q439 367 441 393T444 437Q444 484 426 500T373
516H345L330 431H401L371 263H300L285 177H324Z" />
<glyph unicode="&#xd1;" glyph-name="Ntilde" horiz-adv-x="714" d="M247 722Q255 765 269 795T303 843T346 870T393 879Q413 879 430 875T462 865T488 855T509 850Q521 850 528 857T539 876H672Q664 833 650 803T616 755T573 728T526 719Q506 719 489 723T457
733T431 743T410 748Q398 748 391 741T380 722H247ZM112 693H388L477 386H481L535 693H755L633 0H381L274 341H270L210 0H-10L112 693Z" />
<glyph unicode="&#xd2;" glyph-name="Ograve" horiz-adv-x="730" d="M295 876H508L535 722H369L295 876ZM331 -12Q263 -12 207 5T111 58T50 145T28 269Q28 370 57 451T140 588T267 675T430 705Q499 705 555 688T651 635T712 547T734 424Q734 323 705 242T624 105T497
18T331 -12ZM354 174Q392 174 414 217T452 354Q456 375 458 402T461 451Q461 494 446 506T408 519Q393 519 379 511T353 481T330 426T310 339Q305 310 303 285T301 242Q301 221 305 208T316 187T333 177T354 174Z" />
<glyph unicode="&#xd3;" glyph-name="Oacute" horiz-adv-x="730" d="M404 874H627L503 722H327L404 874ZM331 -12Q263 -12 207 5T111 58T50 145T28 269Q28 370 57 451T140 588T267 675T430 705Q499 705 555 688T651 635T712 547T734 424Q734 323 705 242T624 105T497
18T331 -12ZM354 174Q392 174 414 217T452 354Q456 375 458 402T461 451Q461 494 446 506T408 519Q393 519 379 511T353 481T330 426T310 339Q305 310 303 285T301 242Q301 221 305 208T316 187T333 177T354 174Z" />
<glyph unicode="&#xd4;" glyph-name="Ocircumflex" horiz-adv-x="730" d="M367 864H551L631 722H474L443 756L400 722H233L367 864ZM331 -12Q263 -12 207 5T111 58T50 145T28 269Q28 370 57 451T140 588T267 675T430 705Q499 705 555 688T651 635T712 547T734
424Q734 323 705 242T624 105T497 18T331 -12ZM354 174Q392 174 414 217T452 354Q456 375 458 402T461 451Q461 494 446 506T408 519Q393 519 379 511T353 481T330 426T310 339Q305 310 303 285T301 242Q301 221 305 208T316 187T333 177T354 174Z" />
<glyph unicode="&#xd5;" glyph-name="Otilde" horiz-adv-x="730" d="M237 722Q245 765 259 795T293 843T336 870T383 879Q403 879 420 875T452 865T478 855T499 850Q511 850 518 857T529 876H662Q654 833 640 803T606 755T563 728T516 719Q496 719 479 723T447
733T421 743T400 748Q388 748 381 741T370 722H237ZM331 -12Q263 -12 207 5T111 58T50 145T28 269Q28 370 57 451T140 588T267 675T430 705Q499 705 555 688T651 635T712 547T734 424Q734 323 705 242T624 105T497 18T331 -12ZM354 174Q392 174 414 217T452 354Q456
375 458 402T461 451Q461 494 446 506T408 519Q393 519 379 511T353 481T330 426T310 339Q305 310 303 285T301 242Q301 221 305 208T316 187T333 177T354 174Z" />
<glyph unicode="&#xd6;" glyph-name="Odieresis" horiz-adv-x="730" d="M487 876H672L646 722H461L487 876ZM252 876H437L411 722H226L252 876ZM331 -12Q263 -12 207 5T111 58T50 145T28 269Q28 370 57 451T140 588T267 675T430 705Q499 705 555 688T651 635T712
547T734 424Q734 323 705 242T624 105T497 18T331 -12ZM354 174Q392 174 414 217T452 354Q456 375 458 402T461 451Q461 494 446 506T408 519Q393 519 379 511T353 481T330 426T310 339Q305 310 303 285T301 242Q301 221 305 208T316 187T333 177T354 174Z" />
<glyph unicode="&#xd7;" glyph-name="multiply" horiz-adv-x="555" d="M23 213L164 333L65 449L206 573L306 452L447 573L558 449L416 329L516 213L375 89L274 210L134 89L23 213Z" />
<glyph unicode="&#xd8;" glyph-name="Oslash" horiz-adv-x="730" d="M72 110Q28 177 28 269Q28 370 57 451T140 588T267 675T430 705Q484 705 530 693T613 658L647 693H790L687 588Q710 555 722 514T734 424Q734 323 705 242T624 105T497 18T331 -12Q275 -12 228
1T144 38L106 0H-37L72 110ZM351 168Q397 168 426 210T472 351L475 374L295 191Q306 177 321 173T351 168ZM291 342Q289 334 289 330L463 507Q452 518 439 521T411 525Q392 525 375 517T342 489T314 433T291 342Z" />
<glyph unicode="&#xd9;" glyph-name="Ugrave" horiz-adv-x="695" d="M281 876H494L521 722H355L281 876ZM322 -12Q168 -12 98 46T27 210Q27 227 28 245T34 283L106 693H370L295 265Q292 250 292 234Q292 209 306 193T353 177Q393 177 410 199T435 261L511 693H743L666
253Q654 184 630 134T566 51T465 4T322 -12Z" />
<glyph unicode="&#xda;" glyph-name="Uacute" horiz-adv-x="695" d="M422 874H645L521 722H345L422 874ZM322 -12Q168 -12 98 46T27 210Q27 227 28 245T34 283L106 693H370L295 265Q292 250 292 234Q292 209 306 193T353 177Q393 177 410 199T435 261L511 693H743L666
253Q654 184 630 134T566 51T465 4T322 -12Z" />
<glyph unicode="&#xdb;" glyph-name="Ucircumflex" horiz-adv-x="695" d="M367 864H551L631 722H474L443 756L400 722H233L367 864ZM322 -12Q168 -12 98 46T27 210Q27 227 28 245T34 283L106 693H370L295 265Q292 250 292 234Q292 209 306 193T353 177Q393 177
410 199T435 261L511 693H743L666 253Q654 184 630 134T566 51T465 4T322 -12Z" />
<glyph unicode="&#xdc;" glyph-name="Udieresis" horiz-adv-x="695" d="M322 -12Q168 -12 98 46T27 210Q27 227 28 245T34 283L106 693H370L295 265Q292 250 292 234Q292 209 306 193T353 177Q393 177 410 199T435 261L511 693H743L666 253Q654 184 630 134T566
51T465 4T322 -12ZM487 876H672L646 722H461L487 876ZM252 876H437L411 722H226L252 876Z" />
<glyph unicode="&#xdd;" glyph-name="Yacute" horiz-adv-x="668" d="M206 273L75 693H336L383 479H386L503 693H747L469 268L422 0H158L206 273ZM410 874H633L509 722H333L410 874Z" />
<glyph unicode="&#xde;" glyph-name="Thorn" horiz-adv-x="680" d="M112 693H376L358 593H423Q492 593 542 580T625 541T672 480T688 400Q688 266 611 195T364 124H276L254 0H-10L112 693ZM348 278Q392 278 410 304T428 374Q428 402 413 412T374 422H328L303 278H348Z" />
<glyph unicode="&#xdf;" glyph-name="germandbls" horiz-adv-x="697" d="M74 516Q85 580 115 624T192 696T301 736T438 749Q562 749 623 709T684 595Q684 563 673 538T644 493T606 458T569 431T540 408T528 389Q528 370 558 351L578 339Q628 309 652 276T677 192Q677
148 662 112T618 49T545 7T444 -8Q382 -8 336 0T260 22L285 168Q309 158 335 150T398 142Q448 142 448 168Q448 177 441 182T416 197L396 208Q351 233 330 261T309 328Q309 358 319 382T344 427T377 465T410 499T435 529T445 560Q445 576 433 586T400 596Q361 596
337 575T304 499L183 -195H-50L74 516Z" />
<glyph unicode="&#xe0;" glyph-name="agrave" horiz-adv-x="587" d="M161 -10Q86 -10 47 37T8 169Q8 268 37 340T115 460T230 531T370 555Q410 555 446 552T513 543T567 532T606 521L514 0H324L317 63H312Q285 32 247 11T161 -10ZM277 149Q290 149 298 154T311
165L351 390Q348 392 345 393T334 395Q302 395 283 366T252 263Q250 249 247 230T244 191Q244 171 250 160T277 149ZM230 739H443L474 577H308L230 739Z" />
<glyph unicode="&#xe1;" glyph-name="aacute" horiz-adv-x="587" d="M161 -10Q86 -10 47 37T8 169Q8 268 37 340T115 460T230 531T370 555Q410 555 446 552T513 543T567 532T606 521L514 0H324L317 63H312Q285 32 247 11T161 -10ZM277 149Q290 149 298 154T311
165L351 390Q348 392 345 393T334 395Q302 395 283 366T252 263Q250 249 247 230T244 191Q244 171 250 160T277 149ZM359 739H582L451 577H275L359 739Z" />
<glyph unicode="&#xe2;" glyph-name="acircumflex" horiz-adv-x="587" d="M161 -10Q86 -10 47 37T8 169Q8 268 37 340T115 460T230 531T370 555Q410 555 446 552T513 543T567 532T606 521L514 0H324L317 63H312Q285 32 247 11T161 -10ZM277 149Q290 149 298 154T311
165L351 390Q348 392 345 393T334 395Q302 395 283 366T252 263Q250 249 247 230T244 191Q244 171 250 160T277 149ZM320 739H504L580 577H422L393 620L348 577H182L320 739Z" />
<glyph unicode="&#xe3;" glyph-name="atilde" horiz-adv-x="587" d="M161 -10Q86 -10 47 37T8 169Q8 268 37 340T115 460T230 531T370 555Q410 555 446 552T513 543T567 532T606 521L514 0H324L317 63H312Q285 32 247 11T161 -10ZM277 149Q290 149 298 154T311
165L351 390Q348 392 345 393T334 395Q302 395 283 366T252 263Q250 249 247 230T244 191Q244 171 250 160T277 149ZM183 582Q191 627 206 658T241 709T284 738T332 747Q352 747 369 743T400 733T425 723T446 718Q458 718 465 725T476 744H609Q601 699 586 668T551
617T508 588T460 579Q440 579 423 583T392 593T367 603T346 608Q334 608 327 601T316 582H183Z" />
<glyph unicode="&#xe4;" glyph-name="adieresis" horiz-adv-x="587" d="M161 -10Q86 -10 47 37T8 169Q8 268 37 340T115 460T230 531T370 555Q410 555 446 552T513 543T567 532T606 521L514 0H324L317 63H312Q285 32 247 11T161 -10ZM277 149Q290 149 298 154T311
165L351 390Q348 392 345 393T334 395Q302 395 283 366T252 263Q250 249 247 230T244 191Q244 171 250 160T277 149ZM431 739H616L588 577H403L431 739ZM202 739H387L359 577H174L202 739Z" />
<glyph unicode="&#xe5;" glyph-name="aring" horiz-adv-x="587" d="M161 -10Q86 -10 47 37T8 169Q8 268 37 340T115 460T230 531T370 555Q410 555 446 552T513 543T567 532T606 521L514 0H324L317 63H312Q285 32 247 11T161 -10ZM277 149Q290 149 298 154T311
165L351 390Q348 392 345 393T334 395Q302 395 283 366T252 263Q250 249 247 230T244 191Q244 171 250 160T277 149ZM391 575Q360 575 336 585T295 611T270 648T261 691Q261 720 271 744T301 785T346 812T403 822Q434 822 458 813T499 787T524 750T533 706Q533
677 523 653T493 612T448 585T391 575ZM395 656Q414 656 425 668T436 701Q436 718 427 729T399 741Q380 741 369 729T358 696Q358 679 367 668T395 656Z" />
<glyph unicode="&#xe6;" glyph-name="ae" horiz-adv-x="828" d="M152 -10Q74 -10 31 25T-12 128Q-12 213 41 256T218 314L304 324L307 338Q313 367 296 377T226 387Q188 387 148 382T76 367L103 518Q152 537 201 546T305 555Q356 555 395 544T458 503Q484 528
521 541T612 555Q682 555 727 533T796 472T824 378T818 258L812 221H518Q519 202 524 189T542 166T574 153T626 148Q671 148 712 156T776 174L752 35Q733 26 714 18T672 4T619 -6T549 -10Q471 -10 417 9T331 67Q295 29 249 10T152 -10ZM290 151Q284 179 284 214V223L259
222Q235 221 224 208T212 162Q212 143 218 136T239 129Q265 129 290 151ZM585 408Q565 408 550 393T526 332H613Q621 370 616 389T585 408Z" />
<glyph unicode="&#xe7;" glyph-name="ccedilla" horiz-adv-x="469" d="M254 -10L250 -36Q304 -38 327 -58T350 -110Q350 -169 290 -198T94 -230L108 -152Q156 -149 179 -143T202 -120Q202 -110 191 -105T143 -97L160 2Q84 23 48 77T11 215Q11 277 26 330T69 426Q108
486 177 520T348 555Q401 555 438 546T496 525L468 369Q448 377 430 381T376 385Q322 385 291 366T250 293Q248 281 246 269T244 242Q244 203 265 182T334 160Q365 160 392 165T440 176L413 23Q405 18 393 12T363 1T320 -7T260 -10H254Z" />
<glyph unicode="&#xe8;" glyph-name="egrave" horiz-adv-x="554" d="M276 -10Q139 -10 75 50T11 214Q11 277 26 332T71 431Q110 488 173 521T324 555Q400 555 448 533T521 471T550 377T545 257L539 220H245Q246 201 251 188T269 165T301 152T353 148Q398 148 439
156T503 174L479 35Q460 26 441 18T399 4T346 -6T276 -10ZM312 408Q292 408 277 392T253 331H340Q348 369 343 388T312 408ZM174 739H387L418 577H252L174 739Z" />
<glyph unicode="&#xe9;" glyph-name="eacute" horiz-adv-x="554" d="M308 739H531L400 577H224L308 739ZM276 -10Q139 -10 75 50T11 214Q11 277 26 332T71 431Q110 488 173 521T324 555Q400 555 448 533T521 471T550 377T545 257L539 220H245Q246 201 251 188T269
165T301 152T353 148Q398 148 439 156T503 174L479 35Q460 26 441 18T399 4T346 -6T276 -10ZM312 408Q292 408 277 392T253 331H340Q348 369 343 388T312 408Z" />
<glyph unicode="&#xea;" glyph-name="ecircumflex" horiz-adv-x="554" d="M264 739H448L524 577H366L337 620L292 577H126L264 739ZM276 -10Q139 -10 75 50T11 214Q11 277 26 332T71 431Q110 488 173 521T324 555Q400 555 448 533T521 471T550 377T545 257L539
220H245Q246 201 251 188T269 165T301 152T353 148Q398 148 439 156T503 174L479 35Q460 26 441 18T399 4T346 -6T276 -10ZM312 408Q292 408 277 392T253 331H340Q348 369 343 388T312 408Z" />
<glyph unicode="&#xeb;" glyph-name="edieresis" horiz-adv-x="554" d="M375 739H560L532 577H347L375 739ZM146 739H331L303 577H118L146 739ZM276 -10Q139 -10 75 50T11 214Q11 277 26 332T71 431Q110 488 173 521T324 555Q400 555 448 533T521 471T550 377T545
257L539 220H245Q246 201 251 188T269 165T301 152T353 148Q398 148 439 156T503 174L479 35Q460 26 441 18T399 4T346 -6T276 -10ZM312 408Q292 408 277 392T253 331H340Q348 369 343 388T312 408Z" />
<glyph unicode="&#xec;" glyph-name="igrave" horiz-adv-x="295" d="M82 545H315L219 0H-14L82 545ZM310 739H523L554 577H388L310 739Z" />
<glyph unicode="&#xed;" glyph-name="iacute" horiz-adv-x="295" d="M439 739H662L531 577H355L439 739ZM82 545H315L219 0H-14L82 545Z" />
<glyph unicode="&#xee;" glyph-name="icircumflex" horiz-adv-x="295" d="M143 739H327L403 577H245L216 620L171 577H5L143 739ZM82 545H315L219 0H-14L82 545Z" />
<glyph unicode="&#xef;" glyph-name="idieresis" horiz-adv-x="295" d="M252 739H417L389 577H224L252 739ZM48 739H213L185 577H20L48 739ZM82 545H315L219 0H-14L82 545Z" />
<glyph unicode="&#xf0;" glyph-name="eth" horiz-adv-x="591" d="M490 639Q533 589 562 525T592 381Q592 291 573 219T513 96T410 18T263 -10Q194 -10 146 8T68 57T25 127T11 207Q11 282 29 342T81 445T160 511T262 534Q279 534 293 531T315 522H321Q302 558 279
587L132 551L112 630L217 656Q194 678 171 698T125 739H378Q389 731 400 723T422 706L531 733L550 654L490 639ZM357 377Q357 382 357 387T356 398Q346 403 329 403Q304 403 288 378T258 284Q247 229 247 195Q247 165 257 154T281 143Q291 143 300 148T317 166T332
202T345 262Q350 291 353 319T357 377Z" />
<glyph unicode="&#xf1;" glyph-name="ntilde" horiz-adv-x="600" d="M79 545H305L294 481H299Q334 515 378 535T471 555Q537 555 568 524T600 429Q600 400 594 366L529 0H296L353 322Q354 327 355 333T356 347Q356 377 326 377Q313 377 302 373T279 360L216 0H-17L79
545ZM161 582Q169 627 184 658T219 709T262 738T310 747Q330 747 347 743T378 733T403 723T424 718Q436 718 443 725T454 744H587Q579 699 564 668T529 617T486 588T438 579Q418 579 401 583T370 593T345 603T324 608Q312 608 305 601T294 582H161Z" />
<glyph unicode="&#xf2;" glyph-name="ograve" horiz-adv-x="594" d="M256 -10Q190 -10 143 8T67 57T24 127T10 208Q10 278 31 341T94 451T197 527T338 555Q404 555 452 537T531 488T576 418T591 338Q591 258 569 194T504 84T399 15T256 -10ZM280 143Q290 143 299
148T316 166T331 202T344 262Q349 291 352 312T355 351Q355 381 346 392T322 403Q302 403 286 378T257 284Q246 229 246 195Q246 165 256 154T280 143ZM191 739H404L435 577H269L191 739Z" />
<glyph unicode="&#xf3;" glyph-name="oacute" horiz-adv-x="594" d="M329 739H552L421 577H245L329 739ZM256 -10Q190 -10 143 8T67 57T24 127T10 208Q10 278 31 341T94 451T197 527T338 555Q404 555 452 537T531 488T576 418T591 338Q591 258 569 194T504 84T399
15T256 -10ZM280 143Q290 143 299 148T316 166T331 202T344 262Q349 291 352 312T355 351Q355 381 346 392T322 403Q302 403 286 378T257 284Q246 229 246 195Q246 165 256 154T280 143Z" />
<glyph unicode="&#xf4;" glyph-name="ocircumflex" horiz-adv-x="594" d="M290 739H474L550 577H392L363 620L318 577H152L290 739ZM256 -10Q190 -10 143 8T67 57T24 127T10 208Q10 278 31 341T94 451T197 527T338 555Q404 555 452 537T531 488T576 418T591 338Q591
258 569 194T504 84T399 15T256 -10ZM280 143Q290 143 299 148T316 166T331 202T344 262Q349 291 352 312T355 351Q355 381 346 392T322 403Q302 403 286 378T257 284Q246 229 246 195Q246 165 256 154T280 143Z" />
<glyph unicode="&#xf5;" glyph-name="otilde" horiz-adv-x="594" d="M256 -10Q190 -10 143 8T67 57T24 127T10 208Q10 278 31 341T94 451T197 527T338 555Q404 555 452 537T531 488T576 418T591 338Q591 258 569 194T504 84T399 15T256 -10ZM280 143Q290 143 299
148T316 166T331 202T344 262Q349 291 352 312T355 351Q355 381 346 392T322 403Q302 403 286 378T257 284Q246 229 246 195Q246 165 256 154T280 143ZM153 582Q161 627 176 658T211 709T254 738T302 747Q322 747 339 743T370 733T395 723T416 718Q428 718 435
725T446 744H579Q571 699 556 668T521 617T478 588T430 579Q410 579 393 583T362 593T337 603T316 608Q304 608 297 601T286 582H153Z" />
<glyph unicode="&#xf6;" glyph-name="odieresis" horiz-adv-x="594" d="M395 739H580L552 577H367L395 739ZM166 739H351L323 577H138L166 739ZM256 -10Q190 -10 143 8T67 57T24 127T10 208Q10 278 31 341T94 451T197 527T338 555Q404 555 452 537T531 488T576
418T591 338Q591 258 569 194T504 84T399 15T256 -10ZM280 143Q290 143 299 148T316 166T331 202T344 262Q349 291 352 312T355 351Q355 381 346 392T322 403Q302 403 286 378T257 284Q246 229 246 195Q246 165 256 154T280 143Z" />
<glyph unicode="&#xf7;" glyph-name="divide" horiz-adv-x="528" d="M50 433H540L510 259H20L50 433ZM154 227H364L331 41H121L154 227ZM229 651H439L406 465H196L229 651Z" />
<glyph unicode="&#xf8;" glyph-name="oslash" horiz-adv-x="594" d="M44 85Q26 112 18 144T10 208Q10 278 31 341T94 451T197 527T338 555Q384 555 421 546T487 520L512 545H635L552 463Q572 436 581 404T591 338Q591 258 569 194T504 84T399 15T256 -10Q208 -10
172 -1T106 26L81 1H-42L44 85ZM279 136Q294 136 307 140T330 158T349 196T365 258L369 284L235 153Q243 143 254 140T279 136ZM233 271L362 398Q349 410 323 410Q309 410 297 405T273 385T252 348T236 288L233 271Z" />
<glyph unicode="&#xf9;" glyph-name="ugrave" horiz-adv-x="599" d="M140 -10Q73 -10 41 24T9 122Q9 135 10 148T14 179L78 545H311L253 216Q250 199 250 189Q250 173 257 167T280 161Q293 161 303 165T324 178L389 545H622L526 0H328L319 65H314Q279 30 236 10T140
-10ZM203 739H416L447 577H281L203 739Z" />
<glyph unicode="&#xfa;" glyph-name="uacute" horiz-adv-x="599" d="M344 739H567L436 577H260L344 739ZM140 -10Q73 -10 41 24T9 122Q9 135 10 148T14 179L78 545H311L253 216Q250 199 250 189Q250 173 257 167T280 161Q293 161 303 165T324 178L389 545H622L526
0H328L319 65H314Q279 30 236 10T140 -10Z" />
<glyph unicode="&#xfb;" glyph-name="ucircumflex" horiz-adv-x="599" d="M293 739H477L553 577H395L366 620L321 577H155L293 739ZM140 -10Q73 -10 41 24T9 122Q9 135 10 148T14 179L78 545H311L253 216Q250 199 250 189Q250 173 257 167T280 161Q293 161 303
165T324 178L389 545H622L526 0H328L319 65H314Q279 30 236 10T140 -10Z" />
<glyph unicode="&#xfc;" glyph-name="udieresis" horiz-adv-x="599" d="M404 739H589L561 577H376L404 739ZM175 739H360L332 577H147L175 739ZM140 -10Q73 -10 41 24T9 122Q9 135 10 148T14 179L78 545H311L253 216Q250 199 250 189Q250 173 257 167T280 161Q293
161 303 165T324 178L389 545H622L526 0H328L319 65H314Q279 30 236 10T140 -10Z" />
<glyph unicode="&#xfd;" glyph-name="yacute" horiz-adv-x="595" d="M81 -198Q36 -198 4 -191T-45 -175L-18 -26Q-2 -30 16 -33T53 -36Q85 -36 101 -27T126 0L132 14L48 545H281L299 271H303L424 545H649L355 -15Q331 -61 306 -95T250 -152T177 -186T81 -198ZM343
739H566L435 577H259L343 739Z" />
<glyph unicode="&#xfe;" glyph-name="thorn" horiz-adv-x="601" d="M113 739H346L304 501H309Q324 513 339 523T370 540T406 551T451 555Q482 555 509 543T556 509T588 454T600 379Q600 278 578 205T516 84T424 13T311 -10Q286 -10 259 -7T216 5L181 -195H-51L113
739ZM276 143Q308 143 324 170T352 265Q354 279 356 297T358 330Q358 361 348 371T320 381Q307 381 299 377T281 366L242 149Q255 143 276 143Z" />
<glyph unicode="&#xff;" glyph-name="ydieresis" horiz-adv-x="595" d="M81 -198Q36 -198 4 -191T-45 -175L-18 -26Q-2 -30 16 -33T53 -36Q85 -36 101 -27T126 0L132 14L48 545H281L299 271H303L424 545H649L355 -15Q331 -61 306 -95T250 -152T177 -186T81 -198ZM409
739H594L566 577H381L409 739ZM180 739H365L337 577H152L180 739Z" />
<glyph unicode="&#x100;" glyph-name="Amacron" horiz-adv-x="725" d="M304 693H590L685 0H423L415 97H228L186 0H-50L304 693ZM297 255H401L385 446H380L297 255ZM304 864H638L613 722H279L304 864Z" />
<glyph unicode="&#x101;" glyph-name="amacron" horiz-adv-x="587" d="M161 -10Q86 -10 47 37T8 169Q8 268 37 340T115 460T230 531T370 555Q410 555 446 552T513 543T567 532T606 521L514 0H324L317 63H312Q285 32 247 11T161 -10ZM277 149Q290 149 298 154T311
165L351 390Q348 392 345 393T334 395Q302 395 283 366T252 263Q250 249 247 230T244 191Q244 171 250 160T277 149ZM249 719H563L538 577H224L249 719Z" />
<glyph unicode="&#x102;" glyph-name="Abreve" horiz-adv-x="725" d="M304 693H590L685 0H423L415 97H228L186 0H-50L304 693ZM297 255H401L385 446H380L297 255ZM456 718Q372 718 327 759T284 866H427Q427 835 459 835Q490 835 497 866H640Q632 801 587 760T456 718Z" />
<glyph unicode="&#x103;" glyph-name="abreve" horiz-adv-x="587" d="M161 -10Q86 -10 47 37T8 169Q8 268 37 340T115 460T230 531T370 555Q410 555 446 552T513 543T567 532T606 521L514 0H324L317 63H312Q285 32 247 11T161 -10ZM277 149Q290 149 298 154T311
165L351 390Q348 392 345 393T334 395Q302 395 283 366T252 263Q250 249 247 230T244 191Q244 171 250 160T277 149ZM389 581Q305 581 263 625T223 739H366Q366 708 398 708Q429 708 436 739H579Q571 669 523 625T389 581Z" />
<glyph unicode="&#x104;" glyph-name="Aogonek" horiz-adv-x="725" d="M551 -199Q519 -199 497 -192T461 -173T441 -146T434 -115Q434 -94 442 -77T465 -46T497 -21T536 0H423L415 97H228L186 0H-50L304 693H590L684 7Q654 -7 637 -24T620 -59Q620 -76 643 -76Q647
-76 653 -76T665 -74L646 -182Q632 -189 607 -194T551 -199ZM297 255H401L385 446H380L297 255Z" />
<glyph unicode="&#x105;" glyph-name="aogonek" horiz-adv-x="587" d="M389 -199Q357 -199 335 -192T299 -173T279 -146T272 -115Q272 -93 281 -76T307 -44T344 -19T388 0H324L317 63H312Q285 32 247 11T161 -10Q86 -10 47 37T8 169Q8 268 37 340T115 460T230
531T370 555Q410 555 446 552T513 543T567 532T606 521L515 6Q489 -11 474 -26T458 -59Q458 -76 481 -76Q485 -76 491 -76T503 -74L484 -182Q470 -189 445 -194T389 -199ZM277 149Q290 149 298 154T311 165L351 390Q348 392 345 393T334 395Q302 395 283 366T252
263Q250 249 247 230T244 191Q244 171 250 160T277 149Z" />
<glyph unicode="&#x106;" glyph-name="Cacute" horiz-adv-x="568" d="M337 -10Q188 -10 107 59T26 270Q26 368 52 448T126 583Q183 649 263 677T441 705Q508 705 549 697T616 675L584 496Q562 504 536 508T469 512Q400 512 365 482T315 392Q308 363 305 338T301
281Q301 225 331 203T409 181Q451 181 485 188T542 202L510 20Q484 8 444 -1T337 -10ZM383 874H606L482 722H306L383 874Z" />
<glyph unicode="&#x107;" glyph-name="cacute" horiz-adv-x="469" d="M319 739H542L411 577H235L319 739ZM260 -10Q133 -10 72 49T11 215Q11 277 26 330T69 426Q108 486 177 520T348 555Q401 555 438 546T496 525L468 369Q448 377 430 381T376 385Q322 385 291
366T250 293Q248 281 246 269T244 242Q244 203 265 182T334 160Q365 160 392 165T440 176L413 23Q405 18 393 12T363 1T320 -7T260 -10Z" />
<glyph unicode="&#x108;" glyph-name="Ccircumflex" horiz-adv-x="568" d="M342 864H526L606 722H449L418 756L375 722H208L342 864ZM337 -10Q188 -10 107 59T26 270Q26 368 52 448T126 583Q183 649 263 677T441 705Q508 705 549 697T616 675L584 496Q562 504
536 508T469 512Q400 512 365 482T315 392Q308 363 305 338T301 281Q301 225 331 203T409 181Q451 181 485 188T542 202L510 20Q484 8 444 -1T337 -10Z" />
<glyph unicode="&#x109;" glyph-name="ccircumflex" horiz-adv-x="469" d="M260 739H444L520 577H362L333 620L288 577H122L260 739ZM260 -10Q133 -10 72 49T11 215Q11 277 26 330T69 426Q108 486 177 520T348 555Q401 555 438 546T496 525L468 369Q448 377 430
381T376 385Q322 385 291 366T250 293Q248 281 246 269T244 242Q244 203 265 182T334 160Q365 160 392 165T440 176L413 23Q405 18 393 12T363 1T320 -7T260 -10Z" />
<glyph unicode="&#x10a;" glyph-name="Cdotaccent" horiz-adv-x="568" d="M337 -10Q188 -10 107 59T26 270Q26 368 52 448T126 583Q183 649 263 677T441 705Q508 705 549 697T616 675L584 496Q562 504 536 508T469 512Q400 512 365 482T315 392Q308 363 305 338T301
281Q301 225 331 203T409 181Q451 181 485 188T542 202L510 20Q484 8 444 -1T337 -10ZM324 876H559L532 722H297L324 876Z" />
<glyph unicode="&#x10b;" glyph-name="cdotaccent" horiz-adv-x="469" d="M260 -10Q133 -10 72 49T11 215Q11 277 26 330T69 426Q108 486 177 520T348 555Q401 555 438 546T496 525L468 369Q448 377 430 381T376 385Q322 385 291 366T250 293Q248 281 246 269T244
242Q244 203 265 182T334 160Q365 160 392 165T440 176L413 23Q405 18 393 12T363 1T320 -7T260 -10ZM232 739H467L439 577H204L232 739Z" />
<glyph unicode="&#x10c;" glyph-name="Ccaron" horiz-adv-x="568" d="M502 722H318L238 864H395L426 830L469 864H636L502 722ZM337 -10Q188 -10 107 59T26 270Q26 368 52 448T126 583Q183 649 263 677T441 705Q508 705 549 697T616 675L584 496Q562 504 536 508T469
512Q400 512 365 482T315 392Q308 363 305 338T301 281Q301 225 331 203T409 181Q451 181 485 188T542 202L510 20Q484 8 444 -1T337 -10Z" />
<glyph unicode="&#x10d;" glyph-name="ccaron" horiz-adv-x="469" d="M152 739H310L339 696L384 739H550L412 577H228L152 739ZM260 -10Q133 -10 72 49T11 215Q11 277 26 330T69 426Q108 486 177 520T348 555Q401 555 438 546T496 525L468 369Q448 377 430 381T376
385Q322 385 291 366T250 293Q248 281 246 269T244 242Q244 203 265 182T334 160Q365 160 392 165T440 176L413 23Q405 18 393 12T363 1T320 -7T260 -10Z" />
<glyph unicode="&#x10e;" glyph-name="Dcaron" horiz-adv-x="706" d="M496 722H312L232 864H389L420 830L463 864H630L496 722ZM112 693H381Q550 693 630 627T710 426Q710 337 688 260T619 125T496 34T314 0H-10L112 693ZM319 177Q363 177 388 215T429 339Q434
367 436 393T439 437Q439 484 421 500T368 516H344L284 177H319Z" />
<glyph unicode="&#x10f;" glyph-name="dcaron" horiz-adv-x="600" d="M657 574L691 739H835L775 574H657ZM165 -10Q87 -10 48 37T8 169Q8 268 33 340T99 460T193 531T302 555Q342 555 361 549T389 539L424 739H657L527 0H337L330 63H325Q298 32 254 11T165 -10ZM279
149Q294 149 305 154T324 165L364 395Q358 399 352 401T330 404Q298 404 281 372T251 263Q249 249 247 231T244 198Q244 175 251 162T279 149Z" />
<glyph unicode="&#x110;" glyph-name="Dcroat" horiz-adv-x="711" d="M34 431H71L117 693H386Q555 693 635 627T715 426Q715 337 693 260T624 125T501 34T319 0H-5L41 263H4L34 431ZM324 177Q368 177 393 215T434 339Q439 367 441 393T444 437Q444 484 426 500T373
516H345L330 431H401L371 263H300L285 177H324Z" />
<glyph unicode="&#x111;" glyph-name="dcroat" horiz-adv-x="600" d="M289 684H414L424 739H657L647 684H695L679 591H631L527 0H337L330 63H325Q298 32 254 11T165 -10Q87 -10 48 37T8 169Q8 268 33 340T99 460T193 531T302 555Q342 555 361 549T389 539L398
591H273L289 684ZM279 149Q294 149 305 154T324 165L364 395Q358 399 352 401T330 404Q298 404 281 372T251 263Q249 249 247 231T244 198Q244 175 251 162T279 149Z" />
<glyph unicode="&#x112;" glyph-name="Emacron" horiz-adv-x="569" d="M112 693H615L583 513H341L328 439H515L484 263H297L282 180H539L507 0H-10L112 693ZM229 864H563L538 722H204L229 864Z" />
<glyph unicode="&#x113;" glyph-name="emacron" horiz-adv-x="554" d="M276 -10Q139 -10 75 50T11 214Q11 277 26 332T71 431Q110 488 173 521T324 555Q400 555 448 533T521 471T550 377T545 257L539 220H245Q246 201 251 188T269 165T301 152T353 148Q398 148
439 156T503 174L479 35Q460 26 441 18T399 4T346 -6T276 -10ZM312 408Q292 408 277 392T253 331H340Q348 369 343 388T312 408ZM193 719H507L482 577H168L193 719Z" />
<glyph unicode="&#x114;" glyph-name="Ebreve" horiz-adv-x="569" d="M112 693H615L583 513H341L328 439H515L484 263H297L282 180H539L507 0H-10L112 693ZM375 718Q291 718 246 759T203 866H346Q346 835 378 835Q409 835 416 866H559Q551 801 506 760T375 718Z" />
<glyph unicode="&#x115;" glyph-name="ebreve" horiz-adv-x="554" d="M276 -10Q139 -10 75 50T11 214Q11 277 26 332T71 431Q110 488 173 521T324 555Q400 555 448 533T521 471T550 377T545 257L539 220H245Q246 201 251 188T269 165T301 152T353 148Q398 148
439 156T503 174L479 35Q460 26 441 18T399 4T346 -6T276 -10ZM312 408Q292 408 277 392T253 331H340Q348 369 343 388T312 408ZM329 581Q245 581 203 625T163 739H306Q306 708 338 708Q369 708 376 739H519Q511 669 463 625T329 581Z" />
<glyph unicode="&#x116;" glyph-name="Edotaccent" horiz-adv-x="569" d="M287 876H522L495 722H260L287 876ZM112 693H615L583 513H341L328 439H515L484 263H297L282 180H539L507 0H-10L112 693Z" />
<glyph unicode="&#x117;" glyph-name="edotaccent" horiz-adv-x="554" d="M276 -10Q139 -10 75 50T11 214Q11 277 26 332T71 431Q110 488 173 521T324 555Q400 555 448 533T521 471T550 377T545 257L539 220H245Q246 201 251 188T269 165T301 152T353 148Q398
148 439 156T503 174L479 35Q460 26 441 18T399 4T346 -6T276 -10ZM312 408Q292 408 277 392T253 331H340Q348 369 343 388T312 408ZM236 739H471L443 577H208L236 739Z" />
<glyph unicode="&#x118;" glyph-name="Eogonek" horiz-adv-x="569" d="M112 693H615L583 513H341L328 439H515L484 263H297L282 180H539L507 0H459Q439 -13 424 -27T409 -59Q409 -76 432 -76Q436 -76 442 -76T454 -74L435 -182Q421 -189 396 -194T340 -199Q308
-199 286 -192T250 -173T230 -146T223 -115Q223 -74 253 -46T325 0H-10L112 693Z" />
<glyph unicode="&#x119;" glyph-name="eogonek" horiz-adv-x="554" d="M260 -10Q131 -6 71 53T11 214Q11 277 26 332T71 431Q110 488 173 521T324 555Q400 555 448 533T521 471T550 377T545 257L539 220H245Q246 201 251 188T269 165T301 152T353 148Q398 148
439 156T503 174L479 35Q457 24 436 16T400 -2Q378 -16 364 -29T350 -59Q350 -76 373 -76Q377 -76 383 -76T395 -74L376 -182Q362 -189 337 -194T281 -199Q249 -199 227 -192T191 -173T171 -146T164 -115Q164 -76 192 -52T260 -10ZM312 408Q292 408 277 392T253
331H340Q348 369 343 388T312 408Z" />
<glyph unicode="&#x11a;" glyph-name="Ecaron" horiz-adv-x="569" d="M463 722H279L199 864H356L387 830L430 864H597L463 722ZM112 693H615L583 513H341L328 439H515L484 263H297L282 180H539L507 0H-10L112 693Z" />
<glyph unicode="&#x11b;" glyph-name="ecaron" horiz-adv-x="554" d="M155 739H313L342 696L387 739H553L415 577H231L155 739ZM276 -10Q139 -10 75 50T11 214Q11 277 26 332T71 431Q110 488 173 521T324 555Q400 555 448 533T521 471T550 377T545 257L539 220H245Q246
201 251 188T269 165T301 152T353 148Q398 148 439 156T503 174L479 35Q460 26 441 18T399 4T346 -6T276 -10ZM312 408Q292 408 277 392T253 331H340Q348 369 343 388T312 408Z" />
<glyph unicode="&#x11c;" glyph-name="Gcircumflex" horiz-adv-x="692" d="M368 864H552L632 722H475L444 756L401 722H234L368 864ZM365 -10Q195 -10 113 58T31 271Q31 370 59 448T127 578Q183 648 267 676T454 705Q503 705 539 701T602 691T648 676T681 660L649
474Q619 486 576 497T470 509Q398 509 362 475T311 372Q306 344 301 312T296 248Q296 207 318 188T370 169Q384 169 391 170T407 175L418 238H371L399 399H688L623 29Q577 13 510 2T365 -10Z" />
<glyph unicode="&#x11d;" glyph-name="gcircumflex" horiz-adv-x="602" d="M318 739H502L578 577H420L391 620L346 577H180L318 739ZM205 -203Q170 -203 136 -200T71 -190T15 -175T-27 -157L1 -2Q81 -33 170 -33Q211 -33 236 -27T276 -8T297 20T307 57L310 75H305Q279
49 249 35T172 21Q92 21 53 70T13 198Q13 277 34 343T100 456T212 529T374 555Q414 555 451 551T521 542T578 529T620 516L538 47Q526 -24 500 -72T433 -149T335 -190T205 -203ZM282 166Q295 166 309 171T329 182L367 395Q362 397 353 399T336 401Q310 401 290
377T258 290Q255 273 253 257T251 219Q251 198 258 182T282 166Z" />
<glyph unicode="&#x11e;" glyph-name="Gbreve" horiz-adv-x="692" d="M444 718Q360 718 315 759T272 866H415Q415 835 447 835Q478 835 485 866H628Q620 801 575 760T444 718ZM365 -10Q195 -10 113 58T31 271Q31 370 59 448T127 578Q183 648 267 676T454 705Q503
705 539 701T602 691T648 676T681 660L649 474Q619 486 576 497T470 509Q398 509 362 475T311 372Q306 344 301 312T296 248Q296 207 318 188T370 169Q384 169 391 170T407 175L418 238H371L399 399H688L623 29Q577 13 510 2T365 -10Z" />
<glyph unicode="&#x11f;" glyph-name="gbreve" horiz-adv-x="602" d="M205 -203Q170 -203 136 -200T71 -190T15 -175T-27 -157L1 -2Q81 -33 170 -33Q211 -33 236 -27T276 -8T297 20T307 57L310 75H305Q279 49 249 35T172 21Q92 21 53 70T13 198Q13 277 34 343T100
456T212 529T374 555Q414 555 451 551T521 542T578 529T620 516L538 47Q526 -24 500 -72T433 -149T335 -190T205 -203ZM282 166Q295 166 309 171T329 182L367 395Q362 397 353 399T336 401Q310 401 290 377T258 290Q255 273 253 257T251 219Q251 198 258 182T282
166ZM387 581Q303 581 261 625T221 739H364Q364 708 396 708Q427 708 434 739H577Q569 669 521 625T387 581Z" />
<glyph unicode="&#x120;" glyph-name="Gdotaccent" horiz-adv-x="692" d="M346 876H581L554 722H319L346 876ZM365 -10Q195 -10 113 58T31 271Q31 370 59 448T127 578Q183 648 267 676T454 705Q503 705 539 701T602 691T648 676T681 660L649 474Q619 486 576 497T470
509Q398 509 362 475T311 372Q306 344 301 312T296 248Q296 207 318 188T370 169Q384 169 391 170T407 175L418 238H371L399 399H688L623 29Q577 13 510 2T365 -10Z" />
<glyph unicode="&#x121;" glyph-name="gdotaccent" horiz-adv-x="602" d="M205 -203Q170 -203 136 -200T71 -190T15 -175T-27 -157L1 -2Q81 -33 170 -33Q211 -33 236 -27T276 -8T297 20T307 57L310 75H305Q279 49 249 35T172 21Q92 21 53 70T13 198Q13 277 34
343T100 456T212 529T374 555Q414 555 451 551T521 542T578 529T620 516L538 47Q526 -24 500 -72T433 -149T335 -190T205 -203ZM282 166Q295 166 309 171T329 182L367 395Q362 397 353 399T336 401Q310 401 290 377T258 290Q255 273 253 257T251 219Q251 198 258
182T282 166ZM290 739H525L497 577H262L290 739Z" />
<glyph unicode="&#x122;" glyph-name="Gcommaaccent" horiz-adv-x="692" d="M227 -31H422L346 -182H190L227 -31ZM365 -10Q195 -10 113 58T31 271Q31 370 59 448T127 578Q183 648 267 676T454 705Q503 705 539 701T602 691T648 676T681 660L649 474Q619 486 576
497T470 509Q398 509 362 475T311 372Q306 344 301 312T296 248Q296 207 318 188T370 169Q384 169 391 170T407 175L418 238H371L399 399H688L623 29Q577 13 510 2T365 -10Z" />
<glyph unicode="&#x123;" glyph-name="gcommaaccent" horiz-adv-x="602" d="M468 577H273L349 728H505L468 577ZM205 -203Q170 -203 136 -200T71 -190T15 -175T-27 -157L1 -2Q81 -33 170 -33Q211 -33 236 -27T276 -8T297 20T307 57L310 75H305Q279 49 249 35T172
21Q92 21 53 70T13 198Q13 277 34 343T100 456T212 529T374 555Q414 555 451 551T521 542T578 529T620 516L538 47Q526 -24 500 -72T433 -149T335 -190T205 -203ZM282 166Q295 166 309 171T329 182L367 395Q362 397 353 399T336 401Q310 401 290 377T258 290Q255
273 253 257T251 219Q251 198 258 182T282 166Z" />
<glyph unicode="&#x124;" glyph-name="Hcircumflex" horiz-adv-x="739" d="M112 693H376L332 445H473L517 693H781L658 0H394L441 263H300L253 0H-10L112 693ZM383 864H567L647 722H490L459 756L416 722H249L383 864Z" />
<glyph unicode="&#x125;" glyph-name="hcircumflex" horiz-adv-x="600" d="M113 739H346L303 492H308Q340 521 381 538T470 555Q539 555 569 524T600 429Q600 400 594 366L529 0H296L353 322Q354 327 355 333T356 347Q356 377 326 377Q313 377 302 373T279 360L216
0H-17L113 739ZM326 909H510L590 767H433L402 801L359 767H192L326 909Z" />
<glyph unicode="&#x126;" glyph-name="Hbar" horiz-adv-x="739" d="M55 605H96L112 693H376L360 605H501L517 693H781L765 605H806L787 504H747L658 0H394L441 263H300L253 0H-10L78 504H36L55 605ZM472 437L484 504H343L331 437H472Z" />
<glyph unicode="&#x127;" glyph-name="hbar" horiz-adv-x="600" d="M56 684H103L113 739H346L336 684H462L446 591H320L303 492H308Q340 521 381 538T470 555Q539 555 569 524T600 429Q600 400 594 366L529 0H296L353 322Q354 327 355 333T356 347Q356 377 326
377Q313 377 302 373T279 360L216 0H-17L87 591H40L56 684Z" />
<glyph unicode="&#x128;" glyph-name="Itilde" horiz-adv-x="338" d="M114 693H378L255 0H-8L114 693ZM310 722Q318 765 332 795T366 843T409 870T456 879Q476 879 493 875T525 865T551 855T572 850Q584 850 591 857T602 876H735Q727 833 713 803T679 755T636
728T589 719Q569 719 552 723T520 733T494 743T473 748Q461 748 454 741T443 722H310Z" />
<glyph unicode="&#x129;" glyph-name="itilde" horiz-adv-x="295" d="M21 582Q28 627 42 658T75 709T115 738T159 747Q178 747 193 743T221 733T244 724T262 719Q282 719 290 744H416Q409 699 395 668T362 617T322 588T278 579Q259 579 244 583T215 593T192 602T175
607Q155 607 147 582H21ZM82 545H315L219 0H-14L82 545Z" />
<glyph unicode="&#x12a;" glyph-name="Imacron" horiz-adv-x="338" d="M114 693H378L255 0H-8L114 693ZM110 864H444L419 722H85L110 864Z" />
<glyph unicode="&#x12b;" glyph-name="imacron" horiz-adv-x="295" d="M82 719H376L351 577H57L82 719ZM82 545H315L219 0H-14L82 545Z" />
<glyph unicode="&#x12c;" glyph-name="Ibreve" horiz-adv-x="338" d="M114 693H378L255 0H-8L114 693ZM519 718Q435 718 390 759T347 866H490Q490 835 522 835Q553 835 560 866H703Q695 801 650 760T519 718Z" />
<glyph unicode="&#x12d;" glyph-name="ibreve" horiz-adv-x="295" d="M212 581Q131 581 91 625T52 739H189Q189 708 221 708Q252 708 259 739H396Q388 669 342 625T212 581ZM82 545H315L219 0H-14L82 545Z" />
<glyph unicode="&#x12e;" glyph-name="Iogonek" horiz-adv-x="338" d="M114 693H378L255 2Q224 -9 208 -25T191 -59Q191 -76 214 -76Q218 -76 224 -76T236 -74L217 -182Q203 -189 178 -194T122 -199Q90 -199 68 -192T32 -173T12 -146T5 -115Q5 -94 14 -77T38 -45T72
-20T113 0H-8L114 693Z" />
<glyph unicode="&#x12f;" glyph-name="iogonek" horiz-adv-x="295" d="M115 739H350L322 577H87L115 739ZM-14 0L82 545H315L220 6Q194 -11 179 -26T163 -59Q163 -76 186 -76Q190 -76 196 -76T208 -74L189 -182Q175 -189 150 -194T94 -199Q62 -199 40 -192T4 -173T-16
-146T-23 -115Q-23 -93 -14 -76T12 -44T49 -19T93 0H-14Z" />
<glyph unicode="&#x130;" glyph-name="Idotaccent" horiz-adv-x="338" d="M114 693H378L255 0H-8L114 693ZM418 876H653L626 722H391L418 876Z" />
<glyph unicode="&#x131;" glyph-name="dotlessi" horiz-adv-x="295" d="M82 545H315L219 0H-14L82 545Z" />
<glyph unicode="&#x132;" glyph-name="IJ" horiz-adv-x="782" d="M114 693H378L255 0H-8L114 693ZM480 -8Q423 -8 379 2T310 27L340 197Q351 195 368 193T400 190Q422 190 437 194T462 207T478 231T488 268L564 693H828L755 273Q742 199 722 146T670 59T592 8T480 -8Z" />
<glyph unicode="&#x133;" glyph-name="ij" horiz-adv-x="590" d="M82 545H315L219 0H-14L82 545ZM115 739H350L322 577H87L115 739ZM269 -197Q231 -197 200 -189T154 -174L181 -33Q186 -34 195 -35T218 -37Q248 -37 263 -28T283 10L377 545H610L513 -6Q505 -50
489 -85T445 -145T373 -183T269 -197ZM410 739H645L617 577H382L410 739Z" />
<glyph unicode="&#x134;" glyph-name="Jcircumflex" horiz-adv-x="444" d="M290 864H474L554 722H397L366 756L323 722H156L290 864ZM142 -8Q85 -8 41 2T-28 27L2 197Q13 195 30 193T62 190Q84 190 99 194T124 207T140 231T150 268L226 693H490L417 273Q404 199
384 146T332 59T254 8T142 -8Z" />
<glyph unicode="&#x135;" glyph-name="jcircumflex" horiz-adv-x="295" d="M143 739H327L403 577H245L216 620L171 577H5L143 739ZM-26 -197Q-64 -197 -95 -189T-141 -174L-114 -33Q-109 -34 -100 -35T-77 -37Q-47 -37 -32 -28T-12 10L82 545H315L218 -6Q210 -50
194 -85T150 -145T78 -183T-26 -197Z" />
<glyph unicode="&#x136;" glyph-name="Kcommaaccent" horiz-adv-x="711" d="M216 -31H411L335 -182H179L216 -31ZM328 424L528 693H791L537 348L673 0H398L302 274L254 0H-10L112 693H376L328 424Z" />
<glyph unicode="&#x137;" glyph-name="kcommaaccent" horiz-adv-x="606" d="M154 -31H349L273 -182H117L154 -31ZM275 338L419 545H652L461 279L563 0H326L255 228L215 0H-17L113 739H346L275 338Z" />
<glyph unicode="&#x139;" glyph-name="Lacute" horiz-adv-x="543" d="M215 874H438L314 722H138L215 874ZM112 693H376L285 180H520L488 0H-10L112 693Z" />
<glyph unicode="&#x13a;" glyph-name="lacute" horiz-adv-x="293" d="M215 919H438L314 767H138L215 919ZM115 739H348L218 0H-15L115 739Z" />
<glyph unicode="&#x13b;" glyph-name="Lcommaaccent" horiz-adv-x="543" d="M133 -31H328L252 -182H96L133 -31ZM112 693H376L285 180H520L488 0H-10L112 693Z" />
<glyph unicode="&#x13c;" glyph-name="lcommaaccent" horiz-adv-x="293" d="M256 -31H451L375 -182H219L256 -31ZM115 739H348L218 0H-15L115 739Z" />
<glyph unicode="&#x13d;" glyph-name="Lcaron" horiz-adv-x="551" d="M111 693H375L284 180H519L488 0H-11L111 693ZM377 501L419 693H593L525 501H377Z" />
<glyph unicode="&#x13e;" glyph-name="lcaron" horiz-adv-x="293" d="M348 574L382 739H526L466 574H348ZM115 739H348L218 0H-15L115 739Z" />
<glyph unicode="&#x13f;" glyph-name="Ldot" horiz-adv-x="543" d="M112 693H376L285 180H520L488 0H-10L112 693ZM385 452H566L538 292H357L385 452Z" />
<glyph unicode="&#x140;" glyph-name="ldot" horiz-adv-x="459" d="M115 739H348L218 0H-15L115 739ZM325 433H488L463 286H300L325 433Z" />
<glyph unicode="&#x141;" glyph-name="Lslash" horiz-adv-x="559" d="M41 203L-7 188L23 358L71 373L127 693H391L351 465L510 517L480 347L320 295L300 180H536L504 0H5L41 203Z" />
<glyph unicode="&#x142;" glyph-name="lslash" horiz-adv-x="325" d="M24 378L71 399L131 739H364L324 512L379 537L349 367L294 342L234 0H1L41 229L-6 208L24 378Z" />
<glyph unicode="&#x143;" glyph-name="Nacute" horiz-adv-x="714" d="M414 874H637L513 722H337L414 874ZM112 693H388L477 386H481L535 693H755L633 0H381L274 341H270L210 0H-10L112 693Z" />
<glyph unicode="&#x144;" glyph-name="nacute" horiz-adv-x="600" d="M337 739H560L429 577H253L337 739ZM79 545H305L294 481H299Q334 515 378 535T471 555Q537 555 568 524T600 429Q600 400 594 366L529 0H296L353 322Q354 327 355 333T356 347Q356 377 326
377Q313 377 302 373T279 360L216 0H-17L79 545Z" />
<glyph unicode="&#x145;" glyph-name="Ncommaaccent" horiz-adv-x="714" d="M206 -31H401L325 -182H169L206 -31ZM112 693H388L477 386H481L535 693H755L633 0H381L274 341H270L210 0H-10L112 693Z" />
<glyph unicode="&#x146;" glyph-name="ncommaaccent" horiz-adv-x="600" d="M155 -31H350L274 -182H118L155 -31ZM79 545H305L294 481H299Q334 515 378 535T471 555Q537 555 568 524T600 429Q600 400 594 366L529 0H296L353 322Q354 327 355 333T356 347Q356 377
326 377Q313 377 302 373T279 360L216 0H-17L79 545Z" />
<glyph unicode="&#x147;" glyph-name="Ncaron" horiz-adv-x="714" d="M542 722H358L278 864H435L466 830L509 864H676L542 722ZM112 693H388L477 386H481L535 693H755L633 0H381L274 341H270L210 0H-10L112 693Z" />
<glyph unicode="&#x148;" glyph-name="ncaron" horiz-adv-x="600" d="M196 739H354L383 696L428 739H594L456 577H272L196 739ZM79 545H305L294 481H299Q334 515 378 535T471 555Q537 555 568 524T600 429Q600 400 594 366L529 0H296L353 322Q354 327 355 333T356
347Q356 377 326 377Q313 377 302 373T279 360L216 0H-17L79 545Z" />
<glyph unicode="&#x149;" glyph-name="napostrophe" horiz-adv-x="724" d="M273 693H480L399 452H226L273 693ZM203 545H429L418 481H423Q458 515 502 535T595 555Q661 555 692 524T724 429Q724 400 718 366L653 0H420L477 322Q478 327 479 333T480 347Q480 377
450 377Q437 377 426 373T403 360L340 0H107L203 545Z" />
<glyph unicode="&#x14a;" glyph-name="Eng" horiz-adv-x="714" d="M112 693H388L482 412H486L535 693H755L639 32Q630 -18 612 -57T564 -122T488 -163T382 -177Q330 -177 298 -170T247 -154L272 -14Q280 -16 294 -18T332 -20Q359 -20 376 -15T404 3L274 341H270L210
0H-10L112 693Z" />
<glyph unicode="&#x14b;" glyph-name="eng" horiz-adv-x="600" d="M528 -6Q520 -50 504 -85T461 -145T395 -183T301 -197Q254 -197 222 -190T176 -174L202 -37Q208 -39 215 -40T237 -41Q263 -41 278 -30T298 10L353 322Q354 327 355 333T356 347Q356 377 326 377Q313
377 302 373T279 360L216 0H-17L79 545H305L294 481H299Q334 515 379 535T478 555Q600 555 600 429Q600 400 594 366L528 -6Z" />
<glyph unicode="&#x14c;" glyph-name="Omacron" horiz-adv-x="730" d="M294 864H628L603 722H269L294 864ZM331 -12Q263 -12 207 5T111 58T50 145T28 269Q28 370 57 451T140 588T267 675T430 705Q499 705 555 688T651 635T712 547T734 424Q734 323 705 242T624
105T497 18T331 -12ZM354 174Q392 174 414 217T452 354Q456 375 458 402T461 451Q461 494 446 506T408 519Q393 519 379 511T353 481T330 426T310 339Q305 310 303 285T301 242Q301 221 305 208T316 187T333 177T354 174Z" />
<glyph unicode="&#x14d;" glyph-name="omacron" horiz-adv-x="594" d="M219 719H533L508 577H194L219 719ZM256 -10Q190 -10 143 8T67 57T24 127T10 208Q10 278 31 341T94 451T197 527T338 555Q404 555 452 537T531 488T576 418T591 338Q591 258 569 194T504 84T399
15T256 -10ZM280 143Q290 143 299 148T316 166T331 202T344 262Q349 291 352 312T355 351Q355 381 346 392T322 403Q302 403 286 378T257 284Q246 229 246 195Q246 165 256 154T280 143Z" />
<glyph unicode="&#x14e;" glyph-name="Obreve" horiz-adv-x="730" d="M442 718Q358 718 313 759T270 866H413Q413 835 445 835Q476 835 483 866H626Q618 801 573 760T442 718ZM331 -12Q263 -12 207 5T111 58T50 145T28 269Q28 370 57 451T140 588T267 675T430
705Q499 705 555 688T651 635T712 547T734 424Q734 323 705 242T624 105T497 18T331 -12ZM354 174Q392 174 414 217T452 354Q456 375 458 402T461 451Q461 494 446 506T408 519Q393 519 379 511T353 481T330 426T310 339Q305 310 303 285T301 242Q301 221 305 208T316
187T333 177T354 174Z" />
<glyph unicode="&#x14f;" glyph-name="obreve" horiz-adv-x="594" d="M256 -10Q190 -10 143 8T67 57T24 127T10 208Q10 278 31 341T94 451T197 527T338 555Q404 555 452 537T531 488T576 418T591 338Q591 258 569 194T504 84T399 15T256 -10ZM280 143Q290 143
299 148T316 166T331 202T344 262Q349 291 352 312T355 351Q355 381 346 392T322 403Q302 403 286 378T257 284Q246 229 246 195Q246 165 256 154T280 143ZM359 581Q275 581 233 625T193 739H336Q336 708 368 708Q399 708 406 739H549Q541 669 493 625T359 581Z"
/>
<glyph unicode="&#x150;" glyph-name="Ohungarumlaut" horiz-adv-x="730" d="M525 876H723L639 722H466L525 876ZM295 876H493L409 722H236L295 876ZM331 -12Q263 -12 207 5T111 58T50 145T28 269Q28 370 57 451T140 588T267 675T430 705Q499 705 555 688T651
635T712 547T734 424Q734 323 705 242T624 105T497 18T331 -12ZM354 174Q392 174 414 217T452 354Q456 375 458 402T461 451Q461 494 446 506T408 519Q393 519 379 511T353 481T330 426T310 339Q305 310 303 285T301 242Q301 221 305 208T316 187T333 177T354 174Z"
/>
<glyph unicode="&#x151;" glyph-name="ohungarumlaut" horiz-adv-x="594" d="M442 739H640L553 577H380L442 739ZM212 739H410L323 577H150L212 739ZM256 -10Q190 -10 143 8T67 57T24 127T10 208Q10 278 31 341T94 451T197 527T338 555Q404 555 452 537T531 488T576
418T591 338Q591 258 569 194T504 84T399 15T256 -10ZM280 143Q290 143 299 148T316 166T331 202T344 262Q349 291 352 312T355 351Q355 381 346 392T322 403Q302 403 286 378T257 284Q246 229 246 195Q246 165 256 154T280 143Z" />
<glyph unicode="&#x152;" glyph-name="OE" horiz-adv-x="928" d="M357 0Q188 0 108 66T28 267Q28 355 50 433T119 568T242 659T424 693H974L942 513H710L697 439H874L843 263H666L651 180H898L866 0H357ZM394 177L454 516H419Q375 516 350 478T309 354Q304 326
302 300T299 256Q299 209 317 193T370 177H394Z" />
<glyph unicode="&#x153;" glyph-name="oe" horiz-adv-x="889" d="M256 -10Q190 -10 143 8T67 57T24 127T10 208Q10 278 31 341T92 451T192 527T328 555Q388 555 428 537T492 489Q524 521 568 538T672 555Q742 555 787 533T857 471T885 377T880 257L874 220H580Q581
201 586 188T604 165T636 152T688 148Q733 148 774 156T838 174L814 35Q795 26 777 18T738 4T690 -6T627 -10Q561 -10 516 9T443 63Q408 28 361 9T256 -10ZM280 143Q290 143 299 148T316 166T331 202T344 262Q349 291 352 312T355 351Q355 381 346 392T322 403Q302
403 286 378T257 284Q246 229 246 195Q246 165 256 154T280 143ZM647 408Q627 408 612 392T588 331H675Q683 369 678 388T647 408Z" />
<glyph unicode="&#x154;" glyph-name="Racute" horiz-adv-x="690" d="M614 874H837L713 722H537L614 874ZM112 693H441Q564 693 623 642T683 501Q683 423 651 370T550 293V290L647 0H386L324 225H283L253 0H-10L112 693ZM352 372Q392 372 406 403T420 478Q420
524 374 524H342L315 372H352Z" />
<glyph unicode="&#x155;" glyph-name="racute" horiz-adv-x="409" d="M515 739H738L607 577H431L515 739ZM79 545H305L292 472H297Q317 504 346 527T418 550Q440 550 448 545L412 340Q404 342 391 344T363 346Q346 346 334 345T312 342T293 338T274 331L216 0H-16L79
545Z" />
<glyph unicode="&#x156;" glyph-name="Rcommaaccent" horiz-adv-x="690" d="M205 -31H400L324 -182H168L205 -31ZM112 693H441Q564 693 623 642T683 501Q683 423 651 370T550 293V290L647 0H386L324 225H283L253 0H-10L112 693ZM352 372Q392 372 406 403T420 478Q420
524 374 524H342L315 372H352Z" />
<glyph unicode="&#x157;" glyph-name="rcommaaccent" horiz-adv-x="409" d="M251 -31H446L370 -182H214L251 -31ZM79 545H305L292 472H297Q317 504 346 527T418 550Q440 550 448 545L412 340Q404 342 391 344T363 346Q346 346 334 345T312 342T293 338T274 331L216
0H-16L79 545Z" />
<glyph unicode="&#x158;" glyph-name="Rcaron" horiz-adv-x="690" d="M485 722H301L221 864H378L409 830L452 864H619L485 722ZM112 693H441Q564 693 623 642T683 501Q683 423 651 370T550 293V290L647 0H386L324 225H283L253 0H-10L112 693ZM352 372Q392 372
406 403T420 478Q420 524 374 524H342L315 372H352Z" />
<glyph unicode="&#x159;" glyph-name="rcaron" horiz-adv-x="409" d="M364 739H522L551 696L596 739H762L624 577H440L364 739ZM79 545H305L292 472H297Q317 504 346 527T418 550Q440 550 448 545L412 340Q404 342 391 344T363 346Q346 346 334 345T312 342T293
338T274 331L216 0H-16L79 545Z" />
<glyph unicode="&#x15a;" glyph-name="Sacute" horiz-adv-x="558" d="M213 -10Q178 -10 144 -6T78 5T22 22T-19 43L17 214Q61 195 99 185T186 174Q235 174 253 185T271 214Q271 229 262 237T220 255L187 265Q146 277 120 295T78 337T56 390T49 454Q49 574 123
639T351 705Q402 705 439 700T504 688T550 672T582 656L547 487Q511 500 465 511T358 522Q331 522 316 514T300 489Q300 475 308 467T343 450L384 438Q429 425 458 405T504 360T528 305T535 241Q535 114 453 52T213 -10ZM571 874H794L670 722H494L571 874Z" />
<glyph unicode="&#x15b;" glyph-name="sacute" horiz-adv-x="480" d="M523 739H746L615 577H439L523 739ZM190 -10Q161 -10 131 -7T73 2T22 15T-16 31L10 180Q24 174 42 168T82 156T124 147T165 144Q203 144 216 150T229 168Q229 179 219 183T186 192L148 201Q94
214 62 248T30 351Q30 453 97 504T289 555Q351 555 395 546T473 520L445 372Q419 384 382 393T309 403Q275 403 264 398T252 379Q252 369 264 365T290 357L327 348Q368 338 393 324T433 292T453 252T458 204Q458 157 445 118T400 50T318 6T190 -10Z" />
<glyph unicode="&#x15c;" glyph-name="Scircumflex" horiz-adv-x="558" d="M277 864H461L541 722H384L353 756L310 722H143L277 864ZM213 -10Q178 -10 144 -6T78 5T22 22T-19 43L17 214Q61 195 99 185T186 174Q235 174 253 185T271 214Q271 229 262 237T220 255L187
265Q146 277 120 295T78 337T56 390T49 454Q49 574 123 639T351 705Q402 705 439 700T504 688T550 672T582 656L547 487Q511 500 465 511T358 522Q331 522 316 514T300 489Q300 475 308 467T343 450L384 438Q429 425 458 405T504 360T528 305T535 241Q535 114 453
52T213 -10Z" />
<glyph unicode="&#x15d;" glyph-name="scircumflex" horiz-adv-x="480" d="M474 739H658L734 577H576L547 620L502 577H336L474 739ZM190 -10Q161 -10 131 -7T73 2T22 15T-16 31L10 180Q24 174 42 168T82 156T124 147T165 144Q203 144 216 150T229 168Q229 179
219 183T186 192L148 201Q94 214 62 248T30 351Q30 453 97 504T289 555Q351 555 395 546T473 520L445 372Q419 384 382 393T309 403Q275 403 264 398T252 379Q252 369 264 365T290 357L327 348Q368 338 393 324T433 292T453 252T458 204Q458 157 445 118T400 50T318
6T190 -10Z" />
<glyph unicode="&#x15e;" glyph-name="Scedilla" horiz-adv-x="558" d="M94 -152Q142 -149 165 -143T188 -120Q188 -110 177 -105T129 -97L145 -6Q93 0 49 13T-19 43L17 214Q61 195 99 185T186 174Q235 174 253 185T271 214Q271 229 262 237T220 255L187 265Q146
277 120 295T78 337T56 390T49 454Q49 574 123 639T351 705Q402 705 439 700T504 688T550 672T582 656L547 487Q511 500 465 511T358 522Q331 522 316 514T300 489Q300 475 308 467T343 450L384 438Q429 425 458 405T504 360T528 305T535 241Q535 120 460 58T240
-9L236 -36Q290 -38 313 -58T336 -110Q336 -169 276 -198T80 -230L94 -152Z" />
<glyph unicode="&#x15f;" glyph-name="scedilla" horiz-adv-x="480" d="M68 -152Q116 -149 139 -143T162 -120Q162 -110 151 -105T103 -97L119 -5Q77 0 41 9T-16 31L10 180Q24 174 42 168T82 156T124 147T165 144Q203 144 216 150T229 168Q229 179 219 183T186
192L148 201Q94 214 62 248T30 351Q30 453 97 504T289 555Q351 555 395 546T473 520L445 372Q419 384 382 393T309 403Q275 403 264 398T252 379Q252 369 264 365T290 357L327 348Q368 338 393 324T433 292T453 252T458 204Q458 159 446 121T405 55T330 11T214
-9L210 -36Q264 -38 287 -58T310 -110Q310 -169 250 -198T54 -230L68 -152Z" />
<glyph unicode="&#x160;" glyph-name="Scaron" horiz-adv-x="558" d="M438 722H254L174 864H331L362 830L405 864H572L438 722ZM213 -10Q178 -10 144 -6T78 5T22 22T-19 43L17 214Q61 195 99 185T186 174Q235 174 253 185T271 214Q271 229 262 237T220 255L187
265Q146 277 120 295T78 337T56 390T49 454Q49 574 123 639T351 705Q402 705 439 700T504 688T550 672T582 656L547 487Q511 500 465 511T358 522Q331 522 316 514T300 489Q300 475 308 467T343 450L384 438Q429 425 458 405T504 360T528 305T535 241Q535 114 453
52T213 -10Z" />
<glyph unicode="&#x161;" glyph-name="scaron" horiz-adv-x="480" d="M372 739H530L559 696L604 739H770L632 577H448L372 739ZM190 -10Q161 -10 131 -7T73 2T22 15T-16 31L10 180Q24 174 42 168T82 156T124 147T165 144Q203 144 216 150T229 168Q229 179 219
183T186 192L148 201Q94 214 62 248T30 351Q30 453 97 504T289 555Q351 555 395 546T473 520L445 372Q419 384 382 393T309 403Q275 403 264 398T252 379Q252 369 264 365T290 357L327 348Q368 338 393 324T433 292T453 252T458 204Q458 157 445 118T400 50T318
6T190 -10Z" />
<glyph unicode="&#x162;" glyph-name="Tcommaaccent" horiz-adv-x="607" d="M153 -31H348L272 -182H116L153 -31ZM217 513H54L86 693H675L643 513H481L390 0H126L217 513Z" />
<glyph unicode="&#x163;" glyph-name="tcommaaccent" horiz-adv-x="408" d="M339 -31H534L458 -182H302L339 -31ZM212 -10Q112 -10 72 33T49 171L88 390H30L57 545H115L138 673H371L348 545H443L416 390H321L286 194Q282 174 291 166T325 158Q336 158 350 159T374
163L347 14Q330 5 295 -2T212 -10Z" />
<glyph unicode="&#x164;" glyph-name="Tcaron" horiz-adv-x="607" d="M479 722H295L215 864H372L403 830L446 864H613L479 722ZM217 513H54L86 693H675L643 513H481L390 0H126L217 513Z" />
<glyph unicode="&#x165;" glyph-name="tcaron" horiz-adv-x="408" d="M385 574L419 739H563L503 574H385ZM212 -10Q112 -10 72 33T49 171L88 390H30L57 545H115L138 673H371L348 545H443L416 390H321L286 194Q282 174 291 166T325 158Q336 158 350 159T374 163L347
14Q330 5 295 -2T212 -10Z" />
<glyph unicode="&#x166;" glyph-name="Tbar" horiz-adv-x="607" d="M88 407H198L217 513H54L86 693H675L643 513H481L462 407H578L556 285H440L390 0H126L176 285H66L88 407Z" />
<glyph unicode="&#x167;" glyph-name="tbar" horiz-adv-x="408" d="M22 345H80L88 390H30L57 545H115L138 673H371L348 545H443L416 390H321L313 345H408L390 244H295L286 194Q282 174 291 166T325 158Q336 158 350 159T374 163L347 14Q330 5 295 -2T212 -10Q112
-10 72 33T49 171L62 244H4L22 345Z" />
<glyph unicode="&#x168;" glyph-name="Utilde" horiz-adv-x="695" d="M322 -12Q168 -12 98 46T27 210Q27 227 28 245T34 283L106 693H370L295 265Q292 250 292 234Q292 209 306 193T353 177Q393 177 410 199T435 261L511 693H743L666 253Q654 184 630 134T566
51T465 4T322 -12ZM237 722Q245 765 259 795T293 843T336 870T383 879Q403 879 420 875T452 865T478 855T499 850Q511 850 518 857T529 876H662Q654 833 640 803T606 755T563 728T516 719Q496 719 479 723T447 733T421 743T400 748Q388 748 381 741T370 722H237Z"
/>
<glyph unicode="&#x169;" glyph-name="utilde" horiz-adv-x="599" d="M140 -10Q73 -10 41 24T9 122Q9 135 10 148T14 179L78 545H311L253 216Q250 199 250 189Q250 173 257 167T280 161Q293 161 303 165T324 178L389 545H622L526 0H328L319 65H314Q279 30 236
10T140 -10ZM156 582Q164 627 179 658T214 709T257 738T305 747Q325 747 342 743T373 733T398 723T419 718Q431 718 438 725T449 744H582Q574 699 559 668T524 617T481 588T433 579Q413 579 396 583T365 593T340 603T319 608Q307 608 300 601T289 582H156Z" />
<glyph unicode="&#x16a;" glyph-name="Umacron" horiz-adv-x="695" d="M322 -12Q168 -12 98 46T27 210Q27 227 28 245T34 283L106 693H370L295 265Q292 250 292 234Q292 209 306 193T353 177Q393 177 410 199T435 261L511 693H743L666 253Q654 184 630 134T566
51T465 4T322 -12ZM294 864H628L603 722H269L294 864Z" />
<glyph unicode="&#x16b;" glyph-name="umacron" horiz-adv-x="599" d="M140 -10Q73 -10 41 24T9 122Q9 135 10 148T14 179L78 545H311L253 216Q250 199 250 189Q250 173 257 167T280 161Q293 161 303 165T324 178L389 545H622L526 0H328L319 65H314Q279 30 236
10T140 -10ZM222 719H536L511 577H197L222 719Z" />
<glyph unicode="&#x16c;" glyph-name="Ubreve" horiz-adv-x="695" d="M322 -12Q168 -12 98 46T27 210Q27 227 28 245T34 283L106 693H370L295 265Q292 250 292 234Q292 209 306 193T353 177Q393 177 410 199T435 261L511 693H743L666 253Q654 184 630 134T566
51T465 4T322 -12ZM443 718Q359 718 314 759T271 866H414Q414 835 446 835Q477 835 484 866H627Q619 801 574 760T443 718Z" />
<glyph unicode="&#x16d;" glyph-name="ubreve" horiz-adv-x="599" d="M140 -10Q73 -10 41 24T9 122Q9 135 10 148T14 179L78 545H311L253 216Q250 199 250 189Q250 173 257 167T280 161Q293 161 303 165T324 178L389 545H622L526 0H328L319 65H314Q279 30 236
10T140 -10ZM359 581Q275 581 233 625T193 739H336Q336 708 368 708Q399 708 406 739H549Q541 669 493 625T359 581Z" />
<glyph unicode="&#x16e;" glyph-name="Uring" horiz-adv-x="695" d="M322 -12Q168 -12 98 46T27 210Q27 227 28 245T34 283L106 693H370L295 265Q292 250 292 234Q292 209 306 193T353 177Q393 177 410 199T435 261L511 693H743L666 253Q654 184 630 134T566 51T465
4T322 -12ZM441 953Q410 953 386 963T345 989T320 1026T311 1069Q311 1098 321 1122T351 1163T396 1190T453 1200Q484 1200 508 1191T549 1165T574 1128T583 1084Q583 1055 573 1031T543 990T498 963T441 953ZM445 1034Q464 1034 475 1046T486 1079Q486 1096 477
1107T449 1119Q430 1119 419 1107T408 1074Q408 1057 417 1046T445 1034Z" />
<glyph unicode="&#x16f;" glyph-name="uring" horiz-adv-x="599" d="M367 575Q336 575 312 585T271 611T246 648T237 691Q237 720 247 744T277 785T322 812T379 822Q410 822 434 813T475 787T500 750T509 706Q509 677 499 653T469 612T424 585T367 575ZM371 656Q390
656 401 668T412 701Q412 718 403 729T375 741Q356 741 345 729T334 696Q334 679 343 668T371 656ZM140 -10Q73 -10 41 24T9 122Q9 135 10 148T14 179L78 545H311L253 216Q250 199 250 189Q250 173 257 167T280 161Q293 161 303 165T324 178L389 545H622L526 0H328L319
65H314Q279 30 236 10T140 -10Z" />
<glyph unicode="&#x170;" glyph-name="Uhungarumlaut" horiz-adv-x="695" d="M525 876H723L639 722H466L525 876ZM295 876H493L409 722H236L295 876ZM322 -12Q168 -12 98 46T27 210Q27 227 28 245T34 283L106 693H370L295 265Q292 250 292 234Q292 209 306 193T353
177Q393 177 410 199T435 261L511 693H743L666 253Q654 184 630 134T566 51T465 4T322 -12Z" />
<glyph unicode="&#x171;" glyph-name="uhungarumlaut" horiz-adv-x="599" d="M140 -10Q73 -10 41 24T9 122Q9 135 10 148T14 179L78 545H311L253 216Q250 199 250 189Q250 173 257 167T280 161Q293 161 303 165T324 178L389 545H622L526 0H328L319 65H314Q279
30 236 10T140 -10ZM445 739H643L556 577H383L445 739ZM215 739H413L326 577H153L215 739Z" />
<glyph unicode="&#x172;" glyph-name="Uogonek" horiz-adv-x="695" d="M318 -199Q286 -199 264 -192T228 -173T208 -146T201 -115Q201 -78 227 -53T289 -11Q152 -5 90 52T27 210Q27 227 28 245T34 283L106 693H370L295 265Q292 250 292 234Q292 209 306 193T353
177Q393 177 410 199T435 261L511 693H743L666 253Q658 204 644 166T609 98T559 47T490 11Q443 -7 415 -20T387 -59Q387 -76 410 -76Q414 -76 420 -76T432 -74L413 -182Q399 -189 374 -194T318 -199Z" />
<glyph unicode="&#x173;" glyph-name="uogonek" horiz-adv-x="599" d="M328 0L319 65H314Q279 30 236 10T140 -10Q73 -10 41 24T9 122Q9 135 10 148T14 179L78 545H311L253 216Q250 199 250 189Q250 173 257 167T280 161Q293 161 303 165T324 178L389 545H622L527
6Q501 -11 486 -26T470 -59Q470 -76 493 -76Q497 -76 503 -76T515 -74L496 -182Q482 -189 457 -194T401 -199Q369 -199 347 -192T311 -173T291 -146T284 -115Q284 -93 293 -76T319 -44T356 -19T400 0H328Z" />
<glyph unicode="&#x174;" glyph-name="Wcircumflex" horiz-adv-x="983" d="M518 864H702L782 722H625L594 756L551 722H384L518 864ZM79 693H334L341 321H345L476 693H686L704 321H708L827 693H1058L794 0H527L518 356H515L393 0H125L79 693Z" />
<glyph unicode="&#x175;" glyph-name="wcircumflex" horiz-adv-x="803" d="M397 739H581L657 577H499L470 620L425 577H259L397 739ZM53 545H279L278 290H282L378 545H545L547 290H551L645 545H852L615 0H401L397 254H394L293 0H79L53 545Z" />
<glyph unicode="&#x176;" glyph-name="Ycircumflex" horiz-adv-x="668" d="M206 273L75 693H336L383 479H386L503 693H747L469 268L422 0H158L206 273ZM347 864H531L611 722H454L423 756L380 722H213L347 864Z" />
<glyph unicode="&#x177;" glyph-name="ycircumflex" horiz-adv-x="595" d="M81 -198Q36 -198 4 -191T-45 -175L-18 -26Q-2 -30 16 -33T53 -36Q85 -36 101 -27T126 0L132 14L48 545H281L299 271H303L424 545H649L355 -15Q331 -61 306 -95T250 -152T177 -186T81
-198ZM298 739H482L558 577H400L371 620L326 577H160L298 739Z" />
<glyph unicode="&#x178;" glyph-name="Ydieresis" horiz-adv-x="668" d="M206 273L75 693H336L383 479H386L503 693H747L469 268L422 0H158L206 273ZM467 876H652L626 722H441L467 876ZM232 876H417L391 722H206L232 876Z" />
<glyph unicode="&#x179;" glyph-name="Zacute" horiz-adv-x="603" d="M616 874H839L715 722H539L616 874ZM13 175L302 509V513H84L116 693H647L616 518L326 184V180H563L531 0H-18L13 175Z" />
<glyph unicode="&#x17a;" glyph-name="zacute" horiz-adv-x="499" d="M559 739H782L651 577H475L559 739ZM0 161L215 385V388H42L69 545H528L503 398L272 160V157H467L439 0H-30L0 161Z" />
<glyph unicode="&#x17b;" glyph-name="Zdotaccent" horiz-adv-x="603" d="M13 175L302 509V513H84L116 693H647L616 518L326 184V180H563L531 0H-18L13 175ZM300 876H535L508 722H273L300 876Z" />
<glyph unicode="&#x17c;" glyph-name="zdotaccent" horiz-adv-x="499" d="M0 161L215 385V388H42L69 545H528L503 398L272 160V157H467L439 0H-30L0 161ZM221 739H456L428 577H193L221 739Z" />
<glyph unicode="&#x17d;" glyph-name="Zcaron" horiz-adv-x="603" d="M487 722H303L223 864H380L411 830L454 864H621L487 722ZM13 175L302 509V513H84L116 693H647L616 518L326 184V180H563L531 0H-18L13 175Z" />
<glyph unicode="&#x17e;" glyph-name="zcaron" horiz-adv-x="499" d="M151 739H309L338 696L383 739H549L411 577H227L151 739ZM0 161L215 385V388H42L69 545H528L503 398L272 160V157H467L439 0H-30L0 161Z" />
<glyph unicode="&#x192;" glyph-name="florin" horiz-adv-x="477" d="M58 413H121L137 501Q145 552 167 589T223 651T298 687T388 699Q442 699 472 692T520 675L494 525Q482 529 473 530T452 532Q423 532 411 520T393 476L382 413H470L442 258H354L314 26Q299
-82 237 -132T68 -183Q16 -183 -17 -174T-59 -159L-33 -11Q-26 -14 -19 -16T1 -18Q25 -18 37 -6T55 35L94 258H30L58 413Z" />
<glyph unicode="&#x1fa;" glyph-name="Aringacute" horiz-adv-x="725" d="M304 693H590L685 0H423L415 97H228L186 0H-50L304 693ZM297 255H401L385 446H380L297 255ZM467 1121H690L566 969H390L467 1121ZM453 708Q422 708 398 718T357 744T332 781T323 824Q323
853 333 877T363 918T408 945T465 955Q496 955 520 946T561 920T586 883T595 839Q595 810 585 786T555 745T510 718T453 708ZM457 789Q476 789 487 801T498 834Q498 851 489 862T461 874Q442 874 431 862T420 829Q420 812 429 801T457 789Z" />
<glyph unicode="&#x1fb;" glyph-name="aringacute" horiz-adv-x="587" d="M161 -10Q86 -10 47 37T8 169Q8 268 37 340T115 460T230 531T370 555Q410 555 446 552T513 543T567 532T606 521L514 0H324L317 63H312Q285 32 247 11T161 -10ZM277 149Q290 149 298 154T311
165L351 390Q348 392 345 393T334 395Q302 395 283 366T252 263Q250 249 247 230T244 191Q244 171 250 160T277 149ZM391 575Q360 575 336 585T295 611T270 648T261 691Q261 720 271 744T301 785T346 812T403 822Q434 822 458 813T499 787T524 750T533 706Q533
677 523 653T493 612T448 585T391 575ZM395 656Q414 656 425 668T436 701Q436 718 427 729T399 741Q380 741 369 729T358 696Q358 679 367 668T395 656ZM399 993H622L498 841H322L399 993Z" />
<glyph unicode="&#x1fc;" glyph-name="AEacute" horiz-adv-x="969" d="M654 874H877L753 722H577L654 874ZM406 693H1015L983 513H754L741 439H915L884 263H710L695 180H939L907 0H408L427 108H256L191 0H-54L406 693ZM455 266L496 497H492L352 266H455Z" />
<glyph unicode="&#x1fd;" glyph-name="aeacute" horiz-adv-x="828" d="M482 739H705L574 577H398L482 739ZM152 -10Q74 -10 31 25T-12 128Q-12 213 41 256T218 314L304 324L307 338Q313 367 296 377T226 387Q188 387 148 382T76 367L103 518Q152 537 201 546T305
555Q356 555 395 544T458 503Q484 528 521 541T612 555Q682 555 727 533T796 472T824 378T818 258L812 221H518Q519 202 524 189T542 166T574 153T626 148Q671 148 712 156T776 174L752 35Q733 26 714 18T672 4T619 -6T549 -10Q471 -10 417 9T331 67Q295 29 249
10T152 -10ZM290 151Q284 179 284 214V223L259 222Q235 221 224 208T212 162Q212 143 218 136T239 129Q265 129 290 151ZM585 408Q565 408 550 393T526 332H613Q621 370 616 389T585 408Z" />
<glyph unicode="&#x1fe;" glyph-name="Oslashacute" horiz-adv-x="730" d="M72 110Q28 177 28 269Q28 370 57 451T140 588T267 675T430 705Q484 705 530 693T613 658L647 693H790L687 588Q710 555 722 514T734 424Q734 323 705 242T624 105T497 18T331 -12Q275
-12 228 1T144 38L106 0H-37L72 110ZM351 168Q397 168 426 210T472 351L475 374L295 191Q306 177 321 173T351 168ZM291 342Q289 334 289 330L463 507Q452 518 439 521T411 525Q392 525 375 517T342 489T314 433T291 342ZM404 874H627L503 722H327L404 874Z" />
<glyph unicode="&#x1ff;" glyph-name="oslashacute" horiz-adv-x="594" d="M44 85Q26 112 18 144T10 208Q10 278 31 341T94 451T197 527T338 555Q384 555 421 546T487 520L512 545H635L552 463Q572 436 581 404T591 338Q591 258 569 194T504 84T399 15T256 -10Q208
-10 172 -1T106 26L81 1H-42L44 85ZM279 136Q294 136 307 140T330 158T349 196T365 258L369 284L235 153Q243 143 254 140T279 136ZM233 271L362 398Q349 410 323 410Q309 410 297 405T273 385T252 348T236 288L233 271ZM329 739H552L421 577H245L329 739Z" />
<glyph unicode="&#x218;" glyph-name="Scommaaccent" horiz-adv-x="558" d="M116 -31H311L235 -182H79L116 -31ZM213 -10Q178 -10 144 -6T78 5T22 22T-19 43L17 214Q61 195 99 185T186 174Q235 174 253 185T271 214Q271 229 262 237T220 255L187 265Q146 277 120
295T78 337T56 390T49 454Q49 574 123 639T351 705Q402 705 439 700T504 688T550 672T582 656L547 487Q511 500 465 511T358 522Q331 522 316 514T300 489Q300 475 308 467T343 450L384 438Q429 425 458 405T504 360T528 305T535 241Q535 114 453 52T213 -10Z"
/>
<glyph unicode="&#x219;" glyph-name="scommaaccent" horiz-adv-x="480" d="M348 -31H543L467 -182H311L348 -31ZM190 -10Q161 -10 131 -7T73 2T22 15T-16 31L10 180Q24 174 42 168T82 156T124 147T165 144Q203 144 216 150T229 168Q229 179 219 183T186 192L148
201Q94 214 62 248T30 351Q30 453 97 504T289 555Q351 555 395 546T473 520L445 372Q419 384 382 393T309 403Q275 403 264 398T252 379Q252 369 264 365T290 357L327 348Q368 338 393 324T433 292T453 252T458 204Q458 157 445 118T400 50T318 6T190 -10Z" />
<glyph unicode="&#x21a;" glyph-name="uni021A" horiz-adv-x="607" d="M153 -31H348L272 -182H116L153 -31ZM217 513H54L86 693H675L643 513H481L390 0H126L217 513Z" />
<glyph unicode="&#x21b;" glyph-name="uni021B" horiz-adv-x="408" d="M339 -31H534L458 -182H302L339 -31ZM212 -10Q112 -10 72 33T49 171L88 390H30L57 545H115L138 673H371L348 545H443L416 390H321L286 194Q282 174 291 166T325 158Q336 158 350 159T374 163L347
14Q330 5 295 -2T212 -10Z" />
<glyph unicode="&#x237;" glyph-name="uni0237" horiz-adv-x="295" d="M-26 -197Q-64 -197 -95 -189T-141 -174L-114 -33Q-109 -34 -100 -35T-77 -37Q-47 -37 -32 -28T-12 10L82 545H315L218 -6Q210 -50 194 -85T150 -145T78 -183T-26 -197Z" />
<glyph unicode="&#x2c6;" glyph-name="circumflex" horiz-adv-x="500" d="M244 739H428L504 577H346L317 620L272 577H106L244 739Z" />
<glyph unicode="&#x2c7;" glyph-name="caron" horiz-adv-x="500" d="M136 739H294L323 696L368 739H534L396 577H212L136 739Z" />
<glyph unicode="&#x2d8;" glyph-name="breve" horiz-adv-x="500" d="M325 581Q241 581 199 625T159 739H302Q302 708 334 708Q365 708 372 739H515Q507 669 459 625T325 581Z" />
<glyph unicode="&#x2d9;" glyph-name="dotaccent" horiz-adv-x="500" d="M215 739H450L422 577H187L215 739Z" />
<glyph unicode="&#x2da;" glyph-name="ring" horiz-adv-x="500" d="M322 575Q291 575 267 585T226 611T201 648T192 691Q192 720 202 744T232 785T277 812T334 822Q365 822 389 813T430 787T455 750T464 706Q464 677 454 653T424 612T379 585T322 575ZM326 656Q345
656 356 668T367 701Q367 718 358 729T330 741Q311 741 300 729T289 696Q289 679 298 668T326 656Z" />
<glyph unicode="&#x2db;" glyph-name="ogonek" horiz-adv-x="500" d="M240 -199Q208 -199 186 -192T150 -173T130 -146T123 -115Q123 -93 132 -76T158 -44T195 -19T239 0H359Q339 -13 324 -27T309 -59Q309 -76 332 -76Q336 -76 342 -76T354 -74L335 -182Q321 -189
296 -194T240 -199Z" />
<glyph unicode="&#x2dc;" glyph-name="tilde" horiz-adv-x="500" d="M109 582Q117 627 132 658T167 709T210 738T258 747Q278 747 295 743T326 733T351 723T372 718Q384 718 391 725T402 744H535Q527 699 512 668T477 617T434 588T386 579Q366 579 349 583T318
593T293 603T272 608Q260 608 253 601T242 582H109Z" />
<glyph unicode="&#x2dd;" glyph-name="hungarumlaut" horiz-adv-x="500" d="M399 739H597L510 577H337L399 739ZM169 739H367L280 577H107L169 739Z" />
</font>
</defs>
</svg>
