<?xml version="1.0" standalone="no"?> <!DOCTYPE svg PUBLIC "-//W3C//DTD SVG 1.0//EN" "http://www.w3.org/TR/2001/REC-SVG-20010904/DTD/svg10.dtd" > <svg xmlns="http://www.w3.org/2000/svg" width="100%" height="100%">
<defs >
<font horiz-adv-x="512" ><font-face
    font-family=""
    units-per-em="1000"
    panose-1="2 11 6 3 5 5 3 6 8 3"
    ascent="790"
    descent="-210"
    alphabetic="0" />
<missing-glyph horiz-adv-x="498" />
<glyph unicode=" " glyph-name="space" horiz-adv-x="184" />
<glyph unicode="!" glyph-name="exclam" horiz-adv-x="283" d="M76 693H206L191 214H92L76 693ZM82 116H202V0H82V116Z" />
<glyph unicode="&quot;" glyph-name="quotedbl" horiz-adv-x="385" d="M221 693H337L326 498H232L221 693ZM47 693H164L153 498H58L47 693Z" />
<glyph unicode="#" glyph-name="numbersign" horiz-adv-x="536" d="M61 503H159L188 693H272L243 503H344L374 693H458L428 503H502V409H414L395 293H475V200H381L350 0H266L297 200H195L164 0H80L111 200H33V293H125L144 409H61V503ZM209 293H311L330 409H228L209 293Z" />
<glyph unicode="$" glyph-name="dollar" horiz-adv-x="526" d="M181 -9Q135 -4 99 7T35 34V124Q70 108 109 97T193 82L222 310L201 317Q162 328 132 343T81 381T49 435T38 510Q38 552 52 588T95 650T167 690T268 705H272L280 765H352L343 700Q378 695 403 686T449
667V576Q425 586 396 594T332 608L305 398Q351 385 385 370T443 331T477 275T489 196Q489 101 431 45T252 -13L239 -118H168L181 -9ZM375 185Q375 226 358 249T291 289L264 81Q322 87 348 115T375 185ZM148 521Q148 501 151 486T165 458T192 437T236 419L260 613Q206
611 177 587T148 521Z" />
<glyph unicode="%" glyph-name="percent" horiz-adv-x="887" d="M630 713H721L247 -40H156L630 713ZM207 316Q129 316 82 364T35 500V514Q35 558 47 593T82 653T136 691T207 705Q284 705 331 657T378 521V506Q378 419 332 368T207 316ZM207 387Q243 387 260 413T278
499V521Q278 580 260 607T207 634Q172 634 154 608T136 522V500Q136 439 153 413T207 387ZM681 -9Q603 -9 556 39T509 176V190Q509 278 556 329T681 380Q758 380 805 332T852 196V182Q852 138 840 103T806 43T752 5T681 -9ZM681 62Q717 62 734 88T752 174V196Q752
256 734 282T681 309Q646 309 628 283T610 197V175Q610 114 627 88T681 62Z" />
<glyph unicode="&amp;" glyph-name="ampersand" horiz-adv-x="667" d="M285 -12Q165 -12 99 39T33 189Q33 227 44 258T75 313T123 357T184 392Q155 430 141 464T126 536Q126 579 141 610T183 663T245 694T319 705Q359 705 392 695T450 664T487 616T501 551Q501
516 489 489T455 440T406 401T346 369L485 203Q513 263 520 339H619Q608 217 547 128L654 0H513L471 50Q432 21 386 5T285 -12ZM292 76Q364 76 416 116L237 329Q200 308 176 279T152 202Q152 145 186 111T292 76ZM242 543Q242 515 254 491T288 439L297 427Q315
437 332 449T363 475T384 507T392 547Q392 582 372 603T320 624Q287 624 265 605T242 543Z" />
<glyph unicode="&apos;" glyph-name="quotesingle" horiz-adv-x="211" d="M47 693H164L153 498H58L47 693Z" />
<glyph unicode="(" glyph-name="parenleft" horiz-adv-x="344" d="M236 -120Q200 -86 166 -42T107 55T66 169T50 300V319Q50 388 65 449T106 564T166 661T236 739H334Q300 701 270 655T217 557T181 447T167 328V299Q167 239 180 181T216 68T269 -34T334 -120H236Z" />
<glyph unicode=")" glyph-name="parenright" horiz-adv-x="344" d="M10 -120Q44 -82 74 -36T127 62T163 172T177 291V320Q177 380 164 438T128 551T75 653T10 739H108Q144 705 178 661T237 564T278 450T294 319V300Q294 231 279 170T238 55T178 -42T108 -120H10Z" />
<glyph unicode="*" glyph-name="asterisk" horiz-adv-x="388" d="M159 475L73 416L33 487L127 531L33 575L73 645L159 587L154 693H234L229 587L316 645L355 575L261 531L355 487L316 416L229 475L234 368H154L159 475Z" />
<glyph unicode="+" glyph-name="plus" horiz-adv-x="519" d="M209 289H44V383H209V555H310V383H475V289H310V116H209V289Z" />
<glyph unicode="," glyph-name="comma" horiz-adv-x="254" d="M71 117H196L151 -86H57L71 117Z" />
<glyph unicode="-" glyph-name="hyphen" horiz-adv-x="323" d="M56 327H267V232H56V327Z" />
<glyph unicode="." glyph-name="period" horiz-adv-x="254" d="M67 117H188V0H67V117Z" />
<glyph unicode="/" glyph-name="slash" horiz-adv-x="361" d="M243 739H343L101 -120H1L243 739Z" />
<glyph unicode="0" glyph-name="zero" horiz-adv-x="662" d="M332 -13Q272 -13 220 6T128 66T67 170T44 324V360Q44 454 67 519T131 626T223 686T334 705Q392 705 443 687T534 628T595 523T618 366V330Q618 237 596 172T534 66T443 6T332 -13ZM332 82Q415 82 453
137T491 318V366Q491 491 454 550T333 610Q250 610 212 553T174 373V324Q174 202 211 142T332 82Z" />
<glyph unicode="1" glyph-name="one" horiz-adv-x="351" d="M148 569L26 558V627L214 698H270V0H148V569Z" />
<glyph unicode="2" glyph-name="two" horiz-adv-x="523" d="M30 84L187 238Q223 273 251 304T298 364T328 424T339 488Q339 551 303 578T199 606Q152 606 113 596T43 570V662Q80 681 127 693T237 705Q349 705 408 652T468 503Q468 459 456 421T419 346T359 273T279
194L177 99V96H482V0H30V84Z" />
<glyph unicode="3" glyph-name="three" horiz-adv-x="519" d="M217 -11Q150 -11 104 2T25 32V121Q60 107 102 97T186 87Q265 87 307 114T349 202Q349 262 311 287T204 313H136V405H194Q257 405 292 430T328 510Q328 566 294 586T201 607Q153 607 119 600T52 581V670Q89
687 136 696T235 705Q334 705 393 660T452 531Q452 468 419 429T324 370V367Q394 353 435 313T477 194Q477 96 408 43T217 -11Z" />
<glyph unicode="4" glyph-name="four" horiz-adv-x="593" d="M335 181H14V266L347 693H454V273H580V181H454V0H335V181ZM336 273V539H332L129 276V273H336Z" />
<glyph unicode="5" glyph-name="five" horiz-adv-x="518" d="M218 -11Q151 -11 104 1T25 32V122Q60 106 99 97T187 87Q262 87 304 117T347 217Q347 287 306 314T187 342Q146 342 113 338T53 325L78 693H453V597H172L159 426Q176 430 193 432T236 434Q351 434 413
382T476 217Q476 165 459 123T408 51T327 5T218 -11Z" />
<glyph unicode="6" glyph-name="six" horiz-adv-x="602" d="M315 -13Q250 -13 200 9T115 72T62 170T44 299V342Q44 442 70 511T142 624T246 686T370 705Q473 705 522 679V590Q502 595 467 601T394 607Q350 607 312 599T244 566T195 499T173 385Q201 405 246 420T348
435Q396 435 435 422T503 383T547 318T563 227Q563 177 547 134T500 58T423 6T315 -13ZM312 78Q374 78 406 114T439 216Q439 256 430 281T403 320T361 340T309 346Q266 346 232 335T172 307V289Q172 242 180 204T204 137T247 94T312 78Z" />
<glyph unicode="7" glyph-name="seven" horiz-adv-x="503" d="M360 592V596H22V693H482V604L216 0H81L360 592Z" />
<glyph unicode="8" glyph-name="eight" horiz-adv-x="598" d="M298 -13Q171 -13 104 37T37 173Q37 204 48 231T79 281T124 322T179 352Q126 379 92 418T57 521Q57 561 74 595T122 653T197 691T296 705Q406 705 469 659T533 530Q533 473 498 431T408 360Q439 347
466 332T515 297T548 249T560 186Q560 142 543 106T492 43T409 2T298 -13ZM295 77Q360 77 398 103T436 177Q436 204 425 223T392 257T337 286T257 316Q214 294 184 262T153 182Q153 131 191 104T295 77ZM324 398Q367 422 392 450T417 523Q417 563 388 588T298 614Q243
614 211 591T179 525Q179 502 188 485T216 454T262 426T324 398Z" />
<glyph unicode="9" glyph-name="nine" horiz-adv-x="602" d="M234 -13Q181 -13 140 -6T76 16V106Q96 99 133 93T208 86Q259 86 299 95T368 129T412 196T430 307Q401 287 357 272T256 257Q208 257 168 270T100 310T55 375T39 467Q39 516 54 559T101 635T179 686T289
705Q349 705 398 686T484 627T539 530T559 393V350Q559 250 535 181T468 68T365 6T234 -13ZM293 346Q337 346 371 357T430 385V403Q430 505 395 559T291 614Q226 614 195 578T164 476Q164 436 173 411T200 372T240 352T293 346Z" />
<glyph unicode=":" glyph-name="colon" horiz-adv-x="263" d="M71 415H192V297H71V415ZM71 117H192V0H71V117Z" />
<glyph unicode=";" glyph-name="semicolon" horiz-adv-x="263" d="M70 117H194L149 -86H56L70 117ZM71 415H192V297H71V415Z" />
<glyph unicode="&lt;" glyph-name="less" horiz-adv-x="478" d="M42 275V365L424 544V441L156 320L424 201V97L42 275Z" />
<glyph unicode="=" glyph-name="equal" horiz-adv-x="525" d="M51 445H475V353H51V445ZM51 256H475V165H51V256Z" />
<glyph unicode="&gt;" glyph-name="greater" horiz-adv-x="478" d="M54 200L323 321L54 439V544L437 365V275L54 97V200Z" />
<glyph unicode="?" glyph-name="question" horiz-adv-x="424" d="M113 261Q113 287 119 306T138 343T169 376T213 412Q229 425 240 436T259 460T269 488T273 523Q273 573 243 592T156 611Q112 611 83 605T23 588V675Q58 689 98 697T189 705Q232 705 270 696T336
665T380 611T396 532Q396 499 390 476T372 434T340 396T293 356Q274 341 260 330T236 307T221 282T216 251V214H113V261ZM106 116H227V0H106V116Z" />
<glyph unicode="@" glyph-name="at" horiz-adv-x="898" d="M447 -157Q352 -157 277 -133T150 -60T70 58T42 219Q42 309 71 392T158 539T299 641T492 680Q575 680 643 654T759 582T833 471T859 330Q859 259 843 204T796 110T722 52T626 32Q575 32 547 48T511 94H506Q486
70 455 52T382 34Q318 34 280 75T241 196Q241 259 255 311T297 400T362 457T450 478Q485 478 512 468T557 442H562L567 469H668L610 160Q605 137 612 122T645 106Q705 106 739 162T774 324Q774 387 757 439T705 528T615 586T488 607Q401 607 334 578T220 496T151
374T127 221Q127 72 208 -6T448 -85Q521 -85 581 -72T680 -46V-110Q635 -130 577 -143T447 -157ZM415 112Q444 112 464 124T501 152L540 373Q529 385 509 393T462 402Q432 402 411 387T376 344T357 280T351 198Q351 112 415 112Z" />
<glyph unicode="A" glyph-name="A" horiz-adv-x="630" d="M254 693H379L626 0H500L437 178H179L117 0H5L254 693ZM209 269H406L308 548H305L209 269Z" />
<glyph unicode="B" glyph-name="B" horiz-adv-x="602" d="M70 693H311Q431 693 485 647T540 518Q540 464 515 425T426 367V363Q492 351 531 312T570 197Q570 154 555 118T510 56T435 15T328 0H70V693ZM311 91Q376 91 409 119T443 205Q443 265 408 290T305 316H191V91H311ZM289
398Q317 398 340 403T381 420T408 451T418 501Q418 559 387 580T294 602H191V398H289Z" />
<glyph unicode="C" glyph-name="C" horiz-adv-x="568" d="M347 -12Q275 -12 217 9T119 74T56 182T34 336V360Q34 454 59 519T129 626T233 686T359 705Q417 705 459 696T533 669V574Q493 589 455 597T367 606Q322 606 285 593T221 552T180 480T165 374V339Q165
219 212 153T369 87Q429 87 469 99T541 126V31Q505 11 457 0T347 -12Z" />
<glyph unicode="D" glyph-name="D" horiz-adv-x="662" d="M70 693H297Q456 693 542 614T629 365V344Q629 177 547 89T298 0H70V693ZM299 96Q402 96 450 150T499 332V366Q499 432 485 476T444 547T378 585T289 597H192V96H299Z" />
<glyph unicode="E" glyph-name="E" horiz-adv-x="555" d="M70 693H503V597H192V404H432V309H192V96H508V0H70V693Z" />
<glyph unicode="F" glyph-name="F" horiz-adv-x="524" d="M70 693H495V597H192V387H427V292H192V0H70V693Z" />
<glyph unicode="G" glyph-name="G" horiz-adv-x="642" d="M366 -12Q290 -12 229 7T125 68T58 175T34 332V353Q34 452 62 519T136 628T244 687T373 705Q440 705 486 693T563 664V567Q532 580 489 593T376 606Q315 606 274 587T209 534T174 457T163 364V333Q163
278 171 233T203 154T265 103T366 84Q397 84 426 88T474 100V259H344V351H592V30Q553 14 495 1T366 -12Z" />
<glyph unicode="H" glyph-name="H" horiz-adv-x="683" d="M70 693H192V406H491V693H613V0H491V310H192V0H70V693Z" />
<glyph unicode="I" glyph-name="I" horiz-adv-x="269" d="M73 693H196V0H73V693Z" />
<glyph unicode="J" glyph-name="J" horiz-adv-x="429" d="M163 -7Q115 -7 83 0T23 21V112Q45 104 73 98T137 92Q241 92 241 197V693H364V187Q364 146 353 111T316 49T253 8T163 -7Z" />
<glyph unicode="K" glyph-name="K" horiz-adv-x="612" d="M206 352L463 693H590L340 365L604 0H463L206 352ZM70 693H192V0H70V693Z" />
<glyph unicode="L" glyph-name="L" horiz-adv-x="508" d="M70 693H192V96H486V0H70V693Z" />
<glyph unicode="M" glyph-name="M" horiz-adv-x="827" d="M70 693H242L413 166H416L587 693H757V0H636V541H632L456 0H355L180 542H177V0H70V693Z" />
<glyph unicode="N" glyph-name="N" horiz-adv-x="679" d="M70 693H208L498 199H501V693H609V0H488L181 527H178V0H70V693Z" />
<glyph unicode="O" glyph-name="O" horiz-adv-x="697" d="M347 -12Q276 -12 219 10T120 75T57 184T34 336V357Q34 441 57 506T121 615T221 682T351 705Q421 705 478 683T577 618T640 509T663 357V336Q663 252 640 187T575 78T475 11T347 -12ZM350 83Q396 83 430
100T487 149T521 225T533 322V356Q533 415 523 462T491 541T433 592T346 610Q300 610 266 593T209 544T175 469T164 372V337Q164 278 174 231T206 151T264 101T350 83Z" />
<glyph unicode="P" glyph-name="P" horiz-adv-x="577" d="M70 693H311Q434 693 494 639T555 481Q555 372 491 316T319 260H192V0H70V693ZM297 351Q368 351 397 380T427 473Q427 542 398 570T299 599H192V351H297Z" />
<glyph unicode="Q" glyph-name="Q" horiz-adv-x="697" d="M663 339Q663 209 611 133T465 29L684 -21L658 -121L267 -8Q212 8 169 35T96 104T50 203T34 336V357Q34 441 57 506T121 615T221 682T351 705Q421 705 478 683T577 618T640 510T663 359V339ZM350 81Q396
81 430 98T487 148T521 224T533 321V356Q533 415 523 462T491 541T433 592T346 610Q300 610 266 593T209 544T175 469T164 372V337Q164 278 174 231T206 150T264 99T350 81Z" />
<glyph unicode="R" glyph-name="R" horiz-adv-x="599" d="M70 693H301Q542 693 542 490Q542 416 509 375T416 311V306L589 0H455L300 281H192V0H70V693ZM288 366Q357 366 386 395T416 486Q416 546 386 572T287 599H192V366H288Z" />
<glyph unicode="S" glyph-name="S" d="M234 -13Q166 -13 114 -1T26 32V128Q69 109 118 97T224 85Q295 85 326 112T358 188Q358 210 353 225T336 253T305 274T256 292L190 312Q153 322 124 337T75 376T43 432T32 509Q32 552 46 588T90 650T162 690T263 705Q332
705 373 694T443 668V572Q411 586 368 596T266 607Q210 607 181 585T151 519Q151 478 170 457T241 420L307 400Q347 388 379 373T434 335T469 278T481 199Q481 101 421 44T234 -13Z" />
<glyph unicode="T" glyph-name="T" horiz-adv-x="551" d="M215 597H16V693H535V597H337V0H215V597Z" />
<glyph unicode="U" glyph-name="U" horiz-adv-x="664" d="M336 -13Q204 -13 135 50T65 243V693H188V250Q188 202 197 169T226 117T274 89T341 80Q378 80 406 88T452 116T479 168T488 250V693H598V246Q598 112 534 50T336 -13Z" />
<glyph unicode="V" glyph-name="V" horiz-adv-x="623" d="M6 693H133L317 153H320L503 693H617L371 0H252L6 693Z" />
<glyph unicode="W" glyph-name="W" horiz-adv-x="888" d="M13 693H136L255 177H258L402 693H501L642 177H645L765 693H875L704 0H584L448 506H445L305 0H185L13 693Z" />
<glyph unicode="X" glyph-name="X" horiz-adv-x="626" d="M238 354L31 693H166L323 437H327L472 693H596L394 355L608 0H473L309 271H306L141 0H18L238 354Z" />
<glyph unicode="Y" glyph-name="Y" horiz-adv-x="578" d="M229 269L5 693H134L296 380H299L458 693H574L351 269V0H229V269Z" />
<glyph unicode="Z" glyph-name="Z" horiz-adv-x="549" d="M27 88L378 594V597H51V693H522V606L170 99V96H512V0H27V88Z" />
<glyph unicode="[" glyph-name="bracketleft" horiz-adv-x="348" d="M71 739H318V651H185V-32H318V-120H71V739Z" />
<glyph unicode="\" glyph-name="backslash" horiz-adv-x="361" d="M18 739H119L361 -120H260L18 739Z" />
<glyph unicode="]" glyph-name="bracketright" horiz-adv-x="348" d="M29 -32H163V651H29V739H277V-120H29V-32Z" />
<glyph unicode="^" glyph-name="asciicircum" horiz-adv-x="462" d="M184 693H279L425 448H329L232 595L134 448H37L184 693Z" />
<glyph unicode="_" glyph-name="underscore" horiz-adv-x="338" d="M-5 -58H343V-131H-5V-58Z" />
<glyph unicode="`" glyph-name="grave" horiz-adv-x="495" d="M98 733H221L301 585H204L98 733Z" />
<glyph unicode="a" glyph-name="a" horiz-adv-x="485" d="M187 -10Q116 -10 71 26T26 138Q26 174 37 200T71 245T123 275T193 292L317 307V348Q317 375 311 392T290 418T253 432T197 436Q159 436 127 431T70 421V500Q106 514 148 521T242 529Q332 529 381 492T431
374V0H337L327 42H321Q303 19 271 5T187 -10ZM221 71Q250 71 276 79T317 102V232L219 222Q179 218 160 201T140 144Q140 106 162 89T221 71Z" />
<glyph unicode="b" glyph-name="b" horiz-adv-x="558" d="M259 -12Q233 -12 205 -10T150 -4T99 5T57 18V739H171V485H176Q205 505 241 517T330 529Q366 529 401 517T465 476T510 398T528 278V264Q528 127 460 58T259 -12ZM266 76Q295 76 321 83T367 110T398 163T410
248V268Q410 316 402 348T378 399T336 427T276 436Q244 436 216 427T171 410V91Q186 86 209 81T266 76Z" />
<glyph unicode="c" glyph-name="c" horiz-adv-x="450" d="M275 -10Q159 -10 93 54T27 248V264Q27 332 46 382T100 464T180 513T281 529Q333 529 365 520T424 497V408Q408 414 394 419T363 429T329 435T286 437Q221 437 184 397T146 277V253Q146 162 183 122T295
82Q343 82 376 93T429 115V30Q404 14 367 2T275 -10Z" />
<glyph unicode="d" glyph-name="d" horiz-adv-x="558" d="M242 -10Q203 -10 165 3T97 46T49 124T30 244V257Q30 329 47 380T95 465T168 513T262 529Q308 529 338 520T387 499V739H502V0H404L394 41H389Q366 18 330 4T242 -10ZM282 79Q319 79 345 91T387 115V413Q373
425 345 432T281 440Q250 440 226 432T184 403T157 350T148 269V249Q148 200 157 167T185 115T227 87T282 79Z" />
<glyph unicode="e" glyph-name="e" horiz-adv-x="511" d="M284 -10Q155 -10 91 59T27 253V267Q27 333 45 382T96 463T172 512T265 529Q379 529 431 465T484 277V228H145Q148 187 159 159T191 113T241 89T307 81Q358 81 395 91T467 118V39Q441 22 396 6T284 -10ZM262
444Q242 444 223 438T187 416T160 374T145 307H368Q368 382 342 413T262 444Z" />
<glyph unicode="f" glyph-name="f" horiz-adv-x="331" d="M88 431H15V519H88V585Q88 627 100 658T135 709T189 738T257 748Q292 748 316 743T354 731V654Q343 656 326 658T286 661Q244 661 223 641T202 574V519H316V431H202V0H88V431Z" />
<glyph unicode="g" glyph-name="g" horiz-adv-x="517" d="M248 -199Q124 -199 66 -164T7 -70Q7 -28 35 -2T104 39V44Q81 52 66 71T50 118Q50 174 111 220Q81 240 63 272T45 349V358Q45 399 60 431T102 484T168 517T252 529Q295 529 333 520H509V442H428Q455 412
455 362V353Q455 311 440 280T397 228T333 197T251 187Q204 187 168 197Q150 181 150 159Q150 119 196 119H340Q377 119 408 112T461 88T495 45T508 -20Q508 -58 493 -90T447 -147T366 -185T248 -199ZM246 -117Q327 -117 359 -96T391 -39Q391 -8 374 5T310 18H175Q152
10 136 -7T120 -52Q120 -84 148 -100T246 -117ZM251 263Q296 263 320 283T345 349V363Q345 411 320 431T251 452Q206 452 182 430T157 365V351Q157 305 182 284T251 263Z" />
<glyph unicode="h" glyph-name="h" horiz-adv-x="548" d="M57 739H171V476H176Q208 499 251 514T343 529Q418 529 456 496T494 386V0H380V358Q380 399 362 416T290 434Q260 434 228 425T171 405V0H57V739Z" />
<glyph unicode="i" glyph-name="i" horiz-adv-x="234" d="M60 519H174V0H60V519ZM59 712H175V608H59V712Z" />
<glyph unicode="j" glyph-name="j" horiz-adv-x="234" d="M18 -199Q-11 -199 -31 -194T-66 -181V-105Q-55 -107 -42 -109T-16 -111Q20 -111 40 -94T60 -38V519H174V-46Q174 -113 138 -156T18 -199ZM59 712H175V608H59V712Z" />
<glyph unicode="k" glyph-name="k" horiz-adv-x="502" d="M57 739H171V0H57V739ZM182 269L361 519H480L302 276L494 0H367L182 269Z" />
<glyph unicode="l" glyph-name="l" horiz-adv-x="234" d="M60 739H174V0H60V739Z" />
<glyph unicode="m" glyph-name="m" horiz-adv-x="828" d="M57 519H166V474H171Q204 497 244 513T330 529Q419 529 454 471H459Q500 498 543 513T631 529Q700 529 737 496T775 387V0H660V359Q660 399 643 416T580 434Q554 434 527 426T471 404Q472 398 472 393T473
380V0H359V359Q359 399 342 416T279 434Q251 434 223 426T171 405V0H57V519Z" />
<glyph unicode="n" glyph-name="n" horiz-adv-x="548" d="M57 519H166V474H171Q204 498 249 513T343 529Q418 529 456 496T494 386V0H380V358Q380 399 362 416T290 434Q260 434 228 425T171 405V0H57V519Z" />
<glyph unicode="o" glyph-name="o" horiz-adv-x="546" d="M273 -10Q155 -10 91 58T27 249V265Q27 328 45 377T95 459T173 511T274 529Q391 529 455 462T519 269V254Q519 191 501 142T451 59T373 8T273 -10ZM275 77Q335 77 368 118T401 244V270Q401 321 391 354T364
406T323 434T272 442Q211 442 178 401T145 274V249Q145 198 155 165T182 113T224 85T275 77Z" />
<glyph unicode="p" glyph-name="p" horiz-adv-x="558" d="M57 519H166V477H171Q195 500 233 514T321 529Q362 529 399 516T465 474T511 396T528 276V262Q528 189 511 138T464 53T390 5T293 -10Q250 -10 220 -1T171 19V-195H57V519ZM277 77Q308 77 333 85T375 114T401
166T410 247V268Q410 317 402 349T377 400T337 428T282 436Q244 436 215 426T171 405V107Q186 95 214 86T277 77Z" />
<glyph unicode="q" glyph-name="q" horiz-adv-x="556" d="M387 30H382Q362 15 328 3T243 -10Q205 -10 167 3T99 45T49 123T30 243V256Q30 334 50 386T107 470T191 515T296 529Q367 529 417 519T502 492V-195H387V30ZM281 81Q319 81 345 92T387 115V428Q370 433
345 438T288 443Q256 443 230 434T186 405T158 351T148 269V249Q148 200 157 168T184 116T226 89T281 81Z" />
<glyph unicode="r" glyph-name="r" horiz-adv-x="354" d="M57 519H166V460H171Q193 487 229 506T308 525Q318 525 327 524T340 520V420Q330 422 319 422T299 423Q263 423 230 414T171 388V0H57V519Z" />
<glyph unicode="s" glyph-name="s" horiz-adv-x="424" d="M199 -9Q148 -9 104 0T27 26V111Q59 98 93 89T182 79Q237 79 261 95T286 142Q286 171 269 185T209 210L160 221Q130 228 106 239T64 268T37 311T27 371Q27 443 73 486T219 529Q273 529 308 520T368 499V414Q346
423 310 432T229 441Q135 441 135 381Q135 352 151 339T206 317L255 306Q332 289 364 255T397 151Q397 71 345 31T199 -9Z" />
<glyph unicode="t" glyph-name="t" horiz-adv-x="355" d="M234 -7Q201 -7 174 0T127 23T97 64T86 127V431H15V519H86V642H200V519H323V431H200V144Q200 110 214 97T270 83Q285 83 301 85T331 90V15Q315 7 293 0T234 -7Z" />
<glyph unicode="u" glyph-name="u" horiz-adv-x="542" d="M212 -10Q136 -10 95 27T54 142V519H168V163Q168 120 186 102T254 83Q289 83 317 93T371 115V519H485V0H386L376 45H371Q338 21 300 6T212 -10Z" />
<glyph unicode="v" glyph-name="v" d="M9 519H131L259 137H263L393 519H503L315 0H198L9 519Z" />
<glyph unicode="w" glyph-name="w" horiz-adv-x="752" d="M13 519H133L226 146H230L337 519H430L538 146H542L635 519H739L595 0H484L379 354H375L270 0H157L13 519Z" />
<glyph unicode="x" glyph-name="x" horiz-adv-x="501" d="M182 266L20 519H149L260 339L361 519H476L321 267L490 0H360L245 189L127 0H12L182 266Z" />
<glyph unicode="y" glyph-name="y" horiz-adv-x="503" d="M110 -199Q90 -199 68 -195T34 -183V-105Q57 -110 85 -110Q121 -110 145 -94T183 -40L203 11L6 519H127L260 152H263L386 519H497L289 -58Q263 -133 222 -166T110 -199Z" />
<glyph unicode="z" glyph-name="z" horiz-adv-x="459" d="M29 82L290 428V431H42V519H428V441L165 90V87H427V0H29V82Z" />
<glyph unicode="{" glyph-name="braceleft" horiz-adv-x="381" d="M351 -122Q280 -121 235 -108T165 -72T130 -19T120 46V177Q120 223 97 242T15 264V353Q74 357 97 375T120 440V572Q120 607 129 637T164 690T235 726T351 741V653Q321 651 299 646T263 632T241
605T234 562V435Q234 413 230 394T213 358T180 329T126 310V307Q159 301 180 289T213 261T229 225T234 183V56Q234 30 241 14T262 -13T299 -27T351 -34V-122Z" />
<glyph unicode="|" glyph-name="bar" horiz-adv-x="289" d="M98 739H191V-120H98V739Z" />
<glyph unicode="}" glyph-name="braceright" horiz-adv-x="381" d="M29 -34Q59 -32 81 -27T118 -13T139 14T146 57V184Q146 206 150 225T167 261T200 290T255 309V312Q221 318 200 330T167 358T151 394T146 436V563Q146 589 139 605T118 632T82 646T29 653V741Q100
739 145 726T215 691T250 638T260 573V442Q260 395 283 377T366 355V266Q307 262 284 244T260 179V47Q260 12 251 -18T216 -71T145 -107T29 -122V-34Z" />
<glyph unicode="~" glyph-name="asciitilde" horiz-adv-x="408" d="M33 235Q37 272 47 296T73 336T106 357T145 363Q163 363 179 358T209 346T236 334T260 328Q289 328 297 364H375Q371 327 361 303T335 263T301 242T263 236Q245 236 229 241T199 254T172 266T148
272Q117 272 111 235H33Z" />
<glyph unicode="&#xa0;" glyph-name="uni00A0" horiz-adv-x="184" />
<glyph unicode="&#xa1;" glyph-name="exclamdown" horiz-adv-x="283" d="M92 359H192L207 -120H77L92 359ZM81 573H202V457H81V573Z" />
<glyph unicode="&#xa2;" glyph-name="cent" horiz-adv-x="450" d="M205 -3Q120 14 74 76T27 248V264Q27 332 46 382T100 464T181 513T283 529H286L296 591H368L357 522Q378 518 395 512T427 497V410Q405 418 386 424T344 435L289 79H298Q346 79 379 90T432 109V30Q407
14 370 2T277 -10H275L259 -119H187L205 -3ZM144 253Q144 127 220 93L272 438Q212 433 178 393T144 277V253Z" />
<glyph unicode="&#xa3;" glyph-name="sterling" horiz-adv-x="531" d="M42 385H117V476Q117 537 136 580T187 651T262 692T350 705Q401 705 436 696T494 675V586Q480 591 467 594T441 600T412 604T377 606Q350 606 326 600T282 579T251 537T239 468V385H415V301H239V260Q239
197 222 161T170 98V96H501V0H34V86Q75 109 96 145T117 247V301H42V385Z" />
<glyph unicode="&#xa5;" glyph-name="yen" horiz-adv-x="599" d="M242 130H81V215H242V278H81V363H215L25 693H156L307 415H312L463 693H579L389 363H525V278H364V215H525V130H364V0H242V130Z" />
<glyph unicode="&#xa6;" glyph-name="brokenbar" horiz-adv-x="299" d="M98 277H201V-120H98V277ZM98 734H201V355H98V734Z" />
<glyph unicode="&#xa7;" glyph-name="section" horiz-adv-x="510" d="M237 -132Q182 -132 139 -122T62 -93V-6Q80 -13 96 -19T132 -30T173 -38T222 -41Q282 -41 309 -23T336 31Q336 63 320 78T256 108L175 132Q142 141 115 153T67 185T36 231T24 294Q24 345 48
375T117 421Q94 440 82 469T69 540Q69 615 121 660T276 705Q334 705 368 695T429 671V585Q405 595 369 604T285 614Q235 614 208 598T180 549Q180 517 193 502T247 474L335 447Q373 436 402 424T452 393T482 348T492 285Q492 231 468 201T401 154Q427 134 439 107T452
40Q452 -45 397 -88T237 -132ZM217 378L208 380Q171 375 152 355T133 306Q133 274 150 255T213 223L291 200Q294 198 297 198T303 196Q380 211 380 272Q380 305 361 323T291 355L217 378Z" />
<glyph unicode="&#xa8;" glyph-name="dieresis" horiz-adv-x="495" d="M286 710H390V608H286V710ZM105 710H209V608H105V710Z" />
<glyph unicode="&#xa9;" glyph-name="copyright" horiz-adv-x="793" d="M396 -14Q319 -14 254 14T142 91T67 205T40 344Q40 418 67 483T141 596T254 672T396 700Q472 700 537 672T650 596T725 483T753 344Q753 270 726 205T650 91T537 14T396 -14ZM396 38Q460
38 514 61T607 124T669 221T691 344Q691 411 669 466T608 562T514 625T396 648Q331 648 277 626T184 563T124 467T102 344Q102 277 123 221T184 125T277 61T396 38ZM407 145Q323 145 273 192T223 338V350Q223 402 238 438T278 498T338 532T411 543Q446 543 470
537T511 522V449Q490 457 469 461T419 466Q376 466 351 441T325 358V339Q325 279 348 250T424 221Q456 221 477 228T515 243V170Q495 160 469 153T407 145Z" />
<glyph unicode="&#xaa;" glyph-name="ordfeminine" horiz-adv-x="447" d="M170 219Q107 219 66 252T25 352Q25 418 66 450T177 491L286 504V539Q286 586 262 601T180 617Q146 617 117 613T64 603V677Q98 689 136 696T222 703Q303 703 348 670T394 563V228H305L296
267H291Q274 247 245 233T170 219ZM203 295Q229 295 251 302T286 322V438L202 428Q167 424 150 409T132 360Q132 325 151 310T203 295Z" />
<glyph unicode="&#xab;" glyph-name="guillemotleft" horiz-adv-x="468" d="M229 234V271L328 450H428L331 253L428 55H328L229 234ZM37 234V271L136 450H236L139 253L236 55H136L37 234Z" />
<glyph unicode="&#xae;" glyph-name="registered" horiz-adv-x="438" d="M219 311Q177 311 141 326T78 369T36 432T21 509Q21 550 36 586T78 649T141 691T219 707Q261 707 297 692T359 649T401 586T417 509Q417 468 402 432T360 369T297 327T219 311ZM219 345Q254
345 283 357T332 392T364 444T376 509Q376 543 365 573T333 625T283 660T219 673Q184 673 155 660T106 625T74 573T62 509Q62 474 73 445T105 393T155 358T219 345ZM149 606H227Q262 606 282 592T302 547Q302 527 293 516T270 500V497L312 417H257L221 486H201V417H149V606ZM222
524Q237 524 242 529T248 546Q248 567 222 567H201V524H222Z" />
<glyph unicode="&#xaf;" glyph-name="macron" horiz-adv-x="495" d="M122 698H373V612H122V698Z" />
<glyph unicode="&#xb0;" glyph-name="degree" horiz-adv-x="370" d="M185 417Q152 417 125 428T79 459T49 505T38 560Q38 589 48 615T78 661T125 692T185 704Q218 704 245 693T291 662T321 616T332 560Q332 531 322 505T292 460T245 429T185 417ZM185 481Q219
481 236 503T254 560Q254 593 237 616T185 640Q151 640 134 617T116 560Q116 526 133 504T185 481Z" />
<glyph unicode="&#xb4;" glyph-name="acute" horiz-adv-x="495" d="M274 733H397L291 585H194L274 733Z" />
<glyph unicode="&#xb6;" glyph-name="paragraph" horiz-adv-x="575" d="M274 333H232Q191 333 155 344T91 379T48 435T32 512Q32 549 44 582T84 640T154 679T259 693H504V-120H429V625H349V-120H274V333Z" />
<glyph unicode="&#xb7;" glyph-name="periodcentered" horiz-adv-x="255" d="M67 380H188V262H67V380Z" />
<glyph unicode="&#xb8;" glyph-name="cedilla" horiz-adv-x="495" d="M200 -163Q254 -158 277 -149T300 -123Q300 -106 282 -100T222 -94V0H286V-46Q334 -48 359 -66T385 -119Q385 -165 344 -189T200 -219V-163Z" />
<glyph unicode="&#xba;" glyph-name="ordmasculine" horiz-adv-x="498" d="M248 219Q142 219 85 280T27 452V466Q27 523 43 567T89 641T159 687T249 703Q355 703 413 643T471 470V456Q471 399 455 355T409 281T338 235T248 219ZM250 300Q302 300 331 336T360 447V471Q360
516 351 545T327 591T292 615T247 622Q194 622 166 586T137 474V451Q137 407 146 378T170 331T205 307T250 300Z" />
<glyph unicode="&#xbb;" glyph-name="guillemotright" horiz-adv-x="468" d="M329 252L232 450H332L431 271V234L332 55H232L329 252ZM137 252L40 450H140L239 271V234L140 55H40L137 252Z" />
<glyph unicode="&#xbc;" glyph-name="onequarter" horiz-adv-x="798" d="M101 603L21 591V648L142 695H194V275H101V603ZM587 713H675L164 -40H76L587 713ZM622 105H431V166L630 418H714V171H784V105H714V0H622V105ZM624 170V308H621L514 173V170H624Z" />
<glyph unicode="&#xbd;" glyph-name="onehalf" horiz-adv-x="837" d="M575 713H663L152 -40H64L575 713ZM101 603L21 591V648L142 695H194V275H101V603ZM519 62L608 149Q650 188 673 219T696 288Q696 323 677 338T622 353Q593 353 568 347T525 332V399Q548 410
577 417T649 425Q719 425 757 392T795 300Q795 273 788 251T766 207T731 166T684 122L628 71V70H802V0H519V62Z" />
<glyph unicode="&#xbe;" glyph-name="threequarters" horiz-adv-x="828" d="M151 268Q108 268 79 275T29 293V358Q49 350 74 345T125 339Q170 339 194 353T218 400Q218 432 196 445T136 459H93V522H131Q167 522 188 535T209 578Q209 608 189 619T133 630Q105 630
84 626T44 616V679Q67 689 97 694T162 700Q225 700 263 673T301 595Q301 557 281 533T223 498V496Q267 488 291 464T315 392Q315 333 272 301T151 268ZM637 710H725L214 -43H126L637 710ZM652 105H461V166L660 418H744V171H814V105H744V0H652V105ZM654 170V308H651L544
173V170H654Z" />
<glyph unicode="&#xbf;" glyph-name="questiondown" horiz-adv-x="424" d="M236 -132Q192 -132 155 -123T89 -92T45 -39T29 41Q29 74 34 97T52 139T84 177T131 217Q150 232 164 243T189 266T203 291T208 322V359H311V312Q311 286 305 267T286 230T255 197T212
161Q196 148 185 137T166 113T155 85T151 50Q151 0 181 -19T268 -38Q290 -38 307 -36T340 -31T370 -24T401 -15V-102Q366 -116 327 -124T236 -132ZM198 573H319V457H198V573Z" />
<glyph unicode="&#xc0;" glyph-name="Agrave" horiz-adv-x="630" d="M254 693H379L626 0H500L437 178H179L117 0H5L254 693ZM209 269H406L308 548H305L209 269ZM188 867H310L374 737H277L188 867Z" />
<glyph unicode="&#xc1;" glyph-name="Aacute" horiz-adv-x="630" d="M254 693H379L626 0H500L437 178H179L117 0H5L254 693ZM209 269H406L308 548H305L209 269ZM329 867H451L357 737H260L329 867Z" />
<glyph unicode="&#xc2;" glyph-name="Acircumflex" horiz-adv-x="630" d="M254 693H379L626 0H500L437 178H179L117 0H5L254 693ZM209 269H406L308 548H305L209 269ZM268 864H361L461 737H375L314 792L254 737H168L268 864Z" />
<glyph unicode="&#xc3;" glyph-name="Atilde" horiz-adv-x="630" d="M254 693H379L626 0H500L437 178H179L117 0H5L254 693ZM209 269H406L308 548H305L209 269ZM156 741Q159 772 169 793T193 828T224 848T259 854Q276 854 291 850T319 839T345 829T367 824Q395
824 401 856H475Q472 825 462 803T437 768T406 748T371 742Q354 742 339 746T311 757T285 767T263 772Q236 772 229 741H156Z" />
<glyph unicode="&#xc4;" glyph-name="Adieresis" horiz-adv-x="630" d="M254 693H379L626 0H500L437 178H179L117 0H5L254 693ZM209 269H406L308 548H305L209 269ZM355 842H459V742H355V842ZM170 842H274V742H170V842Z" />
<glyph unicode="&#xc5;" glyph-name="Aring" horiz-adv-x="630" d="M254 693H379L626 0H500L437 178H179L117 0H5L254 693ZM209 269H406L308 548H305L209 269ZM316 725Q270 725 241 754T212 823Q212 863 241 892T316 921Q338 921 357 913T390 892T411 861T419
823Q419 803 412 786T390 755T357 733T316 725ZM316 775Q337 775 349 788T362 823Q362 844 350 857T316 871Q294 871 282 858T269 823Q269 801 281 788T316 775Z" />
<glyph unicode="&#xc6;" glyph-name="AE" horiz-adv-x="910" d="M367 693H859V597H550V404H789V309H550V96H865V0H430V183H212L117 0H-2L367 693ZM258 275H430V599H426L258 275Z" />
<glyph unicode="&#xc7;" glyph-name="Ccedilla" horiz-adv-x="568" d="M329 -12V-46Q377 -48 402 -66T428 -119Q428 -165 387 -189T243 -219V-163Q297 -158 319 -149T342 -123Q342 -106 324 -100T265 -94V-4Q156 17 95 101T34 336V360Q34 454 59 519T129 626T233
686T359 705Q417 705 459 696T533 669V574Q493 589 455 597T367 606Q322 606 285 593T221 552T180 480T165 374V339Q165 219 212 153T369 87Q429 87 469 99T541 126V31Q505 11 457 0T347 -12H329Z" />
<glyph unicode="&#xc8;" glyph-name="Egrave" horiz-adv-x="555" d="M166 867H288L352 737H255L166 867ZM70 693H503V597H192V404H432V309H192V96H508V0H70V693Z" />
<glyph unicode="&#xc9;" glyph-name="Eacute" horiz-adv-x="555" d="M306 867H428L334 737H237L306 867ZM70 693H503V597H192V404H432V309H192V96H508V0H70V693Z" />
<glyph unicode="&#xca;" glyph-name="Ecircumflex" horiz-adv-x="555" d="M246 864H339L439 737H353L292 792L232 737H146L246 864ZM70 693H503V597H192V404H432V309H192V96H508V0H70V693Z" />
<glyph unicode="&#xcb;" glyph-name="Edieresis" horiz-adv-x="555" d="M70 693H503V597H192V404H432V309H192V96H508V0H70V693ZM331 842H435V742H331V842ZM146 842H250V742H146V842Z" />
<glyph unicode="&#xcc;" glyph-name="Igrave" horiz-adv-x="269" d="M73 693H196V0H73V693ZM265 867H387L451 737H354L265 867Z" />
<glyph unicode="&#xcd;" glyph-name="Iacute" horiz-adv-x="269" d="M73 693H196V0H73V693ZM405 867H527L433 737H336L405 867Z" />
<glyph unicode="&#xce;" glyph-name="Icircumflex" horiz-adv-x="269" d="M73 693H196V0H73V693ZM88 864H181L281 737H195L134 792L74 737H-12L88 864Z" />
<glyph unicode="&#xcf;" glyph-name="Idieresis" horiz-adv-x="269" d="M166 842H266V742H166V842ZM2 842H103V742H2V842ZM73 693H196V0H73V693Z" />
<glyph unicode="&#xd0;" glyph-name="Eth" horiz-adv-x="663" d="M6 394H71V693H297Q457 693 543 614T630 365V344Q630 177 548 89T299 0H71V301H6V394ZM300 96Q403 96 451 150T500 332V366Q500 432 486 476T446 547T380 585T291 597H193V394H368V301H193V96H300Z" />
<glyph unicode="&#xd1;" glyph-name="Ntilde" horiz-adv-x="679" d="M199 741Q202 772 212 793T236 828T267 848T302 854Q319 854 334 850T362 839T388 829T410 824Q438 824 444 856H518Q515 825 505 803T480 768T449 748T414 742Q397 742 382 746T354 757T328
767T306 772Q279 772 272 741H199ZM70 693H208L498 199H501V693H609V0H488L181 527H178V0H70V693Z" />
<glyph unicode="&#xd2;" glyph-name="Ograve" horiz-adv-x="697" d="M221 867H343L407 737H310L221 867ZM347 -12Q276 -12 219 10T120 75T57 184T34 336V357Q34 441 57 506T121 615T221 682T351 705Q421 705 478 683T577 618T640 509T663 357V336Q663 252 640
187T575 78T475 11T347 -12ZM350 83Q396 83 430 100T487 149T521 225T533 322V356Q533 415 523 462T491 541T433 592T346 610Q300 610 266 593T209 544T175 469T164 372V337Q164 278 174 231T206 151T264 101T350 83Z" />
<glyph unicode="&#xd3;" glyph-name="Oacute" horiz-adv-x="697" d="M362 867H484L390 737H293L362 867ZM347 -12Q276 -12 219 10T120 75T57 184T34 336V357Q34 441 57 506T121 615T221 682T351 705Q421 705 478 683T577 618T640 509T663 357V336Q663 252 640
187T575 78T475 11T347 -12ZM350 83Q396 83 430 100T487 149T521 225T533 322V356Q533 415 523 462T491 541T433 592T346 610Q300 610 266 593T209 544T175 469T164 372V337Q164 278 174 231T206 151T264 101T350 83Z" />
<glyph unicode="&#xd4;" glyph-name="Ocircumflex" horiz-adv-x="697" d="M301 864H394L494 737H408L347 792L287 737H201L301 864ZM347 -12Q276 -12 219 10T120 75T57 184T34 336V357Q34 441 57 506T121 615T221 682T351 705Q421 705 478 683T577 618T640 509T663
357V336Q663 252 640 187T575 78T475 11T347 -12ZM350 83Q396 83 430 100T487 149T521 225T533 322V356Q533 415 523 462T491 541T433 592T346 610Q300 610 266 593T209 544T175 469T164 372V337Q164 278 174 231T206 151T264 101T350 83Z" />
<glyph unicode="&#xd5;" glyph-name="Otilde" horiz-adv-x="697" d="M189 741Q192 772 202 793T226 828T257 848T292 854Q309 854 324 850T352 839T378 829T400 824Q428 824 434 856H508Q505 825 495 803T470 768T439 748T404 742Q387 742 372 746T344 757T318
767T296 772Q269 772 262 741H189ZM347 -12Q276 -12 219 10T120 75T57 184T34 336V357Q34 441 57 506T121 615T221 682T351 705Q421 705 478 683T577 618T640 509T663 357V336Q663 252 640 187T575 78T475 11T347 -12ZM350 83Q396 83 430 100T487 149T521 225T533
322V356Q533 415 523 462T491 541T433 592T346 610Q300 610 266 593T209 544T175 469T164 372V337Q164 278 174 231T206 151T264 101T350 83Z" />
<glyph unicode="&#xd6;" glyph-name="Odieresis" horiz-adv-x="697" d="M388 842H492V742H388V842ZM203 842H307V742H203V842ZM347 -12Q276 -12 219 10T120 75T57 184T34 336V357Q34 441 57 506T121 615T221 682T351 705Q421 705 478 683T577 618T640 509T663
357V336Q663 252 640 187T575 78T475 11T347 -12ZM350 83Q396 83 430 100T487 149T521 225T533 322V356Q533 415 523 462T491 541T433 592T346 610Q300 610 266 593T209 544T175 469T164 372V337Q164 278 174 231T206 151T264 101T350 83Z" />
<glyph unicode="&#xd7;" glyph-name="multiply" horiz-adv-x="550" d="M65 183L207 324L65 465L132 531L273 390L414 531L481 465L339 324L481 183L414 118L273 259L132 118L65 183Z" />
<glyph unicode="&#xd8;" glyph-name="Oslash" horiz-adv-x="697" d="M347 -12Q287 -12 237 3T147 51L104 0H6L95 107Q66 149 50 206T34 336V357Q34 441 57 506T121 615T221 682T351 705Q465 705 544 646L583 693H680L596 592Q628 549 645 491T663 357V336Q663
252 640 187T575 78T475 11T347 -12ZM350 82Q397 82 431 99T489 148T523 224T535 322V359Q535 439 516 495L215 133Q261 82 350 82ZM161 336Q161 298 164 266T177 205L475 563Q452 586 421 598T346 611Q299 611 265 594T207 546T173 470T161 372V336Z" />
<glyph unicode="&#xd9;" glyph-name="Ugrave" horiz-adv-x="664" d="M211 867H333L397 737H300L211 867ZM336 -13Q204 -13 135 50T65 243V693H188V250Q188 202 197 169T226 117T274 89T341 80Q378 80 406 88T452 116T479 168T488 250V693H598V246Q598 112 534
50T336 -13Z" />
<glyph unicode="&#xda;" glyph-name="Uacute" horiz-adv-x="664" d="M352 867H474L380 737H283L352 867ZM336 -13Q204 -13 135 50T65 243V693H188V250Q188 202 197 169T226 117T274 89T341 80Q378 80 406 88T452 116T479 168T488 250V693H598V246Q598 112 534
50T336 -13Z" />
<glyph unicode="&#xdb;" glyph-name="Ucircumflex" horiz-adv-x="664" d="M291 864H384L484 737H398L337 792L277 737H191L291 864ZM336 -13Q204 -13 135 50T65 243V693H188V250Q188 202 197 169T226 117T274 89T341 80Q378 80 406 88T452 116T479 168T488 250V693H598V246Q598
112 534 50T336 -13Z" />
<glyph unicode="&#xdc;" glyph-name="Udieresis" horiz-adv-x="664" d="M336 -13Q204 -13 135 50T65 243V693H188V250Q188 202 197 169T226 117T274 89T341 80Q378 80 406 88T452 116T479 168T488 250V693H598V246Q598 112 534 50T336 -13ZM378 842H482V742H378V842ZM193
842H297V742H193V842Z" />
<glyph unicode="&#xdd;" glyph-name="Yacute" horiz-adv-x="578" d="M229 269L5 693H134L296 380H299L458 693H574L351 269V0H229V269ZM311 867H433L339 737H242L311 867Z" />
<glyph unicode="&#xde;" glyph-name="Thorn" horiz-adv-x="576" d="M70 693H192V576H312Q435 576 495 524T555 372Q555 266 492 212T320 158H192V0H70V693ZM298 248Q369 248 399 275T430 363Q430 429 400 455T300 482H192V248H298Z" />
<glyph unicode="&#xdf;" glyph-name="germandbls" horiz-adv-x="582" d="M379 -10Q334 -10 304 -4T242 16V100Q272 90 298 84T361 78Q404 78 426 94T448 136Q448 159 435 173T389 205L348 226Q297 252 274 281T251 362Q251 400 272 430T318 486T364 537T385 589Q385
625 360 643T290 662Q236 662 204 630T171 531V0H57V541Q57 595 76 634T128 699T203 736T292 748Q392 748 445 710T498 599Q498 557 476 526T428 469T379 422T357 380Q357 357 370 344T409 316L456 291Q508 265 534 231T560 143Q560 68 511 29T379 -10Z" />
<glyph unicode="&#xe0;" glyph-name="agrave" horiz-adv-x="485" d="M187 -10Q116 -10 71 26T26 138Q26 174 37 200T71 245T123 275T193 292L317 307V348Q317 375 311 392T290 418T253 432T197 436Q159 436 127 431T70 421V500Q106 514 148 521T242 529Q332 529
381 492T431 374V0H337L327 42H321Q303 19 271 5T187 -10ZM221 71Q250 71 276 79T317 102V232L219 222Q179 218 160 201T140 144Q140 106 162 89T221 71ZM348 733H471L551 585H454L348 733Z" />
<glyph unicode="&#xe1;" glyph-name="aacute" horiz-adv-x="485" d="M187 -10Q116 -10 71 26T26 138Q26 174 37 200T71 245T123 275T193 292L317 307V348Q317 375 311 392T290 418T253 432T197 436Q159 436 127 431T70 421V500Q106 514 148 521T242 529Q332 529
381 492T431 374V0H337L327 42H321Q303 19 271 5T187 -10ZM221 71Q250 71 276 79T317 102V232L219 222Q179 218 160 201T140 144Q140 106 162 89T221 71ZM521 733H644L538 585H441L521 733Z" />
<glyph unicode="&#xe2;" glyph-name="acircumflex" horiz-adv-x="485" d="M187 -10Q116 -10 71 26T26 138Q26 174 37 200T71 245T123 275T193 292L317 307V348Q317 375 311 392T290 418T253 432T197 436Q159 436 127 431T70 421V500Q106 514 148 521T242 529Q332
529 381 492T431 374V0H337L327 42H321Q303 19 271 5T187 -10ZM221 71Q250 71 276 79T317 102V232L219 222Q179 218 160 201T140 144Q140 106 162 89T221 71ZM454 732H551L653 585H567L502 657L438 585H352L454 732Z" />
<glyph unicode="&#xe3;" glyph-name="atilde" horiz-adv-x="485" d="M187 -10Q116 -10 71 26T26 138Q26 174 37 200T71 245T123 275T193 292L317 307V348Q317 375 311 392T290 418T253 432T197 436Q159 436 127 431T70 421V500Q106 514 148 521T242 529Q332 529
381 492T431 374V0H337L327 42H321Q303 19 271 5T187 -10ZM221 71Q250 71 276 79T317 102V232L219 222Q179 218 160 201T140 144Q140 106 162 89T221 71ZM86 600Q89 631 99 653T123 690T154 711T189 718Q206 718 221 713T249 701T275 690T297 684Q325 684 331 719H405Q402
687 392 665T367 629T336 608T301 601Q284 601 269 606T241 618T215 629T193 635Q167 635 159 600H86Z" />
<glyph unicode="&#xe4;" glyph-name="adieresis" horiz-adv-x="485" d="M187 -10Q116 -10 71 26T26 138Q26 174 37 200T71 245T123 275T193 292L317 307V348Q317 375 311 392T290 418T253 432T197 436Q159 436 127 431T70 421V500Q106 514 148 521T242 529Q332
529 381 492T431 374V0H337L327 42H321Q303 19 271 5T187 -10ZM221 71Q250 71 276 79T317 102V232L219 222Q179 218 160 201T140 144Q140 106 162 89T221 71ZM541 710H645V608H541V710ZM360 710H464V608H360V710Z" />
<glyph unicode="&#xe5;" glyph-name="aring" horiz-adv-x="485" d="M187 -10Q116 -10 71 26T26 138Q26 174 37 200T71 245T123 275T193 292L317 307V348Q317 375 311 392T290 418T253 432T197 436Q159 436 127 431T70 421V500Q106 514 148 521T242 529Q332 529
381 492T431 374V0H337L327 42H321Q303 19 271 5T187 -10ZM221 71Q250 71 276 79T317 102V232L219 222Q179 218 160 201T140 144Q140 106 162 89T221 71ZM498 576Q452 576 423 604T394 673Q394 714 423 742T498 771Q520 771 539 764T572 743T593 711T601 673Q601
633 572 605T498 576ZM498 626Q519 626 531 638T544 673Q544 695 532 708T498 721Q476 721 464 708T451 673Q451 651 463 639T498 626Z" />
<glyph unicode="&#xe6;" glyph-name="ae" horiz-adv-x="798" d="M188 -10Q116 -10 71 26T26 138Q26 209 71 244T193 290L317 306V348Q317 375 311 392T290 418T253 432T197 436Q159 436 127 431T70 421V500Q143 529 240 529Q358 529 392 456Q448 529 554 529Q667
529 719 466T771 277V231H433Q436 189 447 160T479 114T528 89T594 81Q645 81 682 91T754 118V39Q728 22 683 6T571 -10Q502 -10 453 10T371 69Q337 31 294 11T188 -10ZM338 124Q319 171 316 234L219 224Q179 220 160 202T140 145Q140 106 162 89T221 71Q256 71
285 84T338 124ZM549 444Q530 444 511 438T475 417T448 375T433 308H655Q655 382 629 413T549 444Z" />
<glyph unicode="&#xe7;" glyph-name="ccedilla" horiz-adv-x="450" d="M260 -10V-46Q360 -51 360 -119Q360 -165 319 -189T175 -219V-163Q229 -158 251 -149T274 -123Q274 -106 256 -100T196 -94V-1Q115 19 71 80T27 248V264Q27 332 46 382T100 464T180 513T281
529Q333 529 365 520T424 497V408Q408 414 394 419T363 429T329 435T286 437Q221 437 184 397T146 277V253Q146 162 183 122T295 82Q343 82 376 93T429 115V30Q404 14 367 2T275 -10H260Z" />
<glyph unicode="&#xe8;" glyph-name="egrave" horiz-adv-x="511" d="M284 -10Q155 -10 91 59T27 253V267Q27 333 45 382T96 463T172 512T265 529Q379 529 431 465T484 277V228H145Q148 187 159 159T191 113T241 89T307 81Q358 81 395 91T467 118V39Q441 22 396
6T284 -10ZM262 444Q242 444 223 438T187 416T160 374T145 307H368Q368 382 342 413T262 444ZM116 733H239L319 585H222L116 733Z" />
<glyph unicode="&#xe9;" glyph-name="eacute" horiz-adv-x="511" d="M289 733H412L306 585H209L289 733ZM284 -10Q155 -10 91 59T27 253V267Q27 333 45 382T96 463T172 512T265 529Q379 529 431 465T484 277V228H145Q148 187 159 159T191 113T241 89T307 81Q358
81 395 91T467 118V39Q441 22 396 6T284 -10ZM262 444Q242 444 223 438T187 416T160 374T145 307H368Q368 382 342 413T262 444Z" />
<glyph unicode="&#xea;" glyph-name="ecircumflex" horiz-adv-x="511" d="M217 732H314L416 585H330L265 657L201 585H115L217 732ZM284 -10Q155 -10 91 59T27 253V267Q27 333 45 382T96 463T172 512T265 529Q379 529 431 465T484 277V228H145Q148 187 159 159T191
113T241 89T307 81Q358 81 395 91T467 118V39Q441 22 396 6T284 -10ZM262 444Q242 444 223 438T187 416T160 374T145 307H368Q368 382 342 413T262 444Z" />
<glyph unicode="&#xeb;" glyph-name="edieresis" horiz-adv-x="511" d="M304 710H408V608H304V710ZM123 710H227V608H123V710ZM284 -10Q155 -10 91 59T27 253V267Q27 333 45 382T96 463T172 512T265 529Q379 529 431 465T484 277V228H145Q148 187 159 159T191
113T241 89T307 81Q358 81 395 91T467 118V39Q441 22 396 6T284 -10ZM262 444Q242 444 223 438T187 416T160 374T145 307H368Q368 382 342 413T262 444Z" />
<glyph unicode="&#xec;" glyph-name="igrave" horiz-adv-x="234" d="M60 519H174V0H60V519ZM-31 733H92L172 585H75L-31 733Z" />
<glyph unicode="&#xed;" glyph-name="iacute" horiz-adv-x="234" d="M141 733H264L158 585H61L141 733ZM60 519H174V0H60V519Z" />
<glyph unicode="&#xee;" glyph-name="icircumflex" horiz-adv-x="234" d="M60 519H174V0H60V519ZM69 732H165L255 585H169L116 656L65 585H-22L69 732Z" />
<glyph unicode="&#xef;" glyph-name="idieresis" horiz-adv-x="234" d="M146 710H247V608H146V710ZM-13 710H87V608H-13V710ZM60 519H174V0H60V519Z" />
<glyph unicode="&#xf0;" glyph-name="eth" horiz-adv-x="547" d="M221 652Q196 674 168 695T110 739H253Q270 728 287 716T323 690L421 727L442 670L374 644Q403 615 429 580T474 501T505 408T517 299V271Q517 200 500 148T450 60T373 8T271 -10Q153 -10 90 57T27
249V265Q27 327 44 375T91 457T164 507T257 525Q283 525 303 519T340 504H346Q317 557 270 605L130 553L110 610L221 652ZM399 288Q399 358 383 413Q365 425 339 433T278 441Q145 441 145 274V249Q145 198 155 165T182 113T222 85T273 77Q332 77 365 120T399 262V288Z"
/>
<glyph unicode="&#xf1;" glyph-name="ntilde" horiz-adv-x="548" d="M57 519H166V474H171Q204 498 249 513T343 529Q418 529 456 496T494 386V0H380V358Q380 399 362 416T290 434Q260 434 228 425T171 405V0H57V519ZM119 600Q122 631 132 653T156 690T187 711T222
718Q239 718 254 713T282 701T308 690T330 684Q358 684 364 719H438Q435 687 425 665T400 629T369 608T334 601Q317 601 302 606T274 618T248 629T226 635Q200 635 192 600H119Z" />
<glyph unicode="&#xf2;" glyph-name="ograve" horiz-adv-x="546" d="M273 -10Q155 -10 91 58T27 249V265Q27 328 45 377T95 459T173 511T274 529Q391 529 455 462T519 269V254Q519 191 501 142T451 59T373 8T273 -10ZM275 77Q335 77 368 118T401 244V270Q401 321
391 354T364 406T323 434T272 442Q211 442 178 401T145 274V249Q145 198 155 165T182 113T224 85T275 77ZM124 733H247L327 585H230L124 733Z" />
<glyph unicode="&#xf3;" glyph-name="oacute" horiz-adv-x="546" d="M296 733H419L313 585H216L296 733ZM273 -10Q155 -10 91 58T27 249V265Q27 328 45 377T95 459T173 511T274 529Q391 529 455 462T519 269V254Q519 191 501 142T451 59T373 8T273 -10ZM275 77Q335
77 368 118T401 244V270Q401 321 391 354T364 406T323 434T272 442Q211 442 178 401T145 274V249Q145 198 155 165T182 113T224 85T275 77Z" />
<glyph unicode="&#xf4;" glyph-name="ocircumflex" horiz-adv-x="546" d="M224 732H321L423 585H337L272 657L208 585H122L224 732ZM273 -10Q155 -10 91 58T27 249V265Q27 328 45 377T95 459T173 511T274 529Q391 529 455 462T519 269V254Q519 191 501 142T451
59T373 8T273 -10ZM275 77Q335 77 368 118T401 244V270Q401 321 391 354T364 406T323 434T272 442Q211 442 178 401T145 274V249Q145 198 155 165T182 113T224 85T275 77Z" />
<glyph unicode="&#xf5;" glyph-name="otilde" horiz-adv-x="546" d="M273 -10Q155 -10 91 58T27 249V265Q27 328 45 377T95 459T173 511T274 529Q391 529 455 462T519 269V254Q519 191 501 142T451 59T373 8T273 -10ZM275 77Q335 77 368 118T401 244V270Q401 321
391 354T364 406T323 434T272 442Q211 442 178 401T145 274V249Q145 198 155 165T182 113T224 85T275 77ZM114 600Q117 631 127 653T151 690T182 711T217 718Q234 718 249 713T277 701T303 690T325 684Q353 684 359 719H433Q430 687 420 665T395 629T364 608T329
601Q312 601 297 606T269 618T243 629T221 635Q195 635 187 600H114Z" />
<glyph unicode="&#xf6;" glyph-name="odieresis" horiz-adv-x="546" d="M311 710H415V608H311V710ZM130 710H234V608H130V710ZM273 -10Q155 -10 91 58T27 249V265Q27 328 45 377T95 459T173 511T274 529Q391 529 455 462T519 269V254Q519 191 501 142T451 59T373
8T273 -10ZM275 77Q335 77 368 118T401 244V270Q401 321 391 354T364 406T323 434T272 442Q211 442 178 401T145 274V249Q145 198 155 165T182 113T224 85T275 77Z" />
<glyph unicode="&#xf7;" glyph-name="divide" horiz-adv-x="518" d="M44 383H475V289H44V383ZM199 228H319V112H199V228ZM199 560H319V444H199V560Z" />
<glyph unicode="&#xf8;" glyph-name="oslash" horiz-adv-x="546" d="M273 -10Q179 -10 117 35L86 0H-1L71 83Q27 147 27 249V265Q27 328 45 377T95 459T173 511T274 529Q319 529 357 518T424 487L452 519H539L471 441Q494 409 506 366T519 269V254Q519 191 501
142T451 59T373 8T273 -10ZM275 74Q335 74 369 116T403 244V272Q403 320 394 353L180 107Q197 89 220 82T275 74ZM143 247Q143 203 149 172L361 415Q344 431 322 438T272 445Q210 445 177 402T143 274V247Z" />
<glyph unicode="&#xf9;" glyph-name="ugrave" horiz-adv-x="542" d="M212 -10Q136 -10 95 27T54 142V519H168V163Q168 120 186 102T254 83Q289 83 317 93T371 115V519H485V0H386L376 45H371Q338 21 300 6T212 -10ZM123 733H246L326 585H229L123 733Z" />
<glyph unicode="&#xfa;" glyph-name="uacute" horiz-adv-x="542" d="M296 733H419L313 585H216L296 733ZM212 -10Q136 -10 95 27T54 142V519H168V163Q168 120 186 102T254 83Q289 83 317 93T371 115V519H485V0H386L376 45H371Q338 21 300 6T212 -10Z" />
<glyph unicode="&#xfb;" glyph-name="ucircumflex" horiz-adv-x="542" d="M223 732H320L422 585H336L271 657L207 585H121L223 732ZM212 -10Q136 -10 95 27T54 142V519H168V163Q168 120 186 102T254 83Q289 83 317 93T371 115V519H485V0H386L376 45H371Q338 21
300 6T212 -10Z" />
<glyph unicode="&#xfc;" glyph-name="udieresis" horiz-adv-x="542" d="M310 710H414V608H310V710ZM129 710H233V608H129V710ZM212 -10Q136 -10 95 27T54 142V519H168V163Q168 120 186 102T254 83Q289 83 317 93T371 115V519H485V0H386L376 45H371Q338 21 300 6T212 -10Z" />
<glyph unicode="&#xfd;" glyph-name="yacute" horiz-adv-x="503" d="M110 -199Q90 -199 68 -195T34 -183V-105Q57 -110 85 -110Q121 -110 145 -94T183 -40L203 11L6 519H127L260 152H263L386 519H497L289 -58Q263 -133 222 -166T110 -199ZM285 733H408L302 585H205L285
733Z" />
<glyph unicode="&#xfe;" glyph-name="thorn" horiz-adv-x="558" d="M57 739H171V481H176Q199 501 236 515T321 529Q362 529 399 516T465 474T511 396T528 276V262Q528 189 511 138T464 53T390 5T293 -10Q250 -10 220 -1T171 19V-195H57V739ZM277 77Q340 77 375
114T410 248V268Q410 317 402 349T377 401T337 427T282 435Q244 435 215 426T171 405V107Q186 95 214 86T277 77Z" />
<glyph unicode="&#xff;" glyph-name="ydieresis" horiz-adv-x="503" d="M110 -199Q90 -199 68 -195T34 -183V-105Q57 -110 85 -110Q121 -110 145 -94T183 -40L203 11L6 519H127L260 152H263L386 519H497L289 -58Q263 -133 222 -166T110 -199ZM300 710H404V608H300V710ZM119
710H223V608H119V710Z" />
<glyph unicode="&#x100;" glyph-name="Amacron" horiz-adv-x="630" d="M254 693H379L626 0H500L437 178H179L117 0H5L254 693ZM209 269H406L308 548H305L209 269ZM187 829H442V743H187V829Z" />
<glyph unicode="&#x101;" glyph-name="amacron" horiz-adv-x="485" d="M187 -10Q116 -10 71 26T26 138Q26 174 37 200T71 245T123 275T193 292L317 307V348Q317 375 311 392T290 418T253 432T197 436Q159 436 127 431T70 421V500Q106 514 148 521T242 529Q332
529 381 492T431 374V0H337L327 42H321Q303 19 271 5T187 -10ZM221 71Q250 71 276 79T317 102V232L219 222Q179 218 160 201T140 144Q140 106 162 89T221 71ZM375 698H626V612H375V698Z" />
<glyph unicode="&#x102;" glyph-name="Abreve" horiz-adv-x="630" d="M254 693H379L626 0H500L437 178H179L117 0H5L254 693ZM209 269H406L308 548H305L209 269ZM315 734Q252 734 215 770T174 864H255Q259 839 273 825T315 810Q342 810 356 824T374 864H455Q454
835 444 812T415 771T371 744T315 734Z" />
<glyph unicode="&#x103;" glyph-name="abreve" horiz-adv-x="485" d="M187 -10Q116 -10 71 26T26 138Q26 174 37 200T71 245T123 275T193 292L317 307V348Q317 375 311 392T290 418T253 432T197 436Q159 436 127 431T70 421V500Q106 514 148 521T242 529Q332 529
381 492T431 374V0H337L327 42H321Q303 19 271 5T187 -10ZM221 71Q250 71 276 79T317 102V232L219 222Q179 218 160 201T140 144Q140 106 162 89T221 71ZM503 591Q440 591 403 627T362 723H443Q447 697 461 683T503 668Q530 668 544 682T562 723H643Q641 664 603
628T503 591Z" />
<glyph unicode="&#x104;" glyph-name="Aogonek" horiz-adv-x="630" d="M561 -200Q507 -200 479 -177T450 -114Q450 -96 456 -79T473 -47T496 -20T521 0H500L437 178H179L118 0H5L254 693H379L624 4Q588 -21 567 -46T545 -95Q545 -115 559 -122T593 -129Q602 -129
610 -128T624 -125V-189Q613 -193 598 -196T561 -200ZM209 269H406L309 548H305L209 269Z" />
<glyph unicode="&#x105;" glyph-name="aogonek" horiz-adv-x="485" d="M375 -200Q322 -200 293 -177T264 -114Q264 -95 270 -79T287 -48T311 -23T338 -4L327 42H321Q303 19 271 5T187 -10Q116 -10 71 26T26 138Q26 174 37 200T71 245T123 275T193 292L317 307V348Q317
375 311 392T290 418T253 432T197 436Q159 436 127 431T70 421V500Q106 514 148 521T242 529Q332 529 381 492T431 374V1Q400 -22 380 -46T360 -95Q360 -115 373 -122T407 -129Q416 -129 424 -128T438 -125V-189Q427 -193 412 -196T375 -200ZM221 71Q250 71 276
79T317 102V232L219 222Q179 218 160 201T140 144Q140 106 162 89T221 71Z" />
<glyph unicode="&#x106;" glyph-name="Cacute" horiz-adv-x="568" d="M347 -12Q275 -12 217 9T119 74T56 182T34 336V360Q34 454 59 519T129 626T233 686T359 705Q417 705 459 696T533 669V574Q493 589 455 597T367 606Q322 606 285 593T221 552T180 480T165 374V339Q165
219 212 153T369 87Q429 87 469 99T541 126V31Q505 11 457 0T347 -12ZM352 867H474L380 737H283L352 867Z" />
<glyph unicode="&#x107;" glyph-name="cacute" horiz-adv-x="450" d="M285 733H408L302 585H205L285 733ZM275 -10Q159 -10 93 54T27 248V264Q27 332 46 382T100 464T180 513T281 529Q333 529 365 520T424 497V408Q408 414 394 419T363 429T329 435T286 437Q221
437 184 397T146 277V253Q146 162 183 122T295 82Q343 82 376 93T429 115V30Q404 14 367 2T275 -10Z" />
<glyph unicode="&#x108;" glyph-name="Ccircumflex" horiz-adv-x="568" d="M291 864H384L484 737H398L337 792L277 737H191L291 864ZM347 -12Q275 -12 217 9T119 74T56 182T34 336V360Q34 454 59 519T129 626T233 686T359 705Q417 705 459 696T533 669V574Q493
589 455 597T367 606Q322 606 285 593T221 552T180 480T165 374V339Q165 219 212 153T369 87Q429 87 469 99T541 126V31Q505 11 457 0T347 -12Z" />
<glyph unicode="&#x109;" glyph-name="ccircumflex" horiz-adv-x="450" d="M213 732H310L412 585H326L261 657L197 585H111L213 732ZM275 -10Q159 -10 93 54T27 248V264Q27 332 46 382T100 464T180 513T281 529Q333 529 365 520T424 497V408Q408 414 394 419T363
429T329 435T286 437Q221 437 184 397T146 277V253Q146 162 183 122T295 82Q343 82 376 93T429 115V30Q404 14 367 2T275 -10Z" />
<glyph unicode="&#x10a;" glyph-name="Cdotaccent" horiz-adv-x="568" d="M347 -12Q275 -12 217 9T119 74T56 182T34 336V360Q34 454 59 519T129 626T233 686T359 705Q417 705 459 696T533 669V574Q493 589 455 597T367 606Q322 606 285 593T221 552T180 480T165
374V339Q165 219 212 153T369 87Q429 87 469 99T541 126V31Q505 11 457 0T347 -12ZM281 844H395V742H281V844Z" />
<glyph unicode="&#x10b;" glyph-name="cdotaccent" horiz-adv-x="450" d="M275 -10Q159 -10 93 54T27 248V264Q27 332 46 382T100 464T180 513T281 529Q333 529 365 520T424 497V408Q408 414 394 419T363 429T329 435T286 437Q221 437 184 397T146 277V253Q146
162 183 122T295 82Q343 82 376 93T429 115V30Q404 14 367 2T275 -10ZM203 712H319V608H203V712Z" />
<glyph unicode="&#x10c;" glyph-name="Ccaron" horiz-adv-x="568" d="M384 737H291L191 864H277L338 809L398 864H484L384 737ZM347 -12Q275 -12 217 9T119 74T56 182T34 336V360Q34 454 59 519T129 626T233 686T359 705Q417 705 459 696T533 669V574Q493 589
455 597T367 606Q322 606 285 593T221 552T180 480T165 374V339Q165 219 212 153T369 87Q429 87 469 99T541 126V31Q505 11 457 0T347 -12Z" />
<glyph unicode="&#x10d;" glyph-name="ccaron" horiz-adv-x="450" d="M310 585H213L111 732H197L262 661L326 732H412L310 585ZM275 -10Q159 -10 93 54T27 248V264Q27 332 46 382T100 464T180 513T281 529Q333 529 365 520T424 497V408Q408 414 394 419T363 429T329
435T286 437Q221 437 184 397T146 277V253Q146 162 183 122T295 82Q343 82 376 93T429 115V30Q404 14 367 2T275 -10Z" />
<glyph unicode="&#x10e;" glyph-name="Dcaron" horiz-adv-x="662" d="M362 737H269L169 864H255L316 809L376 864H462L362 737ZM70 693H297Q456 693 542 614T629 365V344Q629 177 547 89T298 0H70V693ZM299 96Q402 96 450 150T499 332V366Q499 432 485 476T444
547T378 585T289 597H192V96H299Z" />
<glyph unicode="&#x10f;" glyph-name="dcaron" horiz-adv-x="558" d="M544 576L553 739H650L617 576H544ZM242 -10Q203 -10 165 3T97 46T49 124T30 244V257Q30 329 47 380T95 465T168 513T262 529Q308 529 338 520T387 499V739H502V0H404L394 41H389Q366 18 330
4T242 -10ZM282 79Q319 79 345 91T387 115V413Q373 425 345 432T281 440Q250 440 226 432T184 403T157 350T148 269V249Q148 200 157 167T185 115T227 87T282 79Z" />
<glyph unicode="&#x110;" glyph-name="Dcroat" horiz-adv-x="663" d="M6 394H71V693H297Q457 693 543 614T630 365V344Q630 177 548 89T299 0H71V301H6V394ZM300 96Q403 96 451 150T500 332V366Q500 432 486 476T446 547T380 585T291 597H193V394H368V301H193V96H300Z" />
<glyph unicode="&#x111;" glyph-name="dcroat" horiz-adv-x="558" d="M245 655H387V739H502V655H562V589H502V0H404L394 41H389Q366 18 330 4T242 -10Q203 -10 165 3T97 46T49 124T30 244V257Q30 329 47 380T95 465T168 513T262 529Q308 529 338 520T387 499V589H245V655ZM282
79Q319 79 345 91T387 115V413Q373 425 345 432T281 440Q250 440 226 432T184 403T157 350T148 269V249Q148 200 157 167T185 115T227 87T282 79Z" />
<glyph unicode="&#x112;" glyph-name="Emacron" horiz-adv-x="555" d="M70 693H503V597H192V404H432V309H192V96H508V0H70V693ZM163 829H418V743H163V829Z" />
<glyph unicode="&#x113;" glyph-name="emacron" horiz-adv-x="511" d="M284 -10Q155 -10 91 59T27 253V267Q27 333 45 382T96 463T172 512T265 529Q379 529 431 465T484 277V228H145Q148 187 159 159T191 113T241 89T307 81Q358 81 395 91T467 118V39Q441 22 396
6T284 -10ZM262 444Q242 444 223 438T187 416T160 374T145 307H368Q368 382 342 413T262 444ZM140 698H391V612H140V698Z" />
<glyph unicode="&#x114;" glyph-name="Ebreve" horiz-adv-x="555" d="M70 693H503V597H192V404H432V309H192V96H508V0H70V693ZM292 734Q229 734 192 770T151 864H232Q236 839 250 825T292 810Q319 810 333 824T351 864H432Q431 835 421 812T392 771T348 744T292 734Z" />
<glyph unicode="&#x115;" glyph-name="ebreve" horiz-adv-x="511" d="M284 -10Q155 -10 91 59T27 253V267Q27 333 45 382T96 463T172 512T265 529Q379 529 431 465T484 277V228H145Q148 187 159 159T191 113T241 89T307 81Q358 81 395 91T467 118V39Q441 22 396
6T284 -10ZM262 444Q242 444 223 438T187 416T160 374T145 307H368Q368 382 342 413T262 444ZM265 591Q202 591 165 627T124 723H205Q209 697 223 683T265 668Q292 668 306 682T324 723H405Q403 664 365 628T265 591Z" />
<glyph unicode="&#x116;" glyph-name="Edotaccent" horiz-adv-x="555" d="M238 844H352V742H238V844ZM70 693H503V597H192V404H432V309H192V96H508V0H70V693Z" />
<glyph unicode="&#x117;" glyph-name="edotaccent" horiz-adv-x="511" d="M284 -10Q155 -10 91 59T27 253V267Q27 333 45 382T96 463T172 512T265 529Q379 529 431 465T484 277V228H145Q148 187 159 159T191 113T241 89T307 81Q358 81 395 91T467 118V39Q441 22
396 6T284 -10ZM262 444Q242 444 223 438T187 416T160 374T145 307H368Q368 382 342 413T262 444ZM207 712H323V608H207V712Z" />
<glyph unicode="&#x118;" glyph-name="Eogonek" horiz-adv-x="555" d="M70 693H503V597H192V404H432V309H192V96H508V0H458Q429 -23 409 -47T389 -95Q389 -115 402 -121T436 -128Q456 -128 467 -125V-189Q456 -193 441 -196T404 -200Q350 -200 322 -177T293 -114Q293
-95 300 -78T318 -46T343 -20T371 0H70V693Z" />
<glyph unicode="&#x119;" glyph-name="eogonek" horiz-adv-x="511" d="M339 -200Q285 -200 257 -177T228 -114Q228 -78 250 -52T298 -10H284Q155 -10 91 59T27 253V267Q27 333 45 382T96 463T172 512T265 529Q379 529 431 465T484 277V228H145Q148 187 159 159T191
113T241 89T307 81Q358 81 395 91T467 118V39Q452 28 432 18T391 -6Q363 -24 344 -47T324 -95Q324 -115 337 -122T371 -129Q380 -129 388 -128T402 -125V-189Q391 -193 376 -196T339 -200ZM262 444Q242 444 223 438T187 416T160 374T145 307H368Q368 382 342 413T262
444Z" />
<glyph unicode="&#x11a;" glyph-name="Ecaron" horiz-adv-x="555" d="M341 737H248L148 864H234L295 809L355 864H441L341 737ZM70 693H503V597H192V404H432V309H192V96H508V0H70V693Z" />
<glyph unicode="&#x11b;" glyph-name="ecaron" horiz-adv-x="511" d="M313 585H216L114 732H200L265 661L329 732H415L313 585ZM284 -10Q155 -10 91 59T27 253V267Q27 333 45 382T96 463T172 512T265 529Q379 529 431 465T484 277V228H145Q148 187 159 159T191
113T241 89T307 81Q358 81 395 91T467 118V39Q441 22 396 6T284 -10ZM262 444Q242 444 223 438T187 416T160 374T145 307H368Q368 382 342 413T262 444Z" />
<glyph unicode="&#x11c;" glyph-name="Gcircumflex" horiz-adv-x="642" d="M303 864H396L496 737H410L349 792L289 737H203L303 864ZM366 -12Q290 -12 229 7T125 68T58 175T34 332V353Q34 452 62 519T136 628T244 687T373 705Q440 705 486 693T563 664V567Q532
580 489 593T376 606Q315 606 274 587T209 534T174 457T163 364V333Q163 278 171 233T203 154T265 103T366 84Q397 84 426 88T474 100V259H344V351H592V30Q553 14 495 1T366 -12Z" />
<glyph unicode="&#x11d;" glyph-name="gcircumflex" horiz-adv-x="517" d="M215 732H312L414 585H328L263 657L199 585H113L215 732ZM248 -199Q124 -199 66 -164T7 -70Q7 -28 35 -2T104 39V44Q81 52 66 71T50 118Q50 174 111 220Q81 240 63 272T45 349V358Q45
399 60 431T102 484T168 517T252 529Q295 529 333 520H509V442H428Q455 412 455 362V353Q455 311 440 280T397 228T333 197T251 187Q204 187 168 197Q150 181 150 159Q150 119 196 119H340Q377 119 408 112T461 88T495 45T508 -20Q508 -58 493 -90T447 -147T366
-185T248 -199ZM246 -117Q327 -117 359 -96T391 -39Q391 -8 374 5T310 18H175Q152 10 136 -7T120 -52Q120 -84 148 -100T246 -117ZM251 263Q296 263 320 283T345 349V363Q345 411 320 431T251 452Q206 452 182 430T157 365V351Q157 305 182 284T251 263Z" />
<glyph unicode="&#x11e;" glyph-name="Gbreve" horiz-adv-x="642" d="M350 734Q287 734 250 770T209 864H290Q294 839 308 825T350 810Q377 810 391 824T409 864H490Q489 835 479 812T450 771T406 744T350 734ZM366 -12Q290 -12 229 7T125 68T58 175T34 332V353Q34
452 62 519T136 628T244 687T373 705Q440 705 486 693T563 664V567Q532 580 489 593T376 606Q315 606 274 587T209 534T174 457T163 364V333Q163 278 171 233T203 154T265 103T366 84Q397 84 426 88T474 100V259H344V351H592V30Q553 14 495 1T366 -12Z" />
<glyph unicode="&#x11f;" glyph-name="gbreve" horiz-adv-x="517" d="M248 -199Q124 -199 66 -164T7 -70Q7 -28 35 -2T104 39V44Q81 52 66 71T50 118Q50 174 111 220Q81 240 63 272T45 349V358Q45 399 60 431T102 484T168 517T252 529Q295 529 333 520H509V442H428Q455
412 455 362V353Q455 311 440 280T397 228T333 197T251 187Q204 187 168 197Q150 181 150 159Q150 119 196 119H340Q377 119 408 112T461 88T495 45T508 -20Q508 -58 493 -90T447 -147T366 -185T248 -199ZM246 -117Q327 -117 359 -96T391 -39Q391 -8 374 5T310
18H175Q152 10 136 -7T120 -52Q120 -84 148 -100T246 -117ZM251 263Q296 263 320 283T345 349V363Q345 411 320 431T251 452Q206 452 182 430T157 365V351Q157 305 182 284T251 263ZM265 591Q202 591 165 627T124 723H205Q209 697 223 683T265 668Q292 668 306
682T324 723H405Q403 664 365 628T265 591Z" />
<glyph unicode="&#x120;" glyph-name="Gdotaccent" horiz-adv-x="642" d="M293 844H407V742H293V844ZM366 -12Q290 -12 229 7T125 68T58 175T34 332V353Q34 452 62 519T136 628T244 687T373 705Q440 705 486 693T563 664V567Q532 580 489 593T376 606Q315 606
274 587T209 534T174 457T163 364V333Q163 278 171 233T203 154T265 103T366 84Q397 84 426 88T474 100V259H344V351H592V30Q553 14 495 1T366 -12Z" />
<glyph unicode="&#x121;" glyph-name="gdotaccent" horiz-adv-x="517" d="M248 -199Q124 -199 66 -164T7 -70Q7 -28 35 -2T104 39V44Q81 52 66 71T50 118Q50 174 111 220Q81 240 63 272T45 349V358Q45 399 60 431T102 484T168 517T252 529Q295 529 333 520H509V442H428Q455
412 455 362V353Q455 311 440 280T397 228T333 197T251 187Q204 187 168 197Q150 181 150 159Q150 119 196 119H340Q377 119 408 112T461 88T495 45T508 -20Q508 -58 493 -90T447 -147T366 -185T248 -199ZM246 -117Q327 -117 359 -96T391 -39Q391 -8 374 5T310
18H175Q152 10 136 -7T120 -52Q120 -84 148 -100T246 -117ZM251 263Q296 263 320 283T345 349V363Q345 411 320 431T251 452Q206 452 182 430T157 365V351Q157 305 182 284T251 263ZM206 712H322V608H206V712Z" />
<glyph unicode="&#x122;" glyph-name="Gcommaaccent" horiz-adv-x="642" d="M298 -40H414L367 -182H286L298 -40ZM366 -12Q290 -12 229 7T125 68T58 175T34 332V353Q34 452 62 519T136 628T244 687T373 705Q440 705 486 693T563 664V567Q532 580 489 593T376 606Q315
606 274 587T209 534T174 457T163 364V333Q163 278 171 233T203 154T265 103T366 84Q397 84 426 88T474 100V259H344V351H592V30Q553 14 495 1T366 -12Z" />
<glyph unicode="&#x123;" glyph-name="gcommaaccent" horiz-adv-x="517" d="M317 601H200L247 743H328L317 601ZM248 -199Q124 -199 66 -164T7 -70Q7 -28 35 -2T104 39V44Q81 52 66 71T50 118Q50 174 111 220Q81 240 63 272T45 349V358Q45 399 60 431T102 484T168
517T252 529Q295 529 333 520H509V442H428Q455 412 455 362V353Q455 311 440 280T397 228T333 197T251 187Q204 187 168 197Q150 181 150 159Q150 119 196 119H340Q377 119 408 112T461 88T495 45T508 -20Q508 -58 493 -90T447 -147T366 -185T248 -199ZM246 -117Q327
-117 359 -96T391 -39Q391 -8 374 5T310 18H175Q152 10 136 -7T120 -52Q120 -84 148 -100T246 -117ZM251 263Q296 263 320 283T345 349V363Q345 411 320 431T251 452Q206 452 182 430T157 365V351Q157 305 182 284T251 263Z" />
<glyph unicode="&#x124;" glyph-name="Hcircumflex" horiz-adv-x="683" d="M70 693H192V406H491V693H613V0H491V310H192V0H70V693ZM295 864H388L488 737H402L341 792L281 737H195L295 864Z" />
<glyph unicode="&#x125;" glyph-name="hcircumflex" horiz-adv-x="548" d="M57 739H171V476H176Q208 499 251 514T343 529Q418 529 456 496T494 386V0H380V358Q380 399 362 416T290 434Q260 434 228 425T171 405V0H57V739ZM235 913H328L428 786H342L281 841L221
786H135L235 913Z" />
<glyph unicode="&#x126;" glyph-name="Hbar" horiz-adv-x="683" d="M15 574H70V693H192V574H491V693H613V574H668V502H613V0H491V310H192V0H70V502H15V574ZM491 404V502H192V404H491Z" />
<glyph unicode="&#x127;" glyph-name="hbar" horiz-adv-x="548" d="M57 589H-4V655H57V739H171V655H313V589H171V476H176Q208 499 251 514T343 529Q418 529 456 496T494 386V0H380V358Q380 399 362 416T290 434Q260 434 228 425T171 405V0H57V589Z" />
<glyph unicode="&#x128;" glyph-name="Itilde" horiz-adv-x="269" d="M73 693H196V0H73V693ZM232 741Q235 772 245 793T269 828T300 848T335 854Q352 854 367 850T395 839T421 829T443 824Q471 824 477 856H551Q548 825 538 803T513 768T482 748T447 742Q430 742
415 746T387 757T361 767T339 772Q312 772 305 741H232Z" />
<glyph unicode="&#x129;" glyph-name="itilde" horiz-adv-x="234" d="M60 519H174V0H60V519ZM-31 600Q-28 631 -19 653T4 690T32 711T64 718Q80 718 94 713T121 702T144 690T163 685Q186 685 192 719H264Q261 687 252 665T229 629T201 608T169 601Q153 601 139
606T112 618T90 629T71 635Q47 635 41 600H-31Z" />
<glyph unicode="&#x12a;" glyph-name="Imacron" horiz-adv-x="269" d="M73 693H196V0H73V693ZM26 829H242V743H26V829Z" />
<glyph unicode="&#x12b;" glyph-name="imacron" horiz-adv-x="234" d="M12 698H221V612H12V698ZM60 519H174V0H60V519Z" />
<glyph unicode="&#x12c;" glyph-name="Ibreve" horiz-adv-x="269" d="M73 693H196V0H73V693ZM392 734Q329 734 292 770T251 864H332Q336 839 350 825T392 810Q419 810 433 824T451 864H532Q531 835 521 812T492 771T448 744T392 734Z" />
<glyph unicode="&#x12d;" glyph-name="ibreve" horiz-adv-x="234" d="M60 519H174V0H60V519ZM117 591Q54 591 20 627T-16 723H64Q66 697 79 683T117 668Q141 668 154 682T170 723H249Q247 664 212 628T117 591Z" />
<glyph unicode="&#x12e;" glyph-name="Iogonek" horiz-adv-x="269" d="M27 -113Q27 -77 49 -48T97 0H73V693H196V2Q163 -21 143 -45T123 -94Q123 -114 135 -121T168 -129Q178 -129 186 -128T199 -125V-189Q188 -193 173 -196T136 -200Q82 -200 55 -176T27 -113Z" />
<glyph unicode="&#x12f;" glyph-name="iogonek" horiz-adv-x="234" d="M9 -112Q9 -77 31 -48T80 0H60V519H174V2Q143 -21 124 -45T105 -93Q105 -114 118 -121T150 -128Q170 -128 181 -125V-189Q170 -193 155 -196T118 -200Q66 -200 38 -176T9 -112ZM59 712H175V608H59V712Z"
/>
<glyph unicode="&#x130;" glyph-name="Idotaccent" horiz-adv-x="269" d="M73 693H196V0H73V693ZM334 844H448V742H334V844Z" />
<glyph unicode="&#x131;" glyph-name="dotlessi" horiz-adv-x="234" d="M60 519H174V0H60V519Z" />
<glyph unicode="&#x132;" glyph-name="IJ" horiz-adv-x="653" d="M73 693H196V0H73V693ZM264 106Q284 100 308 96T362 92Q416 92 440 118T465 197V693H588V187Q588 146 577 111T541 49T478 8T388 -7Q346 -7 318 -2T265 14L264 106Z" />
<glyph unicode="&#x133;" glyph-name="ij" horiz-adv-x="467" d="M60 519H174V0H60V519ZM59 712H175V608H59V712ZM252 -199Q223 -199 203 -194T168 -181V-105Q179 -107 192 -109T218 -111Q254 -111 274 -94T294 -38V519H408V-46Q408 -113 372 -156T252 -199ZM293
712H409V608H293V712Z" />
<glyph unicode="&#x134;" glyph-name="Jcircumflex" horiz-adv-x="429" d="M256 864H349L449 737H363L302 792L242 737H156L256 864ZM163 -7Q115 -7 83 0T23 21V112Q45 104 73 98T137 92Q241 92 241 197V693H364V187Q364 146 353 111T316 49T253 8T163 -7Z" />
<glyph unicode="&#x135;" glyph-name="jcircumflex" horiz-adv-x="234" d="M69 732H166L256 585H169L117 656L66 585H-21L69 732ZM18 -199Q-11 -199 -31 -194T-66 -181V-105Q-55 -107 -42 -109T-16 -111Q20 -111 40 -94T60 -38V519H174V-46Q174 -113 138 -156T18 -199Z" />
<glyph unicode="&#x136;" glyph-name="Kcommaaccent" horiz-adv-x="612" d="M262 -40H378L331 -182H250L262 -40ZM206 352L463 693H590L340 365L604 0H463L206 352ZM70 693H192V0H70V693Z" />
<glyph unicode="&#x137;" glyph-name="kcommaaccent" horiz-adv-x="502" d="M210 -40H326L279 -182H198L210 -40ZM57 739H171V0H57V739ZM182 269L361 519H480L302 276L494 0H367L182 269Z" />
<glyph unicode="&#x139;" glyph-name="Lacute" horiz-adv-x="508" d="M403 867H525L431 737H334L403 867ZM70 693H192V96H486V0H70V693Z" />
<glyph unicode="&#x13a;" glyph-name="lacute" horiz-adv-x="234" d="M391 916H513L419 786H322L391 916ZM60 739H174V0H60V739Z" />
<glyph unicode="&#x13b;" glyph-name="Lcommaaccent" horiz-adv-x="508" d="M227 -40H343L296 -182H215L227 -40ZM70 693H192V96H486V0H70V693Z" />
<glyph unicode="&#x13c;" glyph-name="lcommaaccent" horiz-adv-x="234" d="M318 -40H434L387 -182H306L318 -40ZM60 739H174V0H60V739Z" />
<glyph unicode="&#x13d;" glyph-name="Lcaron" horiz-adv-x="508" d="M70 693H192V96H486V0H70V693ZM311 512L322 693H424L390 512H311Z" />
<glyph unicode="&#x13e;" glyph-name="lcaron" horiz-adv-x="234" d="M217 576L226 739H323L290 576H217ZM60 739H174V0H60V739Z" />
<glyph unicode="&#x13f;" glyph-name="Ldot" horiz-adv-x="508" d="M70 693H192V96H486V0H70V693ZM351 424H468V309H351V424Z" />
<glyph unicode="&#x140;" glyph-name="ldot" horiz-adv-x="312" d="M60 739H174V0H60V739ZM220 407H326V303H220V407Z" />
<glyph unicode="&#x141;" glyph-name="Lslash" horiz-adv-x="514" d="M2 304L73 334V693H195V382L390 464V369L195 288V96H488V0H73V239L2 209V304Z" />
<glyph unicode="&#x142;" glyph-name="lslash" horiz-adv-x="261" d="M7 375L73 412V739H187V473L262 516V419L187 377V0H73V316L7 279V375Z" />
<glyph unicode="&#x143;" glyph-name="Nacute" horiz-adv-x="679" d="M372 867H494L400 737H303L372 867ZM70 693H208L498 199H501V693H609V0H488L181 527H178V0H70V693Z" />
<glyph unicode="&#x144;" glyph-name="nacute" horiz-adv-x="548" d="M302 733H425L319 585H222L302 733ZM57 519H166V474H171Q204 498 249 513T343 529Q418 529 456 496T494 386V0H380V358Q380 399 362 416T290 434Q260 434 228 425T171 405V0H57V519Z" />
<glyph unicode="&#x145;" glyph-name="Ncommaaccent" horiz-adv-x="679" d="M284 -39H400L353 -181H272L284 -39ZM70 693H208L498 199H501V693H609V0H488L181 527H178V0H70V693Z" />
<glyph unicode="&#x146;" glyph-name="ncommaaccent" horiz-adv-x="548" d="M222 -40H338L291 -182H210L222 -40ZM57 519H166V474H171Q204 498 249 513T343 529Q418 529 456 496T494 386V0H380V358Q380 399 362 416T290 434Q260 434 228 425T171 405V0H57V519Z" />
<glyph unicode="&#x147;" glyph-name="Ncaron" horiz-adv-x="679" d="M405 737H312L212 864H298L359 809L419 864H505L405 737ZM70 693H208L498 199H501V693H609V0H488L181 527H178V0H70V693Z" />
<glyph unicode="&#x148;" glyph-name="ncaron" horiz-adv-x="548" d="M327 585H230L128 732H214L279 661L343 732H429L327 585ZM57 519H166V474H171Q204 498 249 513T343 529Q418 529 456 496T494 386V0H380V358Q380 399 362 416T290 434Q260 434 228 425T171
405V0H57V519Z" />
<glyph unicode="&#x149;" glyph-name="napostrophe" horiz-adv-x="592" d="M228 693H345L310 498H216L228 693ZM101 519H210V474H215Q248 498 293 513T387 529Q462 529 500 496T538 386V0H424V358Q424 399 406 416T334 434Q304 434 272 425T215 405V0H101V519Z" />
<glyph unicode="&#x14a;" glyph-name="Eng" horiz-adv-x="679" d="M425 -177Q387 -177 361 -171T311 -154V-73Q328 -78 351 -82T402 -86Q444 -86 469 -69T499 -17L181 527H178V0H70V693H208L498 200H501V693H609V0Q609 -39 599 -71T567 -127T509 -164T425 -177Z" />
<glyph unicode="&#x14b;" glyph-name="eng" horiz-adv-x="548" d="M255 -106Q267 -108 280 -110T306 -112Q341 -112 360 -95T380 -38V358Q380 399 362 416T290 434Q260 434 228 425T171 405V0H57V519H166V474H171Q204 498 249 513T343 529Q418 529 456 496T494
386V-46Q494 -113 458 -156T339 -199Q310 -199 290 -195T255 -182V-106Z" />
<glyph unicode="&#x14c;" glyph-name="Omacron" horiz-adv-x="697" d="M220 829H475V743H220V829ZM347 -12Q276 -12 219 10T120 75T57 184T34 336V357Q34 441 57 506T121 615T221 682T351 705Q421 705 478 683T577 618T640 509T663 357V336Q663 252 640 187T575
78T475 11T347 -12ZM350 83Q396 83 430 100T487 149T521 225T533 322V356Q533 415 523 462T491 541T433 592T346 610Q300 610 266 593T209 544T175 469T164 372V337Q164 278 174 231T206 151T264 101T350 83Z" />
<glyph unicode="&#x14d;" glyph-name="omacron" horiz-adv-x="546" d="M147 698H398V612H147V698ZM273 -10Q155 -10 91 58T27 249V265Q27 328 45 377T95 459T173 511T274 529Q391 529 455 462T519 269V254Q519 191 501 142T451 59T373 8T273 -10ZM275 77Q335 77
368 118T401 244V270Q401 321 391 354T364 406T323 434T272 442Q211 442 178 401T145 274V249Q145 198 155 165T182 113T224 85T275 77Z" />
<glyph unicode="&#x14e;" glyph-name="Obreve" horiz-adv-x="697" d="M348 734Q285 734 248 770T207 864H288Q292 839 306 825T348 810Q375 810 389 824T407 864H488Q487 835 477 812T448 771T404 744T348 734ZM347 -12Q276 -12 219 10T120 75T57 184T34 336V357Q34
441 57 506T121 615T221 682T351 705Q421 705 478 683T577 618T640 509T663 357V336Q663 252 640 187T575 78T475 11T347 -12ZM350 83Q396 83 430 100T487 149T521 225T533 322V356Q533 415 523 462T491 541T433 592T346 610Q300 610 266 593T209 544T175 469T164
372V337Q164 278 174 231T206 151T264 101T350 83Z" />
<glyph unicode="&#x14f;" glyph-name="obreve" horiz-adv-x="546" d="M273 -10Q155 -10 91 58T27 249V265Q27 328 45 377T95 459T173 511T274 529Q391 529 455 462T519 269V254Q519 191 501 142T451 59T373 8T273 -10ZM275 77Q335 77 368 118T401 244V270Q401
321 391 354T364 406T323 434T272 442Q211 442 178 401T145 274V249Q145 198 155 165T182 113T224 85T275 77ZM273 591Q210 591 173 627T132 723H213Q217 697 231 683T273 668Q300 668 314 682T332 723H413Q411 664 373 628T273 591Z" />
<glyph unicode="&#x150;" glyph-name="Ohungarumlaut" horiz-adv-x="697" d="M422 867H536L475 737H384L422 867ZM252 867H366L305 737H213L252 867ZM347 -12Q276 -12 219 10T120 75T57 184T34 336V357Q34 441 57 506T121 615T221 682T351 705Q421 705 478 683T577
618T640 509T663 357V336Q663 252 640 187T575 78T475 11T347 -12ZM350 83Q396 83 430 100T487 149T521 225T533 322V356Q533 415 523 462T491 541T433 592T346 610Q300 610 266 593T209 544T175 469T164 372V337Q164 278 174 231T206 151T264 101T350 83Z" />
<glyph unicode="&#x151;" glyph-name="ohungarumlaut" horiz-adv-x="546" d="M357 733H471L402 585H311L357 733ZM187 733H301L232 585H140L187 733ZM273 -10Q155 -10 91 58T27 249V265Q27 328 45 377T95 459T173 511T274 529Q391 529 455 462T519 269V254Q519
191 501 142T451 59T373 8T273 -10ZM275 77Q335 77 368 118T401 244V270Q401 321 391 354T364 406T323 434T272 442Q211 442 178 401T145 274V249Q145 198 155 165T182 113T224 85T275 77Z" />
<glyph unicode="&#x152;" glyph-name="OE" horiz-adv-x="939" d="M362 0Q284 0 223 19T120 79T56 181T34 328V349Q34 517 115 605T360 693H887V597H578V404H816V309H578V96H892V0H362ZM456 96V597H360Q259 597 212 543T164 361V327Q164 261 178 217T218 146T283
108T370 96H456Z" />
<glyph unicode="&#x153;" glyph-name="oe" horiz-adv-x="885" d="M272 -10Q154 -10 91 58T27 249V265Q27 328 45 377T95 459T173 511T273 529Q342 529 388 505T462 436Q491 483 536 506T640 529Q754 529 805 466T857 277V229H519Q524 146 565 114T680 81Q731 81
768 91T840 118V39Q815 22 771 6T660 -10Q585 -10 536 14T459 85Q399 -10 272 -10ZM275 77Q335 77 368 118T401 244V270Q401 321 391 354T364 406T323 434T272 442Q211 442 178 401T145 274V249Q145 198 155 165T182 113T224 85T275 77ZM636 444Q616 444 597 438T561
416T533 374T519 306H741Q741 381 715 412T636 444Z" />
<glyph unicode="&#x154;" glyph-name="Racute" horiz-adv-x="599" d="M307 867H429L335 737H238L307 867ZM70 693H301Q542 693 542 490Q542 416 509 375T416 311V306L589 0H455L300 281H192V0H70V693ZM288 366Q357 366 386 395T416 486Q416 546 386 572T287 599H192V366H288Z"
/>
<glyph unicode="&#x155;" glyph-name="racute" horiz-adv-x="354" d="M494 733H617L511 585H414L494 733ZM57 519H166V460H171Q193 487 229 506T308 525Q318 525 327 524T340 520V420Q330 422 319 422T299 423Q263 423 230 414T171 388V0H57V519Z" />
<glyph unicode="&#x156;" glyph-name="Rcommaaccent" horiz-adv-x="599" d="M262 -40H378L331 -182H250L262 -40ZM70 693H301Q542 693 542 490Q542 416 509 375T416 311V306L589 0H455L300 281H192V0H70V693ZM288 366Q357 366 386 395T416 486Q416 546 386 572T287
599H192V366H288Z" />
<glyph unicode="&#x157;" glyph-name="rcommaaccent" horiz-adv-x="354" d="M57 -40H173L126 -182H45L57 -40ZM57 519H166V460H171Q193 487 229 506T308 525Q318 525 327 524T340 520V420Q330 422 319 422T299 423Q263 423 230 414T171 388V0H57V519Z" />
<glyph unicode="&#x158;" glyph-name="Rcaron" horiz-adv-x="599" d="M340 737H247L147 864H233L294 809L354 864H440L340 737ZM70 693H301Q542 693 542 490Q542 416 509 375T416 311V306L589 0H455L300 281H192V0H70V693ZM288 366Q357 366 386 395T416 486Q416
546 386 572T287 599H192V366H288Z" />
<glyph unicode="&#x159;" glyph-name="rcaron" horiz-adv-x="354" d="M519 585H422L320 732H406L471 661L535 732H621L519 585ZM57 519H166V460H171Q193 487 229 506T308 525Q318 525 327 524T340 520V420Q330 422 319 422T299 423Q263 423 230 414T171 388V0H57V519Z" />
<glyph unicode="&#x15a;" glyph-name="Sacute" d="M234 -13Q166 -13 114 -1T26 32V128Q69 109 118 97T224 85Q295 85 326 112T358 188Q358 210 353 225T336 253T305 274T256 292L190 312Q153 322 124 337T75 376T43 432T32 509Q32 552 46 588T90 650T162 690T263
705Q332 705 373 694T443 668V572Q411 586 368 596T266 607Q210 607 181 585T151 519Q151 478 170 457T241 420L307 400Q347 388 379 373T434 335T469 278T481 199Q481 101 421 44T234 -13ZM271 867H393L299 737H202L271 867Z" />
<glyph unicode="&#x15b;" glyph-name="sacute" horiz-adv-x="424" d="M494 733H617L511 585H414L494 733ZM199 -9Q148 -9 104 0T27 26V111Q59 98 93 89T182 79Q237 79 261 95T286 142Q286 171 269 185T209 210L160 221Q130 228 106 239T64 268T37 311T27 371Q27
443 73 486T219 529Q273 529 308 520T368 499V414Q346 423 310 432T229 441Q135 441 135 381Q135 352 151 339T206 317L255 306Q332 289 364 255T397 151Q397 71 345 31T199 -9Z" />
<glyph unicode="&#x15c;" glyph-name="Scircumflex" d="M210 864H303L403 737H317L256 792L196 737H110L210 864ZM234 -13Q166 -13 114 -1T26 32V128Q69 109 118 97T224 85Q295 85 326 112T358 188Q358 210 353 225T336 253T305 274T256 292L190 312Q153 322 124
337T75 376T43 432T32 509Q32 552 46 588T90 650T162 690T263 705Q332 705 373 694T443 668V572Q411 586 368 596T266 607Q210 607 181 585T151 519Q151 478 170 457T241 420L307 400Q347 388 379 373T434 335T469 278T481 199Q481 101 421 44T234 -13Z" />
<glyph unicode="&#x15d;" glyph-name="scircumflex" horiz-adv-x="424" d="M422 732H519L621 585H535L470 657L406 585H320L422 732ZM199 -9Q148 -9 104 0T27 26V111Q59 98 93 89T182 79Q237 79 261 95T286 142Q286 171 269 185T209 210L160 221Q130 228 106 239T64
268T37 311T27 371Q27 443 73 486T219 529Q273 529 308 520T368 499V414Q346 423 310 432T229 441Q135 441 135 381Q135 352 151 339T206 317L255 306Q332 289 364 255T397 151Q397 71 345 31T199 -9Z" />
<glyph unicode="&#x15e;" glyph-name="Scedilla" d="M163 -163Q217 -158 240 -149T263 -123Q263 -106 245 -100T185 -94V-11Q134 -6 95 5T26 32V128Q69 109 118 97T224 85Q295 85 326 112T358 188Q358 210 353 225T336 253T305 274T256 292L190 312Q153 322 124
337T75 376T43 432T32 509Q32 552 46 588T90 650T162 690T263 705Q332 705 373 694T443 668V572Q411 586 368 596T266 607Q210 607 181 585T151 519Q151 478 170 457T241 420L307 400Q347 388 379 373T434 335T469 278T481 199Q481 104 424 48T249 -13V-46Q297
-48 322 -66T348 -119Q348 -165 307 -189T163 -219V-163Z" />
<glyph unicode="&#x15f;" glyph-name="scedilla" horiz-adv-x="424" d="M128 -163Q182 -158 205 -149T228 -123Q228 -106 210 -100T150 -94V-7Q114 -3 83 4T27 26V111Q59 98 93 89T182 79Q237 79 261 95T286 142Q286 171 269 185T209 210L160 221Q130 228 106
239T64 268T37 311T27 371Q27 443 73 486T219 529Q273 529 308 520T368 499V414Q346 423 310 432T229 441Q135 441 135 381Q135 352 151 339T206 317L255 306Q332 289 364 255T397 151Q397 74 350 35T214 -8V-46Q262 -48 287 -66T313 -119Q313 -165 272 -189T128
-219V-163Z" />
<glyph unicode="&#x160;" glyph-name="Scaron" d="M302 737H209L109 864H195L256 809L316 864H402L302 737ZM234 -13Q166 -13 114 -1T26 32V128Q69 109 118 97T224 85Q295 85 326 112T358 188Q358 210 353 225T336 253T305 274T256 292L190 312Q153 322 124 337T75
376T43 432T32 509Q32 552 46 588T90 650T162 690T263 705Q332 705 373 694T443 668V572Q411 586 368 596T266 607Q210 607 181 585T151 519Q151 478 170 457T241 420L307 400Q347 388 379 373T434 335T469 278T481 199Q481 101 421 44T234 -13Z" />
<glyph unicode="&#x161;" glyph-name="scaron" horiz-adv-x="424" d="M519 585H422L320 732H406L471 661L535 732H621L519 585ZM199 -9Q148 -9 104 0T27 26V111Q59 98 93 89T182 79Q237 79 261 95T286 142Q286 171 269 185T209 210L160 221Q130 228 106 239T64
268T37 311T27 371Q27 443 73 486T219 529Q273 529 308 520T368 499V414Q346 423 310 432T229 441Q135 441 135 381Q135 352 151 339T206 317L255 306Q332 289 364 255T397 151Q397 71 345 31T199 -9Z" />
<glyph unicode="&#x162;" glyph-name="Tcommaaccent" horiz-adv-x="551" d="M219 -40H335L288 -182H207L219 -40ZM215 597H16V693H535V597H337V0H215V597Z" />
<glyph unicode="&#x163;" glyph-name="tcommaaccent" horiz-adv-x="355" d="M408 -40H524L477 -182H396L408 -40ZM234 -7Q201 -7 174 0T127 23T97 64T86 127V431H15V519H86V642H200V519H323V431H200V144Q200 110 214 97T270 83Q285 83 301 85T331 90V15Q315 7
293 0T234 -7Z" />
<glyph unicode="&#x164;" glyph-name="Tcaron" horiz-adv-x="551" d="M322 737H229L129 864H215L276 809L336 864H422L322 737ZM215 597H16V693H535V597H337V0H215V597Z" />
<glyph unicode="&#x165;" glyph-name="tcaron" horiz-adv-x="355" d="M257 576L266 739H363L330 576H257ZM234 -7Q201 -7 174 0T127 23T97 64T86 127V431H15V519H86V642H200V519H323V431H200V144Q200 110 214 97T270 83Q285 83 301 85T331 90V15Q315 7 293 0T234 -7Z" />
<glyph unicode="&#x166;" glyph-name="Tbar" horiz-adv-x="551" d="M80 418H215V597H16V693H535V597H337V418H471V344H337V0H215V344H80V418Z" />
<glyph unicode="&#x167;" glyph-name="tbar" horiz-adv-x="355" d="M15 350H86V431H15V519H86V642H200V519H323V431H200V350H323V281H200V144Q200 110 214 97T270 83Q285 83 301 85T331 90V15Q315 7 293 0T234 -7Q201 -7 174 0T127 23T97 64T86 127V281H15V350Z" />
<glyph unicode="&#x168;" glyph-name="Utilde" horiz-adv-x="664" d="M336 -13Q204 -13 135 50T65 243V693H188V250Q188 202 197 169T226 117T274 89T341 80Q378 80 406 88T452 116T479 168T488 250V693H598V246Q598 112 534 50T336 -13ZM179 741Q182 772 192
793T216 828T247 848T282 854Q299 854 314 850T342 839T368 829T390 824Q418 824 424 856H498Q495 825 485 803T460 768T429 748T394 742Q377 742 362 746T334 757T308 767T286 772Q259 772 252 741H179Z" />
<glyph unicode="&#x169;" glyph-name="utilde" horiz-adv-x="542" d="M212 -10Q136 -10 95 27T54 142V519H168V163Q168 120 186 102T254 83Q289 83 317 93T371 115V519H485V0H386L376 45H371Q338 21 300 6T212 -10ZM113 600Q116 631 126 653T150 690T181 711T216
718Q233 718 248 713T276 701T302 690T324 684Q352 684 358 719H432Q429 687 419 665T394 629T363 608T328 601Q311 601 296 606T268 618T242 629T220 635Q194 635 186 600H113Z" />
<glyph unicode="&#x16a;" glyph-name="Umacron" horiz-adv-x="664" d="M336 -13Q204 -13 135 50T65 243V693H188V250Q188 202 197 169T226 117T274 89T341 80Q378 80 406 88T452 116T479 168T488 250V693H598V246Q598 112 534 50T336 -13ZM210 829H465V743H210V829Z" />
<glyph unicode="&#x16b;" glyph-name="umacron" horiz-adv-x="542" d="M212 -10Q136 -10 95 27T54 142V519H168V163Q168 120 186 102T254 83Q289 83 317 93T371 115V519H485V0H386L376 45H371Q338 21 300 6T212 -10ZM146 698H397V612H146V698Z" />
<glyph unicode="&#x16c;" glyph-name="Ubreve" horiz-adv-x="664" d="M336 -13Q204 -13 135 50T65 243V693H188V250Q188 202 197 169T226 117T274 89T341 80Q378 80 406 88T452 116T479 168T488 250V693H598V246Q598 112 534 50T336 -13ZM338 734Q275 734 238
770T197 864H278Q282 839 296 825T338 810Q365 810 379 824T397 864H478Q477 835 467 812T438 771T394 744T338 734Z" />
<glyph unicode="&#x16d;" glyph-name="ubreve" horiz-adv-x="542" d="M212 -10Q136 -10 95 27T54 142V519H168V163Q168 120 186 102T254 83Q289 83 317 93T371 115V519H485V0H386L376 45H371Q338 21 300 6T212 -10ZM272 591Q209 591 172 627T131 723H212Q216 697
230 683T272 668Q299 668 313 682T331 723H412Q410 664 372 628T272 591Z" />
<glyph unicode="&#x16e;" glyph-name="Uring" horiz-adv-x="664" d="M336 -13Q204 -13 135 50T65 243V693H188V250Q188 202 197 169T226 117T274 89T341 80Q378 80 406 88T452 116T479 168T488 250V693H598V246Q598 112 534 50T336 -13ZM338 963Q292 963 263 992T234
1061Q234 1101 263 1130T338 1159Q360 1159 379 1151T412 1130T433 1099T441 1061Q441 1041 434 1024T412 993T379 971T338 963ZM338 1013Q359 1013 371 1026T384 1061Q384 1082 372 1095T338 1109Q316 1109 304 1096T291 1061Q291 1039 303 1026T338 1013Z" />
<glyph unicode="&#x16f;" glyph-name="uring" horiz-adv-x="542" d="M272 576Q226 576 197 604T168 673Q168 714 197 742T272 771Q294 771 313 764T346 743T367 711T375 673Q375 633 346 605T272 576ZM272 626Q293 626 305 638T318 673Q318 695 306 708T272 721Q250
721 238 708T225 673Q225 651 237 639T272 626ZM212 -10Q136 -10 95 27T54 142V519H168V163Q168 120 186 102T254 83Q289 83 317 93T371 115V519H485V0H386L376 45H371Q338 21 300 6T212 -10Z" />
<glyph unicode="&#x170;" glyph-name="Uhungarumlaut" horiz-adv-x="664" d="M412 867H526L465 737H374L412 867ZM242 867H356L295 737H203L242 867ZM336 -13Q204 -13 135 50T65 243V693H188V250Q188 202 197 169T226 117T274 89T341 80Q378 80 406 88T452 116T479
168T488 250V693H598V246Q598 112 534 50T336 -13Z" />
<glyph unicode="&#x171;" glyph-name="uhungarumlaut" horiz-adv-x="542" d="M212 -10Q136 -10 95 27T54 142V519H168V163Q168 120 186 102T254 83Q289 83 317 93T371 115V519H485V0H386L376 45H371Q338 21 300 6T212 -10ZM356 733H470L401 585H310L356 733ZM186
733H300L231 585H139L186 733Z" />
<glyph unicode="&#x172;" glyph-name="Uogonek" horiz-adv-x="664" d="M369 -200Q316 -200 287 -177T258 -114Q258 -79 278 -54T322 -13Q197 -9 131 53T65 243V693H188V250Q188 202 197 169T226 117T274 89T341 80Q378 80 406 88T452 116T479 168T488 250V693H598V246Q598
119 541 59Q513 29 486 17T426 -11Q394 -26 374 -47T354 -95Q354 -115 367 -121T401 -128Q421 -128 432 -125V-189Q421 -193 406 -196T369 -200Z" />
<glyph unicode="&#x173;" glyph-name="uogonek" horiz-adv-x="542" d="M429 -200Q375 -200 347 -177T318 -114Q318 -77 339 -50T387 -6L376 45H371Q338 21 300 6T212 -10Q136 -10 95 27T54 142V519H168V163Q168 120 186 102T254 83Q289 83 317 93T371 115V519H485V1Q454
-22 434 -46T413 -95Q413 -115 427 -122T461 -129Q470 -129 478 -128T492 -125V-189Q481 -193 466 -196T429 -200Z" />
<glyph unicode="&#x174;" glyph-name="Wcircumflex" horiz-adv-x="888" d="M404 864H497L597 737H511L450 792L390 737H304L404 864ZM13 693H136L255 177H258L402 693H501L642 177H645L765 693H875L704 0H584L448 506H445L305 0H185L13 693Z" />
<glyph unicode="&#x175;" glyph-name="wcircumflex" horiz-adv-x="752" d="M334 732H431L533 585H447L382 657L318 585H232L334 732ZM13 519H133L226 146H230L337 519H430L538 146H542L635 519H739L595 0H484L379 354H375L270 0H157L13 519Z" />
<glyph unicode="&#x176;" glyph-name="Ycircumflex" horiz-adv-x="578" d="M229 269L5 693H134L296 380H299L458 693H574L351 269V0H229V269ZM250 864H343L443 737H357L296 792L236 737H150L250 864Z" />
<glyph unicode="&#x177;" glyph-name="ycircumflex" horiz-adv-x="503" d="M110 -199Q90 -199 68 -195T34 -183V-105Q57 -110 85 -110Q121 -110 145 -94T183 -40L203 11L6 519H127L260 152H263L386 519H497L289 -58Q263 -133 222 -166T110 -199ZM213 732H310L412
585H326L261 657L197 585H111L213 732Z" />
<glyph unicode="&#x178;" glyph-name="Ydieresis" horiz-adv-x="578" d="M229 269L5 693H134L296 380H299L458 693H574L351 269V0H229V269ZM337 842H441V742H337V842ZM152 842H256V742H152V842Z" />
<glyph unicode="&#x179;" glyph-name="Zacute" horiz-adv-x="549" d="M298 867H420L326 737H229L298 867ZM27 88L378 594V597H51V693H522V606L170 99V96H512V0H27V88Z" />
<glyph unicode="&#x17a;" glyph-name="zacute" horiz-adv-x="459" d="M521 733H644L538 585H441L521 733ZM29 82L290 428V431H42V519H428V441L165 90V87H427V0H29V82Z" />
<glyph unicode="&#x17b;" glyph-name="Zdotaccent" horiz-adv-x="549" d="M27 88L378 594V597H51V693H522V606L170 99V96H512V0H27V88ZM227 844H341V742H227V844Z" />
<glyph unicode="&#x17c;" glyph-name="zdotaccent" horiz-adv-x="459" d="M29 82L290 428V431H42V519H428V441L165 90V87H427V0H29V82ZM439 712H555V608H439V712Z" />
<glyph unicode="&#x17d;" glyph-name="Zcaron" horiz-adv-x="549" d="M337 737H244L144 864H230L291 809L351 864H437L337 737ZM27 88L378 594V597H51V693H522V606L170 99V96H512V0H27V88Z" />
<glyph unicode="&#x17e;" glyph-name="zcaron" horiz-adv-x="459" d="M546 585H449L347 732H433L498 661L562 732H648L546 585ZM29 82L290 428V431H42V519H428V441L165 90V87H427V0H29V82Z" />
<glyph unicode="&#x192;" glyph-name="florin" horiz-adv-x="433" d="M34 447H124L145 562Q161 658 212 698T338 739Q373 739 394 735T429 724V643Q414 646 401 647T369 649Q325 649 299 628T261 549L243 447H360V357H229L164 -18Q156 -64 141 -95T103 -146T51
-174T-14 -183Q-47 -183 -69 -178T-102 -165V-86Q-93 -88 -79 -90T-50 -93Q-15 -93 11 -75T45 -9L109 357H34V447Z" />
<glyph unicode="&#x1fa;" glyph-name="Aringacute" horiz-adv-x="630" d="M254 693H379L626 0H500L437 178H179L117 0H5L254 693ZM209 269H406L308 548H305L209 269ZM333 1072H455L361 942H264L333 1072ZM316 725Q270 725 241 754T212 823Q212 863 241 892T316
921Q338 921 357 913T390 892T411 861T419 823Q419 803 412 786T390 755T357 733T316 725ZM316 775Q337 775 349 788T362 823Q362 844 350 857T316 871Q294 871 282 858T269 823Q269 801 281 788T316 775Z" />
<glyph unicode="&#x1fb;" glyph-name="aringacute" horiz-adv-x="485" d="M187 -10Q116 -10 71 26T26 138Q26 174 37 200T71 245T123 275T193 292L317 307V348Q317 375 311 392T290 418T253 432T197 436Q159 436 127 431T70 421V500Q106 514 148 521T242 529Q332
529 381 492T431 374V0H337L327 42H321Q303 19 271 5T187 -10ZM221 71Q250 71 276 79T317 102V232L219 222Q179 218 160 201T140 144Q140 106 162 89T221 71ZM498 576Q452 576 423 604T394 673Q394 714 423 742T498 771Q520 771 539 764T572 743T593 711T601 673Q601
633 572 605T498 576ZM498 626Q519 626 531 638T544 673Q544 695 532 708T498 721Q476 721 464 708T451 673Q451 651 463 639T498 626ZM512 942H634L540 812H443L512 942Z" />
<glyph unicode="&#x1fc;" glyph-name="AEacute" horiz-adv-x="910" d="M616 867H738L644 737H547L616 867ZM367 693H859V597H550V404H789V309H550V96H865V0H430V183H212L117 0H-2L367 693ZM258 275H430V599H426L258 275Z" />
<glyph unicode="&#x1fd;" glyph-name="aeacute" horiz-adv-x="798" d="M440 733H563L457 585H360L440 733ZM188 -10Q116 -10 71 26T26 138Q26 209 71 244T193 290L317 306V348Q317 375 311 392T290 418T253 432T197 436Q159 436 127 431T70 421V500Q143 529 240
529Q358 529 392 456Q448 529 554 529Q667 529 719 466T771 277V231H433Q436 189 447 160T479 114T528 89T594 81Q645 81 682 91T754 118V39Q728 22 683 6T571 -10Q502 -10 453 10T371 69Q337 31 294 11T188 -10ZM338 124Q319 171 316 234L219 224Q179 220 160
202T140 145Q140 106 162 89T221 71Q256 71 285 84T338 124ZM549 444Q530 444 511 438T475 417T448 375T433 308H655Q655 382 629 413T549 444Z" />
<glyph unicode="&#x1fe;" glyph-name="Oslashacute" horiz-adv-x="697" d="M347 -12Q287 -12 237 3T147 51L104 0H6L95 107Q66 149 50 206T34 336V357Q34 441 57 506T121 615T221 682T351 705Q465 705 544 646L583 693H680L596 592Q628 549 645 491T663 357V336Q663
252 640 187T575 78T475 11T347 -12ZM350 82Q397 82 431 99T489 148T523 224T535 322V359Q535 439 516 495L215 133Q261 82 350 82ZM161 336Q161 298 164 266T177 205L475 563Q452 586 421 598T346 611Q299 611 265 594T207 546T173 470T161 372V336ZM358 867H480L386
737H289L358 867Z" />
<glyph unicode="&#x1ff;" glyph-name="oslashacute" horiz-adv-x="546" d="M273 -10Q179 -10 117 35L86 0H-1L71 83Q27 147 27 249V265Q27 328 45 377T95 459T173 511T274 529Q319 529 357 518T424 487L452 519H539L471 441Q494 409 506 366T519 269V254Q519 191
501 142T451 59T373 8T273 -10ZM275 74Q335 74 369 116T403 244V272Q403 320 394 353L180 107Q197 89 220 82T275 74ZM143 247Q143 203 149 172L361 415Q344 431 322 438T272 445Q210 445 177 402T143 274V247ZM295 733H418L312 585H215L295 733Z" />
<glyph unicode="&#x218;" glyph-name="Scommaaccent" d="M188 -40H304L257 -182H176L188 -40ZM234 -13Q166 -13 114 -1T26 32V128Q69 109 118 97T224 85Q295 85 326 112T358 188Q358 210 353 225T336 253T305 274T256 292L190 312Q153 322 124 337T75 376T43 432T32
509Q32 552 46 588T90 650T162 690T263 705Q332 705 373 694T443 668V572Q411 586 368 596T266 607Q210 607 181 585T151 519Q151 478 170 457T241 420L307 400Q347 388 379 373T434 335T469 278T481 199Q481 101 421 44T234 -13Z" />
<glyph unicode="&#x219;" glyph-name="scommaaccent" horiz-adv-x="424" d="M406 -40H522L475 -182H394L406 -40ZM199 -9Q148 -9 104 0T27 26V111Q59 98 93 89T182 79Q237 79 261 95T286 142Q286 171 269 185T209 210L160 221Q130 228 106 239T64 268T37 311T27
371Q27 443 73 486T219 529Q273 529 308 520T368 499V414Q346 423 310 432T229 441Q135 441 135 381Q135 352 151 339T206 317L255 306Q332 289 364 255T397 151Q397 71 345 31T199 -9Z" />
<glyph unicode="&#x21a;" glyph-name="uni021A" horiz-adv-x="551" d="M219 -40H335L288 -182H207L219 -40ZM215 597H16V693H535V597H337V0H215V597Z" />
<glyph unicode="&#x21b;" glyph-name="uni021B" horiz-adv-x="355" d="M408 -40H524L477 -182H396L408 -40ZM234 -7Q201 -7 174 0T127 23T97 64T86 127V431H15V519H86V642H200V519H323V431H200V144Q200 110 214 97T270 83Q285 83 301 85T331 90V15Q315 7 293 0T234 -7Z" />
<glyph unicode="&#x237;" glyph-name="uni0237" horiz-adv-x="234" d="M18 -199Q-11 -199 -31 -194T-66 -181V-105Q-55 -107 -42 -109T-16 -111Q20 -111 40 -94T60 -38V519H174V-46Q174 -113 138 -156T18 -199Z" />
<glyph unicode="&#x2c6;" glyph-name="circumflex" horiz-adv-x="495" d="M199 732H296L398 585H312L247 657L183 585H97L199 732Z" />
<glyph unicode="&#x2c7;" glyph-name="caron" horiz-adv-x="495" d="M296 585H199L97 732H183L248 661L312 732H398L296 585Z" />
<glyph unicode="&#x2d8;" glyph-name="breve" horiz-adv-x="495" d="M248 591Q185 591 148 627T107 723H188Q192 697 206 683T248 668Q275 668 289 682T307 723H388Q386 664 348 628T248 591Z" />
<glyph unicode="&#x2d9;" glyph-name="dotaccent" horiz-adv-x="495" d="M189 712H305V608H189V712Z" />
<glyph unicode="&#x2da;" glyph-name="ring" horiz-adv-x="495" d="M248 576Q202 576 173 604T144 673Q144 714 173 742T248 771Q270 771 289 764T322 743T343 711T351 673Q351 633 322 605T248 576ZM248 626Q269 626 281 638T294 673Q294 695 282 708T248 721Q226
721 214 708T201 673Q201 651 213 639T248 626Z" />
<glyph unicode="&#x2db;" glyph-name="ogonek" horiz-adv-x="495" d="M254 -200Q201 -200 172 -177T143 -114Q143 -93 151 -76T172 -44T200 -19T230 0H308Q279 -23 259 -47T239 -95Q239 -115 252 -121T286 -128Q308 -128 317 -125V-189Q306 -193 291 -196T254 -200Z" />
<glyph unicode="&#x2dc;" glyph-name="tilde" horiz-adv-x="495" d="M86 600Q89 631 99 653T123 690T154 711T189 718Q206 718 221 713T249 701T275 690T297 684Q325 684 331 719H405Q402 687 392 665T367 629T336 608T301 601Q284 601 269 606T241 618T215 629T193
635Q167 635 159 600H86Z" />
<glyph unicode="&#x2dd;" glyph-name="hungarumlaut" horiz-adv-x="495" d="M320 733H434L365 585H274L320 733ZM150 733H264L195 585H103L150 733Z" />
</font>
</defs>
</svg>
