<?xml version="1.0" standalone="no"?> <!DOCTYPE svg PUBLIC "-//W3C//DTD SVG 1.0//EN" "http://www.w3.org/TR/2001/REC-SVG-20010904/DTD/svg10.dtd" > <svg xmlns="http://www.w3.org/2000/svg" width="100%" height="100%">
<defs >
<font horiz-adv-x="492" ><font-face
    font-family=""
    units-per-em="1000"
    panose-1="2 11 5 3 5 5 3 13 8 3"
    ascent="790"
    descent="-210"
    alphabetic="0" />
<missing-glyph horiz-adv-x="500" />
<glyph unicode=" " glyph-name="space" horiz-adv-x="192" />
<glyph unicode="!" glyph-name="exclam" horiz-adv-x="274" d="M166 693H262L163 208H89L166 693ZM62 101H158L140 0H44L62 101Z" />
<glyph unicode="&quot;" glyph-name="quotedbl" horiz-adv-x="365" d="M289 693H386L341 508H264L289 693ZM131 693H228L183 508H106L131 693Z" />
<glyph unicode="#" glyph-name="numbersign" horiz-adv-x="513" d="M88 491H184L235 693H306L255 491H364L415 693H486L435 491H517L503 414H416L385 290H473L460 213H366L313 0H242L295 213H186L133 0H62L115 213H31L44 290H134L165 414H74L88 491ZM205 290H314L345
414H236L205 290Z" />
<glyph unicode="$" glyph-name="dollar" horiz-adv-x="485" d="M119 -6Q77 1 47 14T-6 43L7 117Q35 100 67 87T142 66L225 324L201 335Q147 359 119 397T91 500Q91 545 105 582T148 647T219 689T317 704Q325 704 332 704T347 703L367 765H433L410 694Q439 687
458 678T495 658L482 583Q462 593 440 603T386 620L310 383Q344 368 368 352T409 316T434 271T442 212Q442 170 430 130T388 58T312 7T195 -12H183L149 -118H83L119 -6ZM351 207Q351 236 336 257T283 298L207 62Q283 63 317 100T351 207ZM179 503Q179 470 194 449T252
408L323 628H310Q246 628 213 598T179 503Z" />
<glyph unicode="%" glyph-name="percent" horiz-adv-x="798" d="M201 322Q139 322 106 359T72 456Q72 501 82 545T115 625T172 683T254 705Q316 705 349 668T383 571Q383 526 373 482T340 402T283 344T201 322ZM576 -8Q514 -8 481 29T447 126Q447 171 457 215T490
295T547 353T629 375Q691 375 724 338T758 241Q758 196 748 152T715 72T658 14T576 -8ZM653 713H729L166 -40H90L653 713ZM579 50Q612 50 637 77T673 167Q678 193 679 212T681 249Q681 279 668 298T626 317Q593 317 568 290T532 200Q527 175 526 155T524 118Q524
50 579 50ZM204 380Q237 380 262 407T298 497Q303 523 304 542T306 579Q306 609 293 628T251 647Q218 647 193 620T157 530Q152 505 151 485T149 448Q149 380 204 380Z" />
<glyph unicode="&amp;" glyph-name="ampersand" horiz-adv-x="610" d="M234 -12Q182 -12 143 1T78 39T38 96T24 169Q24 215 40 250T81 311T139 356T202 389Q179 424 171 456T162 521Q162 563 176 597T215 655T275 692T350 705Q381 705 408 696T455 668T486 624T498
564Q498 494 450 447T322 366L435 189Q456 225 469 263T491 335H570Q561 287 538 231T477 123L557 0H454L416 57Q379 26 334 7T234 -12ZM237 61Q282 61 316 76T378 116L238 333Q182 308 150 273T118 173Q118 118 152 90T237 61ZM286 421Q347 449 378 479T409 559Q409
580 403 594T387 618T365 631T343 635Q301 635 277 607T253 529Q253 503 260 478T286 421Z" />
<glyph unicode="&apos;" glyph-name="quotesingle" horiz-adv-x="207" d="M131 693H228L183 508H106L131 693Z" />
<glyph unicode="(" glyph-name="parenleft" horiz-adv-x="321" d="M169 -120Q147 -93 126 -55T88 30T61 128T50 233Q50 309 69 383T120 522T195 643T287 739H366Q319 694 278 639T207 519T160 384T142 234Q142 185 149 137T169 43T200 -44T243 -120H169V-120Z" />
<glyph unicode=")" glyph-name="parenright" horiz-adv-x="321" d="M-26 -120Q21 -75 62 -20T133 100T180 235T198 385Q198 434 191 482T171 576T140 663T97 739H171Q193 712 214 674T252 589T279 490T290 386Q290 309 271 236T220 97T145 -24T53 -120H-26V-120Z" />
<glyph unicode="*" glyph-name="asterisk" horiz-adv-x="379" d="M201 496L104 447L81 507L182 544L98 597L141 652L219 585L233 693H300L278 582L375 631L398 571L298 534L381 481L338 426L261 494L245 385H178L201 496Z" />
<glyph unicode="+" glyph-name="plus" horiz-adv-x="517" d="M226 295H56L70 372H239L270 548H351L320 372H489L475 295H307L276 119H195L226 295Z" />
<glyph unicode="," glyph-name="comma" horiz-adv-x="252" d="M53 101H156L83 -92H7L53 101Z" />
<glyph unicode="-" glyph-name="hyphen" horiz-adv-x="320" d="M73 314H267L254 238H60L73 314Z" />
<glyph unicode="." glyph-name="period" horiz-adv-x="253" d="M49 101H149L132 0H32L49 101Z" />
<glyph unicode="/" glyph-name="slash" horiz-adv-x="345" d="M326 739H408L21 -120H-61L326 739Z" />
<glyph unicode="0" glyph-name="zero" horiz-adv-x="632" d="M278 -13Q227 -13 185 1T113 45T65 120T48 226Q48 264 53 304T67 385Q95 537 173 621T387 705Q493 705 554 647T616 466Q616 427 611 389T599 315Q585 239 559 179T494 76T401 10T278 -13ZM286 63Q377
63 427 127T501 319Q509 361 514 396T520 464Q520 545 488 587T378 629Q332 629 298 613T237 564T193 484T163 373Q155 332 150 296T144 228Q144 147 176 105T286 63Z" />
<glyph unicode="1" glyph-name="one" horiz-adv-x="329" d="M208 593L83 582L92 634L286 699H318L195 0H104L208 593Z" />
<glyph unicode="2" glyph-name="two" horiz-adv-x="495" d="M1 66L192 233Q232 269 267 304T329 376T371 448T386 522Q386 627 264 627Q218 627 181 618T108 596L121 667Q139 676 157 683T195 695T238 702T291 705Q342 705 378 692T437 654T471 598T482 527Q482
478 464 434T415 349T341 269T252 189L122 80V77H419L405 0H-11L1 66Z" />
<glyph unicode="3" glyph-name="three" horiz-adv-x="470" d="M159 -11Q90 -11 50 3T-10 35L2 101Q34 85 70 76T156 67Q235 67 280 107T325 217Q325 271 294 296T188 322H135L149 399H190Q265 399 310 436T355 536Q355 574 332 600T248 627Q209 627 176 620T107
601L120 672Q137 680 153 686T186 697T223 703T267 705Q316 705 351 692T408 658T440 608T450 551Q450 484 409 435T294 365V362Q353 349 386 317T419 225Q419 168 400 124T345 50T263 5T159 -11Z" />
<glyph unicode="4" glyph-name="four" horiz-adv-x="549" d="M307 188H1L13 256L410 693H486L410 263H537L524 188H396L363 0H274L307 188ZM321 263L373 554H369L111 266V263H321Z" />
<glyph unicode="5" glyph-name="five" horiz-adv-x="488" d="M161 -11Q107 -11 64 2T-6 36L6 103Q39 86 78 77T160 67Q253 67 297 109T341 234Q341 293 306 324T199 355Q158 355 129 351T75 339L137 693H484L470 616H202L167 420Q184 427 200 429T242 431Q289
431 325 417T385 378T422 317T435 238Q435 185 418 140T367 61T282 8T161 -11Z" />
<glyph unicode="6" glyph-name="six" horiz-adv-x="546" d="M257 -13Q201 -13 160 3T92 50T51 121T37 213Q37 255 43 302T62 397T93 486T133 561Q187 636 256 670T403 705Q460 705 494 695T549 671L537 603Q518 610 485 618T398 627Q358 627 321 615T251 575T194
497T152 375Q165 387 184 397T225 415T270 427T316 432Q364 432 400 418T459 378T495 318T507 244Q507 188 489 141T438 59T359 6T257 -13ZM259 63Q295 63 323 76T371 113T401 168T412 237Q412 299 381 327T289 356Q242 356 206 344T140 308Q135 281 134 256T132
209Q132 177 138 151T158 105T197 74T259 63Z" />
<glyph unicode="7" glyph-name="seven" horiz-adv-x="456" d="M405 612V616H88L101 693H511L499 621L148 0H44L405 612Z" />
<glyph unicode="8" glyph-name="eight" horiz-adv-x="557" d="M261 -13Q208 -13 165 0T90 37T42 95T25 171Q25 205 38 234T74 288T127 329T193 359Q152 385 125 423T98 511Q98 550 113 585T157 647T229 689T329 705Q377 705 414 693T476 659T515 608T528 545Q528
510 517 482T486 432T440 391T384 358Q441 327 473 287T506 190Q506 146 489 109T439 45T362 3T261 -13ZM263 63Q334 63 372 97T411 183Q411 227 374 260T257 330Q192 303 156 265T120 172Q120 114 159 89T263 63ZM322 386Q373 414 402 450T432 531Q432 549 427
566T408 598T373 620T320 629Q287 629 263 620T224 595T201 560T193 519Q193 481 221 451T322 386Z" />
<glyph unicode="9" glyph-name="nine" horiz-adv-x="547" d="M183 -13Q122 -13 87 -1T32 26L44 94Q63 86 96 76T188 65Q228 65 267 78T339 121T396 199T431 319Q417 306 397 295T356 276T311 264T268 259Q218 259 181 274T120 314T84 372T72 444Q72 501 90 549T142
631T220 685T320 705Q376 705 417 688T487 639T528 565T542 472Q542 375 521 282T452 118Q409 56 343 22T183 -13ZM295 336Q338 336 375 349T441 386Q445 409 446 433T447 479Q447 510 441 537T420 585T380 617T318 629Q283 629 256 616T208 578T178 522T167 451Q167
394 198 365T295 336Z" />
<glyph unicode=":" glyph-name="colon" horiz-adv-x="262" d="M107 401H207L189 300H89L107 401ZM54 101H154L136 0H36L54 101Z" />
<glyph unicode=";" glyph-name="semicolon" horiz-adv-x="262" d="M53 101H156L83 -92H7L53 101ZM107 401H207L189 300H89L107 401Z" />
<glyph unicode="&lt;" glyph-name="less" horiz-adv-x="481" d="M50 286L63 357L470 535L454 445L148 318L409 188L394 104L50 286Z" />
<glyph unicode="=" glyph-name="equal" horiz-adv-x="528" d="M87 431H503L490 357H74L87 431ZM56 254H472L459 180H43L56 254Z" />
<glyph unicode="&gt;" glyph-name="greater" horiz-adv-x="481" d="M49 194L355 321L94 451L109 535L453 353L440 282L33 104L49 194Z" />
<glyph unicode="?" glyph-name="question" horiz-adv-x="400" d="M112 257Q116 284 125 304T149 343T188 379T244 418Q272 436 288 452T314 484T326 515T329 547Q329 587 302 608T224 629Q201 629 183 627T150 622T119 613T86 602L98 673Q136 689 169 697T251
705Q327 705 375 666T423 555Q423 525 417 500T395 453T355 408T291 359Q268 344 252 332T223 308T204 283T194 251L187 208H104L112 257ZM78 101H178L160 0H60L78 101Z" />
<glyph unicode="@" glyph-name="at" horiz-adv-x="849" d="M375 -155Q288 -155 222 -132T111 -67T44 34T21 167Q21 227 37 289T83 408T157 514T256 601T377 659T520 680Q593 680 653 659T755 600T821 507T845 386Q845 314 827 250T776 138T698 61T599 32Q546 32
520 51T488 105H483Q474 90 459 77T425 54T385 38T343 32Q283 32 251 65T219 162Q219 236 243 295T305 395T392 458T487 480Q540 480 584 471T648 453L572 148Q566 124 573 110T608 95Q642 95 671 118T723 180T758 270T771 379Q771 428 756 471T709 546T629 596T516
615Q421 615 343 577T210 477T125 334T95 168Q95 47 167 -22T379 -92Q416 -92 453 -88T524 -77T586 -63T633 -49L623 -106Q575 -126 511 -140T375 -155ZM377 100Q411 100 438 116T486 159L545 400Q529 406 516 409T478 412Q450 412 420 394T365 345T324 269T308
172Q308 139 324 120T377 100Z" />
<glyph unicode="A" glyph-name="A" horiz-adv-x="590" d="M346 693H441L538 0H444L419 195H159L54 0H-38L346 693ZM200 272H409L370 580H367L200 272Z" />
<glyph unicode="B" glyph-name="B" horiz-adv-x="568" d="M150 693H348Q398 693 433 681T492 647T526 597T537 536Q537 470 507 428T409 363V359Q464 348 495 312T526 227Q526 176 510 134T462 63T380 17T266 0H28L150 693ZM268 76Q353 76 392 113T431 229Q431
274 404 298T315 322H176L132 76H268ZM287 395Q322 395 351 401T400 422T432 462T443 526Q443 572 417 594T330 616H227L188 395H287Z" />
<glyph unicode="C" glyph-name="C" horiz-adv-x="555" d="M297 -12Q176 -12 110 57T44 262Q44 335 63 405T116 533Q141 576 170 608T237 661T319 694T420 705Q483 705 520 693T585 660L572 585Q546 601 508 614T412 628Q338 628 284 597T194 493Q169 443 155 386T141
259Q141 203 153 166T188 106T241 74T310 65Q373 65 421 81T498 114L485 37Q455 15 403 2T297 -12Z" />
<glyph unicode="D" glyph-name="D" horiz-adv-x="628" d="M150 693H339Q475 693 546 628T618 439Q618 338 595 257T527 119T412 31T250 0H28L150 693ZM256 77Q316 77 359 93T433 141T481 219T511 327Q516 359 518 386T521 439Q521 530 474 573T323 616H227L132 77H256Z" />
<glyph unicode="E" glyph-name="E" horiz-adv-x="523" d="M150 693H547L534 616H227L188 396H422L408 319H175L133 77H442L428 0H28L150 693Z" />
<glyph unicode="F" glyph-name="F" horiz-adv-x="486" d="M151 693H536L523 616H229L188 383H411L397 306H174L120 0H29L151 693Z" />
<glyph unicode="G" glyph-name="G" horiz-adv-x="622" d="M321 -12Q260 -12 210 4T123 54T66 138T46 258Q46 335 66 406T117 527Q176 624 256 664T441 705Q499 705 540 693T610 660L597 584Q571 600 528 613T434 627Q338 627 272 579T169 419Q155 374 150 337T144
257Q144 213 154 177T186 116T244 77T330 63Q361 63 390 67T443 79L477 264H343L356 340H581L526 26Q484 10 433 -1T321 -12Z" />
<glyph unicode="H" glyph-name="H" horiz-adv-x="642" d="M151 693H242L189 397H502L555 693H646L523 0H432L489 320H176L119 0H28L151 693Z" />
<glyph unicode="I" glyph-name="I" horiz-adv-x="244" d="M154 693H245L122 0H31L154 693Z" />
<glyph unicode="J" glyph-name="J" horiz-adv-x="384" d="M106 -7Q62 -7 31 2T-22 26L-11 93Q10 84 35 78T99 71Q127 71 147 79T180 104T201 141T214 190L302 693H393L302 174Q295 133 281 100T244 43T187 6T106 -7Z" />
<glyph unicode="K" glyph-name="K" horiz-adv-x="565" d="M206 354L515 693H625L306 354L508 0H408L206 354ZM150 693H241L119 0H28L150 693Z" />
<glyph unicode="L" glyph-name="L" horiz-adv-x="470" d="M150 693H241L133 77H421L407 0H28L150 693Z" />
<glyph unicode="M" glyph-name="M" horiz-adv-x="775" d="M150 693H285L359 116H362L643 693H779L657 0H566L668 576H665L381 0H291L216 576H213L111 0H28L150 693Z" />
<glyph unicode="N" glyph-name="N" horiz-adv-x="638" d="M150 693H262L460 148H463L559 693H642L520 0H421L215 574H212L111 0H28L150 693Z" />
<glyph unicode="O" glyph-name="O" horiz-adv-x="665" d="M301 -11Q242 -11 195 7T114 60T62 145T44 259Q44 341 66 421T133 564T244 665T396 704Q454 704 501 686T583 633T635 548T654 434Q654 350 631 270T564 128T453 27T301 -11ZM307 63Q352 63 391 82T461
135T513 218T545 323Q551 358 554 384T557 439Q557 479 548 514T519 575T467 615T390 630Q299 630 237 561T152 370Q146 335 144 309T141 254Q141 165 180 114T307 63Z" />
<glyph unicode="P" glyph-name="P" horiz-adv-x="532" d="M151 693H346Q444 693 497 647T551 513Q551 456 533 411T481 336T399 289T291 273H167L119 0H28L151 693ZM285 349Q374 349 414 387T454 506Q454 531 448 551T427 585T390 608T333 616H228L181 349H285Z" />
<glyph unicode="Q" glyph-name="Q" horiz-adv-x="665" d="M234 -8Q198 4 164 23T103 73T60 150T44 259Q44 341 66 421T133 563T244 664T396 703Q454 703 501 685T583 632T635 547T654 434Q654 362 637 294T587 169T505 72T391 14L607 -42L579 -120L234 -8ZM307
63Q352 63 391 82T461 135T513 218T545 323Q551 358 554 384T557 439Q557 479 548 514T519 575T467 615T390 630Q299 630 237 561T152 370Q146 335 144 309T141 254Q141 165 180 114T307 63Z" />
<glyph unicode="R" glyph-name="R" horiz-adv-x="557" d="M151 693H339Q433 693 487 647T541 519Q541 441 497 387T372 312V307L498 0H399L281 293H171L119 0H28L151 693ZM280 365Q365 365 404 404T443 513Q443 570 410 593T325 616H228L184 365H280Z" />
<glyph unicode="S" glyph-name="S" horiz-adv-x="475" d="M185 -12Q110 -12 63 5T-16 43L-3 120Q35 98 81 82T192 65Q271 65 306 101T341 207Q341 239 324 261T259 305L191 335Q137 359 109 397T81 500Q81 545 95 582T138 647T209 689T307 704Q345 704 372 700T420
689T456 674T485 658L471 582Q442 597 403 612T299 627Q235 627 202 597T169 503Q169 470 184 449T239 410L307 380Q369 353 400 316T432 212Q432 170 420 130T378 58T302 7T185 -12Z" />
<glyph unicode="T" glyph-name="T" horiz-adv-x="511" d="M274 616H79L92 693H573L560 616H365L256 0H165L274 616Z" />
<glyph unicode="U" glyph-name="U" horiz-adv-x="626" d="M293 -12Q245 -12 203 -3T129 28T79 88T61 182Q61 199 62 216T68 254L145 693H236L158 247Q152 211 152 183Q152 146 162 122T191 85T236 66T296 60Q334 60 362 68T412 98T447 153T471 239L551 693H635L553
225Q544 175 526 132T478 56T402 6T293 -12Z" />
<glyph unicode="V" glyph-name="V" horiz-adv-x="572" d="M85 693H177L259 122H262L550 693H641L280 0H193L85 693Z" />
<glyph unicode="W" glyph-name="W" horiz-adv-x="842" d="M93 693H183L208 139H211L456 693H541L590 139H593L814 693H903L611 0H514L470 543H467L224 0H133L93 693Z" />
<glyph unicode="X" glyph-name="X" horiz-adv-x="568" d="M253 357L111 693H206L320 415H324L525 693H623L356 346L501 0H406L292 289H289L75 0H-23L253 357Z" />
<glyph unicode="Y" glyph-name="Y" horiz-adv-x="522" d="M221 275L83 693H174L281 353H284L500 693H593L312 272L264 0H173L221 275Z" />
<glyph unicode="Z" glyph-name="Z" horiz-adv-x="511" d="M-6 69L438 613V616H113L126 693H563L551 625L104 80V77H448L434 0H-18L-6 69Z" />
<glyph unicode="[" glyph-name="bracketleft" horiz-adv-x="336" d="M163 739H389L377 669H239L112 -50H250L238 -120H12L163 739Z" />
<glyph unicode="\" glyph-name="backslash" horiz-adv-x="346" d="M107 739H182L275 -120H200L107 739Z" />
<glyph unicode="]" glyph-name="bracketright" horiz-adv-x="336" d="M-21 -50H116L243 669H105L117 739H343L192 -120H-33L-21 -50Z" />
<glyph unicode="^" glyph-name="asciicircum" horiz-adv-x="453" d="M267 693H341L444 452H369L293 612L160 452H79L267 693Z" />
<glyph unicode="_" glyph-name="underscore" horiz-adv-x="320" d="M-61 -61H269L259 -120H-71L-61 -61Z" />
<glyph unicode="`" glyph-name="grave" horiz-adv-x="494" d="M183 732H277L330 587H255L183 732Z" />
<glyph unicode="a" glyph-name="a" horiz-adv-x="508" d="M188 -10Q113 -10 69 34T24 167Q24 246 48 311T114 424T213 497T339 523Q389 523 430 515T488 500L400 0H329L328 50H323Q299 25 266 8T188 -10ZM208 61Q243 61 275 74T331 109L391 441Q375 447 362 450T329
453Q291 453 258 440T199 402T154 344T125 267Q119 243 116 220T113 170Q113 108 140 85T208 61Z" />
<glyph unicode="b" glyph-name="b" horiz-adv-x="520" d="M207 -10Q183 -10 157 -8T106 -2T59 8T21 23L147 739H235L187 465H192Q224 487 260 505T348 523Q417 523 457 481T498 354Q498 284 483 219T434 102T344 21T207 -10ZM215 61Q260 61 291 76T345 119T380
187T403 277Q406 294 407 311T408 343Q408 376 400 396T380 428T350 444T312 448Q274 448 239 435T176 403L118 76Q138 68 164 65T215 61Z" />
<glyph unicode="c" glyph-name="c" horiz-adv-x="416" d="M220 -10Q122 -10 72 43T22 189Q22 246 38 303T86 406Q125 463 181 493T312 523Q354 523 383 514T430 492L417 421Q398 431 373 439T309 448Q262 448 226 431T161 374Q135 336 123 291T110 195Q110 124
142 95T236 65Q284 65 318 79T375 104L362 31Q330 11 295 1T220 -10Z" />
<glyph unicode="d" glyph-name="d" horiz-adv-x="518" d="M176 -10Q144 -10 116 0T67 32T34 85T22 159Q22 229 39 294T91 411T176 492T294 523Q341 523 367 513T410 492L453 739H541L411 0H339L337 52H332Q303 26 266 8T176 -10ZM204 61Q246 61 280 76T342 110L397
421Q377 433 353 441T303 449Q218 449 176 394T116 238Q113 221 112 203T111 170Q111 109 135 85T204 61Z" />
<glyph unicode="e" glyph-name="e" horiz-adv-x="483" d="M229 -10Q127 -10 75 42T22 191Q22 258 40 317T88 419Q123 468 172 495T286 523Q384 523 430 461T455 281L446 231H113Q112 222 112 214T111 197Q111 125 143 96T242 66Q290 66 334 78T415 106L402 35Q376
19 331 5T229 -10ZM158 380Q148 364 140 344T126 302H367Q381 380 358 416T275 452Q236 452 207 434T158 380Z" />
<glyph unicode="f" glyph-name="f" horiz-adv-x="315" d="M125 440H51L63 513H138L149 574Q158 622 176 655T219 709T276 739T343 748Q372 748 391 742T425 728L414 665Q405 669 389 672T350 676Q305 676 277 653T237 573L226 513H343L331 440H212L102 -195H14L125 440Z" />
<glyph unicode="g" glyph-name="g" horiz-adv-x="516" d="M158 -199Q102 -199 54 -186T-18 -156L-7 -88Q2 -93 18 -99T56 -112T103 -123T154 -128Q197 -128 226 -119T275 -92T306 -50T322 6L333 70H328Q307 50 269 32T178 13Q146 13 118 23T69 55T36 109T24 187Q24
259 45 320T104 427T195 497T312 523Q374 523 415 512T494 482L408 -7Q400 -52 382 -87T334 -147T260 -185T158 -199ZM206 84Q248 84 282 99T344 132L397 433Q380 441 358 447T310 453Q230 453 184 401T120 261Q117 244 115 226T113 193Q113 132 137 108T206 84Z"
/>
<glyph unicode="h" glyph-name="h" horiz-adv-x="522" d="M150 739H238L190 463H195Q233 490 273 506T362 523Q398 523 421 513T459 486T479 446T485 400Q485 389 484 379T481 359L418 0H330L391 346Q395 366 395 385Q395 417 379 432T324 447Q290 447 254 437T176
403L105 0H17L150 739Z" />
<glyph unicode="i" glyph-name="i" horiz-adv-x="218" d="M110 513H198L108 0H20L110 513ZM143 706H233L217 615H127L143 706Z" />
<glyph unicode="j" glyph-name="j" horiz-adv-x="217" d="M-63 -199Q-85 -199 -108 -194T-146 -178L-136 -119Q-112 -128 -80 -128Q-35 -128 -15 -107T13 -40L110 513H198L99 -50Q86 -125 47 -162T-63 -199ZM143 706H232L216 615H127L143 706Z" />
<glyph unicode="k" glyph-name="k" horiz-adv-x="472" d="M147 739H235L105 0H17L147 739ZM177 267L391 513H492L271 266L417 0H320L177 267Z" />
<glyph unicode="l" glyph-name="l" horiz-adv-x="216" d="M149 739H237L107 0H19L149 739Z" />
<glyph unicode="m" glyph-name="m" horiz-adv-x="791" d="M108 513H192L183 459H188Q229 489 266 506T349 523Q397 523 421 503T456 453H460Q510 487 554 505T643 523Q676 523 697 513T731 487T749 448T754 403Q754 392 753 381T750 359L687 0H599L660 346Q662
359 663 369T665 390Q665 419 652 433T605 447Q573 447 541 437T463 401Q463 390 462 380T459 359L396 0H308L369 346Q371 359 372 369T374 390Q374 419 361 433T314 447Q282 447 250 437T176 403L105 0H17L108 513Z" />
<glyph unicode="n" glyph-name="n" horiz-adv-x="522" d="M108 513H192L183 459H188Q230 490 272 506T362 523Q398 523 421 513T459 486T479 446T485 400Q485 389 484 379T481 359L418 0H330L391 346Q395 366 395 385Q395 417 379 432T324 447Q290 447 254 437T176
403L105 0H17L108 513Z" />
<glyph unicode="o" glyph-name="o" horiz-adv-x="510" d="M218 -10Q125 -10 74 43T23 191Q23 255 40 314T92 420T176 495T293 523Q386 523 437 470T488 322Q488 259 471 199T420 93T336 18T218 -10ZM222 61Q258 61 286 75T336 114T371 174T393 252Q397 273 398
292T400 324Q400 393 369 422T289 452Q253 452 225 438T175 399T140 339T118 261Q111 227 111 189Q111 121 142 91T222 61Z" />
<glyph unicode="p" glyph-name="p" horiz-adv-x="520" d="M107 513H191L182 458H187Q219 485 257 504T350 523Q417 523 457 479T498 344Q498 273 483 209T435 97T347 19T215 -10Q181 -10 154 -5T107 9L71 -195H-17L107 513ZM215 61Q261 61 293 74T346 114T381
178T403 266Q406 283 407 300T408 332Q408 367 400 389T380 425T350 443T314 448Q274 448 239 435T176 403L119 78Q139 69 166 65T215 61Z" />
<glyph unicode="q" glyph-name="q" horiz-adv-x="519" d="M332 46H327Q306 26 268 8T177 -10Q145 -10 117 1T67 33T34 85T22 159Q22 242 43 309T103 424T196 497T316 523Q376 523 419 511T497 482L378 -195H290L332 46ZM205 63Q247 63 281 78T344 111L400 431Q382
440 361 446T314 452Q270 452 237 438T180 396T141 328T117 238Q114 221 113 203T112 170Q112 111 136 87T205 63Z" />
<glyph unicode="r" glyph-name="r" horiz-adv-x="331" d="M107 513H191L181 457H186Q215 486 252 502T332 519Q342 519 351 518T363 515L349 437Q339 439 328 439T310 440Q238 440 176 403L105 0H17L107 513Z" />
<glyph unicode="s" glyph-name="s" horiz-adv-x="409" d="M160 -9Q100 -9 62 4T-3 35L9 105Q37 91 71 78T161 65Q193 65 214 71T248 89T266 114T271 145Q271 168 256 184T203 216L156 235Q111 253 85 282T58 365Q58 440 106 481T243 522Q274 522 297 519T337 509T367
497T389 484L376 414Q356 425 322 437T236 449Q188 449 165 429T141 376Q141 349 154 335T200 307L247 288Q276 276 297 264T331 236T351 202T358 156Q358 122 348 92T313 40T252 4T160 -9Z" />
<glyph unicode="t" glyph-name="t" horiz-adv-x="336" d="M193 -6Q116 -6 88 36T71 144L124 440H51L63 513H136L158 635H246L224 513H349L337 440H212L159 146Q152 106 163 86T218 65Q235 65 251 67T285 74L274 15Q261 7 240 1T193 -6Z" />
<glyph unicode="u" glyph-name="u" horiz-adv-x="518" d="M165 -10Q106 -10 73 22T38 115Q38 126 39 137T42 162L104 513H192L131 167Q127 147 127 127Q127 97 141 82T193 66Q231 66 265 76T342 110L413 513H501L410 0H338L336 54H331Q290 23 253 7T165 -10Z" />
<glyph unicode="v" glyph-name="v" horiz-adv-x="468" d="M54 513H146L192 108H196L413 513H504L219 0H126L54 513Z" />
<glyph unicode="w" glyph-name="w" horiz-adv-x="728" d="M57 513H148L167 113H171L368 513H451L480 113H484L674 513H761L503 0H411L381 378H377L189 0H98L57 513Z" />
<glyph unicode="x" glyph-name="x" horiz-adv-x="458" d="M180 265L70 513H163L245 320L402 513H495L279 250L390 0H297L214 194L56 0H-37L180 265Z" />
<glyph unicode="y" glyph-name="y" horiz-adv-x="468" d="M4 -199Q-19 -199 -35 -194T-63 -182L-52 -119Q-42 -122 -30 -124T-3 -126Q32 -126 57 -107T109 -44L143 16L54 513H147L206 130H209L413 513H504L186 -61Q166 -97 147 -123T106 -166T60 -191T4 -199Z" />
<glyph unicode="z" glyph-name="z" horiz-adv-x="419" d="M-1 65L312 438V441H74L86 513H434L423 450L107 75V72H361L348 0H-12L-1 65Z" />
<glyph unicode="{" glyph-name="braceleft" horiz-adv-x="374" d="M275 -122Q221 -121 185 -111T128 -84T97 -45T88 4Q88 21 91 41L116 182Q124 230 104 251T20 277L33 349Q66 351 88 356T125 371T148 397T161 437L186 578Q193 617 207 647T249 698T319 729T427
741L415 671Q382 669 358 664T316 649T288 620T273 574L248 433Q244 412 237 393T215 358T177 330T120 311V308Q172 297 190 274T208 218Q208 202 205 186L180 45Q175 17 179 -1T196 -29T232 -45T288 -52L275 -122V-122Z" />
<glyph unicode="|" glyph-name="bar" horiz-adv-x="295" d="M116 739H197V-120H116V739Z" />
<glyph unicode="}" glyph-name="braceright" horiz-adv-x="374" d="M-21 -52Q12 -50 36 -45T78 -30T106 -1T121 45L146 186Q150 207 157 226T179 261T216 289T274 308V311Q222 322 204 345T186 401Q186 416 189 433L214 574Q219 602 215 620T198 648T162 664T106
671L119 741Q173 740 209 730T266 703T297 664T306 615Q306 597 303 578L278 437Q270 389 290 368T374 342L361 270Q328 268 306 263T269 248T246 222T233 182L208 41Q201 2 187 -28T145 -79T75 -110T-33 -122L-21 -52Z" />
<glyph unicode="~" glyph-name="asciitilde" horiz-adv-x="393" d="M37 240Q52 304 84 328T152 352Q169 352 184 347T213 334T239 322T263 316Q294 316 306 354H370Q355 290 323 266T255 242Q238 242 223 247T194 260T168 272T144 278Q113 278 101 240H37V240Z" />
<glyph unicode="&#xa0;" glyph-name="uni00A0" horiz-adv-x="192" />
<glyph unicode="&#xa1;" glyph-name="exclamdown" horiz-adv-x="274" d="M122 365H196L119 -120H23L122 365ZM145 573H241L223 472H127L145 573Z" />
<glyph unicode="&#xa2;" glyph-name="cent" horiz-adv-x="419" d="M152 -1Q87 16 55 66T22 196Q22 247 39 304T87 406Q126 463 181 493T312 523H314L334 586H401L379 515Q396 511 409 505T433 492L421 423Q408 429 393 435T357 445L238 62Q286 62 321 76T378 101L365
31Q333 11 297 1T220 -10H216L182 -119H116L152 -1ZM110 195Q110 144 126 115T175 72L291 449Q234 444 189 407T122 287Q116 264 113 241T110 195Z" />
<glyph unicode="&#xa3;" glyph-name="sterling" horiz-adv-x="493" d="M59 378H139L157 480Q167 538 189 580T244 650T315 691T399 705Q442 705 471 698T521 675L509 606Q484 617 461 622T400 627Q373 627 349 620T304 595T270 549T247 476L229 378H399L387 310H217L207
251Q201 215 194 189T176 144T152 109T117 79V77H429L415 0H-4L8 67Q32 80 49 96T79 134T101 183T116 247L127 310H47L59 378Z" />
<glyph unicode="&#xa5;" glyph-name="yen" horiz-adv-x="519" d="M197 141H50L63 214H209L221 282H74L87 355H215L75 693H167L284 396H287L505 693H599L342 355H473L460 282H309L297 214H449L436 141H283L258 0H172L197 141Z" />
<glyph unicode="&#xa6;" glyph-name="brokenbar" horiz-adv-x="295" d="M107 275H188V-120H107V275ZM107 733H188V352H107V733Z" />
<glyph unicode="&#xa7;" glyph-name="section" horiz-adv-x="452" d="M169 -132Q115 -132 77 -121T4 -89L16 -17Q42 -33 84 -44T169 -56Q225 -56 254 -34T283 29Q283 60 268 78T215 115L145 149Q123 160 103 172T68 200T43 240T34 297Q34 351 65 385T144 437Q125
458 118 483T111 542Q111 579 125 609T166 660T229 693T307 705Q358 705 393 695T457 669L444 597Q418 612 382 620T304 629Q259 629 228 609T197 545Q197 517 209 497T258 458L328 424Q350 413 370 401T405 371T430 333T439 282Q439 227 410 191T332 138Q352 119
360 96T369 40Q369 -41 315 -86T169 -132ZM223 382Q214 386 207 390T192 399Q157 386 137 364T116 305Q116 273 135 256T177 227L250 191L280 175Q314 188 334 210T355 270Q355 302 337 318T296 346L223 382Z" />
<glyph unicode="&#xa8;" glyph-name="dieresis" horiz-adv-x="494" d="M368 704H454L438 615H352L368 704ZM198 704H284L268 615H182L198 704Z" />
<glyph unicode="&#xa9;" glyph-name="copyright" horiz-adv-x="800" d="M415 -14Q339 -14 274 14T162 91T88 205T61 344Q61 418 88 483T162 596T274 672T415 700Q491 700 556 672T669 596T744 483T771 344Q771 270 744 205T669 91T556 14T415 -14ZM415 36Q479
36 533 59T627 123T689 220T711 344Q711 411 689 467T628 564T534 627T415 650Q350 650 296 628T203 565T143 468T121 344Q121 277 142 221T203 123T296 59T415 36ZM424 146Q344 146 296 193T247 339V351Q247 403 261 439T301 498T359 531T430 542Q463 542 487
535T526 520V457Q503 466 480 471T426 476Q383 476 357 449T330 359V339Q330 275 354 243T434 211Q469 211 491 219T530 236V173Q511 162 485 154T424 146Z" />
<glyph unicode="&#xaa;" glyph-name="ordfeminine" horiz-adv-x="463" d="M203 222Q170 222 143 231T95 261T64 310T52 381Q52 453 74 512T136 613T226 678T335 702Q357 702 380 700T423 694T458 688T480 681L401 231H331L330 278H326Q303 253 273 238T203 222ZM224
288Q253 288 282 299T332 329L385 627Q371 632 359 635T326 638Q258 638 213 594T149 473Q139 432 139 384Q139 354 145 336T163 307T190 292T224 288Z" />
<glyph unicode="&#xab;" glyph-name="guillemotleft" horiz-adv-x="452" d="M220 236L225 269L359 449H443L306 248L370 56H290L220 236ZM40 236L45 269L179 449H263L126 248L190 56H110L40 236Z" />
<glyph unicode="&#xae;" glyph-name="registered" horiz-adv-x="433" d="M261 314Q220 314 184 329T122 372T81 434T66 511Q66 552 81 587T122 649T184 691T261 707Q302 707 338 692T400 650T442 588T457 511Q457 470 442 435T401 372T338 330T261 314ZM261 347Q296
347 324 359T373 394T405 446T417 511Q417 545 406 574T374 626T325 662T261 674Q226 675 198 662T149 627T117 575T106 511Q106 476 117 447T148 395T197 360T261 347ZM196 607H267Q302 607 321 593T340 550Q340 530 331 519T307 503V500L350 420H301L264 491H243V420H196V607ZM264
526Q281 526 286 532T292 549Q292 561 286 566T264 571H243V526H264Z" />
<glyph unicode="&#xaf;" glyph-name="macron" horiz-adv-x="494" d="M206 693H444L431 620H193L206 693Z" />
<glyph unicode="&#xb0;" glyph-name="degree" horiz-adv-x="358" d="M221 429Q192 429 169 439T129 466T103 506T94 554Q94 585 106 612T139 660T188 692T248 704Q276 704 299 694T339 667T365 628T374 580Q374 549 362 522T330 474T281 441T221 429ZM225 483Q263
483 285 510T307 578Q307 608 291 629T243 650Q205 650 183 623T161 556Q161 525 177 504T225 483Z" />
<glyph unicode="&#xb4;" glyph-name="acute" horiz-adv-x="494" d="M355 732H457L347 587H269L355 732Z" />
<glyph unicode="&#xb6;" glyph-name="paragraph" horiz-adv-x="567" d="M290 337H246Q171 337 125 379T79 498Q79 538 92 573T135 635T214 677T335 693H566L423 -120H358L491 636H408L275 -120H210L290 337Z" />
<glyph unicode="&#xb7;" glyph-name="periodcentered" horiz-adv-x="252" d="M97 374H197L179 273H79L97 374Z" />
<glyph unicode="&#xb8;" glyph-name="cedilla" horiz-adv-x="494" d="M119 -165Q179 -160 203 -151T228 -121Q228 -93 153 -93L169 0H226L218 -48Q258 -50 280 -67T302 -113Q302 -160 258 -185T110 -217L119 -165Z" />
<glyph unicode="&#xba;" glyph-name="ordmasculine" horiz-adv-x="462" d="M235 222Q148 222 102 271T56 406Q56 462 72 515T119 610T196 677T302 702Q393 702 436 655T480 521Q480 464 464 411T418 315T341 248T235 222ZM238 290Q303 290 338 335T388 458Q391
477 392 494T394 523Q394 585 368 609T298 634Q233 634 198 592T149 471Q147 459 145 440T142 407Q142 342 168 316T238 290Z" />
<glyph unicode="&#xbb;" glyph-name="guillemotright" horiz-adv-x="452" d="M325 257L261 449H341L411 269L406 236L272 56H188L325 257ZM145 257L81 449H161L231 269L226 236L92 56H8L145 257Z" />
<glyph unicode="&#xbc;" glyph-name="onequarter" horiz-adv-x="767" d="M166 624L71 611L79 657L215 701H253L179 282H106L166 624ZM620 713H694L99 -40H25L620 713ZM574 109H389L398 159L635 416H701L657 163H724L714 109H647L628 0H555L574 109ZM584 163L610
312H607L474 166V163H584Z" />
<glyph unicode="&#xbd;" glyph-name="onehalf" horiz-adv-x="800" d="M616 713H690L95 -40H21L616 713ZM166 624L71 611L79 657L215 701H253L179 282H106L166 624ZM454 49L561 141Q588 165 610 185T647 224T671 262T679 304Q679 333 662 348T614 363Q588 363 563
357T518 342L528 396Q551 409 575 415T635 422Q694 422 726 392T758 312Q758 256 720 210T616 114L544 59V57H722L712 -1H445L454 49Z" />
<glyph unicode="&#xbe;" glyph-name="threequarters" horiz-adv-x="807" d="M150 275Q110 275 82 283T36 304L45 355Q65 346 90 340T141 334Q192 334 215 355T239 411Q239 470 158 470H128L138 525H162Q204 525 231 541T259 595Q259 622 240 634T189 646Q170 646
152 645T112 636L121 689Q142 698 166 701T220 705Q269 705 300 679T332 607Q332 565 305 538T239 502V500Q270 495 292 474T315 417Q315 385 303 359T268 314T215 285T150 275ZM677 710H751L156 -43H82L677 710ZM614 109H429L438 159L675 416H741L697 163H764L754
109H687L668 0H595L614 109ZM624 163L650 312H647L514 166V163H624Z" />
<glyph unicode="&#xbf;" glyph-name="questiondown" horiz-adv-x="400" d="M160 -132Q84 -132 36 -93T-12 18Q-12 48 -6 73T16 120T56 165T120 214Q142 229 159 241T188 265T207 290T217 322L224 365H307L299 316Q294 289 286 269T262 230T223 194T167 155Q139
137 123 121T97 89T85 58T82 26Q82 -14 109 -35T187 -56Q210 -56 227 -54T261 -49T292 -40T325 -29L313 -100Q275 -116 242 -124T160 -132ZM251 573H351L333 472H233L251 573Z" />
<glyph unicode="&#xc0;" glyph-name="Agrave" horiz-adv-x="590" d="M346 693H441L538 0H444L419 195H159L54 0H-38L346 693ZM200 272H409L370 580H367L200 272ZM289 865H383L428 740H353L289 865Z" />
<glyph unicode="&#xc1;" glyph-name="Aacute" horiz-adv-x="590" d="M346 693H441L538 0H444L419 195H159L54 0H-38L346 693ZM200 272H409L370 580H367L200 272ZM427 865H530L433 740H354L427 865Z" />
<glyph unicode="&#xc2;" glyph-name="Acircumflex" horiz-adv-x="590" d="M346 693H441L538 0H444L419 195H159L54 0H-38L346 693ZM200 272H409L370 580H367L200 272ZM383 864H455L533 740H466L412 801L334 740H263L383 864Z" />
<glyph unicode="&#xc3;" glyph-name="Atilde" horiz-adv-x="590" d="M346 693H441L538 0H444L419 195H159L54 0H-38L346 693ZM200 272H409L370 580H367L200 272ZM249 745Q259 801 289 825T351 849Q367 849 381 844T409 834T433 823T456 818Q485 818 494 851H554Q544
795 514 771T452 747Q436 747 422 752T394 762T369 773T347 778Q318 778 309 745H249V745Z" />
<glyph unicode="&#xc4;" glyph-name="Adieresis" horiz-adv-x="590" d="M346 693H441L538 0H444L419 195H159L54 0H-38L346 693ZM200 272H409L370 580H367L200 272ZM459 835H545L529 746H443L459 835ZM285 835H371L355 746H269L285 835Z" />
<glyph unicode="&#xc5;" glyph-name="Aring" horiz-adv-x="590" d="M346 693H441L538 0H444L419 195H159L54 0H-38L346 693ZM200 272H409L370 580H367L200 272ZM401 729Q359 729 334 754T308 816Q308 835 315 853T336 884T368 905T407 913Q449 913 474 888T500
826Q500 806 493 788T472 757T440 737T401 729ZM402 771Q425 771 438 786T451 825Q451 846 440 858T407 871Q384 871 371 856T357 817Q357 795 369 783T402 771Z" />
<glyph unicode="&#xc6;" glyph-name="AE" horiz-adv-x="869" d="M443 693H893L880 616H573L534 396H770L756 319H521L479 77H788L774 0H376L411 200H193L54 0H-43L443 693ZM425 277L485 618H481L247 277H425Z" />
<glyph unicode="&#xc7;" glyph-name="Ccedilla" horiz-adv-x="555" d="M297 -12Q286 -12 276 -12T257 -10L251 -48Q291 -50 313 -67T335 -113Q335 -160 291 -185T143 -217L152 -165Q212 -160 236 -151T261 -121Q261 -93 186 -93L202 1Q126 25 85 90T44 262Q44
335 63 405T116 533Q141 576 170 608T237 661T319 694T420 705Q483 705 520 693T585 660L572 585Q546 601 508 614T412 628Q338 628 284 597T194 493Q169 443 155 386T141 259Q141 203 153 166T188 106T241 74T310 65Q373 65 421 81T498 114L485 37Q455 15 403
2T297 -12Z" />
<glyph unicode="&#xc8;" glyph-name="Egrave" horiz-adv-x="523" d="M259 865H353L398 740H323L259 865ZM150 693H547L534 616H227L188 396H422L408 319H175L133 77H442L428 0H28L150 693Z" />
<glyph unicode="&#xc9;" glyph-name="Eacute" horiz-adv-x="523" d="M392 865H495L398 740H319L392 865ZM150 693H547L534 616H227L188 396H422L408 319H175L133 77H442L428 0H28L150 693Z" />
<glyph unicode="&#xca;" glyph-name="Ecircumflex" horiz-adv-x="523" d="M347 864H419L497 740H430L376 801L298 740H227L347 864ZM150 693H547L534 616H227L188 396H422L408 319H175L133 77H442L428 0H28L150 693Z" />
<glyph unicode="&#xcb;" glyph-name="Edieresis" horiz-adv-x="523" d="M150 693H547L534 616H227L188 396H422L408 319H175L133 77H442L428 0H28L150 693ZM423 835H509L493 746H407L423 835ZM249 835H335L319 746H233L249 835Z" />
<glyph unicode="&#xcc;" glyph-name="Igrave" horiz-adv-x="244" d="M154 693H245L122 0H31L154 693ZM361 865H455L500 740H425L361 865Z" />
<glyph unicode="&#xcd;" glyph-name="Iacute" horiz-adv-x="244" d="M154 693H245L122 0H31L154 693ZM494 865H597L500 740H421L494 865Z" />
<glyph unicode="&#xce;" glyph-name="Icircumflex" horiz-adv-x="244" d="M154 693H245L122 0H31L154 693ZM192 864H264L342 740H275L221 801L143 740H72L192 864Z" />
<glyph unicode="&#xcf;" glyph-name="Idieresis" horiz-adv-x="244" d="M154 693H245L122 0H31L154 693ZM268 835H354L338 746H252L268 835ZM94 835H180L164 746H78L94 835Z" />
<glyph unicode="&#xd0;" glyph-name="Eth" horiz-adv-x="628" d="M25 386H96L150 693H339Q475 693 546 628T618 439Q618 338 595 257T527 119T412 31T250 0H28L82 309H11L25 386ZM256 77Q316 77 359 93T433 141T481 219T511 327Q516 359 518 386T521 439Q521 530
474 573T323 616H227L186 386H373L359 309H173L132 77H256Z" />
<glyph unicode="&#xd1;" glyph-name="Ntilde" horiz-adv-x="638" d="M272 745Q282 801 312 825T374 849Q390 849 404 844T432 834T456 823T479 818Q508 818 517 851H577Q567 795 537 771T475 747Q459 747 445 752T417 762T392 773T370 778Q341 778 332 745H272V745ZM150
693H262L460 148H463L559 693H642L520 0H421L215 574H212L111 0H28L150 693Z" />
<glyph unicode="&#xd2;" glyph-name="Ograve" horiz-adv-x="665" d="M310 865H404L449 740H374L310 865ZM301 -11Q242 -11 195 7T114 60T62 145T44 259Q44 341 66 421T133 564T244 665T396 704Q454 704 501 686T583 633T635 548T654 434Q654 350 631 270T564 128T453
27T301 -11ZM307 63Q352 63 391 82T461 135T513 218T545 323Q551 358 554 384T557 439Q557 479 548 514T519 575T467 615T390 630Q299 630 237 561T152 370Q146 335 144 309T141 254Q141 165 180 114T307 63Z" />
<glyph unicode="&#xd3;" glyph-name="Oacute" horiz-adv-x="665" d="M443 865H546L449 740H370L443 865ZM301 -11Q242 -11 195 7T114 60T62 145T44 259Q44 341 66 421T133 564T244 665T396 704Q454 704 501 686T583 633T635 548T654 434Q654 350 631 270T564 128T453
27T301 -11ZM307 63Q352 63 391 82T461 135T513 218T545 323Q551 358 554 384T557 439Q557 479 548 514T519 575T467 615T390 630Q299 630 237 561T152 370Q146 335 144 309T141 254Q141 165 180 114T307 63Z" />
<glyph unicode="&#xd4;" glyph-name="Ocircumflex" horiz-adv-x="665" d="M398 864H470L548 740H481L427 801L349 740H278L398 864ZM301 -11Q242 -11 195 7T114 60T62 145T44 259Q44 341 66 421T133 564T244 665T396 704Q454 704 501 686T583 633T635 548T654
434Q654 350 631 270T564 128T453 27T301 -11ZM307 63Q352 63 391 82T461 135T513 218T545 323Q551 358 554 384T557 439Q557 479 548 514T519 575T467 615T390 630Q299 630 237 561T152 370Q146 335 144 309T141 254Q141 165 180 114T307 63Z" />
<glyph unicode="&#xd5;" glyph-name="Otilde" horiz-adv-x="665" d="M261 745Q271 801 301 825T363 849Q379 849 393 844T421 834T445 823T468 818Q497 818 506 851H566Q556 795 526 771T464 747Q448 747 434 752T406 762T381 773T359 778Q330 778 321 745H261V745ZM301
-11Q242 -11 195 7T114 60T62 145T44 259Q44 341 66 421T133 564T244 665T396 704Q454 704 501 686T583 633T635 548T654 434Q654 350 631 270T564 128T453 27T301 -11ZM307 63Q352 63 391 82T461 135T513 218T545 323Q551 358 554 384T557 439Q557 479 548 514T519
575T467 615T390 630Q299 630 237 561T152 370Q146 335 144 309T141 254Q141 165 180 114T307 63Z" />
<glyph unicode="&#xd6;" glyph-name="Odieresis" horiz-adv-x="665" d="M468 835H554L538 746H452L468 835ZM294 835H380L364 746H278L294 835ZM301 -11Q242 -11 195 7T114 60T62 145T44 259Q44 341 66 421T133 564T244 665T396 704Q454 704 501 686T583 633T635
548T654 434Q654 350 631 270T564 128T453 27T301 -11ZM307 63Q352 63 391 82T461 135T513 218T545 323Q551 358 554 384T557 439Q557 479 548 514T519 575T467 615T390 630Q299 630 237 561T152 370Q146 335 144 309T141 254Q141 165 180 114T307 63Z" />
<glyph unicode="&#xd7;" glyph-name="multiply" horiz-adv-x="549" d="M61 177L233 323L113 469L172 522L292 376L464 522L511 469L339 323L459 177L400 124L280 270L108 124L61 177Z" />
<glyph unicode="&#xd8;" glyph-name="Oslash" horiz-adv-x="665" d="M301 -11Q244 -11 198 7T118 59L63 0H-25L79 112Q44 174 44 259Q44 341 66 421T133 564T244 665T396 704Q449 704 493 688T570 641L619 693H706L612 591Q632 559 643 519T654 434Q654 350 631
270T564 128T453 27T301 -11ZM307 63Q352 63 391 82T462 135T515 218T547 323Q553 358 556 384T559 439Q559 484 547 522L174 119Q194 92 226 78T307 63ZM139 254Q139 213 146 184L516 582Q496 605 465 617T390 630Q345 630 306 612T236 561T183 479T150 370Q144
335 142 309T139 254Z" />
<glyph unicode="&#xd9;" glyph-name="Ugrave" horiz-adv-x="626" d="M296 865H390L435 740H360L296 865ZM293 -12Q245 -12 203 -3T129 28T79 88T61 182Q61 199 62 216T68 254L145 693H236L158 247Q152 211 152 183Q152 146 162 122T191 85T236 66T296 60Q334 60
362 68T412 98T447 153T471 239L551 693H635L553 225Q544 175 526 132T478 56T402 6T293 -12Z" />
<glyph unicode="&#xda;" glyph-name="Uacute" horiz-adv-x="626" d="M429 865H532L435 740H356L429 865ZM293 -12Q245 -12 203 -3T129 28T79 88T61 182Q61 199 62 216T68 254L145 693H236L158 247Q152 211 152 183Q152 146 162 122T191 85T236 66T296 60Q334 60
362 68T412 98T447 153T471 239L551 693H635L553 225Q544 175 526 132T478 56T402 6T293 -12Z" />
<glyph unicode="&#xdb;" glyph-name="Ucircumflex" horiz-adv-x="626" d="M384 864H456L534 740H467L413 801L335 740H264L384 864ZM293 -12Q245 -12 203 -3T129 28T79 88T61 182Q61 199 62 216T68 254L145 693H236L158 247Q152 211 152 183Q152 146 162 122T191
85T236 66T296 60Q334 60 362 68T412 98T447 153T471 239L551 693H635L553 225Q544 175 526 132T478 56T402 6T293 -12Z" />
<glyph unicode="&#xdc;" glyph-name="Udieresis" horiz-adv-x="626" d="M293 -12Q245 -12 203 -3T129 28T79 88T61 182Q61 199 62 216T68 254L145 693H236L158 247Q152 211 152 183Q152 146 162 122T191 85T236 66T296 60Q334 60 362 68T412 98T447 153T471 239L551
693H635L553 225Q544 175 526 132T478 56T402 6T293 -12ZM460 835H546L530 746H444L460 835ZM286 835H372L356 746H270L286 835Z" />
<glyph unicode="&#xdd;" glyph-name="Yacute" horiz-adv-x="522" d="M221 275L83 693H174L281 353H284L500 693H593L312 272L264 0H173L221 275ZM382 865H485L388 740H309L382 865Z" />
<glyph unicode="&#xde;" glyph-name="Thorn" horiz-adv-x="531" d="M150 693H241L220 572H324Q422 572 475 526T529 392Q529 277 460 221T271 165H148L119 0H28L150 693ZM265 241Q353 241 392 273T432 385Q432 410 426 430T405 464T368 487T311 495H206L161 241H265Z" />
<glyph unicode="&#xdf;" glyph-name="germandbls" horiz-adv-x="544" d="M113 546Q122 596 143 633T196 696T268 735T352 748Q436 748 476 712T516 622Q516 588 503 561T470 512T427 471T384 435T351 401T337 366Q337 347 348 334T382 304L428 271Q464 245 483
216T503 144Q503 106 488 77T446 29T387 0T318 -10Q269 -10 240 -1T187 23L200 94Q228 80 252 72T315 64Q363 64 389 83T415 140Q415 160 403 177T367 211L325 241Q293 264 273 289T253 352Q253 394 280 426T341 487T401 545T429 611Q429 640 408 658T343 676Q287
676 250 643T200 538L71 -195H-17L113 546Z" />
<glyph unicode="&#xe0;" glyph-name="agrave" horiz-adv-x="508" d="M188 -10Q113 -10 69 34T24 167Q24 246 48 311T114 424T213 497T339 523Q389 523 430 515T488 500L400 0H329L328 50H323Q299 25 266 8T188 -10ZM208 61Q243 61 275 74T331 109L391 441Q375
447 362 450T329 453Q291 453 258 440T199 402T154 344T125 267Q119 243 116 220T113 170Q113 108 140 85T208 61ZM226 732H320L373 587H298L226 732Z" />
<glyph unicode="&#xe1;" glyph-name="aacute" horiz-adv-x="508" d="M188 -10Q113 -10 69 34T24 167Q24 246 48 311T114 424T213 497T339 523Q389 523 430 515T488 500L400 0H329L328 50H323Q299 25 266 8T188 -10ZM208 61Q243 61 275 74T331 109L391 441Q375
447 362 450T329 453Q291 453 258 440T199 402T154 344T125 267Q119 243 116 220T113 170Q113 108 140 85T208 61ZM371 732H473L363 587H285L371 732Z" />
<glyph unicode="&#xe2;" glyph-name="acircumflex" horiz-adv-x="508" d="M188 -10Q113 -10 69 34T24 167Q24 246 48 311T114 424T213 497T339 523Q389 523 430 515T488 500L400 0H329L328 50H323Q299 25 266 8T188 -10ZM208 61Q243 61 275 74T331 109L391 441Q375
447 362 450T329 453Q291 453 258 440T199 402T154 344T125 267Q119 243 116 220T113 170Q113 108 140 85T208 61ZM326 731H402L480 587H412L355 666L272 587H200L326 731Z" />
<glyph unicode="&#xe3;" glyph-name="atilde" horiz-adv-x="508" d="M188 -10Q113 -10 69 34T24 167Q24 246 48 311T114 424T213 497T339 523Q389 523 430 515T488 500L400 0H329L328 50H323Q299 25 266 8T188 -10ZM208 61Q243 61 275 74T331 109L391 441Q375
447 362 450T329 453Q291 453 258 440T199 402T154 344T125 267Q119 243 116 220T113 170Q113 108 140 85T208 61ZM200 604Q205 632 215 652T240 686T270 706T302 712Q318 712 332 707T360 695T384 683T407 677Q436 677 445 714H505Q500 685 490 665T465 632T435
612T403 606Q387 606 373 611T345 623T320 635T298 641Q269 641 260 604H200V604Z" />
<glyph unicode="&#xe4;" glyph-name="adieresis" horiz-adv-x="508" d="M188 -10Q113 -10 69 34T24 167Q24 246 48 311T114 424T213 497T339 523Q389 523 430 515T488 500L400 0H329L328 50H323Q299 25 266 8T188 -10ZM208 61Q243 61 275 74T331 109L391 441Q375
447 362 450T329 453Q291 453 258 440T199 402T154 344T125 267Q119 243 116 220T113 170Q113 108 140 85T208 61ZM398 704H484L468 615H382L398 704ZM228 704H314L298 615H212L228 704Z" />
<glyph unicode="&#xe5;" glyph-name="aring" horiz-adv-x="508" d="M188 -10Q113 -10 69 34T24 167Q24 246 48 311T114 424T213 497T339 523Q389 523 430 515T488 500L400 0H329L328 50H323Q299 25 266 8T188 -10ZM208 61Q243 61 275 74T331 109L391 441Q375 447
362 450T329 453Q291 453 258 440T199 402T154 344T125 267Q119 243 116 220T113 170Q113 108 140 85T208 61ZM342 576Q300 576 275 601T249 663Q249 682 256 700T277 731T309 752T348 760Q390 760 415 735T441 673Q441 653 434 635T413 604T381 584T342 576ZM343
618Q366 618 379 633T392 672Q392 693 381 705T348 718Q325 718 312 703T298 664Q298 642 310 630T343 618Z" />
<glyph unicode="&#xe6;" glyph-name="ae" horiz-adv-x="771" d="M152 -10Q88 -10 48 25T7 124Q7 193 51 234T185 286L324 301L330 334Q342 397 315 422T224 447Q186 447 155 442T99 432L110 495Q142 507 177 515T256 523Q316 523 353 503T405 440Q435 479 477
501T575 523Q671 523 718 461T744 281L735 231H401Q400 222 400 214T400 197Q400 123 432 95T531 66Q579 66 623 78T704 106L691 35Q665 19 620 5T519 -10Q456 -10 411 11T339 75Q306 41 261 16T152 -10ZM311 188Q311 200 311 212T313 236L197 225Q144 220 122
198T100 133Q100 95 120 77T175 58Q214 58 249 74T319 121Q311 153 311 188ZM415 302H656Q670 380 647 416T564 452Q536 452 514 442T474 415T443 374T421 322L415 302Z" />
<glyph unicode="&#xe7;" glyph-name="ccedilla" horiz-adv-x="416" d="M220 -10Q213 -10 207 -10T193 -8L187 -48Q227 -50 249 -67T271 -113Q271 -160 227 -185T79 -217L88 -165Q148 -160 172 -151T197 -121Q197 -93 122 -93L138 2Q80 22 51 70T22 189Q22 246
38 303T86 406Q125 463 181 493T312 523Q354 523 383 514T430 492L417 421Q398 431 373 439T309 448Q262 448 226 431T161 374Q135 336 123 291T110 195Q110 124 142 95T236 65Q284 65 318 79T375 104L362 31Q330 11 295 1T220 -10Z" />
<glyph unicode="&#xe8;" glyph-name="egrave" horiz-adv-x="483" d="M229 -10Q127 -10 75 42T22 191Q22 258 40 317T88 419Q123 468 172 495T286 523Q384 523 430 461T455 281L446 231H113Q112 222 112 214T111 197Q111 125 143 96T242 66Q290 66 334 78T415 106L402
35Q376 19 331 5T229 -10ZM158 380Q148 364 140 344T126 302H367Q381 380 358 416T275 452Q236 452 207 434T158 380ZM188 732H282L335 587H260L188 732Z" />
<glyph unicode="&#xe9;" glyph-name="eacute" horiz-adv-x="483" d="M598 732H700L590 587H512L598 732ZM229 -10Q127 -10 75 42T22 191Q22 258 40 317T88 419Q123 468 172 495T286 523Q384 523 430 461T455 281L446 231H113Q112 222 112 214T111 197Q111 125
143 96T242 66Q290 66 334 78T415 106L402 35Q376 19 331 5T229 -10ZM158 380Q148 364 140 344T126 302H367Q381 380 358 416T275 452Q236 452 207 434T158 380Z" />
<glyph unicode="&#xea;" glyph-name="ecircumflex" horiz-adv-x="483" d="M288 731H364L442 587H374L317 666L234 587H162L288 731ZM229 -10Q127 -10 75 42T22 191Q22 258 40 317T88 419Q123 468 172 495T286 523Q384 523 430 461T455 281L446 231H113Q112 222
112 214T111 197Q111 125 143 96T242 66Q290 66 334 78T415 106L402 35Q376 19 331 5T229 -10ZM158 380Q148 364 140 344T126 302H367Q381 380 358 416T275 452Q236 452 207 434T158 380Z" />
<glyph unicode="&#xeb;" glyph-name="edieresis" horiz-adv-x="483" d="M621 704H707L691 615H605L621 704ZM451 704H537L521 615H435L451 704ZM229 -10Q127 -10 75 42T22 191Q22 258 40 317T88 419Q123 468 172 495T286 523Q384 523 430 461T455 281L446 231H113Q112
222 112 214T111 197Q111 125 143 96T242 66Q290 66 334 78T415 106L402 35Q376 19 331 5T229 -10ZM158 380Q148 364 140 344T126 302H367Q381 380 358 416T275 452Q236 452 207 434T158 380Z" />
<glyph unicode="&#xec;" glyph-name="igrave" horiz-adv-x="218" d="M110 513H199L109 0H20L110 513ZM311 732H405L458 587H383L311 732Z" />
<glyph unicode="&#xed;" glyph-name="iacute" horiz-adv-x="218" d="M208 732H310L200 587H122L208 732ZM110 513H199L109 0H20L110 513Z" />
<glyph unicode="&#xee;" glyph-name="icircumflex" horiz-adv-x="218" d="M110 513H199L109 0H20L110 513ZM153 731H229L294 587H227L183 664L112 587H39L153 731Z" />
<glyph unicode="&#xef;" glyph-name="idieresis" horiz-adv-x="218" d="M218 704H304L288 615H202L218 704ZM68 704H154L138 615H52L68 704ZM110 513H199L109 0H20L110 513Z" />
<glyph unicode="&#xf0;" glyph-name="eth" horiz-adv-x="514" d="M281 654Q262 675 241 696T194 739H302Q316 726 330 713T358 684L467 727L486 674L395 638Q436 583 462 516T489 370Q489 286 472 216T421 96T337 18T219 -10Q173 -10 137 4T75 46T37 110T23 194Q23
257 39 316T89 421T171 495T286 523Q338 523 370 502H377Q367 530 353 556T319 608L187 557L167 610L281 654ZM402 355Q402 373 401 389T397 423Q376 437 350 444T283 452Q212 452 173 402T119 266Q117 252 114 231T111 195Q111 124 143 93T223 61Q259 61 287 76T337
116T372 177T393 252Q398 276 400 304T402 355Z" />
<glyph unicode="&#xf1;" glyph-name="ntilde" horiz-adv-x="522" d="M108 513H192L183 459H188Q230 490 272 506T362 523Q398 523 421 513T459 486T479 446T485 400Q485 389 484 379T481 359L418 0H330L391 346Q395 366 395 385Q395 417 379 432T324 447Q290 447
254 437T176 403L105 0H17L108 513ZM179 604Q184 632 194 652T219 686T249 706T281 712Q297 712 311 707T339 695T363 683T386 677Q415 677 424 714H484Q479 685 469 665T444 632T414 612T382 606Q366 606 352 611T324 623T299 635T277 641Q248 641 239 604H179V604Z"
/>
<glyph unicode="&#xf2;" glyph-name="ograve" horiz-adv-x="510" d="M218 -10Q125 -10 74 43T23 191Q23 255 40 314T92 420T176 495T293 523Q386 523 437 470T488 322Q488 259 471 199T420 93T336 18T218 -10ZM222 61Q258 61 286 75T336 114T371 174T393 252Q397
273 398 292T400 324Q400 393 369 422T289 452Q253 452 225 438T175 399T140 339T118 261Q111 227 111 189Q111 121 142 91T222 61ZM201 732H295L348 587H273L201 732Z" />
<glyph unicode="&#xf3;" glyph-name="oacute" horiz-adv-x="510" d="M607 732H709L599 587H521L607 732ZM218 -10Q125 -10 74 43T23 191Q23 255 40 314T92 420T176 495T293 523Q386 523 437 470T488 322Q488 259 471 199T420 93T336 18T218 -10ZM222 61Q258 61
286 75T336 114T371 174T393 252Q397 273 398 292T400 324Q400 393 369 422T289 452Q253 452 225 438T175 399T140 339T118 261Q111 227 111 189Q111 121 142 91T222 61Z" />
<glyph unicode="&#xf4;" glyph-name="ocircumflex" horiz-adv-x="510" d="M301 731H377L455 587H387L330 666L247 587H175L301 731ZM218 -10Q125 -10 74 43T23 191Q23 255 40 314T92 420T176 495T293 523Q386 523 437 470T488 322Q488 259 471 199T420 93T336
18T218 -10ZM222 61Q258 61 286 75T336 114T371 174T393 252Q397 273 398 292T400 324Q400 393 369 422T289 452Q253 452 225 438T175 399T140 339T118 261Q111 227 111 189Q111 121 142 91T222 61Z" />
<glyph unicode="&#xf5;" glyph-name="otilde" horiz-adv-x="510" d="M218 -10Q125 -10 74 43T23 191Q23 255 40 314T92 420T176 495T293 523Q386 523 437 470T488 322Q488 259 471 199T420 93T336 18T218 -10ZM222 61Q258 61 286 75T336 114T371 174T393 252Q397
273 398 292T400 324Q400 393 369 422T289 452Q253 452 225 438T175 399T140 339T118 261Q111 227 111 189Q111 121 142 91T222 61ZM175 604Q180 632 190 652T215 686T245 706T277 712Q293 712 307 707T335 695T359 683T382 677Q411 677 420 714H480Q475 685 465
665T440 632T410 612T378 606Q362 606 348 611T320 623T295 635T273 641Q244 641 235 604H175V604Z" />
<glyph unicode="&#xf6;" glyph-name="odieresis" horiz-adv-x="510" d="M377 704H463L447 615H361L377 704ZM207 704H293L277 615H191L207 704ZM218 -10Q125 -10 74 43T23 191Q23 255 40 314T92 420T176 495T293 523Q386 523 437 470T488 322Q488 259 471 199T420
93T336 18T218 -10ZM222 61Q258 61 286 75T336 114T371 174T393 252Q397 273 398 292T400 324Q400 393 369 422T289 452Q253 452 225 438T175 399T140 339T118 261Q111 227 111 189Q111 121 142 91T222 61Z" />
<glyph unicode="&#xf7;" glyph-name="divide" horiz-adv-x="516" d="M70 372H488L474 295H56L70 372ZM203 228H303L285 127H185L203 228ZM258 540H358L340 439H240L258 540Z" />
<glyph unicode="&#xf8;" glyph-name="oslash" horiz-adv-x="510" d="M218 -10Q132 -10 81 38L44 0H-38L45 86Q23 132 23 191Q23 255 40 314T92 420T176 495T293 523Q375 523 426 478L460 513H542L463 432Q488 384 488 322Q488 259 471 199T420 93T336 18T218 -10ZM222
61Q296 61 339 113T397 250Q401 271 402 291T404 323Q404 335 403 345T399 366L136 95Q167 61 222 61ZM107 190Q107 170 110 152L371 422Q341 452 289 452Q214 452 172 400T114 263Q107 229 107 190Z" />
<glyph unicode="&#xf9;" glyph-name="ugrave" horiz-adv-x="518" d="M165 -10Q106 -10 73 22T38 115Q38 126 39 137T42 162L104 513H192L131 167Q127 147 127 127Q127 97 141 82T193 66Q231 66 265 76T342 110L413 513H501L410 0H338L336 54H331Q290 23 253 7T165
-10ZM199 732H293L346 587H271L199 732Z" />
<glyph unicode="&#xfa;" glyph-name="uacute" horiz-adv-x="518" d="M609 732H711L601 587H523L609 732ZM165 -10Q106 -10 73 22T38 115Q38 126 39 137T42 162L104 513H192L131 167Q127 147 127 127Q127 97 141 82T193 66Q231 66 265 76T342 110L413 513H501L410
0H338L336 54H331Q290 23 253 7T165 -10Z" />
<glyph unicode="&#xfb;" glyph-name="ucircumflex" horiz-adv-x="518" d="M299 731H375L453 587H385L328 666L245 587H173L299 731ZM165 -10Q106 -10 73 22T38 115Q38 126 39 137T42 162L104 513H192L131 167Q127 147 127 127Q127 97 141 82T193 66Q231 66 265
76T342 110L413 513H501L410 0H338L336 54H331Q290 23 253 7T165 -10Z" />
<glyph unicode="&#xfc;" glyph-name="udieresis" horiz-adv-x="518" d="M375 704H461L445 615H359L375 704ZM205 704H291L275 615H189L205 704ZM165 -10Q106 -10 73 22T38 115Q38 126 39 137T42 162L104 513H192L131 167Q127 147 127 127Q127 97 141 82T193 66Q231
66 265 76T342 110L413 513H501L410 0H338L336 54H331Q290 23 253 7T165 -10Z" />
<glyph unicode="&#xfd;" glyph-name="yacute" horiz-adv-x="468" d="M4 -199Q-19 -199 -35 -194T-63 -182L-52 -119Q-42 -122 -30 -124T-3 -126Q32 -126 57 -107T109 -44L143 16L54 513H147L206 130H209L413 513H504L186 -61Q166 -97 147 -123T106 -166T60 -191T4
-199ZM581 732H683L573 587H495L581 732Z" />
<glyph unicode="&#xfe;" glyph-name="thorn" horiz-adv-x="520" d="M147 739H235L187 465H192Q223 487 260 505T350 523Q417 523 457 479T498 344Q498 273 483 209T435 97T347 19T215 -10Q181 -10 154 -5T107 9L71 -195H-17L147 739ZM215 61Q261 61 293 74T346
114T381 178T403 266Q406 283 407 300T408 332Q408 367 400 389T380 425T350 443T314 448Q274 448 239 435T176 403L119 78Q139 69 166 65T215 61Z" />
<glyph unicode="&#xff;" glyph-name="ydieresis" horiz-adv-x="468" d="M4 -199Q-19 -199 -35 -194T-63 -182L-52 -119Q-42 -122 -30 -124T-3 -126Q32 -126 57 -107T109 -44L143 16L54 513H147L206 130H209L413 513H504L186 -61Q166 -97 147 -123T106 -166T60
-191T4 -199ZM609 704H695L679 615H593L609 704ZM439 704H525L509 615H423L439 704Z" />
<glyph unicode="&#x100;" glyph-name="Amacron" horiz-adv-x="590" d="M346 693H441L538 0H444L419 195H159L54 0H-38L346 693ZM200 272H409L370 580H367L200 272ZM294 821H532L519 748H281L294 821Z" />
<glyph unicode="&#x101;" glyph-name="amacron" horiz-adv-x="508" d="M188 -10Q113 -10 69 34T24 167Q24 246 48 311T114 424T213 497T339 523Q389 523 430 515T488 500L400 0H329L328 50H323Q299 25 266 8T188 -10ZM208 61Q243 61 275 74T331 109L391 441Q375
447 362 450T329 453Q291 453 258 440T199 402T154 344T125 267Q119 243 116 220T113 170Q113 108 140 85T208 61ZM240 693H478L465 620H227L240 693Z" />
<glyph unicode="&#x102;" glyph-name="Abreve" horiz-adv-x="590" d="M346 693H441L538 0H444L419 195H159L54 0H-38L346 693ZM200 272H409L370 580H367L200 272ZM395 738Q338 738 306 773T278 864H345Q345 836 357 820T400 804Q430 804 448 820T475 864H542Q531
807 492 773T395 738Z" />
<glyph unicode="&#x103;" glyph-name="abreve" horiz-adv-x="508" d="M188 -10Q113 -10 69 34T24 167Q24 246 48 311T114 424T213 497T339 523Q389 523 430 515T488 500L400 0H329L328 50H323Q299 25 266 8T188 -10ZM208 61Q243 61 275 74T331 109L391 441Q375
447 362 450T329 453Q291 453 258 440T199 402T154 344T125 267Q119 243 116 220T113 170Q113 108 140 85T208 61ZM341 593Q284 593 252 628T224 719H291Q291 691 303 675T346 659Q376 659 394 675T421 719H488Q477 662 438 628T341 593Z" />
<glyph unicode="&#x104;" glyph-name="Aogonek" horiz-adv-x="590" d="M459 -200Q409 -200 385 -178T361 -120Q361 -101 368 -84T388 -53T414 -26T444 -5L419 195H159L54 0H-38L346 693H441L538 3Q522 -5 505 -17T474 -43T450 -74T440 -106Q440 -125 452 -132T483
-140Q495 -140 504 -139T519 -136L510 -190Q487 -200 459 -200ZM200 272H409L370 580H367L200 272Z" />
<glyph unicode="&#x105;" glyph-name="aogonek" horiz-adv-x="508" d="M325 -200Q275 -200 251 -178T227 -120Q227 -97 236 -78T260 -44T293 -18T329 3L328 50H323Q299 25 266 8T188 -10Q113 -10 69 34T24 167Q24 246 48 311T114 424T213 497T339 523Q389 523
430 515T488 500L400 0Q388 -8 372 -19T342 -45T317 -75T306 -108Q306 -125 318 -132T349 -140Q361 -140 370 -139T385 -136L376 -190Q353 -200 325 -200ZM208 61Q243 61 275 74T331 109L391 441Q375 447 362 450T329 453Q291 453 258 440T199 402T154 344T125
267Q119 243 116 220T113 170Q113 108 140 85T208 61Z" />
<glyph unicode="&#x106;" glyph-name="Cacute" horiz-adv-x="555" d="M297 -12Q176 -12 110 57T44 262Q44 335 63 405T116 533Q141 576 170 608T237 661T319 694T420 705Q483 705 520 693T585 660L572 585Q546 601 508 614T412 628Q338 628 284 597T194 493Q169
443 155 386T141 259Q141 203 153 166T188 106T241 74T310 65Q373 65 421 81T498 114L485 37Q455 15 403 2T297 -12ZM436 865H539L442 740H363L436 865Z" />
<glyph unicode="&#x107;" glyph-name="cacute" horiz-adv-x="416" d="M590 732H692L582 587H504L590 732ZM220 -10Q122 -10 72 43T22 189Q22 246 38 303T86 406Q125 463 181 493T312 523Q354 523 383 514T430 492L417 421Q398 431 373 439T309 448Q262 448 226
431T161 374Q135 336 123 291T110 195Q110 124 142 95T236 65Q284 65 318 79T375 104L362 31Q330 11 295 1T220 -10Z" />
<glyph unicode="&#x108;" glyph-name="Ccircumflex" horiz-adv-x="555" d="M391 864H463L541 740H474L420 801L342 740H271L391 864ZM297 -12Q176 -12 110 57T44 262Q44 335 63 405T116 533Q141 576 170 608T237 661T319 694T420 705Q483 705 520 693T585 660L572
585Q546 601 508 614T412 628Q338 628 284 597T194 493Q169 443 155 386T141 259Q141 203 153 166T188 106T241 74T310 65Q373 65 421 81T498 114L485 37Q455 15 403 2T297 -12Z" />
<glyph unicode="&#x109;" glyph-name="ccircumflex" horiz-adv-x="416" d="M531 731H607L685 587H617L560 666L477 587H405L531 731ZM220 -10Q122 -10 72 43T22 189Q22 246 38 303T86 406Q125 463 181 493T312 523Q354 523 383 514T430 492L417 421Q398 431 373
439T309 448Q262 448 226 431T161 374Q135 336 123 291T110 195Q110 124 142 95T236 65Q284 65 318 79T375 104L362 31Q330 11 295 1T220 -10Z" />
<glyph unicode="&#x10a;" glyph-name="Cdotaccent" horiz-adv-x="555" d="M297 -12Q176 -12 110 57T44 262Q44 335 63 405T116 533Q141 576 170 608T237 661T319 694T420 705Q483 705 520 693T585 660L572 585Q546 601 508 614T412 628Q338 628 284 597T194 493Q169
443 155 386T141 259Q141 203 153 166T188 106T241 74T310 65Q373 65 421 81T498 114L485 37Q455 15 403 2T297 -12ZM378 837H468L452 746H362L378 837Z" />
<glyph unicode="&#x10b;" glyph-name="cdotaccent" horiz-adv-x="416" d="M220 -10Q122 -10 72 43T22 189Q22 246 38 303T86 406Q125 463 181 493T312 523Q354 523 383 514T430 492L417 421Q398 431 373 439T309 448Q262 448 226 431T161 374Q135 336 123 291T110
195Q110 124 142 95T236 65Q284 65 318 79T375 104L362 31Q330 11 295 1T220 -10ZM522 706H612L596 615H506L522 706Z" />
<glyph unicode="&#x10c;" glyph-name="Ccaron" horiz-adv-x="555" d="M442 740H370L292 864H359L413 803L491 864H562L442 740ZM297 -12Q176 -12 110 57T44 262Q44 335 63 405T116 533Q141 576 170 608T237 661T319 694T420 705Q483 705 520 693T585 660L572 585Q546
601 508 614T412 628Q338 628 284 597T194 493Q169 443 155 386T141 259Q141 203 153 166T188 106T241 74T310 65Q373 65 421 81T498 114L485 37Q455 15 403 2T297 -12Z" />
<glyph unicode="&#x10d;" glyph-name="ccaron" horiz-adv-x="416" d="M432 731H500L557 652L640 731H712L586 587H510L432 731ZM220 -10Q122 -10 72 43T22 189Q22 246 38 303T86 406Q125 463 181 493T312 523Q354 523 383 514T430 492L417 421Q398 431 373 439T309
448Q262 448 226 431T161 374Q135 336 123 291T110 195Q110 124 142 95T236 65Q284 65 318 79T375 104L362 31Q330 11 295 1T220 -10Z" />
<glyph unicode="&#x10e;" glyph-name="Dcaron" horiz-adv-x="628" d="M411 740H339L261 864H328L382 803L460 864H531L411 740ZM150 693H339Q475 693 546 628T618 439Q618 338 595 257T527 119T412 31T250 0H28L150 693ZM256 77Q316 77 359 93T433 141T481 219T511
327Q516 359 518 386T521 439Q521 530 474 573T323 616H227L132 77H256Z" />
<glyph unicode="&#x10f;" glyph-name="dcaron" horiz-adv-x="518" d="M560 576L599 739H685L623 576H560ZM177 -10Q145 -10 117 0T68 32T35 85T23 159Q23 229 40 294T92 411T177 492T295 523Q342 523 368 513T411 492L454 739H542L412 0H340L338 52H333Q304 26
267 8T177 -10ZM205 61Q247 61 281 76T343 110L398 421Q378 433 354 441T304 449Q219 449 177 394T117 238Q114 221 113 203T112 170Q112 109 136 85T205 61Z" />
<glyph unicode="&#x110;" glyph-name="Dcroat" horiz-adv-x="628" d="M25 386H96L150 693H339Q475 693 546 628T618 439Q618 338 595 257T527 119T412 31T250 0H28L82 309H11L25 386ZM256 77Q316 77 359 93T433 141T481 219T511 327Q516 359 518 386T521 439Q521
530 474 573T323 616H227L186 386H373L359 309H173L132 77H256Z" />
<glyph unicode="&#x111;" glyph-name="dcroat" horiz-adv-x="521" d="M297 649H438L454 739H542L526 649H595L584 588H515L412 0H340L338 52H333Q304 26 267 8T177 -10Q145 -10 117 0T68 32T35 85T23 159Q23 229 40 294T92 411T177 492T295 523Q342 523 368 513T411
492L427 588H286L297 649ZM205 61Q247 61 281 76T343 110L398 421Q378 433 354 441T304 449Q219 449 177 394T117 238Q114 221 113 203T112 170Q112 109 136 85T205 61Z" />
<glyph unicode="&#x112;" glyph-name="Emacron" horiz-adv-x="523" d="M150 693H547L534 616H227L188 396H422L408 319H175L133 77H442L428 0H28L150 693ZM258 821H496L483 748H245L258 821Z" />
<glyph unicode="&#x113;" glyph-name="emacron" horiz-adv-x="483" d="M229 -10Q127 -10 75 42T22 191Q22 258 40 317T88 419Q123 468 172 495T286 523Q384 523 430 461T455 281L446 231H113Q112 222 112 214T111 197Q111 125 143 96T242 66Q290 66 334 78T415
106L402 35Q376 19 331 5T229 -10ZM158 380Q148 364 140 344T126 302H367Q381 380 358 416T275 452Q236 452 207 434T158 380ZM448 693H686L673 620H435L448 693Z" />
<glyph unicode="&#x114;" glyph-name="Ebreve" horiz-adv-x="523" d="M150 693H547L534 616H227L188 396H422L408 319H175L133 77H442L428 0H28L150 693ZM362 738Q305 738 273 773T245 864H312Q312 836 324 820T367 804Q397 804 415 820T442 864H509Q498 807 459
773T362 738Z" />
<glyph unicode="&#x115;" glyph-name="ebreve" horiz-adv-x="483" d="M229 -10Q127 -10 75 42T22 191Q22 258 40 317T88 419Q123 468 172 495T286 523Q384 523 430 461T455 281L446 231H113Q112 222 112 214T111 197Q111 125 143 96T242 66Q290 66 334 78T415
106L402 35Q376 19 331 5T229 -10ZM158 380Q148 364 140 344T126 302H367Q381 380 358 416T275 452Q236 452 207 434T158 380ZM560 593Q503 593 471 628T443 719H510Q510 691 522 675T565 659Q595 659 613 675T640 719H707Q696 662 657 628T560 593Z" />
<glyph unicode="&#x116;" glyph-name="Edotaccent" horiz-adv-x="523" d="M334 837H424L408 746H318L334 837ZM150 693H547L534 616H227L188 396H422L408 319H175L133 77H442L428 0H28L150 693Z" />
<glyph unicode="&#x117;" glyph-name="edotaccent" horiz-adv-x="483" d="M229 -10Q127 -10 75 42T22 191Q22 258 40 317T88 419Q123 468 172 495T286 523Q384 523 430 461T455 281L446 231H113Q112 222 112 214T111 197Q111 125 143 96T242 66Q290 66 334 78T415
106L402 35Q376 19 331 5T229 -10ZM158 380Q148 364 140 344T126 302H367Q381 380 358 416T275 452Q236 452 207 434T158 380ZM529 706H619L603 615H513L529 706Z" />
<glyph unicode="&#x118;" glyph-name="Eogonek" horiz-adv-x="523" d="M150 693H547L534 616H227L188 396H422L408 319H175L133 77H442L428 0H382Q370 -8 354 -19T324 -45T299 -75T288 -108Q288 -125 300 -132T331 -140Q343 -140 352 -139T367 -136L358 -190Q335
-200 307 -200Q257 -200 233 -178T209 -120Q209 -99 217 -81T238 -48T267 -21T300 0H28L150 693Z" />
<glyph unicode="&#x119;" glyph-name="eogonek" horiz-adv-x="483" d="M229 -10Q127 -10 75 42T22 191Q22 258 40 317T88 419Q123 468 172 495T286 523Q384 523 430 461T455 281L446 231H113Q112 222 112 214T111 197Q111 125 143 96T242 66Q290 66 334 78T415
106L402 35Q386 26 363 16T313 -9Q301 -16 287 -26T260 -49T238 -77T229 -108Q229 -125 241 -132T272 -140Q284 -140 293 -139T308 -136L299 -190Q276 -200 248 -200Q198 -200 174 -178T150 -120Q150 -80 174 -54T230 -10H229ZM158 380Q148 364 140 344T126 302H367Q381
380 358 416T275 452Q236 452 207 434T158 380Z" />
<glyph unicode="&#x11a;" glyph-name="Ecaron" horiz-adv-x="523" d="M398 740H326L248 864H315L369 803L447 864H518L398 740ZM150 693H547L534 616H227L188 396H422L408 319H175L133 77H442L428 0H28L150 693Z" />
<glyph unicode="&#x11b;" glyph-name="ecaron" horiz-adv-x="483" d="M435 731H503L560 652L643 731H715L589 587H513L435 731ZM229 -10Q127 -10 75 42T22 191Q22 258 40 317T88 419Q123 468 172 495T286 523Q384 523 430 461T455 281L446 231H113Q112 222 112
214T111 197Q111 125 143 96T242 66Q290 66 334 78T415 106L402 35Q376 19 331 5T229 -10ZM158 380Q148 364 140 344T126 302H367Q381 380 358 416T275 452Q236 452 207 434T158 380Z" />
<glyph unicode="&#x11c;" glyph-name="Gcircumflex" horiz-adv-x="622" d="M409 864H481L559 740H492L438 801L360 740H289L409 864ZM321 -12Q260 -12 210 4T123 54T66 138T46 258Q46 335 66 406T117 527Q176 624 256 664T441 705Q499 705 540 693T610 660L597
584Q571 600 528 613T434 627Q338 627 272 579T169 419Q155 374 150 337T144 257Q144 213 154 177T186 116T244 77T330 63Q361 63 390 67T443 79L477 264H343L356 340H581L526 26Q484 10 433 -1T321 -12Z" />
<glyph unicode="&#x11d;" glyph-name="gcircumflex" horiz-adv-x="516" d="M313 731H389L467 587H399L342 666L259 587H187L313 731ZM158 -199Q102 -199 54 -186T-18 -156L-7 -88Q2 -93 18 -99T56 -112T103 -123T154 -128Q197 -128 226 -119T275 -92T306 -50T322
6L333 70H328Q307 50 269 32T178 13Q146 13 118 23T69 55T36 109T24 187Q24 259 45 320T104 427T195 497T312 523Q374 523 415 512T494 482L408 -7Q400 -52 382 -87T334 -147T260 -185T158 -199ZM206 84Q248 84 282 99T344 132L397 433Q380 441 358 447T310 453Q230
453 184 401T120 261Q117 244 115 226T113 193Q113 132 137 108T206 84Z" />
<glyph unicode="&#x11e;" glyph-name="Gbreve" horiz-adv-x="622" d="M424 738Q367 738 335 773T307 864H374Q374 836 386 820T429 804Q459 804 477 820T504 864H571Q560 807 521 773T424 738ZM321 -12Q260 -12 210 4T123 54T66 138T46 258Q46 335 66 406T117
527Q176 624 256 664T441 705Q499 705 540 693T610 660L597 584Q571 600 528 613T434 627Q338 627 272 579T169 419Q155 374 150 337T144 257Q144 213 154 177T186 116T244 77T330 63Q361 63 390 67T443 79L477 264H343L356 340H581L526 26Q484 10 433 -1T321 -12Z"
/>
<glyph unicode="&#x11f;" glyph-name="gbreve" horiz-adv-x="516" d="M158 -199Q102 -199 54 -186T-18 -156L-7 -88Q2 -93 18 -99T56 -112T103 -123T154 -128Q197 -128 226 -119T275 -92T306 -50T322 6L333 70H328Q307 50 269 32T178 13Q146 13 118 23T69 55T36
109T24 187Q24 259 45 320T104 427T195 497T312 523Q374 523 415 512T494 482L408 -7Q400 -52 382 -87T334 -147T260 -185T158 -199ZM206 84Q248 84 282 99T344 132L397 433Q380 441 358 447T310 453Q230 453 184 401T120 261Q117 244 115 226T113 193Q113 132
137 108T206 84ZM327 593Q270 593 238 628T210 719H277Q277 691 289 675T332 659Q362 659 380 675T407 719H474Q463 662 424 628T327 593Z" />
<glyph unicode="&#x120;" glyph-name="Gdotaccent" horiz-adv-x="622" d="M396 837H486L470 746H380L396 837ZM321 -12Q260 -12 210 4T123 54T66 138T46 258Q46 335 66 406T117 527Q176 624 256 664T441 705Q499 705 540 693T610 660L597 584Q571 600 528 613T434
627Q338 627 272 579T169 419Q155 374 150 337T144 257Q144 213 154 177T186 116T244 77T330 63Q361 63 390 67T443 79L477 264H343L356 340H581L526 26Q484 10 433 -1T321 -12Z" />
<glyph unicode="&#x121;" glyph-name="gdotaccent" horiz-adv-x="516" d="M158 -199Q102 -199 54 -186T-18 -156L-7 -88Q2 -93 18 -99T56 -112T103 -123T154 -128Q197 -128 226 -119T275 -92T306 -50T322 6L333 70H328Q307 50 269 32T178 13Q146 13 118 23T69
55T36 109T24 187Q24 259 45 320T104 427T195 497T312 523Q374 523 415 512T494 482L408 -7Q400 -52 382 -87T334 -147T260 -185T158 -199ZM206 84Q248 84 282 99T344 132L397 433Q380 441 358 447T310 453Q230 453 184 401T120 261Q117 244 115 226T113 193Q113
132 137 108T206 84ZM302 706H392L376 615H286L302 706Z" />
<glyph unicode="&#x122;" glyph-name="Gcommaaccent" horiz-adv-x="622" d="M240 -42H336L271 -182H203L240 -42ZM321 -12Q260 -12 210 4T123 54T66 138T46 258Q46 335 66 406T117 527Q176 624 256 664T441 705Q499 705 540 693T610 660L597 584Q571 600 528 613T434
627Q338 627 272 579T169 419Q155 374 150 337T144 257Q144 213 154 177T186 116T244 77T330 63Q361 63 390 67T443 79L477 264H343L356 340H581L526 26Q484 10 433 -1T321 -12Z" />
<glyph unicode="&#x123;" glyph-name="gcommaaccent" horiz-adv-x="516" d="M391 606H292L363 746H428L391 606ZM158 -199Q102 -199 54 -186T-18 -156L-7 -88Q2 -93 18 -99T56 -112T103 -123T154 -128Q197 -128 226 -119T275 -92T306 -50T322 6L333 70H328Q307
50 269 32T178 13Q146 13 118 23T69 55T36 109T24 187Q24 259 45 320T104 427T195 497T312 523Q374 523 415 512T494 482L408 -7Q400 -52 382 -87T334 -147T260 -185T158 -199ZM206 84Q248 84 282 99T344 132L397 433Q380 441 358 447T310 453Q230 453 184 401T120
261Q117 244 115 226T113 193Q113 132 137 108T206 84Z" />
<glyph unicode="&#x124;" glyph-name="Hcircumflex" horiz-adv-x="642" d="M151 693H242L189 397H502L555 693H646L523 0H432L489 320H176L119 0H28L151 693ZM391 864H463L541 740H474L420 801L342 740H271L391 864Z" />
<glyph unicode="&#x125;" glyph-name="hcircumflex" horiz-adv-x="522" d="M150 739H238L190 463H195Q233 490 273 506T362 523Q398 523 421 513T459 486T479 446T485 400Q485 389 484 379T481 359L418 0H330L391 346Q395 366 395 385Q395 417 379 432T324 447Q290
447 254 437T176 403L105 0H17L150 739ZM335 914H407L485 790H418L364 851L286 790H215L335 914Z" />
<glyph unicode="&#x126;" glyph-name="Hbar" horiz-adv-x="671" d="M73 567H132L154 693H245L223 567H556L578 693H669L647 567H704L693 502H635L547 0H456L512 320H179L123 0H32L120 502H62L73 567ZM526 397L544 502H211L193 397H526Z" />
<glyph unicode="&#x127;" glyph-name="hbar" horiz-adv-x="522" d="M123 588H56L67 649H134L150 739H238L222 649H365L354 588H211L190 463H195Q233 490 273 506T362 523Q398 523 421 513T459 486T479 446T485 400Q485 389 484 379T481 359L418 0H330L391 346Q395
366 395 385Q395 417 379 432T324 447Q290 447 254 437T176 403L105 0H17L123 588Z" />
<glyph unicode="&#x128;" glyph-name="Itilde" horiz-adv-x="244" d="M154 693H245L122 0H31L154 693ZM323 745Q333 801 363 825T425 849Q441 849 455 844T483 834T507 823T530 818Q559 818 568 851H628Q618 795 588 771T526 747Q510 747 496 752T468 762T443
773T421 778Q392 778 383 745H323V745Z" />
<glyph unicode="&#x129;" glyph-name="itilde" horiz-adv-x="218" d="M34 604Q46 661 74 686T131 712Q147 712 161 707T187 695T208 683T227 677Q251 677 261 714H321Q309 657 282 632T225 606Q208 606 194 611T168 623T146 635T128 641Q104 641 94 604H34ZM110
513H199L109 0H20L110 513Z" />
<glyph unicode="&#x12a;" glyph-name="Imacron" horiz-adv-x="244" d="M154 693H245L122 0H31L154 693ZM126 821H316L303 748H113L126 821Z" />
<glyph unicode="&#x12b;" glyph-name="imacron" horiz-adv-x="218" d="M88 693H286L273 620H75L88 693ZM110 513H199L109 0H20L110 513Z" />
<glyph unicode="&#x12c;" glyph-name="Ibreve" horiz-adv-x="244" d="M154 693H245L122 0H31L154 693ZM208 738Q151 738 119 773T91 864H158Q158 836 170 820T213 804Q243 804 261 820T288 864H355Q344 807 305 773T208 738Z" />
<glyph unicode="&#x12d;" glyph-name="ibreve" horiz-adv-x="218" d="M175 593Q116 593 86 628T59 719H126Q125 691 138 675T177 659Q203 659 219 674T240 719H307Q300 662 265 628T175 593ZM110 513H199L109 0H20L110 513Z" />
<glyph unicode="&#x12e;" glyph-name="Iogonek" horiz-adv-x="244" d="M45 -200Q-5 -200 -29 -178T-53 -120Q-53 -99 -46 -83T-28 -52T-1 -27T30 -5L154 693H245L122 1Q109 -7 93 -18T61 -44T36 -75T26 -108Q26 -125 38 -132T69 -140Q81 -140 90 -139T105 -136L96
-190Q73 -200 45 -200Z" />
<glyph unicode="&#x12f;" glyph-name="iogonek" horiz-adv-x="218" d="M33 -200Q-15 -200 -38 -178T-62 -120Q-62 -80 -37 -52T19 -3L110 513H198L108 0Q96 -8 80 -19T50 -45T26 -75T16 -108Q16 -125 28 -132T57 -140Q68 -140 76 -139T90 -136L81 -190Q58 -200
33 -200ZM143 706H233L217 615H127L143 706Z" />
<glyph unicode="&#x130;" glyph-name="Idotaccent" horiz-adv-x="244" d="M154 693H245L122 0H31L154 693ZM436 837H526L510 746H420L436 837Z" />
<glyph unicode="&#x131;" glyph-name="dotlessi" horiz-adv-x="219" d="M110 513H199L109 0H20L110 513Z" />
<glyph unicode="&#x132;" glyph-name="IJ" horiz-adv-x="612" d="M154 693H245L122 0H31L154 693ZM336 -7Q294 -7 264 1T212 25L223 92Q244 83 267 77T329 71Q357 71 376 79T409 104T429 141T442 190L530 693H621L530 174Q523 133 509 100T472 43T415 6T336 -7Z" />
<glyph unicode="&#x133;" glyph-name="ij" horiz-adv-x="435" d="M110 513H198L108 0H20L110 513ZM143 706H233L217 615H127L143 706ZM155 -199Q133 -199 110 -194T72 -178L82 -119Q106 -128 138 -128Q183 -128 203 -107T231 -40L328 513H416L317 -50Q304 -125
265 -162T155 -199ZM361 706H450L434 615H345L361 706Z" />
<glyph unicode="&#x134;" glyph-name="Jcircumflex" horiz-adv-x="384" d="M338 864H410L488 740H421L367 801L289 740H218L338 864ZM106 -7Q62 -7 31 2T-22 26L-11 93Q10 84 35 78T99 71Q127 71 147 79T180 104T201 141T214 190L302 693H393L302 174Q295 133
281 100T244 43T187 6T106 -7Z" />
<glyph unicode="&#x135;" glyph-name="jcircumflex" horiz-adv-x="217" d="M155 731H231L296 587H229L185 664L114 587H41L155 731ZM-61 -199Q-83 -199 -106 -194T-144 -178L-134 -119Q-110 -128 -78 -128Q-33 -128 -13 -107T15 -40L112 513H201L102 -50Q76 -199
-61 -199Z" />
<glyph unicode="&#x136;" glyph-name="Kcommaaccent" horiz-adv-x="565" d="M203 -42H299L234 -182H166L203 -42ZM206 354L515 693H625L306 354L508 0H408L206 354ZM150 693H241L119 0H28L150 693Z" />
<glyph unicode="&#x137;" glyph-name="kcommaaccent" horiz-adv-x="472" d="M153 -42H249L184 -182H116L153 -42ZM147 739H235L105 0H17L147 739ZM177 267L391 513H492L271 266L417 0H320L177 267Z" />
<glyph unicode="&#x139;" glyph-name="Lacute" horiz-adv-x="470" d="M231 865H334L237 740H158L231 865ZM150 693H241L133 77H421L407 0H28L150 693Z" />
<glyph unicode="&#x13a;" glyph-name="lacute" horiz-adv-x="216" d="M490 915H593L496 790H417L490 915ZM149 739H237L107 0H19L149 739Z" />
<glyph unicode="&#x13b;" glyph-name="Lcommaaccent" horiz-adv-x="470" d="M166 -42H262L197 -182H129L166 -42ZM150 693H241L133 77H421L407 0H28L150 693Z" />
<glyph unicode="&#x13c;" glyph-name="lcommaaccent" horiz-adv-x="216" d="M10 -42H106L41 -182H-27L10 -42ZM149 739H237L107 0H19L149 739Z" />
<glyph unicode="&#x13d;" glyph-name="Lcaron" horiz-adv-x="470" d="M327 514L370 693H456L390 514H327ZM150 693H241L133 77H421L407 0H28L150 693Z" />
<glyph unicode="&#x13e;" glyph-name="lcaron" horiz-adv-x="216" d="M512 576L551 739H637L575 576H512ZM149 739H237L107 0H19L149 739Z" />
<glyph unicode="&#x13f;" glyph-name="Ldot" horiz-adv-x="470" d="M150 693H241L133 77H421L407 0H28L150 693ZM361 416H461L443 315H343L361 416Z" />
<glyph unicode="&#x140;" glyph-name="ldot" horiz-adv-x="287" d="M149 739H237L107 0H19L149 739ZM230 400H320L304 309H214L230 400Z" />
<glyph unicode="&#x141;" glyph-name="Lslash" horiz-adv-x="477" d="M78 247L-4 214L9 292L92 325L157 693H248L190 364L411 452L397 374L176 286L140 77H428L414 0H35L78 247Z" />
<glyph unicode="&#x142;" glyph-name="lslash" horiz-adv-x="242" d="M28 379L105 419L162 739H250L202 470L289 515L275 435L188 390L120 0H32L91 339L14 299L28 379Z" />
<glyph unicode="&#x143;" glyph-name="Nacute" horiz-adv-x="638" d="M443 865H546L449 740H370L443 865ZM150 693H262L460 148H463L559 693H642L520 0H421L215 574H212L111 0H28L150 693Z" />
<glyph unicode="&#x144;" glyph-name="nacute" horiz-adv-x="522" d="M362 732H464L354 587H276L362 732ZM108 513H192L183 459H188Q230 490 272 506T362 523Q398 523 421 513T459 486T479 446T485 400Q485 389 484 379T481 359L418 0H330L391 346Q395 366 395
385Q395 417 379 432T324 447Q290 447 254 437T176 403L105 0H17L108 513Z" />
<glyph unicode="&#x145;" glyph-name="Ncommaaccent" horiz-adv-x="638" d="M224 -42H320L255 -182H187L224 -42ZM150 693H262L460 148H463L559 693H642L520 0H421L215 574H212L111 0H28L150 693Z" />
<glyph unicode="&#x146;" glyph-name="ncommaaccent" horiz-adv-x="522" d="M170 -42H266L201 -182H133L170 -42ZM108 513H192L183 459H188Q230 490 272 506T362 523Q398 523 421 513T459 486T479 446T485 400Q485 389 484 379T481 359L418 0H330L391 346Q395
366 395 385Q395 417 379 432T324 447Q290 447 254 437T176 403L105 0H17L108 513Z" />
<glyph unicode="&#x147;" glyph-name="Ncaron" horiz-adv-x="638" d="M449 740H377L299 864H366L420 803L498 864H569L449 740ZM150 693H262L460 148H463L559 693H642L520 0H421L215 574H212L111 0H28L150 693Z" />
<glyph unicode="&#x148;" glyph-name="ncaron" horiz-adv-x="522" d="M200 731H268L325 652L408 731H480L354 587H278L200 731ZM108 513H192L183 459H188Q230 490 272 506T362 523Q398 523 421 513T459 486T479 446T485 400Q485 389 484 379T481 359L418 0H330L391
346Q395 366 395 385Q395 417 379 432T324 447Q290 447 254 437T176 403L105 0H17L108 513Z" />
<glyph unicode="&#x149;" glyph-name="napostrophe" horiz-adv-x="547" d="M311 693H408L346 508H269L311 693ZM133 513H217L208 459H213Q255 490 297 506T387 523Q423 523 446 513T484 486T504 446T510 400Q510 389 509 379T506 359L443 0H355L416 346Q420 366
420 385Q420 417 404 432T349 447Q315 447 279 437T201 403L130 0H42L133 513Z" />
<glyph unicode="&#x14a;" glyph-name="Eng" horiz-adv-x="638" d="M318 -177Q280 -177 257 -170T210 -149L222 -82Q242 -90 265 -95T318 -101Q362 -101 391 -81T432 -20L215 574H212L111 0H28L150 693H262L461 154H464L559 693H642L519 -6Q513 -42 499 -73T460
-127T400 -163T318 -177Z" />
<glyph unicode="&#x14b;" glyph-name="eng" horiz-adv-x="522" d="M108 513H192L183 459H188Q230 490 272 506T362 523Q398 523 421 513T459 486T479 446T485 400Q485 389 484 379T481 359L409 -50Q396 -125 357 -162T247 -199Q225 -199 202 -194T164 -178L174
-119Q198 -128 230 -128Q275 -128 295 -107T323 -40L391 346Q395 366 395 385Q395 417 379 432T324 447Q290 447 254 437T176 403L105 0H17L108 513Z" />
<glyph unicode="&#x14c;" glyph-name="Omacron" horiz-adv-x="665" d="M309 821H547L534 748H296L309 821ZM301 -11Q242 -11 195 7T114 60T62 145T44 259Q44 341 66 421T133 564T244 665T396 704Q454 704 501 686T583 633T635 548T654 434Q654 350 631 270T564
128T453 27T301 -11ZM307 63Q352 63 391 82T461 135T513 218T545 323Q551 358 554 384T557 439Q557 479 548 514T519 575T467 615T390 630Q299 630 237 561T152 370Q146 335 144 309T141 254Q141 165 180 114T307 63Z" />
<glyph unicode="&#x14d;" glyph-name="omacron" horiz-adv-x="510" d="M215 693H453L440 620H202L215 693ZM218 -10Q125 -10 74 43T23 191Q23 255 40 314T92 420T176 495T293 523Q386 523 437 470T488 322Q488 259 471 199T420 93T336 18T218 -10ZM222 61Q258
61 286 75T336 114T371 174T393 252Q397 273 398 292T400 324Q400 393 369 422T289 452Q253 452 225 438T175 399T140 339T118 261Q111 227 111 189Q111 121 142 91T222 61Z" />
<glyph unicode="&#x14e;" glyph-name="Obreve" horiz-adv-x="665" d="M418 738Q361 738 329 773T301 864H368Q368 836 380 820T423 804Q453 804 471 820T498 864H565Q554 807 515 773T418 738ZM301 -11Q242 -11 195 7T114 60T62 145T44 259Q44 341 66 421T133
564T244 665T396 704Q454 704 501 686T583 633T635 548T654 434Q654 350 631 270T564 128T453 27T301 -11ZM307 63Q352 63 391 82T461 135T513 218T545 323Q551 358 554 384T557 439Q557 479 548 514T519 575T467 615T390 630Q299 630 237 561T152 370Q146 335
144 309T141 254Q141 165 180 114T307 63Z" />
<glyph unicode="&#x14f;" glyph-name="obreve" horiz-adv-x="510" d="M218 -10Q125 -10 74 43T23 191Q23 255 40 314T92 420T176 495T293 523Q386 523 437 470T488 322Q488 259 471 199T420 93T336 18T218 -10ZM222 61Q258 61 286 75T336 114T371 174T393 252Q397
273 398 292T400 324Q400 393 369 422T289 452Q253 452 225 438T175 399T140 339T118 261Q111 227 111 189Q111 121 142 91T222 61ZM316 593Q259 593 227 628T199 719H266Q266 691 278 675T321 659Q351 659 369 675T396 719H463Q452 662 413 628T316 593Z" />
<glyph unicode="&#x150;" glyph-name="Ohungarumlaut" horiz-adv-x="665" d="M348 865H443L365 740H291L348 865ZM505 865H600L522 740H449L505 865ZM301 -11Q242 -11 195 7T114 60T62 145T44 259Q44 341 66 421T133 564T244 665T396 704Q454 704 501 686T583
633T635 548T654 434Q654 350 631 270T564 128T453 27T301 -11ZM307 63Q352 63 391 82T461 135T513 218T545 323Q551 358 554 384T557 439Q557 479 548 514T519 575T467 615T390 630Q299 630 237 561T152 370Q146 335 144 309T141 254Q141 165 180 114T307 63Z"
/>
<glyph unicode="&#x151;" glyph-name="ohungarumlaut" horiz-adv-x="510" d="M258 732H353L266 587H192L258 732ZM415 732H510L423 587H350L415 732ZM218 -10Q125 -10 74 43T23 191Q23 255 40 314T92 420T176 495T293 523Q386 523 437 470T488 322Q488 259 471
199T420 93T336 18T218 -10ZM222 61Q258 61 286 75T336 114T371 174T393 252Q397 273 398 292T400 324Q400 393 369 422T289 452Q253 452 225 438T175 399T140 339T118 261Q111 227 111 189Q111 121 142 91T222 61Z" />
<glyph unicode="&#x152;" glyph-name="OE" horiz-adv-x="914" d="M321 0Q185 0 114 65T42 254Q42 354 65 435T133 574T248 662T410 693H938L925 616H618L579 396H813L799 319H566L524 77H833L819 0H321ZM433 77L528 616H404Q344 616 301 600T227 552T178 474T149
366Q144 334 142 307T139 254Q139 163 186 120T337 77H433Z" />
<glyph unicode="&#x153;" glyph-name="oe" horiz-adv-x="853" d="M218 -10Q125 -10 74 44T23 194Q23 257 40 316T91 421T175 495T293 523Q362 523 402 494T460 409Q493 463 542 493T655 523Q753 523 799 461T824 281L815 231H481Q480 222 480 214T480 197Q480
125 512 94T611 63Q659 63 703 75T784 103L772 35Q746 19 701 5T599 -10Q528 -10 483 19T418 103Q387 52 338 21T218 -10ZM222 61Q258 61 286 75T336 114T371 174T393 252Q397 273 398 292T400 324Q400 393 369 422T289 452Q217 452 176 403T119 266Q117 252 114
231T111 195Q111 124 142 93T222 61ZM494 302H736Q750 380 727 416T644 452Q590 452 555 418T500 322L494 302Z" />
<glyph unicode="&#x154;" glyph-name="Racute" horiz-adv-x="557" d="M384 865H487L390 740H311L384 865ZM151 693H339Q433 693 487 647T541 519Q541 441 497 387T372 312V307L498 0H399L281 293H171L119 0H28L151 693ZM280 365Q365 365 404 404T443 513Q443 570
410 593T325 616H228L184 365H280Z" />
<glyph unicode="&#x155;" glyph-name="racute" horiz-adv-x="331" d="M557 732H659L549 587H471L557 732ZM107 513H191L181 457H186Q215 486 252 502T332 519Q342 519 351 518T363 515L349 437Q339 439 328 439T310 440Q238 440 176 403L105 0H17L107 513Z" />
<glyph unicode="&#x156;" glyph-name="Rcommaaccent" horiz-adv-x="557" d="M196 -42H292L227 -182H159L196 -42ZM151 693H339Q433 693 487 647T541 519Q541 441 497 387T372 312V307L498 0H399L281 293H171L119 0H28L151 693ZM280 365Q365 365 404 404T443 513Q443
570 410 593T325 616H228L184 365H280Z" />
<glyph unicode="&#x157;" glyph-name="rcommaaccent" horiz-adv-x="331" d="M7 -42H103L38 -182H-30L7 -42ZM107 513H191L181 457H186Q215 486 252 502T332 519Q342 519 351 518T363 515L349 437Q339 439 328 439T310 440Q238 440 176 403L105 0H17L107 513Z" />
<glyph unicode="&#x158;" glyph-name="Rcaron" horiz-adv-x="557" d="M390 740H318L240 864H307L361 803L439 864H510L390 740ZM151 693H339Q433 693 487 647T541 519Q541 441 497 387T372 312V307L498 0H399L281 293H171L119 0H28L151 693ZM280 365Q365 365 404
404T443 513Q443 570 410 593T325 616H228L184 365H280Z" />
<glyph unicode="&#x159;" glyph-name="rcaron" horiz-adv-x="331" d="M390 731H458L515 652L598 731H670L544 587H468L390 731ZM107 513H191L181 457H186Q215 486 252 502T332 519Q342 519 351 518T363 515L349 437Q339 439 328 439T310 440Q238 440 176 403L105
0H17L107 513Z" />
<glyph unicode="&#x15a;" glyph-name="Sacute" horiz-adv-x="475" d="M185 -12Q110 -12 63 5T-16 43L-3 120Q35 98 81 82T192 65Q271 65 306 101T341 207Q341 239 324 261T259 305L191 335Q137 359 109 397T81 500Q81 545 95 582T138 647T209 689T307 704Q345
704 372 700T420 689T456 674T485 658L471 582Q442 597 403 612T299 627Q235 627 202 597T169 503Q169 470 184 449T239 410L307 380Q369 353 400 316T432 212Q432 170 420 130T378 58T302 7T185 -12ZM604 865H707L610 740H531L604 865Z" />
<glyph unicode="&#x15b;" glyph-name="sacute" horiz-adv-x="409" d="M550 732H652L542 587H464L550 732ZM160 -9Q100 -9 62 4T-3 35L9 105Q37 91 71 78T161 65Q193 65 214 71T248 89T266 114T271 145Q271 168 256 184T203 216L156 235Q111 253 85 282T58 365Q58
440 106 481T243 522Q274 522 297 519T337 509T367 497T389 484L376 414Q356 425 322 437T236 449Q188 449 165 429T141 376Q141 349 154 335T200 307L247 288Q276 276 297 264T331 236T351 202T358 156Q358 122 348 92T313 40T252 4T160 -9Z" />
<glyph unicode="&#x15c;" glyph-name="Scircumflex" horiz-adv-x="475" d="M559 864H631L709 740H642L588 801L510 740H439L559 864ZM185 -12Q110 -12 63 5T-16 43L-3 120Q35 98 81 82T192 65Q271 65 306 101T341 207Q341 239 324 261T259 305L191 335Q137 359
109 397T81 500Q81 545 95 582T138 647T209 689T307 704Q345 704 372 700T420 689T456 674T485 658L471 582Q442 597 403 612T299 627Q235 627 202 597T169 503Q169 470 184 449T239 410L307 380Q369 353 400 316T432 212Q432 170 420 130T378 58T302 7T185 -12Z"
/>
<glyph unicode="&#x15d;" glyph-name="scircumflex" horiz-adv-x="409" d="M497 731H573L651 587H583L526 666L443 587H371L497 731ZM160 -9Q100 -9 62 4T-3 35L9 105Q37 91 71 78T161 65Q193 65 214 71T248 89T266 114T271 145Q271 168 256 184T203 216L156 235Q111
253 85 282T58 365Q58 440 106 481T243 522Q274 522 297 519T337 509T367 497T389 484L376 414Q356 425 322 437T236 449Q188 449 165 429T141 376Q141 349 154 335T200 307L247 288Q276 276 297 264T331 236T351 202T358 156Q358 122 348 92T313 40T252 4T160
-9Z" />
<glyph unicode="&#x15e;" glyph-name="Scedilla" horiz-adv-x="475" d="M84 -165Q144 -160 168 -151T193 -121Q193 -93 118 -93L132 -9Q81 -3 46 11T-16 43L-3 120Q35 98 81 82T192 65Q271 65 306 101T341 207Q341 239 324 261T259 305L191 335Q137 359 109 397T81
500Q81 545 95 582T138 647T209 689T307 704Q345 704 372 700T420 689T456 674T485 658L471 582Q442 597 403 612T299 627Q235 627 202 597T169 503Q169 470 184 449T239 410L307 380Q369 353 400 316T432 212Q432 170 420 131T379 60T304 9T189 -12L183 -48Q223
-50 245 -67T267 -113Q267 -160 223 -185T75 -217L84 -165Z" />
<glyph unicode="&#x15f;" glyph-name="scedilla" horiz-adv-x="409" d="M54 -165Q114 -160 138 -151T163 -121Q163 -93 88 -93L103 -5Q68 0 43 10T-3 35L9 105Q37 91 71 78T161 65Q193 65 214 71T248 89T266 114T271 145Q271 168 256 184T203 216L156 235Q111
253 85 282T58 365Q58 440 106 481T243 522Q274 522 297 519T337 509T367 497T389 484L376 414Q356 425 322 437T236 449Q188 449 165 429T141 376Q141 349 154 335T200 307L247 288Q276 276 297 264T331 236T351 202T358 156Q358 122 348 92T313 40T252 4T160
-9H159L153 -48Q193 -50 215 -67T237 -113Q237 -160 193 -185T45 -217L54 -165Z" />
<glyph unicode="&#x160;" glyph-name="Scaron" horiz-adv-x="475" d="M610 740H538L460 864H527L581 803L659 864H730L610 740ZM185 -12Q110 -12 63 5T-16 43L-3 120Q35 98 81 82T192 65Q271 65 306 101T341 207Q341 239 324 261T259 305L191 335Q137 359 109
397T81 500Q81 545 95 582T138 647T209 689T307 704Q345 704 372 700T420 689T456 674T485 658L471 582Q442 597 403 612T299 627Q235 627 202 597T169 503Q169 470 184 449T239 410L307 380Q369 353 400 316T432 212Q432 170 420 130T378 58T302 7T185 -12Z" />
<glyph unicode="&#x161;" glyph-name="scaron" horiz-adv-x="409" d="M385 731H453L510 652L593 731H665L539 587H463L385 731ZM160 -9Q100 -9 62 4T-3 35L9 105Q37 91 71 78T161 65Q193 65 214 71T248 89T266 114T271 145Q271 168 256 184T203 216L156 235Q111
253 85 282T58 365Q58 440 106 481T243 522Q274 522 297 519T337 509T367 497T389 484L376 414Q356 425 322 437T236 449Q188 449 165 429T141 376Q141 349 154 335T200 307L247 288Q276 276 297 264T331 236T351 202T358 156Q358 122 348 92T313 40T252 4T160
-9Z" />
<glyph unicode="&#x162;" glyph-name="Tcommaaccent" horiz-adv-x="511" d="M157 -42H253L188 -182H120L157 -42ZM274 616H79L92 693H573L560 616H365L256 0H165L274 616Z" />
<glyph unicode="&#x163;" glyph-name="tcommaaccent" horiz-adv-x="336" d="M361 -42H457L392 -182H324L361 -42ZM193 -6Q116 -6 88 36T71 144L124 440H51L63 513H136L158 635H246L224 513H349L337 440H212L159 146Q152 106 163 86T218 65Q235 65 251 67T285 74L274
15Q261 7 240 1T193 -6Z" />
<glyph unicode="&#x164;" glyph-name="Tcaron" horiz-adv-x="511" d="M377 740H305L227 864H294L348 803L426 864H497L377 740ZM274 616H79L92 693H573L560 616H365L256 0H165L274 616Z" />
<glyph unicode="&#x165;" glyph-name="tcaron" horiz-adv-x="336" d="M293 576L332 739H418L356 576H293ZM193 -6Q116 -6 88 36T71 144L124 440H51L63 513H136L158 635H246L224 513H349L337 440H212L159 146Q152 106 163 86T218 65Q235 65 251 67T285 74L274 15Q261
7 240 1T193 -6Z" />
<glyph unicode="&#x166;" glyph-name="Tbar" horiz-adv-x="511" d="M108 420H239L274 616H79L92 693H573L560 616H365L330 420H470L458 357H319L256 0H165L228 357H96L108 420Z" />
<glyph unicode="&#x167;" glyph-name="tbar" horiz-adv-x="336" d="M35 350H108L124 440H51L63 513H136L158 635H246L224 513H349L337 440H212L196 350H321L310 289H185L159 146Q152 106 163 86T218 65Q235 65 251 67T285 74L274 15Q261 7 240 1T193 -6Q116 -6
88 36T71 144L97 289H24L35 350Z" />
<glyph unicode="&#x168;" glyph-name="Utilde" horiz-adv-x="626" d="M293 -12Q245 -12 203 -3T129 28T79 88T61 182Q61 199 62 216T68 254L145 693H236L158 247Q152 211 152 183Q152 146 162 122T191 85T236 66T296 60Q334 60 362 68T412 98T447 153T471 239L551
693H635L553 225Q544 175 526 132T478 56T402 6T293 -12ZM258 745Q268 801 298 825T360 849Q376 849 390 844T418 834T442 823T465 818Q494 818 503 851H563Q553 795 523 771T461 747Q445 747 431 752T403 762T378 773T356 778Q327 778 318 745H258V745Z" />
<glyph unicode="&#x169;" glyph-name="utilde" horiz-adv-x="518" d="M165 -10Q106 -10 73 22T38 115Q38 126 39 137T42 162L104 513H192L131 167Q127 147 127 127Q127 97 141 82T193 66Q231 66 265 76T342 110L413 513H501L410 0H338L336 54H331Q290 23 253 7T165
-10ZM173 604Q178 632 188 652T213 686T243 706T275 712Q291 712 305 707T333 695T357 683T380 677Q409 677 418 714H478Q473 685 463 665T438 632T408 612T376 606Q360 606 346 611T318 623T293 635T271 641Q242 641 233 604H173V604Z" />
<glyph unicode="&#x16a;" glyph-name="Umacron" horiz-adv-x="626" d="M293 -12Q245 -12 203 -3T129 28T79 88T61 182Q61 199 62 216T68 254L145 693H236L158 247Q152 211 152 183Q152 146 162 122T191 85T236 66T296 60Q334 60 362 68T412 98T447 153T471 239L551
693H635L553 225Q544 175 526 132T478 56T402 6T293 -12ZM295 821H533L520 748H282L295 821Z" />
<glyph unicode="&#x16b;" glyph-name="umacron" horiz-adv-x="518" d="M165 -10Q106 -10 73 22T38 115Q38 126 39 137T42 162L104 513H192L131 167Q127 147 127 127Q127 97 141 82T193 66Q231 66 265 76T342 110L413 513H501L410 0H338L336 54H331Q290 23 253
7T165 -10ZM212 693H450L437 620H199L212 693Z" />
<glyph unicode="&#x16c;" glyph-name="Ubreve" horiz-adv-x="626" d="M293 -12Q245 -12 203 -3T129 28T79 88T61 182Q61 199 62 216T68 254L145 693H236L158 247Q152 211 152 183Q152 146 162 122T191 85T236 66T296 60Q334 60 362 68T412 98T447 153T471 239L551
693H635L553 225Q544 175 526 132T478 56T402 6T293 -12ZM399 738Q342 738 310 773T282 864H349Q349 836 361 820T404 804Q434 804 452 820T479 864H546Q535 807 496 773T399 738Z" />
<glyph unicode="&#x16d;" glyph-name="ubreve" horiz-adv-x="518" d="M165 -10Q106 -10 73 22T38 115Q38 126 39 137T42 162L104 513H192L131 167Q127 147 127 127Q127 97 141 82T193 66Q231 66 265 76T342 110L413 513H501L410 0H338L336 54H331Q290 23 253 7T165
-10ZM313 593Q256 593 224 628T196 719H263Q263 691 275 675T318 659Q348 659 366 675T393 719H460Q449 662 410 628T313 593Z" />
<glyph unicode="&#x16e;" glyph-name="Uring" horiz-adv-x="626" d="M293 -12Q245 -12 203 -3T129 28T79 88T61 182Q61 199 62 216T68 254L145 693H236L158 247Q152 211 152 183Q152 146 162 122T191 85T236 66T296 60Q334 60 362 68T412 98T447 153T471 239L551
693H635L553 225Q544 175 526 132T478 56T402 6T293 -12ZM405 966Q363 966 338 991T312 1053Q312 1072 319 1090T340 1121T372 1142T411 1150Q453 1150 478 1125T504 1063Q504 1043 497 1025T476 994T444 974T405 966ZM406 1008Q429 1008 442 1023T455 1062Q455
1083 444 1095T411 1108Q388 1108 375 1093T361 1054Q361 1032 373 1020T406 1008Z" />
<glyph unicode="&#x16f;" glyph-name="uring" horiz-adv-x="518" d="M324 576Q282 576 257 601T231 663Q231 682 238 700T259 731T291 752T330 760Q372 760 397 735T423 673Q423 653 416 635T395 604T363 584T324 576ZM325 618Q348 618 361 633T374 672Q374 693
363 705T330 718Q307 718 294 703T280 664Q280 642 292 630T325 618ZM165 -10Q106 -10 73 22T38 115Q38 126 39 137T42 162L104 513H192L131 167Q127 147 127 127Q127 97 141 82T193 66Q231 66 265 76T342 110L413 513H501L410 0H338L336 54H331Q290 23 253 7T165
-10Z" />
<glyph unicode="&#x170;" glyph-name="Uhungarumlaut" horiz-adv-x="626" d="M334 865H429L351 740H277L334 865ZM491 865H586L508 740H435L491 865ZM293 -12Q245 -12 203 -3T129 28T79 88T61 182Q61 199 62 216T68 254L145 693H236L158 247Q152 211 152 183Q152
146 162 122T191 85T236 66T296 60Q334 60 362 68T412 98T447 153T471 239L551 693H635L553 225Q544 175 526 132T478 56T402 6T293 -12Z" />
<glyph unicode="&#x171;" glyph-name="uhungarumlaut" horiz-adv-x="518" d="M165 -10Q106 -10 73 22T38 115Q38 126 39 137T42 162L104 513H192L131 167Q127 147 127 127Q127 97 141 82T193 66Q231 66 265 76T342 110L413 513H501L410 0H338L336 54H331Q290 23
253 7T165 -10ZM267 732H362L275 587H201L267 732ZM424 732H519L432 587H359L424 732Z" />
<glyph unicode="&#x172;" glyph-name="Uogonek" horiz-adv-x="626" d="M280 -200Q230 -200 206 -178T182 -120Q182 -100 189 -84T207 -54T234 -30T265 -11Q222 -8 185 3T121 36T77 94T61 182Q61 199 62 216T68 254L145 693H236L158 247Q152 211 152 183Q152 146
162 122T191 85T236 66T296 60Q334 60 362 68T412 98T447 153T471 239L551 693H635L553 225Q540 152 508 96T411 10Q389 0 363 -11T315 -35T277 -66T261 -108Q261 -125 273 -132T304 -140Q316 -140 325 -139T340 -136L331 -190Q308 -200 280 -200Z" />
<glyph unicode="&#x173;" glyph-name="uogonek" horiz-adv-x="518" d="M165 -10Q106 -10 73 22T38 115Q38 126 39 137T42 162L104 513H192L131 167Q127 147 127 127Q127 97 141 82T193 66Q231 66 265 76T342 110L413 513H501L410 0Q398 -8 382 -19T352 -45T327
-75T316 -108Q316 -125 328 -132T359 -140Q371 -140 380 -139T395 -136L386 -190Q363 -200 335 -200Q285 -200 261 -178T237 -120Q237 -97 246 -78T269 -44T302 -18T338 2L336 54H331Q290 23 253 7T165 -10Z" />
<glyph unicode="&#x174;" glyph-name="Wcircumflex" horiz-adv-x="842" d="M490 864H562L640 740H573L519 801L441 740H370L490 864ZM93 693H183L208 139H211L456 693H541L590 139H593L814 693H903L611 0H514L470 543H467L224 0H133L93 693Z" />
<glyph unicode="&#x175;" glyph-name="wcircumflex" horiz-adv-x="728" d="M408 731H484L562 587H494L437 666L354 587H282L408 731ZM57 513H148L167 113H171L368 513H451L480 113H484L674 513H761L503 0H411L381 378H377L189 0H98L57 513Z" />
<glyph unicode="&#x176;" glyph-name="Ycircumflex" horiz-adv-x="522" d="M221 275L83 693H174L281 353H284L500 693H593L312 272L264 0H173L221 275ZM337 864H409L487 740H420L366 801L288 740H217L337 864Z" />
<glyph unicode="&#x177;" glyph-name="ycircumflex" horiz-adv-x="468" d="M4 -199Q-19 -199 -35 -194T-63 -182L-52 -119Q-42 -122 -30 -124T-3 -126Q32 -126 57 -107T109 -44L143 16L54 513H147L206 130H209L413 513H504L186 -61Q166 -97 147 -123T106 -166T60
-191T4 -199ZM533 731H609L687 587H619L562 666L479 587H407L533 731Z" />
<glyph unicode="&#x178;" glyph-name="Ydieresis" horiz-adv-x="522" d="M221 275L83 693H174L281 353H284L500 693H593L312 272L264 0H173L221 275ZM413 835H499L483 746H397L413 835ZM239 835H325L309 746H223L239 835Z" />
<glyph unicode="&#x179;" glyph-name="Zacute" horiz-adv-x="511" d="M382 865H485L388 740H309L382 865ZM-6 69L438 613V616H113L126 693H563L551 625L104 80V77H448L434 0H-18L-6 69Z" />
<glyph unicode="&#x17a;" glyph-name="zacute" horiz-adv-x="419" d="M568 732H670L560 587H482L568 732ZM-1 65L312 438V441H74L86 513H434L423 450L107 75V72H361L348 0H-12L-1 65Z" />
<glyph unicode="&#x17b;" glyph-name="Zdotaccent" horiz-adv-x="511" d="M-6 69L438 613V616H113L126 693H563L551 625L104 80V77H448L434 0H-18L-6 69ZM324 837H414L398 746H308L324 837Z" />
<glyph unicode="&#x17c;" glyph-name="zdotaccent" horiz-adv-x="419" d="M-1 65L312 438V441H74L86 513H434L423 450L107 75V72H361L348 0H-12L-1 65ZM504 706H594L578 615H488L504 706Z" />
<glyph unicode="&#x17d;" glyph-name="Zcaron" horiz-adv-x="511" d="M384 740H312L234 864H301L355 803L433 864H504L384 740ZM-6 69L438 613V616H113L126 693H563L551 625L104 80V77H448L434 0H-18L-6 69Z" />
<glyph unicode="&#x17e;" glyph-name="zcaron" horiz-adv-x="419" d="M410 731H478L535 652L618 731H690L564 587H488L410 731ZM-1 65L312 438V441H74L86 513H434L423 450L107 75V72H361L348 0H-12L-1 65Z" />
<glyph unicode="&#x192;" glyph-name="florin" horiz-adv-x="400" d="M74 455H160L182 576Q190 624 207 656T247 709T300 739T365 748Q397 748 418 744T452 732L441 667Q427 672 415 673T380 675Q337 675 309 651T269 565L249 455H379L365 379H236L164 -28Q156
-72 141 -102T105 -150T58 -175T2 -183Q-27 -183 -48 -178T-81 -166L-70 -103Q-61 -105 -48 -107T-12 -110Q17 -110 42 -90T77 -19L147 379H60L74 455Z" />
<glyph unicode="&#x1fa;" glyph-name="Aringacute" horiz-adv-x="590" d="M346 693H441L538 0H444L419 195H159L54 0H-38L346 693ZM200 272H409L370 580H367L200 272ZM452 1061H555L458 936H379L452 1061ZM401 729Q359 729 334 754T308 816Q308 835 315 853T336
884T368 905T407 913Q449 913 474 888T500 826Q500 806 493 788T472 757T440 737T401 729ZM402 771Q425 771 438 786T451 825Q451 846 440 858T407 871Q384 871 371 856T357 817Q357 795 369 783T402 771Z" />
<glyph unicode="&#x1fb;" glyph-name="aringacute" horiz-adv-x="508" d="M188 -10Q113 -10 69 34T24 167Q24 246 48 311T114 424T213 497T339 523Q389 523 430 515T488 500L400 0H329L328 50H323Q299 25 266 8T188 -10ZM208 61Q243 61 275 74T331 109L391 441Q375
447 362 450T329 453Q291 453 258 440T199 402T154 344T125 267Q119 243 116 220T113 170Q113 108 140 85T208 61ZM342 576Q300 576 275 601T249 663Q249 682 256 700T277 731T309 752T348 760Q390 760 415 735T441 673Q441 653 434 635T413 604T381 584T342 576ZM343
618Q366 618 379 633T392 672Q392 693 381 705T348 718Q325 718 312 703T298 664Q298 642 310 630T343 618ZM399 930H502L405 805H326L399 930Z" />
<glyph unicode="&#x1fc;" glyph-name="AEacute" horiz-adv-x="869" d="M698 865H801L704 740H625L698 865ZM443 693H893L880 616H573L534 396H770L756 319H521L479 77H788L774 0H376L411 200H193L54 0H-43L443 693ZM425 277L485 618H481L247 277H425Z" />
<glyph unicode="&#x1fd;" glyph-name="aeacute" horiz-adv-x="771" d="M497 732H599L489 587H411L497 732ZM152 -10Q88 -10 48 25T7 124Q7 193 51 234T185 286L324 301L330 334Q342 397 315 422T224 447Q186 447 155 442T99 432L110 495Q142 507 177 515T256 523Q316
523 353 503T405 440Q435 479 477 501T575 523Q671 523 718 461T744 281L735 231H401Q400 222 400 214T400 197Q400 123 432 95T531 66Q579 66 623 78T704 106L691 35Q665 19 620 5T519 -10Q456 -10 411 11T339 75Q306 41 261 16T152 -10ZM311 188Q311 200 311
212T313 236L197 225Q144 220 122 198T100 133Q100 95 120 77T175 58Q214 58 249 74T319 121Q311 153 311 188ZM415 302H656Q670 380 647 416T564 452Q536 452 514 442T474 415T443 374T421 322L415 302Z" />
<glyph unicode="&#x1fe;" glyph-name="Oslashacute" horiz-adv-x="665" d="M301 -11Q244 -11 198 7T118 59L63 0H-25L79 112Q44 174 44 259Q44 341 66 421T133 564T244 665T396 704Q449 704 493 688T570 641L619 693H706L612 591Q632 559 643 519T654 434Q654
350 631 270T564 128T453 27T301 -11ZM307 63Q352 63 391 82T462 135T515 218T547 323Q553 358 556 384T559 439Q559 484 547 522L174 119Q194 92 226 78T307 63ZM139 254Q139 213 146 184L516 582Q496 605 465 617T390 630Q345 630 306 612T236 561T183 479T150
370Q144 335 142 309T139 254ZM443 865H546L449 740H370L443 865Z" />
<glyph unicode="&#x1ff;" glyph-name="oslashacute" horiz-adv-x="510" d="M218 -10Q132 -10 81 38L44 0H-38L45 86Q23 132 23 191Q23 255 40 314T92 420T176 495T293 523Q375 523 426 478L460 513H542L463 432Q488 384 488 322Q488 259 471 199T420 93T336 18T218
-10ZM222 61Q296 61 339 113T397 250Q401 271 402 291T404 323Q404 335 403 345T399 366L136 95Q167 61 222 61ZM107 190Q107 170 110 152L371 422Q341 452 289 452Q214 452 172 400T114 263Q107 229 107 190ZM355 732H457L347 587H269L355 732Z" />
<glyph unicode="&#x218;" glyph-name="Scommaaccent" horiz-adv-x="475" d="M390 -42H486L421 -182H353L390 -42ZM185 -12Q110 -12 63 5T-16 43L-3 120Q35 98 81 82T192 65Q271 65 306 101T341 207Q341 239 324 261T259 305L191 335Q137 359 109 397T81 500Q81
545 95 582T138 647T209 689T307 704Q345 704 372 700T420 689T456 674T485 658L471 582Q442 597 403 612T299 627Q235 627 202 597T169 503Q169 470 184 449T239 410L307 380Q369 353 400 316T432 212Q432 170 420 130T378 58T302 7T185 -12Z" />
<glyph unicode="&#x219;" glyph-name="scommaaccent" horiz-adv-x="409" d="M353 -42H449L384 -182H316L353 -42ZM160 -9Q100 -9 62 4T-3 35L9 105Q37 91 71 78T161 65Q193 65 214 71T248 89T266 114T271 145Q271 168 256 184T203 216L156 235Q111 253 85 282T58
365Q58 440 106 481T243 522Q274 522 297 519T337 509T367 497T389 484L376 414Q356 425 322 437T236 449Q188 449 165 429T141 376Q141 349 154 335T200 307L247 288Q276 276 297 264T331 236T351 202T358 156Q358 122 348 92T313 40T252 4T160 -9Z" />
<glyph unicode="&#x21a;" glyph-name="uni021A" horiz-adv-x="511" d="M157 -42H253L188 -182H120L157 -42ZM274 616H79L92 693H573L560 616H365L256 0H165L274 616Z" />
<glyph unicode="&#x21b;" glyph-name="uni021B" horiz-adv-x="336" d="M361 -42H457L392 -182H324L361 -42ZM193 -6Q116 -6 88 36T71 144L124 440H51L63 513H136L158 635H246L224 513H349L337 440H212L159 146Q152 106 163 86T218 65Q235 65 251 67T285 74L274
15Q261 7 240 1T193 -6Z" />
<glyph unicode="&#x237;" glyph-name="uni0237" horiz-adv-x="220" d="M-61 -199Q-83 -199 -106 -194T-144 -178L-134 -119Q-110 -128 -78 -128Q-33 -128 -13 -107T15 -40L112 513H201L102 -50Q76 -199 -61 -199Z" />
<glyph unicode="&#x2c6;" glyph-name="circumflex" horiz-adv-x="494" d="M288 731H364L442 587H374L317 666L234 587H162L288 731Z" />
<glyph unicode="&#x2c7;" glyph-name="caron" horiz-adv-x="494" d="M186 731H254L311 652L394 731H466L340 587H264L186 731Z" />
<glyph unicode="&#x2d8;" glyph-name="breve" horiz-adv-x="494" d="M312 593Q255 593 223 628T195 719H262Q262 691 274 675T317 659Q347 659 365 675T392 719H459Q448 662 409 628T312 593Z" />
<glyph unicode="&#x2d9;" glyph-name="dotaccent" horiz-adv-x="494" d="M281 706H371L355 615H265L281 706Z" />
<glyph unicode="&#x2da;" glyph-name="ring" horiz-adv-x="494" d="M316 576Q274 576 249 601T223 663Q223 682 230 700T251 731T283 752T322 760Q364 760 389 735T415 673Q415 653 408 635T387 604T355 584T316 576ZM317 618Q340 618 353 633T366 672Q366 693
355 705T322 718Q299 718 286 703T272 664Q272 642 284 630T317 618Z" />
<glyph unicode="&#x2db;" glyph-name="ogonek" horiz-adv-x="494" d="M202 -200Q152 -200 128 -178T104 -120Q104 -97 113 -79T136 -46T168 -20T204 0H277Q265 -8 249 -19T219 -45T194 -75T183 -108Q183 -125 195 -132T226 -140Q238 -140 247 -139T262 -136L253
-190Q230 -200 202 -200Z" />
<glyph unicode="&#x2dc;" glyph-name="tilde" horiz-adv-x="494" d="M166 604Q171 632 181 652T206 686T236 706T268 712Q284 712 298 707T326 695T350 683T373 677Q402 677 411 714H471Q466 685 456 665T431 632T401 612T369 606Q353 606 339 611T311 623T286
635T264 641Q235 641 226 604H166V604Z" />
<glyph unicode="&#x2dd;" glyph-name="hungarumlaut" horiz-adv-x="494" d="M245 732H340L253 587H179L245 732ZM402 732H497L410 587H337L402 732Z" />
</font>
</defs>
</svg>
