<?xml version="1.0" encoding="UTF-8" standalone="no"?>
		<svg width="181px" height="36px" viewBox="0 0 181 36" version="1.1" xmlns="http://www.w3.org/2000/svg" xmlns:xlink="http://www.w3.org/1999/xlink">
		    <g id="nm-logo" fill="#000000">
		        <path class="column" d="M9.43365696,16.8446602 C12.3171521,16.8446602 14.7734628,21.4368932 15.2006472,28.6990291 L15.3074434,28.6990291 C15.7346278,27.2038835 15.8414239,25.7087379 15.8414239,24.2135922 C15.8414239,18.9805825 13.3851133,14.2815534 10.0744337,14.2815534 C6.97734628,14.2815534 6.65695793,16.8446602 7.40453074,18.0194175 C7.72491909,17.592233 8.25889968,16.8446602 9.43365696,16.8446602 L9.43365696,16.8446602 Z M12.6375405,29.8737864 C12.7443366,29.2330097 12.8511327,28.6990291 12.8511327,27.7378641 C12.8511327,24.4271845 10.8220065,19.0873786 7.08414239,19.0873786 C4.20064725,19.0873786 3.77346278,21.8640777 4.73462783,22.7184466 C4.94822006,22.0776699 5.58899676,21.3300971 6.76375405,21.3300971 C9.86084142,21.3300971 12.1035599,26.1359223 12.6375405,29.8737864 L12.6375405,29.8737864 L12.6375405,29.8737864 Z M31.5404531,18.0194175 C31.8608414,17.592233 31.9676375,17.0582524 31.9676375,16.7378641 C31.9676375,15.4563107 30.7928803,14.2815534 29.0841424,14.2815534 C24.0647249,14.2815534 22.2491909,23.038835 23.6375405,28.6990291 L23.7443366,28.6990291 C24.2783172,21.0097087 26.7346278,16.8446602 29.5113269,16.8446602 C30.8996764,16.7378641 31.433657,17.6990291 31.5404531,18.0194175 L31.5404531,18.0194175 Z M31.7540453,19.1941748 C27.0550162,19.1941748 25.2394822,27.2038835 26.2006472,29.8737864 L26.3074434,29.8737864 C26.8414239,25.815534 29.0841424,21.3300971 31.9676375,21.3300971 C33.5695793,21.3300971 33.9967638,22.2912621 33.9967638,22.7184466 C35.0647249,21.7572816 34.4239482,19.1941748 31.7540453,19.1941748 L31.7540453,19.1941748 Z M20.3268608,32.6504854 C17.4433657,32.6504854 14.5598706,33.2912621 12.1035599,34.8932039 L12.1035599,35 C13.2783172,34.7864078 16.1618123,34.4660194 19.6860841,34.4660194 C23.5307443,34.4660194 24.9190939,35 25.5598706,35 C25.987055,35 26.2006472,34.7864078 26.2006472,34.3592233 C26.2006472,33.0776699 23.4239482,32.6504854 20.3268608,32.6504854 L20.3268608,32.6504854 Z M20.3268608,29.6601942 C17.8705502,29.6601942 14.5598706,30.3009709 12.1035599,31.9029126 L12.1035599,32.0097087 C13.0647249,31.9029126 16.2686084,31.4757282 19.7928803,31.4757282 C23.1035599,31.4757282 25.02589,32.0097087 25.5598706,32.0097087 C25.987055,32.0097087 26.2006472,31.7961165 26.2006472,31.368932 C26.2006472,30.0873786 23.4239482,29.6601942 20.3268608,29.6601942 L20.3268608,29.6601942 Z M31.5404531,10.5436893 C31.2200647,10.6504854 30.6860841,11.184466 30.6860841,11.9320388 C30.6860841,12.8932039 31.3268608,14.7087379 33.9967638,14.7087379 C36.7734628,14.7087379 38.5889968,12.6796117 38.5889968,9.90291262 C38.5889968,7.12621359 36.5598706,4.66990291 32.1812298,4.66990291 C26.9482201,4.66990291 20.2200647,9.36893204 20.2200647,20.6893204 C20.2200647,22.8252427 20.433657,25.1747573 20.9676375,27.7378641 L21.0744337,27.7378641 C21.0744337,13.8543689 26.3074434,7.23300971 31.9676375,7.23300971 C34.4239482,7.23300971 35.7055016,8.72815534 35.7055016,10.3300971 C35.7055016,11.8252427 34.8511327,12.8932039 33.4627832,12.8932039 C31.8608414,12.8932039 31.3268608,11.5048544 31.5404531,10.5436893 L31.5404531,10.5436893 Z M7.08414239,12.2524272 C6.87055016,12.5728155 6.22977346,13.1067961 5.1618123,13.1067961 C3.8802589,13.1067961 2.81229773,12.038835 2.81229773,10.5436893 C2.81229773,9.15533981 3.98705502,7.76699029 6.12297735,7.76699029 C11.4627832,7.76699029 17.763754,15.4563107 17.763754,25.1747573 C17.763754,25.815534 17.763754,26.8834951 17.6569579,27.7378641 L17.763754,27.7378641 C18.2977346,26.0291262 18.8317152,23.4660194 18.8317152,21.6504854 C18.8317152,13.1067961 12.9579288,4.88349515 6.12297735,4.88349515 C2.06472492,4.88349515 0.0355987055,7.55339806 0.0355987055,10.0097087 C0.0355987055,12.6796117 1.63754045,14.7087379 4.09385113,14.7087379 C6.01618123,14.7087379 7.08414239,13.3203883 7.08414239,12.2524272 L7.08414239,12.2524272 Z M6.33656958,2 C5.802589,2 5.48220065,2.32038835 5.48220065,2.6407767 C5.48220065,3.17475728 5.802589,3.38834951 6.4433657,3.60194175 C8.36569579,4.34951456 11.9967638,4.88349515 16.0550162,4.88349515 C23.3171521,4.88349515 30.7928803,3.81553398 33.9967638,2.53398058 L33.9967638,2.42718447 C31.3268608,2.6407767 26.7346278,2.96116505 19.3656958,2.96116505 C9.32686084,2.96116505 7.29773463,2 6.33656958,2 L6.33656958,2 Z M12.1035599,5.84466019 L12.1035599,5.84466019 C12.9579288,6.27184466 16.9093851,7.98058252 18.7249191,14.6019417 C18.8317152,15.0291262 19.0453074,15.1359223 19.2588997,15.1359223 C19.6860841,15.1359223 19.8996764,14.815534 19.8996764,14.2815534 C19.8996764,11.184466 18.1909385,8.51456311 16.802589,7.33980583 C15.2006472,6.05825243 13.2783172,5.73786408 12.1035599,5.84466019 L12.1035599,5.84466019 Z M21.9288026,6.80582524 C23.210356,5.52427184 25.02589,4.99029126 26.9482201,5.2038835 L26.9482201,5.31067961 C26.3074434,5.52427184 24.8122977,6.05825243 23.210356,7.66019417 C21.9288026,9.04854369 21.0744337,10.6504854 20.6472492,12.038835 C20.2200647,9.26213592 21.0744337,7.66019417 21.9288026,6.80582524 L21.9288026,6.80582524 Z"></path>
		        <path d="M45.8,3.4 L43.8,3.4 L43.8,2 L48.4,2 L48.4,3.4 L56.5,12.2 L56.5,3.4 L54.5,3.4 L54.5,2 L60.1,2 L60.1,3.4 L58.1,3.4 L58.1,16.3 L56.6,16.3 L47.4,6.3 L47.4,15 L49.3,15 L49.3,16.3 L43.8,16.3 L43.8,15 L45.8,15 L45.8,3.4 Z"></path>
		        <path d="M60.4,11.2 C60.4,13.4 61.9,16.6 66.1,16.6 C70.1,16.6 71.8,13.8 71.8,11.2 C71.8,8.5 69.9,5.8 66.1,5.8 C62.1,5.8 60.4,8.8 60.4,11.2 M63.5,11.2 C63.5,8.8 64.3,7 66.2,7 C67.9,7 68.8,8.6 68.8,11.4 C68.8,14 67.8,15.6 66.2,15.6 C64.5,15.5 63.5,13.9 63.5,11.2"></path>
		        <path d="M74.5,7.2 L72.7,7.2 L72.7,6.1 L77.2,6.1 L77.2,7.8 C77.6,7.2 78,6.7 78.4,6.3 C78.8,6 79.2,5.8 79.7,5.8 C80.2,5.8 80.9,6.2 81.3,6.8 C81.2,7.7 80.8,8.9 80.3,9.7 C79.7,8.6 79.3,8.2 78.6,8.2 C78,8.2 77.7,8.5 77.1,9.2 L77.1,15.2 L79,15.2 L79,16.3 L72.7,16.3 L72.7,15.2 L74.5,15.2 L74.5,7.2 L74.5,7.2 Z"></path>
		        <path d="M82.1,7.5 L86.4,3.4 L86.4,6.2 L89.3,6.2 L89.3,7.5 L86.4,7.5 L86.4,13.3 C86.4,14.6 86.9,15.5 87.8,15.5 C88.6,15.5 89.1,14.7 89.5,14.7 C89.7,14.7 89.8,14.8 89.8,15 C89.8,15.5 88.9,16.6 86.8,16.6 C84.7,16.6 83.7,15.5 83.7,13.2 L83.7,7.5 L82.1,7.5 L82.1,7.5 Z"></path>
		        <path d="M95.2,7.3 C96.5,6.4 97.8,5.8 98.8,5.8 C100.4,5.8 101.6,7.1 101.6,8.8 L101.6,15.2 L103.4,15.2 L103.4,16.3 L97.4,16.3 L97.4,15.2 L98.9,15.2 L98.9,9.4 C98.9,8.2 98.3,7.6 97.3,7.6 C96.7,7.6 96,7.9 95.1,8.4 L95.1,15.2 L96.6,15.2 L96.6,16.3 L90.6,16.3 L90.6,15.2 L92.4,15.2 L92.4,1.7 L90.6,1.7 L90.6,0.6 L95.2,0.6 L95.2,7.3 L95.2,7.3 Z"></path>
		        <path d="M102.7,7.2 L102.7,6.1 L108.3,6.1 L108.3,7.2 L106.9,7.2 L109.2,12.3 L111.1,7.2 L109.7,7.2 L109.7,6.1 L114.9,6.1 L114.9,7.2 L113.6,7.2 L115.9,12.3 L117.8,7.2 L116.2,7.2 L116.2,6.1 L120.4,6.1 L120.4,7.2 L119,7.2 L115.5,16.5 L114.9,16.5 L111.5,9.3 L108.8,16.5 L108.3,16.5 L104,7.2 L102.7,7.2 Z"></path>
		        <path d="M130.1,10.6 C129.8,7.7 128,5.9 125.4,5.9 C122.6,5.9 120.7,8 120.7,11.1 C120.7,13.5 122,16.7 126.2,16.7 C127.7,16.7 128.7,16.4 130.1,15.6 L130.3,14.3 C129.5,14.9 128.1,15.4 127.1,15.4 C125.1,15.4 123.7,13.5 123.7,10.7 L130.1,10.7 L130.1,10.6 Z M123.7,9.5 C123.7,8.2 124.3,7 125.4,7 C126.4,7 127.1,7.9 127.3,9.5 L123.7,9.5 L123.7,9.5 Z"></path>
		        <path d="M131.9,13.3 L132.6,13.3 C133,14.7 134,15.5 135.1,15.5 C135.9,15.5 136.5,15.1 136.5,14.3 C136.5,12.6 131.8,12.2 131.8,9 C131.8,7.2 133.3,5.9 135.3,5.9 C136,5.9 136.6,6.1 137.3,6.5 L137.5,6 L138.3,6 L138.3,8.7 L137.5,8.7 C137.1,7.5 136.6,7 135.6,7 C134.7,7 134.2,7.4 134.2,8 C134.2,10.1 139,10 139,13.5 C139,15.4 137.5,16.7 135.4,16.7 C134.5,16.7 133.7,16.5 132.9,16.1 L132.8,16.6 L132,16.6 L132,13.3 L131.9,13.3 Z"></path>
		        <path d="M139.7,7.5 L144,3.4 L144,6.2 L146.9,6.2 L146.9,7.5 L144,7.5 L144,13.3 C144,14.6 144.5,15.5 145.4,15.5 C146.2,15.5 146.7,14.7 147.1,14.7 C147.3,14.7 147.4,14.8 147.4,15 C147.4,15.5 146.5,16.6 144.4,16.6 C142.3,16.6 141.3,15.5 141.3,13.2 L141.3,7.5 L139.7,7.5 L139.7,7.5 Z"></path>
		        <path d="M157.1,10.6 C156.8,7.7 155,5.9 152.4,5.9 C149.6,5.9 147.7,8 147.7,11.1 C147.7,13.5 149,16.7 153.2,16.7 C154.7,16.7 155.7,16.4 157,15.6 L157.2,14.3 C156.4,14.9 155,15.4 153.9,15.4 C151.9,15.4 150.5,13.5 150.5,10.7 L157.1,10.7 L157.1,10.6 Z M150.7,9.5 C150.7,8.2 151.3,7 152.4,7 C153.4,7 154.1,7.9 154.3,9.5 L150.7,9.5 L150.7,9.5 Z"></path>
		        <path d="M160.2,7.2 L158.4,7.2 L158.4,6.1 L162.9,6.1 L162.9,7.8 C163.3,7.2 163.7,6.7 164.2,6.3 C164.6,6 165,5.8 165.5,5.8 C166,5.8 166.7,6.2 167.1,6.8 C167,7.7 166.6,8.9 166.1,9.7 C165.5,8.6 165.1,8.2 164.4,8.2 C163.8,8.2 163.5,8.5 162.9,9.2 L162.9,15.2 L164.7,15.2 L164.7,16.3 L158.4,16.3 L158.4,15.2 L160.2,15.2 L160.2,7.2 L160.2,7.2 Z"></path>
		        <path d="M170,7.2 L168.2,7.2 L168.2,6.1 L172.7,6.1 L172.7,7.3 C174.1,6.4 175,5.8 176.3,5.8 C178.1,5.8 179.1,7 179.1,8.9 L179.1,15.2 L180.9,15.2 L180.9,16.3 L174.9,16.3 L174.9,15.2 L176.4,15.2 L176.4,9.1 C176.4,8.1 175.7,7.5 174.9,7.5 C174.2,7.5 173.6,7.7 172.7,8.3 L172.7,15.2 L174.1,15.2 L174.1,16.3 L168.1,16.3 L168.1,15.2 L169.9,15.2 L169.9,7.2 L170,7.2 Z"></path>
		        <path d="M45.7,22.2 L43.8,22.2 L43.8,20.8 L49,20.8 L49,22.2 L53.1,30.6 L57.1,22.2 L57.1,20.8 L62.5,20.8 L62.5,22.2 L60.6,22.2 L60.6,33.8 L62.5,33.8 L62.5,35.1 L55.7,35.1 L55.7,33.8 L57.7,33.8 L57.7,24.8 L57.6,24.8 L52.7,35.1 L52.2,35.1 L47.4,25.2 L47.4,33.8 L49.3,33.8 L49.3,35.1 L43.8,35.1 L43.8,33.8 L45.7,33.8 L45.7,22.2 Z"></path>
		        <path d="M75.5,34 L75.5,35.1 L71,35.1 L71,34.1 C69.7,35 68.5,35.4 67.5,35.4 C65.3,35.4 64.6,34 64.6,32.5 L64.6,26 L62.7,26 L62.7,24.9 L67.2,24.9 L67.2,32.3 C67.2,33.3 67.7,33.9 68.6,33.9 C69.2,33.9 69.9,33.6 70.9,33 L70.9,25.9 L69.1,25.9 L69.1,24.8 L73.6,24.8 L73.6,33.9 L75.5,33.9 L75.5,34 Z"></path>
		        <path d="M75.7,26.3 L80,22.2 L80,25 L82.9,25 L82.9,26.3 L80,26.3 L80,32.1 C80,33.4 80.5,34.3 81.4,34.3 C82.2,34.3 82.7,33.5 83.1,33.5 C83.3,33.5 83.4,33.6 83.4,33.8 C83.4,34.3 82.5,35.4 80.4,35.4 C78.3,35.4 77.3,34.3 77.3,32 L77.3,26.3 L75.7,26.3 L75.7,26.3 Z"></path>
		        <path d="M96.5,34 L96.5,35.1 L92,35.1 L92,34.1 C90.7,35 89.5,35.4 88.5,35.4 C86.3,35.4 85.6,34 85.6,32.5 L85.6,26 L83.8,26 L83.8,24.9 L88.3,24.9 L88.3,32.3 C88.3,33.3 88.8,33.9 89.7,33.9 C90.3,33.9 91,33.6 92,33 L92,25.9 L90.2,25.9 L90.2,24.8 L94.7,24.8 L94.7,33.9 L96.5,33.9 L96.5,34 Z"></path>
		        <path d="M107.1,33.7 C106.8,33.8 106.6,33.9 106.3,33.9 C105.7,33.9 105.1,33.4 105.1,32.6 L105.1,28.1 C105.1,26.1 103.6,24.7 101.7,24.7 C100.4,24.7 98.8,25.4 97.6,26.5 L97.8,27.3 C99,26.6 99.9,26.3 100.6,26.3 C101.7,26.3 102.4,27 102.4,28.3 L102.4,29.5 L99.9,30.1 C98,30.6 97.2,31.4 97.2,32.7 C97.2,34.3 98.2,35.5 99.6,35.5 C100.5,35.5 101.4,35.1 102.6,34.2 C102.9,35 103.7,35.5 104.7,35.5 C105.5,35.5 106.3,35.3 107.1,34.8 L107.1,33.7 L107.1,33.7 Z M102.4,30.6 L102.4,33.1 C101.9,33.5 101.3,33.8 100.9,33.8 C100.3,33.8 99.8,33.2 99.8,32.6 C99.8,31.5 100.3,31 102.4,30.6 L102.4,30.6 Z"></path>
		        <path d="M109.6,20.5 L107.9,20.5 L107.9,19.4 L112.4,19.4 L112.4,34 L114.1,34 L114.1,35.1 L107.9,35.1 L107.9,34 L109.6,34 L109.6,20.5 Z"></path>
		        <path d="M116.2,21.1 L116.6,21.1 C116.7,21.1 117,21.1 117,20.8 C117,20.7 116.9,20.5 116.7,20.5 L116.2,20.5 L116.2,21.1 L116.2,21.1 Z M116.2,22.2 L115.8,22.2 L115.8,20.3 L116.7,20.3 C116.8,20.3 117.4,20.3 117.4,20.9 C117.4,21.3 117.1,21.4 117,21.4 L117.4,22.2 L117,22.2 L116.7,21.4 L116.2,21.4 L116.2,22.2 L116.2,22.2 Z M116.6,22.7 C117.4,22.7 118.1,22 118.1,21.2 C118.1,20.4 117.4,19.7 116.6,19.7 C115.8,19.7 115.1,20.4 115.1,21.2 C115.1,22.1 115.7,22.7 116.6,22.7 L116.6,22.7 Z M116.6,19.4 C117.6,19.4 118.4,20.2 118.4,21.2 C118.4,22.2 117.6,23 116.6,23 C115.6,23 114.8,22.2 114.8,21.2 C114.8,20.2 115.6,19.4 116.6,19.4 L116.6,19.4 Z"></path>
		    </g>
		</svg>